<?xml version="1.0" encoding="UTF-8" standalone="no"?>
<!DOCTYPE svg PUBLIC "-//W3C//DTD SVG 1.1//EN" "http://www.w3.org/Graphics/SVG/1.1/DTD/svg11.dtd">
<svg width="100%" height="100%" viewBox="0 0 33 33" version="1.1" xmlns="http://www.w3.org/2000/svg" xmlns:xlink="http://www.w3.org/1999/xlink" xml:space="preserve" xmlns:serif="http://www.serif.com/" style="fill-rule:evenodd;clip-rule:evenodd;stroke-linejoin:round;stroke-miterlimit:2;">
    <g transform="matrix(1,0,0,1,-211,-139)">
        <g id="_3b" serif:id="3b" transform="matrix(1.00465,0,0,1,109.687,139.053)">
            <rect x="101.787" y="0" width="31.852" height="32" style="fill:none;"/>
            <clipPath id="_clip1">
                <rect x="101.787" y="0" width="31.852" height="32"/>
            </clipPath>
            <g clip-path="url(#_clip1)">
                <g id="_3dcoat" serif:id="3dcoat" transform="matrix(0.225242,0,0,0.226289,54.9173,-44.4063)">
                    <ellipse id="path210" cx="278.872" cy="267.017" rx="69.27" ry="67.827" style="fill:rgb(255,209,1);"/>
                    <path id="path1281" d="M278.748,331.691C244.25,331.591 215.266,304.629 214.152,270.212C214.031,266.464 215.791,264.273 218.095,263.776C221.268,263.093 223.366,264.628 224.475,267.514C225.721,270.76 226.746,273.197 229.592,273.01C230.473,272.952 231.125,272.73 231.614,272.326C232.957,271.215 232.999,269.029 233.168,267.461C233.825,261.33 236.617,255.887 244.069,255.696C251.72,255.5 255.427,260.98 256.229,270.631C256.607,275.186 256.316,286.113 256.116,292.362C256.051,294.37 255.646,298.074 255.756,299.495C256.049,303.297 258.146,304.564 260.167,304.494C262.703,304.405 264.176,302.325 264.233,299.917C264.286,297.656 263.824,294.664 263.418,292.243C262.749,288.249 262.045,282.891 261.702,277.795C261.17,269.893 260.842,264.022 262.763,256.917C264.627,250.02 269.784,245.635 276.833,245.734C291.467,245.94 293.925,264.726 292.148,275.41C291.764,277.712 291.578,280.296 293.447,281.768C294.41,282.526 297.251,282.752 298.301,279.937C299.404,276.979 297.367,272.014 298.146,266.413C298.895,261.041 306.073,261.309 307.647,266.763C309.136,271.922 309.037,278.107 308.446,283.207C308.087,286.311 307.08,290.467 310.246,292.362C311.319,293.004 312.375,293.084 313.196,292.674C314.538,292.003 314.68,289.878 314.733,288.767C314.999,283.26 313.605,276.66 313.72,270.951C313.89,262.537 316.436,255.118 324.563,254.802C332.506,254.494 334.174,260.958 334.677,265.177C335.146,269.117 335.314,270.826 336.861,270.929C340.768,271.189 337.735,263.742 341.427,263.827C343.075,263.865 343.344,265.671 343.344,267.113C343.352,302.601 314.546,331.591 278.748,331.691ZM313.246,205.234C302.747,199.336 290.847,196.237 278.748,196.237C261.148,196.237 244.15,202.835 231.151,214.831C225.451,219.829 220.651,225.827 217.052,232.524C198.052,266.613 210.252,309.698 244.35,328.692C278.448,347.686 321.545,335.489 340.544,301.401C359.543,267.313 347.344,224.228 313.246,205.234Z" style="fill:rgb(0,94,184);fill-rule:nonzero;"/>
                </g>
            </g>
        </g>
    </g>
</svg>
