<?xml version="1.0" encoding="UTF-8" standalone="no"?><!DOCTYPE svg PUBLIC "-//W3C//DTD SVG 1.1//EN" "http://www.w3.org/Graphics/SVG/1.1/DTD/svg11.dtd"><svg width="100%" height="100%" viewBox="0 0 8 8" version="1.1" xmlns="http://www.w3.org/2000/svg" xmlns:xlink="http://www.w3.org/1999/xlink" xml:space="preserve" xmlns:serif="http://www.serif.com/" style="fill-rule:evenodd;clip-rule:evenodd;stroke-linejoin:round;stroke-miterlimit:2;"><rect id="aep" x="0.077" y="0" width="7.68" height="7.68" style="fill:none;"/><path d="M7.757,1.472l-0,4.736c-0,0.742 -0.603,1.344 -1.344,1.344l-4.992,-0c-0.742,-0 -1.344,-0.602 -1.344,-1.344l-0,-4.736c-0,-0.742 0.602,-1.344 1.344,-1.344l4.992,0c0.741,0 1.344,0.602 1.344,1.344Z" style="fill:#00005b;"/><path d="M3.302,4.736l-1.145,-0l-0.296,0.854c-0.003,0.028 -0.021,0.042 -0.054,0.042l-0.537,-0c-0.036,-0 -0.048,-0.018 -0.038,-0.053l1.038,-3.081c0.029,-0.094 0.044,-0.192 0.043,-0.29c-0,-0.001 -0,-0.003 -0,-0.004c-0,-0.015 0.012,-0.028 0.028,-0.028c0.001,-0 0.003,-0 0.004,0l0.752,0c0.022,0 0.035,0.009 0.038,0.026l1.161,3.383c0.011,0.032 0.002,0.047 -0.027,0.047l-0.602,-0c-0.022,0.001 -0.044,-0.011 -0.053,-0.032l-0.312,-0.864Zm-1.017,-0.576l0.892,0c-0.022,-0.047 -0.423,-1.342 -0.452,-1.451l-0.005,0l-0.435,1.451Zm3.729,0.336l-0.948,-0c0.003,0.221 0.066,0.396 0.186,0.524c0.121,0.129 0.302,0.193 0.544,0.192c0.203,0.004 0.404,-0.035 0.591,-0.114c0.021,-0.014 0.032,-0.007 0.032,0.021l-0,0.379c-0,0.025 -0.012,0.048 -0.032,0.063c-0.196,0.09 -0.438,0.135 -0.725,0.135c-0.425,-0 -0.737,-0.122 -0.935,-0.366c-0.199,-0.245 -0.299,-0.55 -0.298,-0.918c-0,-0.381 0.103,-0.7 0.31,-0.956c0.207,-0.256 0.491,-0.384 0.85,-0.384c0.342,0 0.596,0.106 0.764,0.317c0.168,0.211 0.256,0.474 0.252,0.743c0.003,0.101 -0.004,0.202 -0.021,0.301c-0.002,0.022 -0.019,0.04 -0.041,0.042c-0.09,0.014 -0.267,0.021 -0.529,0.021Zm-0.948,-0.4l0.684,0c0.149,0 0.234,-0.004 0.254,-0.011c0.004,-0.024 0.006,-0.048 0.005,-0.072c0.001,-0.125 -0.035,-0.248 -0.104,-0.352c-0.069,-0.104 -0.181,-0.156 -0.337,-0.156c-0.151,-0 -0.269,0.055 -0.352,0.166c-0.088,0.125 -0.14,0.272 -0.15,0.425Z" style="fill:#99f;fill-rule:nonzero;"/></svg>