<?xml version="1.0" encoding="UTF-8" standalone="no"?><!DOCTYPE svg PUBLIC "-//W3C//DTD SVG 1.1//EN" "http://www.w3.org/Graphics/SVG/1.1/DTD/svg11.dtd"><svg width="100%" height="100%" viewBox="0 0 8 8" version="1.1" xmlns="http://www.w3.org/2000/svg" xmlns:xlink="http://www.w3.org/1999/xlink" xml:space="preserve" xmlns:serif="http://www.serif.com/" style="fill-rule:evenodd;clip-rule:evenodd;stroke-linejoin:round;stroke-miterlimit:2;"><rect id="afdesign" x="0.125" y="0.059" width="7.68" height="7.68" style="fill:none;"/><clipPath id="_clip1"><rect x="0.125" y="0.059" width="7.68" height="7.68"/></clipPath><g clip-path="url(#_clip1)"><g><path d="M7.792,0.809c0,-0.414 -0.336,-0.75 -0.75,-0.75l-6.18,-0c-0.414,-0 -0.75,0.336 -0.75,0.75l0,6.18c0,0.414 0.336,0.75 0.75,0.75l6.18,-0c0.414,-0 0.75,-0.336 0.75,-0.75l0,-6.18Z" style="fill:#134881;"/><path d="M7.23,6.879c-0.001,0.164 -0.135,0.297 -0.3,0.297l-3.028,0l-1.294,-2.241l4.622,-0l-0,1.944Zm-6.555,-0.003l-0,-1.316l2.851,-4.939l1.115,0l-2.409,4.173l1.375,2.382l-2.632,0c-0.166,0 -0.3,-0.134 -0.3,-0.3Zm3.654,-2.197l-1.127,0c-0.126,0 -0.242,-0.066 -0.305,-0.175c-0.063,-0.109 -0.063,-0.243 0,-0.352l0.564,-0.976l0.868,1.503Zm2.601,-4.058c0.165,0 0.299,0.133 0.3,0.298l-0,3.76l-2.606,0l-1.016,-1.759l1.328,-2.299l1.994,0Z" style="fill:url(#_Radial2);"/></g></g><defs><radialGradient id="_Radial2" cx="0" cy="0" r="1" gradientUnits="userSpaceOnUse" gradientTransform="matrix(7.78695,0,0,7.78695,5.68512,-0.610754)"><stop offset="0" style="stop-color:#6be1fb;stop-opacity:1"/><stop offset="1" style="stop-color:#38bdfa;stop-opacity:1"/></radialGradient></defs></svg>