<?xml version="1.0" encoding="UTF-8" standalone="no"?><!DOCTYPE svg PUBLIC "-//W3C//DTD SVG 1.1//EN" "http://www.w3.org/Graphics/SVG/1.1/DTD/svg11.dtd"><svg width="100%" height="100%" viewBox="0 0 8 8" version="1.1" xmlns="http://www.w3.org/2000/svg" xmlns:xlink="http://www.w3.org/1999/xlink" xml:space="preserve" xmlns:serif="http://www.serif.com/" style="fill-rule:evenodd;clip-rule:evenodd;stroke-linejoin:round;stroke-miterlimit:2;"><rect id="afphoto" x="0.125" y="0.059" width="7.68" height="7.68" style="fill:none;"/><clipPath id="_clip1"><rect x="0.125" y="0.059" width="7.68" height="7.68"/></clipPath><g clip-path="url(#_clip1)"><path d="M7.805,0.809c-0,-0.414 -0.336,-0.75 -0.75,-0.75l-6.18,-0c-0.414,-0 -0.75,0.336 -0.75,0.75l-0,6.18c-0,0.414 0.336,0.75 0.75,0.75l6.18,-0c0.414,-0 0.75,-0.336 0.75,-0.75l-0,-6.18Z" style="fill:#4e3188;"/><path d="M7.242,4.934l0,1.942c0,0.164 -0.131,0.297 -0.294,0.3l-1.983,0l-1.295,-2.242l3.572,0Zm-2.572,2.242l-3.508,0l1.755,-3.035l1.753,3.035Zm-3.79,-0.02c-0.106,-0.04 -0.183,-0.139 -0.192,-0.258l-0.001,-1.338l1.427,-2.469l1.114,-0l-2.348,4.065Zm3.368,-4.07c0.097,0 0.19,0.057 0.24,0.142c0.001,0.001 0.002,0.003 0.002,0.003l0.294,0.51l0.003,0.004c0.048,0.084 0.05,0.191 0.002,0.276c-0.099,0.173 -0.199,0.345 -0.299,0.518c-0.049,0.083 -0.141,0.138 -0.24,0.139c-0.187,0.001 -0.564,0.001 -0.564,0.001c-0.098,-0.001 -0.192,-0.052 -0.242,-0.137c-0.001,-0.002 -0.003,-0.006 -0.003,-0.006c-0,0 -0.295,-0.51 -0.296,-0.511c-0.048,-0.084 -0.048,-0.193 0,-0.279c0.001,-0.001 0.002,-0.004 0.002,-0.004c0,0 0.198,-0.342 0.296,-0.513c0.049,-0.084 0.142,-0.142 0.24,-0.143c0.002,-0 0.005,-0 0.005,-0l0.557,-0l0.003,-0Zm2.791,-2.449l-2.334,4.042l2.537,-0l0,-3.758c0,-0.132 -0.085,-0.244 -0.203,-0.284Zm-3.499,-0.016l3.213,0l-1.738,3.009l-1.606,-2.782l0.131,-0.227Zm0.721,2.214l-2,0l1,-1.731l1,1.731Z" style="fill:url(#_Radial2);"/></g><defs><radialGradient id="_Radial2" cx="0" cy="0" r="1" gradientUnits="userSpaceOnUse" gradientTransform="matrix(7.78687,0,0,7.78695,5.69752,-0.610792)"><stop offset="0" style="stop-color:#f9a6ff;stop-opacity:1"/><stop offset="1" style="stop-color:#ea73ff;stop-opacity:1"/></radialGradient></defs></svg>