<?xml version="1.0" encoding="UTF-8" standalone="no"?><!DOCTYPE svg PUBLIC "-//W3C//DTD SVG 1.1//EN" "http://www.w3.org/Graphics/SVG/1.1/DTD/svg11.dtd"><svg width="100%" height="100%" viewBox="0 0 8 8" version="1.1" xmlns="http://www.w3.org/2000/svg" xmlns:xlink="http://www.w3.org/1999/xlink" xml:space="preserve" xmlns:serif="http://www.serif.com/" style="fill-rule:evenodd;clip-rule:evenodd;stroke-linejoin:round;stroke-miterlimit:2;"><rect id="afpub" x="0.056" y="0.236" width="7.68" height="7.68" style="fill:none;"/><clipPath id="_clip1"><rect x="0.056" y="0.236" width="7.68" height="7.68"/></clipPath><g clip-path="url(#_clip1)"><path d="M7.736,0.986c-0,-0.414 -0.336,-0.75 -0.75,-0.75l-6.18,0c-0.414,0 -0.75,0.336 -0.75,0.75l-0,6.18c-0,0.414 0.336,0.75 0.75,0.75l6.18,0c0.414,0 0.75,-0.336 0.75,-0.75l-0,-6.18Z" style="fill:#891b26;"/><path d="M3.552,7.354l-1.934,-3.348l-1,1.731l0,1.317c0,0.165 0.135,0.3 0.3,0.3l2.634,-0Zm1.41,-0l-1.115,-0c-0,-0 -1.444,-2.502 -1.928,-3.338c-0.095,-0.164 -0.095,-0.367 -0,-0.531c0.175,-0.303 0.404,-0.7 0.404,-0.7l2.639,4.569Zm1.41,-0l-1.115,-0l-2.77,-4.852l0.541,-0.937l3.344,5.789Zm0.801,-1.054l0,0.754c0,0.165 -0.134,0.3 -0.3,0.3l-0.206,-0l-3.491,-6.045l0.295,-0.51l0.525,-0l3.177,5.501Zm-0.3,-5.501l-2.582,-0l2.882,4.991l0,-4.691c0,-0.166 -0.134,-0.3 -0.3,-0.3Z" style="fill:url(#_Radial2);"/></g><defs><radialGradient id="_Radial2" cx="0" cy="0" r="1" gradientUnits="userSpaceOnUse" gradientTransform="matrix(7.78695,0,0,7.78695,5.62788,-0.433367)"><stop offset="0" style="stop-color:#ffae71;stop-opacity:1"/><stop offset="1" style="stop-color:#ff9350;stop-opacity:1"/></radialGradient></defs></svg>