<?xml version="1.0" encoding="UTF-8" standalone="no"?><!DOCTYPE svg PUBLIC "-//W3C//DTD SVG 1.1//EN" "http://www.w3.org/Graphics/SVG/1.1/DTD/svg11.dtd"><svg width="100%" height="100%" viewBox="0 0 8 8" version="1.1" xmlns="http://www.w3.org/2000/svg" xmlns:xlink="http://www.w3.org/1999/xlink" xml:space="preserve" xmlns:serif="http://www.serif.com/" style="fill-rule:evenodd;clip-rule:evenodd;stroke-linejoin:round;stroke-miterlimit:2;"><rect id="ai" x="0.125" y="0.006" width="7.68" height="7.68" style="fill:none;"/><clipPath id="_clip1"><rect x="0.125" y="0.006" width="7.68" height="7.68"/></clipPath><g clip-path="url(#_clip1)"><path d="M7.805,1.478l-0,4.736c-0,0.742 -0.602,1.344 -1.344,1.344l-4.992,0c-0.742,0 -1.344,-0.602 -1.344,-1.344l-0,-4.736c-0,-0.741 0.602,-1.344 1.344,-1.344l4.992,0c0.742,0 1.344,0.603 1.344,1.344Z" style="fill:#300;"/><path d="M3.99,4.742l-1.145,0l-0.296,0.854c-0.003,0.028 -0.021,0.042 -0.053,0.042l-0.538,0c-0.036,0 -0.048,-0.017 -0.037,-0.052l1.037,-3.082c0.029,-0.093 0.044,-0.191 0.043,-0.29c-0,-0.001 -0,-0.002 -0,-0.003c-0,-0.016 0.013,-0.029 0.028,-0.029c0.001,0 0.003,0 0.004,0l0.753,0c0.021,0 0.034,0.009 0.037,0.027l1.161,3.382c0.011,0.032 0.002,0.047 -0.027,0.047l-0.601,0c-0.023,0.002 -0.045,-0.011 -0.054,-0.032l-0.312,-0.864Zm-1.017,-0.576l0.892,0c-0.021,-0.047 -0.423,-1.341 -0.452,-1.45l-0.005,-0l-0.435,1.45Zm2.653,-1.344c-0.102,0.005 -0.201,-0.032 -0.276,-0.102c-0.072,-0.074 -0.111,-0.175 -0.105,-0.279c-0.005,-0.104 0.034,-0.207 0.108,-0.281c0.075,-0.071 0.175,-0.109 0.279,-0.106c0.103,-0.005 0.204,0.033 0.278,0.106c0.071,0.076 0.108,0.178 0.103,0.281c0.005,0.104 -0.033,0.205 -0.106,0.279c-0.076,0.07 -0.177,0.107 -0.281,0.102Zm-0.317,2.768l-0,-2.469c-0,-0.002 -0.001,-0.003 -0.001,-0.005c0,-0.021 0.017,-0.038 0.038,-0.038c0.002,0 0.004,0 0.006,0l0.554,0c0.002,0 0.003,0 0.005,0c0.021,0 0.038,0.017 0.038,0.038c0,0.002 0,0.004 -0,0.005l-0,2.475c0,0.001 0,0.003 0,0.005c0,0.021 -0.017,0.038 -0.038,0.038c-0.001,-0 -0.003,-0 -0.005,-0.001l-0.549,0c-0.002,0.001 -0.004,0.001 -0.006,0.001c-0.023,-0 -0.043,-0.019 -0.043,-0.043c0,-0.002 0.001,-0.004 0.001,-0.006Z" style="fill:#ff9a00;fill-rule:nonzero;"/></g></svg>