<?xml version="1.0" encoding="UTF-8" standalone="no"?>
<!DOCTYPE svg PUBLIC "-//W3C//DTD SVG 1.1//EN" "http://www.w3.org/Graphics/SVG/1.1/DTD/svg11.dtd">
<svg width="100%" height="100%" viewBox="0 0 24 24" version="1.1" xmlns="http://www.w3.org/2000/svg" xmlns:xlink="http://www.w3.org/1999/xlink" xml:space="preserve" xmlns:serif="http://www.serif.com/" style="fill-rule:evenodd;clip-rule:evenodd;stroke-linejoin:round;stroke-miterlimit:2;">
    <g transform="matrix(-8.64779e-17,-1.41229,1.41229,-8.64779e-17,-4.32873,25.8579)">
        <g>
            <path d="M5.263,9.529L7.824,9.529C11.633,9.529 13.701,10.393 14.833,11.752C15.969,13.115 16.185,15.018 16.185,17.212C16.185,17.472 15.973,17.684 15.713,17.684C15.453,17.684 15.242,17.472 15.242,17.212C15.242,15.267 15.116,13.564 14.109,12.356C13.099,11.143 11.223,10.472 7.824,10.472L5.264,10.472L8.396,13.604C8.615,13.823 8.615,14.177 8.396,14.396C8.177,14.615 7.823,14.615 7.604,14.396L3.604,10.396C3.385,10.177 3.385,9.823 3.604,9.604L7.604,5.604C7.823,5.385 8.177,5.385 8.396,5.604C8.615,5.823 8.615,6.177 8.396,6.396C8.396,6.396 6.24,8.552 5.263,9.529Z" style="fill:white;"/>
        </g>
    </g>
</svg>
