<?xml version="1.0" encoding="UTF-8" standalone="no"?><!DOCTYPE svg PUBLIC "-//W3C//DTD SVG 1.1//EN" "http://www.w3.org/Graphics/SVG/1.1/DTD/svg11.dtd"><svg width="100%" height="100%" viewBox="0 0 8 8" version="1.1" xmlns="http://www.w3.org/2000/svg" xmlns:xlink="http://www.w3.org/1999/xlink" xml:space="preserve" xmlns:serif="http://www.serif.com/" style="fill-rule:evenodd;clip-rule:evenodd;stroke-linejoin:round;stroke-miterlimit:2;"><rect id="blend" x="0.125" y="0.013" width="7.68" height="7.68" style="fill:none;"/><g id="blender"><path d="M3.138,4.189c0.028,-0.498 0.272,-0.937 0.64,-1.248c0.36,-0.306 0.846,-0.492 1.376,-0.492c0.53,-0 1.016,0.186 1.377,0.492c0.368,0.311 0.611,0.75 0.64,1.248c0.028,0.511 -0.178,0.987 -0.539,1.339c-0.368,0.359 -0.892,0.584 -1.478,0.584c-0.586,-0 -1.11,-0.225 -1.478,-0.584c-0.361,-0.352 -0.566,-0.828 -0.538,-1.339Z" style="fill:#fff;fill-rule:nonzero;"/><path d="M4.12,4.234c0.014,-0.256 0.139,-0.481 0.328,-0.641c0.185,-0.157 0.435,-0.252 0.707,-0.252c0.271,-0 0.521,0.095 0.706,0.252c0.189,0.16 0.314,0.385 0.328,0.64c0.015,0.263 -0.091,0.507 -0.276,0.688c-0.189,0.184 -0.458,0.299 -0.758,0.299c-0.301,0 -0.57,-0.115 -0.759,-0.299c-0.185,-0.181 -0.291,-0.425 -0.276,-0.687Z" style="fill:#265787;fill-rule:nonzero;"/><path d="M2.477,4.759c0.002,0.1 0.034,0.295 0.082,0.447c0.101,0.322 0.272,0.62 0.509,0.882c0.244,0.27 0.545,0.487 0.892,0.641c0.365,0.161 0.761,0.244 1.171,0.243c0.41,-0.001 0.806,-0.085 1.171,-0.247c0.347,-0.156 0.647,-0.373 0.891,-0.643c0.238,-0.264 0.408,-0.562 0.509,-0.884c0.051,-0.163 0.083,-0.328 0.096,-0.494c0.013,-0.163 0.007,-0.327 -0.016,-0.49c-0.045,-0.318 -0.155,-0.617 -0.325,-0.889c-0.155,-0.251 -0.355,-0.47 -0.592,-0.654l0,-0l-2.399,-1.842c-0.002,-0.002 -0.004,-0.004 -0.006,-0.005c-0.158,-0.121 -0.422,-0.121 -0.595,0c-0.176,0.123 -0.196,0.325 -0.04,0.453l-0,0.001l1,0.813l-3.05,0.004l-0.004,-0c-0.252,-0 -0.494,0.165 -0.542,0.374c-0.049,0.213 0.122,0.39 0.384,0.391l-0.001,0.001l1.546,-0.003l-2.758,2.117c-0.004,0.003 -0.007,0.006 -0.011,0.008c-0.26,0.199 -0.344,0.531 -0.18,0.74c0.166,0.214 0.52,0.214 0.783,0.002l1.505,-1.233c0,0 -0.022,0.167 -0.02,0.267Zm3.869,0.557c-0.31,0.316 -0.745,0.495 -1.215,0.496c-0.47,0.001 -0.905,-0.177 -1.215,-0.492c-0.151,-0.154 -0.263,-0.331 -0.331,-0.519c-0.068,-0.186 -0.094,-0.382 -0.076,-0.581c0.016,-0.193 0.074,-0.378 0.166,-0.546c0.09,-0.164 0.215,-0.313 0.369,-0.438c0.301,-0.246 0.685,-0.379 1.087,-0.38c0.402,-0 0.785,0.132 1.087,0.377c0.154,0.125 0.278,0.273 0.369,0.437c0.092,0.167 0.149,0.351 0.166,0.546c0.018,0.198 -0.009,0.394 -0.076,0.579c-0.069,0.189 -0.18,0.366 -0.331,0.521Z" style="fill:#ea7600;fill-rule:nonzero;"/></g></svg>