<?xml version="1.0" encoding="UTF-8" standalone="no"?>
<!DOCTYPE svg PUBLIC "-//W3C//DTD SVG 1.1//EN" "http://www.w3.org/Graphics/SVG/1.1/DTD/svg11.dtd">
<svg width="100%" height="100%" viewBox="0 0 24 24" version="1.1" xmlns="http://www.w3.org/2000/svg" xmlns:xlink="http://www.w3.org/1999/xlink" xml:space="preserve" xmlns:serif="http://www.serif.com/" style="fill-rule:evenodd;clip-rule:evenodd;stroke-linecap:round;stroke-linejoin:round;stroke-miterlimit:1.5;">
    <rect id="brick-cancel" x="0" y="0" width="24" height="24" style="fill:none;"/>
    <g id="brick-cancel1" serif:id="brick-cancel">
        <g>
            <g transform="matrix(0.972415,0,0,0.711184,0.599467,4.305917)">
                <path d="M3.211,1.517L3.211,0.603L8.355,0.603C8.764,0.603 9.156,0.826 9.446,1.221C9.735,1.617 9.898,2.153 9.898,2.713C9.898,3.664 9.898,4.72 9.898,5.384C9.898,5.56 9.949,5.729 10.04,5.853C10.131,5.977 10.254,6.047 10.383,6.047C11.073,6.047 12.331,6.047 13.021,6.047C13.15,6.047 13.273,5.977 13.364,5.853C13.455,5.729 13.506,5.56 13.506,5.384C13.506,4.72 13.506,3.664 13.506,2.713C13.506,2.153 13.669,1.617 13.958,1.221C14.247,0.826 14.64,0.603 15.049,0.603C16.13,0.603 17.569,0.603 18.65,0.603C19.06,0.603 19.452,0.826 19.741,1.221C20.03,1.617 20.193,2.153 20.193,2.713C20.193,3.665 20.193,4.724 20.193,5.387C20.193,5.562 20.244,5.73 20.334,5.854C20.425,5.978 20.548,6.047 20.676,6.047C20.766,6.047 20.865,6.047 20.968,6.047C21.378,6.047 21.77,6.269 22.059,6.665C22.348,7.061 22.511,7.597 22.511,8.156C22.511,11.01 22.511,16.071 22.511,18.925C22.511,20.09 21.82,21.034 20.968,21.034C19.491,21.034 17.485,21.034 17.485,21.034L3.211,1.517ZM14.388,19.783C14.542,19.993 14.588,20.308 14.505,20.582C14.422,20.855 14.226,21.034 14.01,21.034C11.36,21.034 5.327,21.034 2.479,21.034C2.07,21.034 1.678,20.812 1.389,20.416C1.099,20.021 0.937,19.484 0.937,18.925L0.937,8.156C0.937,6.992 1.627,6.047 2.479,6.047C2.885,6.047 3.211,6.047 3.211,6.047C3.211,6.047 3.634,6.033 3.956,6.023C4.186,6.015 4.408,6.136 4.57,6.358C5.895,8.17 12.041,16.574 14.388,19.783Z" style="fill:white;"/>
            </g>
            <g transform="matrix(1,0,0,1,-0.331334,0.331334)">
                <path d="M3.01,3L20.995,20.985" style="fill:none;stroke:white;stroke-width:1.5px;"/>
            </g>
        </g>
    </g>
</svg>
