<?xml version="1.0" encoding="UTF-8" standalone="no"?>
<!DOCTYPE svg PUBLIC "-//W3C//DTD SVG 1.1//EN" "http://www.w3.org/Graphics/SVG/1.1/DTD/svg11.dtd">
<svg width="100%" height="100%" viewBox="0 0 24 24" version="1.1" xmlns="http://www.w3.org/2000/svg" xmlns:xlink="http://www.w3.org/1999/xlink" xml:space="preserve" xmlns:serif="http://www.serif.com/" style="fill-rule:evenodd;clip-rule:evenodd;stroke-linejoin:round;stroke-miterlimit:2;">
    <g>
        <path d="M12.438,15.747C12.292,15.749 12.146,15.75 12,15.75C9.27,15.75 6.643,15.308 4.186,14.491C2.984,14.091 2.25,12.95 2.25,11.739L2.25,8.706C2.25,7.272 3.272,6.006 4.726,5.789C5.647,5.651 6.572,5.54 7.5,5.455L7.5,5.25C7.5,3.604 8.854,2.25 10.5,2.25L13.5,2.25C15.146,2.25 16.5,3.604 16.5,5.25L16.5,5.455C17.433,5.54 18.357,5.652 19.274,5.789C20.728,6.007 21.75,7.272 21.75,8.706L21.75,11.739C21.75,12.21 21.639,12.67 21.433,13.08C20.46,12.399 19.276,12 18,12C15.485,12 13.33,13.55 12.438,15.747ZM13.304,21.733C12.871,21.744 12.436,21.75 12,21.75C9.834,21.75 7.67,21.608 5.523,21.323C4.047,21.128 3,19.852 3,18.4L3,15.604C3.228,15.729 3.466,15.832 3.713,15.914C6.386,16.801 9.184,17.252 12,17.25C12.016,17.25 12.031,17.25 12.047,17.25C12.016,17.496 12,17.746 12,18C12,19.411 12.488,20.708 13.304,21.733ZM12,13.5C12.411,13.5 12.75,13.161 12.75,12.75C12.75,12.339 12.411,12 12,12C11.589,12 11.25,12.339 11.25,12.75C11.25,13.161 11.589,13.5 12,13.5ZM15,5.25C15,4.427 14.323,3.75 13.5,3.75L10.5,3.75C9.677,3.75 9,4.427 9,5.25L9,5.34C10.998,5.219 13.002,5.219 15,5.34L15,5.25Z" style="fill:white;"/>
        <g transform="matrix(0.471438,0,0,0.471438,12.342,12.3427)">
            <path d="M11.078,2.25C10.161,2.25 9.379,2.913 9.228,3.817L9.05,4.889C9.03,5.009 8.935,5.149 8.753,5.237C8.41,5.402 8.081,5.592 7.767,5.807C7.601,5.922 7.433,5.933 7.317,5.89L6.3,5.508C5.445,5.188 4.474,5.536 4.018,6.327L3.096,7.924C2.64,8.714 2.823,9.729 3.528,10.309L4.368,11.001C4.463,11.079 4.538,11.23 4.522,11.431C4.494,11.81 4.494,12.191 4.522,12.57C4.537,12.77 4.463,12.922 4.369,13L3.528,13.692C2.823,14.272 2.64,15.287 3.096,16.077L4.018,17.674C4.474,18.465 5.445,18.812 6.3,18.492L7.319,18.11C7.434,18.067 7.602,18.079 7.769,18.192C8.081,18.406 8.41,18.597 8.754,18.762C8.936,18.85 9.031,18.99 9.051,19.112L9.229,20.183C9.38,21.087 10.162,21.75 11.079,21.75L12.923,21.75C13.839,21.75 14.622,21.087 14.773,20.183L14.951,19.111C14.971,18.991 15.065,18.851 15.248,18.762C15.592,18.597 15.921,18.406 16.233,18.192C16.4,18.078 16.568,18.067 16.683,18.11L17.703,18.492C18.557,18.811 19.527,18.463 19.983,17.673L20.906,16.076C21.362,15.286 21.179,14.271 20.474,13.691L19.634,12.999C19.539,12.921 19.464,12.77 19.48,12.569C19.508,12.19 19.508,11.809 19.48,11.43C19.464,11.23 19.539,11.078 19.633,11L20.473,10.308C21.181,9.726 21.364,8.718 20.906,7.923L19.984,6.326C19.528,5.535 18.557,5.188 17.702,5.508L16.682,5.89C16.568,5.933 16.4,5.921 16.233,5.807C15.92,5.592 15.59,5.402 15.248,5.237C15.065,5.15 14.971,5.01 14.951,4.889L14.772,3.817C14.622,2.916 13.835,2.25 12.922,2.25L11.078,2.25ZM12,15.75C14.057,15.75 15.75,14.057 15.75,12C15.75,9.943 14.057,8.25 12,8.25C9.943,8.25 8.25,9.943 8.25,12C8.25,14.057 9.943,15.75 12,15.75Z" style="fill:white;"/>
        </g>
    </g>
</svg>
