<?xml version="1.0" encoding="UTF-8" standalone="no"?>
<!DOCTYPE svg PUBLIC "-//W3C//DTD SVG 1.1//EN" "http://www.w3.org/Graphics/SVG/1.1/DTD/svg11.dtd">
<svg width="100%" height="100%" viewBox="0 0 24 24" version="1.1" xmlns="http://www.w3.org/2000/svg" xmlns:xlink="http://www.w3.org/1999/xlink" xml:space="preserve" xmlns:serif="http://www.serif.com/" style="fill-rule:evenodd;clip-rule:evenodd;stroke-linejoin:round;stroke-miterlimit:2;">
    <g transform="matrix(1,0,0,1,0,-80.978569)">
        <g id="briefcase-plus" transform="matrix(1,0,0,1,0,80.978569)">
            <rect x="0" y="0" width="24" height="24" style="fill:none;"/>
            <path d="M10.127,15.68C8.066,15.526 6.076,15.119 4.186,14.491C2.984,14.091 2.25,12.95 2.25,11.739L2.25,8.706C2.25,7.272 3.272,6.006 4.726,5.789C5.647,5.651 6.572,5.54 7.5,5.455L7.5,5.25C7.5,3.604 8.854,2.25 10.5,2.25L13.5,2.25C15.146,2.25 16.5,3.604 16.5,5.25L16.5,5.455C17.433,5.54 18.357,5.652 19.274,5.789C20.728,6.007 21.75,7.272 21.75,8.706L21.75,11.739C21.75,11.784 21.749,11.829 21.747,11.874C20.495,10.713 18.825,10 17,10C13.611,10 10.751,12.462 10.127,15.68ZM11.877,21.75C9.752,21.745 7.63,21.602 5.523,21.323C4.047,21.128 3,19.852 3,18.4L3,15.604C3.228,15.729 3.466,15.832 3.713,15.914C5.752,16.591 7.865,17.014 10.002,17.176C10.046,18.933 10.752,20.538 11.877,21.75ZM15,5.25C15,4.427 14.323,3.75 13.5,3.75L10.5,3.75C9.677,3.75 9,4.427 9,5.25L9,5.34C10.998,5.219 13.002,5.219 15,5.34L15,5.25Z" style="fill:white;"/>
            <g transform="matrix(1.386291,0,0,1.386291,-6.570349,-6.635721)">
                <path d="M20.941,17.05C20.941,19.21 19.163,20.988 17.002,20.988C14.842,20.988 13.064,19.21 13.064,17.05C13.064,14.889 14.842,13.111 17.002,13.111C19.163,13.111 20.941,14.889 20.941,17.05ZM16.252,17.8L16.252,18.869C16.252,19.283 16.589,19.619 17.002,19.619C17.416,19.619 17.752,19.283 17.752,18.869L17.752,17.8L18.822,17.8C19.236,17.8 19.572,17.464 19.572,17.05C19.572,16.636 19.236,16.3 18.822,16.3L17.752,16.3L17.752,15.23C17.752,14.816 17.416,14.48 17.002,14.48C16.589,14.48 16.252,14.816 16.252,15.23L16.252,16.3L15.183,16.3C14.769,16.3 14.433,16.636 14.433,17.05C14.433,17.464 14.769,17.8 15.183,17.8L16.252,17.8Z" style="fill:white;"/>
            </g>
        </g>
    </g>
</svg>
