<?xml version="1.0" encoding="UTF-8" standalone="no"?>
<!DOCTYPE svg PUBLIC "-//W3C//DTD SVG 1.1//EN" "http://www.w3.org/Graphics/SVG/1.1/DTD/svg11.dtd">
<svg width="100%" height="100%" viewBox="0 0 24 24" version="1.1" xmlns="http://www.w3.org/2000/svg" xmlns:xlink="http://www.w3.org/1999/xlink" xml:space="preserve" xmlns:serif="http://www.serif.com/" style="fill-rule:evenodd;clip-rule:evenodd;stroke-linejoin:round;stroke-miterlimit:2;">
    <g>
        <rect x="0" y="0" width="24" height="24" style="fill:none;fill-rule:nonzero;"/>
        <g transform="matrix(0.290745,0,0,0.290745,-0.550849,-1.05776)">
            <path d="M28.082,75.115L27.869,75.115L27.838,75.09C35.113,67.947 37.036,55.503 37.036,47.835C37.036,47.594 36.12,46.735 35.264,46.751C34.515,46.765 33.813,47.624 33.813,47.835C33.813,55.38 31.963,67.802 24.484,74.505C24.465,74.522 24.446,74.54 24.428,74.558C24.204,74.756 23.973,74.945 23.738,75.125C21.717,76.677 20.329,77.347 18.55,77.414C14.383,77.572 11.091,74.481 9.539,72.137C9.202,71.629 8.948,71.156 8.793,70.761C11.953,71.245 14.443,69.437 16.325,66.077C19.121,61.086 20.574,52.527 21.19,43.902C21.703,36.724 27.406,30.692 34.602,30.692L45.028,30.692L45.028,12.796C45.028,9.266 47.526,6.408 50.608,6.408C53.69,6.408 56.189,9.269 56.189,12.798L56.189,30.692L64.541,30.692C71.804,30.692 77.692,36.58 77.692,43.844C77.692,48.572 76.955,56.705 74.591,63.817C73.05,68.452 70.828,72.66 67.617,75.125C62.805,78.821 59.52,77.419 56.641,75.104C63.891,68.159 65.821,55.496 65.821,47.835C65.821,47.626 65.131,46.767 64.389,46.752C63.528,46.733 62.598,47.593 62.598,47.835C62.598,55.343 60.777,67.939 53.381,74.421C53.321,74.459 53.265,74.505 53.214,74.559C53.207,74.567 53.199,74.575 53.192,74.584C52.974,74.77 52.751,74.95 52.523,75.125C47.814,78.741 45.155,77.479 42.277,75.254C49.635,68.501 51.589,55.542 51.589,47.835C51.589,47.593 50.662,46.734 49.802,46.751C49.059,46.767 48.366,47.626 48.366,47.835C48.366,55.423 46.507,68.399 38.909,74.634C38.712,74.796 38.51,74.957 38.305,75.115L38.122,75.253C33.394,78.776 30.731,77.402 27.885,75.128L28.222,75.132L28.082,75.115Z" style="fill:white;"/>
        </g>
    </g>
</svg>
