<svg width="24" height="24" xmlns="http://www.w3.org/2000/svg" clip-rule="evenodd" stroke-miterlimit="2" viewBox="0 0 24 24"><title>brush plus</title><g stroke-linejoin="round" fill="#ffffff" class="nc-icon-wrapper" fill-rule="evenodd"><path d="M20.599,1.5C20.223,1.5 19.856,1.611 19.544,1.82L14.464,5.205C13.189,6.055 12.024,7.058 10.993,8.192C13.109,9.187 14.813,10.891 15.808,13.007C16.942,11.976 17.945,10.81 18.795,9.535L22.181,4.456C22.389,4.144 22.5,3.777 22.5,3.402C22.5,2.359 21.642,1.501 20.599,1.5ZM12.299,15.525C12.955,15.161 13.588,14.758 14.195,14.318C13.38,12.255 11.745,10.62 9.682,9.805C9.242,10.412 8.839,11.045 8.475,11.7L8.197,12.2C9.935,12.7 11.298,14.063 11.798,15.802L12.3,15.524L12.299,15.525ZM6.75,13.5C4.693,13.5 3,15.193 3,17.25C3,17.25 3,17.25 3,17.25C3,18.073 2.323,18.75 1.5,18.75C1.466,18.75 1.433,18.749 1.399,18.747C1.382,18.746 1.365,18.745 1.349,18.745C0.937,18.745 0.599,19.084 0.599,19.495C0.599,19.627 0.633,19.756 0.699,19.87C1.635,21.496 3.373,22.501 5.249,22.501C8.129,22.501 10.499,20.131 10.499,17.251C10.499,17.251 10.499,17.25 10.499,17.25C10.499,15.193 8.806,13.5 6.749,13.5L6.75,13.5Z" fill="#ffffff"></path><path d="M11.25,11.25L11.25,9C11.25,8.586 11.586,8.25 12,8.25C12.414,8.25 12.75,8.586 12.75,9L12.75,11.25L15,11.25C15.414,11.25 15.75,11.586 15.75,12C15.75,12.414 15.414,12.75 15,12.75L12.75,12.75L12.75,15C12.75,15.414 12.414,15.75 12,15.75C11.586,15.75 11.25,15.414 11.25,15L11.25,12.75L9,12.75C8.586,12.75 8.25,12.414 8.25,12C8.25,11.586 8.586,11.25 9,11.25L11.25,11.25Z" fill="#ffffff" transform="translate(-8 -8)"></path></g></svg>