<svg xmlns="http://www.w3.org/2000/svg" width="24" height="24" viewBox="0 0 24 24"><title>camera flash</title><g stroke-linejoin="round" stroke-linecap="round" fill="none" stroke="#ffffff" stroke-width="1.5" class="nc-icon-wrapper"><path stroke="none" d="M0 0h24v24H0z" fill="none"></path><path d="M13 20h-8a2 2 0 0 1 -2 -2v-9a2 2 0 0 1 2 -2h1a2 2 0 0 0 2 -2a1 1 0 0 1 1 -1h6a1 1 0 0 1 1 1a2 2 0 0 0 2 2h1a2 2 0 0 1 2 2v3.5"></path><path d="M9 13a3 3 0 1 0 6 0a3 3 0 0 0 -6 0"></path><path d="M19 16l-2 3h4l-2 3"></path></g></svg>