<?xml version="1.0" encoding="UTF-8" standalone="no"?><!DOCTYPE svg PUBLIC "-//W3C//DTD SVG 1.1//EN" "http://www.w3.org/Graphics/SVG/1.1/DTD/svg11.dtd"><svg width="100%" height="100%" viewBox="0 0 8 8" version="1.1" xmlns="http://www.w3.org/2000/svg" xmlns:xlink="http://www.w3.org/1999/xlink" xml:space="preserve" xmlns:serif="http://www.serif.com/" style="fill-rule:evenodd;clip-rule:evenodd;stroke-linejoin:round;stroke-miterlimit:2;"><rect id="cdr" x="0.231" y="0.138" width="7.68" height="7.68" style="fill:none;"/><clipPath id="_clip1"><rect x="0.231" y="0.138" width="7.68" height="7.68"/></clipPath><g clip-path="url(#_clip1)"><g id="coreldraw"><path d="M2.746,0.138l5.165,-0l0,5.165c0,1.383 -1.131,2.515 -2.514,2.515l-2.651,-0c-1.383,-0 -2.515,-1.132 -2.515,-2.515l0,-2.651c0,-1.383 1.132,-2.514 2.515,-2.514Z" style="fill:url(#_Linear2);"/><g><path d="M6.022,6.149c0.043,-0.045 0.124,-0.126 0.175,-0.174c0.05,-0.048 0.07,-0.064 0.088,-0.073c0.019,-0.009 0.035,-0.012 0.048,-0.01c0.013,0.003 0.022,0.01 0.028,0.018c0.007,0.009 0.01,0.019 0.014,0.036c0.003,0.018 0.006,0.042 0.011,0.078c0.005,0.035 0.012,0.08 0.017,0.12c0.005,0.04 0.009,0.074 0.008,0.097c0,0.024 -0.004,0.036 -0.014,0.049c-0.009,0.013 -0.024,0.028 -0.037,0.038c-0.013,0.011 -0.026,0.017 -0.04,0.02c-0.014,0.003 -0.031,0.002 -0.051,0.001c-0.02,-0.002 -0.043,-0.005 -0.064,-0.008c-0.022,-0.003 -0.042,-0.006 -0.063,-0.01c-0.02,-0.003 -0.041,-0.006 -0.065,-0.01c-0.023,-0.004 -0.05,-0.008 -0.069,-0.011c-0.018,-0.004 -0.029,-0.008 -0.037,-0.014c-0.007,-0.006 -0.011,-0.015 -0.014,-0.024c-0.003,-0.009 -0.004,-0.018 -0.002,-0.029c0.002,-0.01 0.007,-0.022 0.012,-0.032c0.006,-0.01 0.011,-0.018 0.055,-0.062Z" style="fill:#fefefe;"/><path d="M2.423,1.73c0.16,-0.148 0.3,-0.165 0.434,-0.063c2.105,2.106 3.165,3.154 3.165,3.154c0.134,0.123 0.214,0.253 0.239,0.388c0.019,0.123 0.035,0.244 0.049,0.362c0.002,0.024 -0.005,0.038 -0.015,0.06c-0.031,0.069 -0.093,0.14 -0.184,0.213c-0.208,0.203 -0.312,0.304 -0.312,0.304c-0.062,0.07 -0.209,0.036 -0.315,0.014c-0.24,-0.048 -0.262,-0.009 -0.458,-0.195c-2.103,-2.102 -3.154,-3.153 -3.154,-3.153c-0.1,-0.09 -0.15,-0.16 -0.147,-0.208c-0.002,-0.025 -0.002,-0.048 0.001,-0.069c0.008,-0.075 0.063,-0.156 0.108,-0.216c0.034,-0.044 0.076,-0.09 0.126,-0.138c0.126,-0.131 0.281,-0.282 0.463,-0.453Z" style="fill:#fefefe;"/><path d="M2.17,1.979c-0.008,0.016 -0.008,0.031 -0.006,0.046c0.002,0.015 0.006,0.029 0.012,0.044c0.006,0.014 0.014,0.028 0.025,0.044c0.012,0.016 0.026,0.032 0.079,0.087c0.054,0.055 0.146,0.148 0.226,0.228c0.079,0.08 0.146,0.149 0.222,0.225c0.077,0.077 0.163,0.162 0.211,0.209c0.049,0.048 0.06,0.057 0.065,0.062c0.005,0.004 0.005,0.004 0.096,-0.089c0.092,-0.093 0.277,-0.279 0.369,-0.372c0.092,-0.092 0.092,-0.092 0.092,-0.092c-0,-0.001 -0.001,-0.002 -0.117,-0.117c-0.116,-0.116 -0.347,-0.347 -0.462,-0.462c-0.116,-0.115 -0.115,-0.115 -0.122,-0.12c-0.006,-0.005 -0.018,-0.015 -0.033,-0.024c-0.015,-0.01 -0.032,-0.018 -0.05,-0.025c-0.017,-0.007 -0.036,-0.012 -0.055,-0.015c-0.02,-0.003 -0.041,-0.004 -0.061,-0.002c-0.02,0.002 -0.039,0.006 -0.056,0.011c-0.016,0.005 -0.031,0.01 -0.05,0.021c-0.02,0.01 -0.043,0.024 -0.065,0.039c-0.022,0.015 -0.041,0.031 -0.059,0.047c-0.018,0.015 -0.034,0.03 -0.055,0.05c-0.021,0.02 -0.046,0.044 -0.074,0.071c-0.029,0.027 -0.06,0.057 -0.083,0.08c-0.024,0.023 -0.04,0.039 -0.049,0.054Z" style="fill:url(#_Linear3);"/><path d="M6.295,5.631c-0.017,0.035 -0.036,0.065 -0.057,0.089c-0.114,-0.007 -0.207,-0.015 -0.278,-0.025c-0.133,-0.006 -0.288,-0.095 -0.465,-0.268l-2.227,-2.233l-0.506,0.51l-0.114,-0.114l1.065,-1.067l2.379,2.368c0.086,0.09 0.142,0.196 0.169,0.318c0.031,0.228 0.046,0.342 0.046,0.342c0.007,0.028 0.003,0.055 -0.012,0.08Z" style="fill:url(#_Linear4);"/></g></g></g><defs><linearGradient id="_Linear2" x1="0" y1="0" x2="1" y2="0" gradientUnits="userSpaceOnUse" gradientTransform="matrix(7.07426,7.13916,-7.13916,7.07426,1.76385,1.69535)"><stop offset="0" style="stop-color:#85e31c;stop-opacity:1"/><stop offset="0.37" style="stop-color:#2cc02b;stop-opacity:1"/><stop offset="1" style="stop-color:#298822;stop-opacity:1"/></linearGradient><linearGradient id="_Linear3" x1="0" y1="0" x2="1" y2="0" gradientUnits="userSpaceOnUse" gradientTransform="matrix(0.975963,0.968743,-0.968743,0.975963,2.55236,1.82951)"><stop offset="0" style="stop-color:#c6c6c6;stop-opacity:1"/><stop offset="0.61" style="stop-color:#e2e2e2;stop-opacity:1"/><stop offset="1" style="stop-color:#fefefe;stop-opacity:1"/></linearGradient><linearGradient id="_Linear4" x1="0" y1="0" x2="1" y2="0" gradientUnits="userSpaceOnUse" gradientTransform="matrix(2.35809,2.53115,-2.53115,2.35809,3.76778,2.97448)"><stop offset="0" style="stop-color:#c6c6c6;stop-opacity:1"/><stop offset="0.67" style="stop-color:#e2e2e2;stop-opacity:1"/><stop offset="1" style="stop-color:#fefefe;stop-opacity:1"/></linearGradient></defs></svg>