<?xml version="1.0" encoding="UTF-8" standalone="no"?><!DOCTYPE svg PUBLIC "-//W3C//DTD SVG 1.1//EN" "http://www.w3.org/Graphics/SVG/1.1/DTD/svg11.dtd"><svg width="100%" height="100%" viewBox="0 0 8 8" version="1.1" xmlns="http://www.w3.org/2000/svg" xmlns:xlink="http://www.w3.org/1999/xlink" xml:space="preserve" xmlns:serif="http://www.serif.com/" style="fill-rule:evenodd;clip-rule:evenodd;stroke-linejoin:round;stroke-miterlimit:2;"><rect id="character_creator" x="0.071" y="0.215" width="7.68" height="7.68" style="fill:none;"/><path d="M2.698,4.456c-0.009,-0.187 -0.163,-0.335 -0.352,-0.335l-1.53,-0c-0.194,-0 -0.352,0.157 -0.352,0.352c0,-0 0,1.773 0,1.773l0.861,-0l0,0.3l-1.161,-0l0,-2.073c0,-0.36 0.292,-0.652 0.652,-0.652l1.53,-0c0.354,-0 0.643,0.283 0.652,0.635l1.826,-0c0.009,-0.352 0.298,-0.635 0.652,-0.635l1.53,-0c0.36,-0 0.652,0.292 0.652,0.652l0,2.073l-1.161,-0l-0,-0.3l0.861,-0l0,-1.773c0,-0.195 -0.158,-0.352 -0.352,-0.352l-1.53,-0c-0.189,-0 -0.343,0.148 -0.352,0.335l0.153,-0c0.351,-0 0.635,0.284 0.635,0.635l0,2.089l-1.248,0l-1.215,-0.658l-0.866,-0l0,-0.3l0.943,-0l1.214,0.658l0.872,0l0,-1.789c0,-0.185 -0.15,-0.335 -0.335,-0.335l-2.732,-0c-0.185,-0 -0.335,0.15 -0.335,0.335c0,-0 0,1.789 0,1.789l1.616,0l0,0.3l-1.916,0l0,-2.089c0,-0.351 0.284,-0.635 0.635,-0.635l0.153,-0Zm4.378,-2.453l0,1.026c0,0.303 -0.245,0.548 -0.548,0.548l-0.53,0c-0.303,0 -0.548,-0.245 -0.548,-0.548l0,-1.026c0,-0.303 0.245,-0.548 0.548,-0.548l0.53,0c0.303,0 0.548,0.245 0.548,0.548Zm-0.3,-0c0,-0.137 -0.111,-0.248 -0.248,-0.248l-0.53,0c-0.137,0 -0.248,0.111 -0.248,0.248l0,1.026c0,0.137 0.111,0.248 0.248,0.248l0.53,0c0.137,0 0.248,-0.111 0.248,-0.248l0,-1.026Zm-6.03,-0c0,-0.303 0.245,-0.548 0.548,-0.548l0.53,0c0.303,0 0.548,0.245 0.548,0.548l0,1.026c0,0.303 -0.245,0.548 -0.548,0.548l-0.53,0c-0.303,0 -0.548,-0.245 -0.548,-0.548l0,-1.026Zm0.3,-0l0,1.026c0,0.137 0.111,0.248 0.248,0.248l0.53,0c0.137,0 0.248,-0.111 0.248,-0.248l0,-1.026c0,-0.137 -0.111,-0.248 -0.248,-0.248l-0.53,0c-0.137,0 -0.248,0.111 -0.248,0.248Zm3.895,-0.4l-0,1.928c-0,0.371 -0.302,0.672 -0.673,0.672l-0.714,0c-0.371,0 -0.672,-0.301 -0.672,-0.672l-0,-1.928c-0,-0.372 0.301,-0.673 0.672,-0.673l0.714,0c0.371,0 0.673,0.301 0.673,0.673Zm-0.3,-0c-0,-0.206 -0.167,-0.373 -0.373,-0.373l-0.714,0c-0.205,0 -0.372,0.167 -0.372,0.373l-0,1.928c-0,0.205 0.167,0.372 0.372,0.372l0.714,0c0.206,0 0.373,-0.167 0.373,-0.372l-0,-1.928Zm-0.402,4.943l0,-0.3l1.196,-0l0,0.3l-1.196,-0Z" style="fill:#82be0f;"/></svg>