<svg width="24" height="24" xmlns="http://www.w3.org/2000/svg" clip-rule="evenodd" stroke-miterlimit="2" viewBox="0 0 24 24"><title>checkbox selected active</title><g fill="#ffffff" class="nc-icon-wrapper"><path d="M19.5,7.5L19.5,16.5C19.5,18.146 18.146,19.5 16.5,19.5L7.5,19.5C5.854,19.5 4.5,18.146 4.5,16.5L4.5,7.5C4.5,5.854 5.854,4.5 7.5,4.5L16.5,4.5C18.146,4.5 19.5,5.854 19.5,7.5ZM15.567,8.528L10.004,14.099L8.433,12.527C8.14,12.235 7.665,12.235 7.372,12.527C7.08,12.82 7.08,13.295 7.372,13.588L9.474,15.69C9.615,15.831 9.806,15.91 10.005,15.91C10.204,15.909 10.395,15.83 10.535,15.689L16.628,9.588C16.92,9.295 16.92,8.82 16.627,8.527C16.334,8.235 15.859,8.235 15.567,8.528Z" fill="#ffffff" stroke-linejoin="round" class="nc-icon-wrapper" fill-rule="evenodd"></path></g></svg>