<?xml version="1.0" encoding="UTF-8" standalone="no"?><!DOCTYPE svg PUBLIC "-//W3C//DTD SVG 1.1//EN" "http://www.w3.org/Graphics/SVG/1.1/DTD/svg11.dtd"><svg width="100%" height="100%" viewBox="0 0 8 8" version="1.1" xmlns="http://www.w3.org/2000/svg" xmlns:xlink="http://www.w3.org/1999/xlink" xml:space="preserve" xmlns:serif="http://www.serif.com/" style="fill-rule:evenodd;clip-rule:evenodd;stroke-linejoin:round;stroke-miterlimit:2;"><rect id="chproj" x="0.099" y="0" width="7.68" height="7.68" style="fill:none;"/><clipPath id="_clip1"><rect x="0.099" y="0" width="7.68" height="7.68"/></clipPath><g clip-path="url(#_clip1)"><path d="M7.779,1.332l0,5.016c0,0.662 -0.537,1.2 -1.2,1.2l-5.28,0c-0.662,0 -1.2,-0.538 -1.2,-1.2l0,-5.016c0,-0.662 0.538,-1.2 1.2,-1.2l5.28,0c0.663,0 1.2,0.538 1.2,1.2Z" style="fill:#00005b;"/><path d="M3.774,4.767l0,0.545c0.004,0.031 -0.013,0.062 -0.041,0.074c-0.098,0.036 -0.2,0.06 -0.304,0.071c-0.134,0.016 -0.269,0.024 -0.404,0.024c-0.192,0.001 -0.383,-0.023 -0.569,-0.072c-0.175,-0.044 -0.341,-0.118 -0.492,-0.216c-0.147,-0.096 -0.276,-0.216 -0.382,-0.357c-0.11,-0.147 -0.193,-0.314 -0.247,-0.491c-0.061,-0.206 -0.091,-0.42 -0.088,-0.634c0,-0.356 0.076,-0.669 0.227,-0.938c0.151,-0.269 0.375,-0.488 0.644,-0.629c0.308,-0.161 0.649,-0.243 0.995,-0.238c0.133,-0.001 0.266,0.006 0.399,0.021c0.092,0.011 0.183,0.032 0.27,0.064c0.019,0.015 0.029,0.039 0.026,0.063l0,0.595c0,0.031 -0.012,0.042 -0.036,0.031c-0.098,-0.047 -0.201,-0.079 -0.308,-0.096c-0.124,-0.02 -0.25,-0.03 -0.376,-0.029c-0.205,-0.005 -0.408,0.046 -0.589,0.146c-0.161,0.092 -0.293,0.228 -0.381,0.394c-0.093,0.183 -0.139,0.388 -0.134,0.594c-0.003,0.148 0.019,0.294 0.065,0.434c0.039,0.117 0.1,0.227 0.177,0.322c0.072,0.088 0.159,0.162 0.258,0.217c0.097,0.053 0.2,0.093 0.307,0.119c0.103,0.029 0.209,0.045 0.316,0.049c0.116,0.001 0.233,-0.005 0.348,-0.016c0.095,-0.013 0.188,-0.037 0.278,-0.073c0.013,-0.011 0.024,-0.013 0.031,-0.008c0.008,0.009 0.012,0.022 0.01,0.034Z" style="fill:#99f;fill-rule:nonzero;"/><path d="M4.957,3.52l-0,1.853c-0,0.028 -0.012,0.042 -0.036,0.042l-0.643,0c-0.002,0.001 -0.004,0.001 -0.006,0.001c-0.022,-0 -0.041,-0.019 -0.041,-0.042c0,-0.002 0,-0.004 0.001,-0.006l-0,-3.649c-0,-0.025 0.013,-0.037 0.041,-0.037l0.648,-0c0.001,-0.001 0.003,-0.001 0.004,-0.001c0.018,0 0.032,0.015 0.032,0.033c0,0.001 0,0.003 -0,0.005l0.004,1.247c0.093,-0.064 0.193,-0.116 0.297,-0.156c0.109,-0.041 0.235,-0.05 0.379,-0.05c0.102,0 0.204,0.016 0.301,0.047c0.104,0.03 0.2,0.083 0.281,0.156c0.086,0.079 0.146,0.187 0.198,0.322c0.051,0.136 0.077,0.311 0.077,0.526l0,1.557c0,0.032 -0.014,0.047 -0.041,0.047l-0.603,0c-0.003,0.001 -0.005,0.001 -0.007,0.001c-0.025,-0 -0.045,-0.021 -0.045,-0.047c-0,-0.002 -0,-0.004 0,-0.006l0,-1.478c0.003,-0.095 -0.013,-0.19 -0.049,-0.277c-0.029,-0.068 -0.075,-0.125 -0.134,-0.167c-0.072,-0.041 -0.153,-0.062 -0.236,-0.058c-0.076,-0 -0.153,0.011 -0.226,0.034c-0.071,0.023 -0.137,0.057 -0.196,0.103Z" style="fill:#99f;fill-rule:nonzero;"/></g></svg>