<svg width="24" height="24" xmlns="http://www.w3.org/2000/svg" clip-rule="evenodd" stroke-miterlimit="2" viewBox="0 0 24 24"><title>circle check go</title><g stroke-linejoin="round" fill="#20A41C" class="nc-icon-wrapper" fill-rule="evenodd"><path d="M20.646,9.175C20.864,9.946 20.981,10.759 20.981,11.599C20.981,16.491 17.009,20.464 12.116,20.464C7.223,20.464 3.251,16.491 3.251,11.599C3.251,6.706 7.223,2.733 12.116,2.733C13.909,2.733 15.578,3.267 16.973,4.183L12.115,9.046L11.624,8.555L11.145,8.164L10.609,7.882L9.458,7.658L8.307,7.882L7.771,8.164L7.292,8.555L6.901,9.034L6.619,9.57L6.395,10.721L6.619,11.872L6.901,12.408L7.292,12.887L9.95,15.545L10.417,15.928L10.944,16.209L11.516,16.383L12.117,16.442L12.717,16.383L13.289,16.209L13.817,15.927L14.283,15.544L20.646,9.175ZM20.452,3.988C20.741,3.699 21.21,3.699 21.498,3.987C21.787,4.276 21.788,4.745 21.499,5.033L12.639,13.902C12.501,14.041 12.312,14.119 12.116,14.119C11.92,14.119 11.732,14.041 11.593,13.902L8.935,11.244C8.646,10.956 8.646,10.487 8.935,10.198C9.224,9.909 9.693,9.909 9.981,10.198C9.981,10.198 12.116,12.333 12.116,12.333L20.452,3.988Z" fill="#20A41C" transform="translate(-.283 .242) scale(1.01376)"></path></g></svg>