<svg width="24" height="24" xmlns="http://www.w3.org/2000/svg" clip-rule="evenodd" stroke-miterlimit="2" viewBox="0 0 24 24"><title>clapboard</title><g fill="#ffffff" class="nc-icon-wrapper"><path d="M0.212,-6.436L-0.266,-9.938C-0.43,-11.14 -0.347,-12.423 -0.036,-13.504C0.276,-14.584 0.79,-15.375 1.395,-15.701L19.574,-25.513C20.183,-25.842 20.831,-25.676 21.378,-25.053C21.925,-24.431 22.325,-23.401 22.49,-22.192L23.32,-16.115L5.386,-6.436L23.788,-6.436L23.788,17.81C23.788,20.437 22.717,22.567 21.396,22.567L2.604,22.567C1.283,22.567 0.212,20.437 0.212,17.81L0.212,1.433L0.212,-6.436ZM22.212,1.452L22.212,-3.302C22.212,-3.302 20.504,-3.302 18.075,-3.302L15.238,1.452C19.063,1.452 22.212,1.452 22.212,1.452ZM15.63,-3.302C13.81,-3.302 11.814,-3.302 9.918,-3.302L7.081,1.452C8.829,1.452 10.831,1.452 12.793,1.452L15.63,-3.302ZM7.472,-3.302C4.254,-3.302 1.788,-3.302 1.788,-3.302L1.788,1.452C1.788,1.452 2.913,1.452 4.635,1.452L7.472,-3.302ZM1.788,4.585L1.788,17.81C1.788,18.707 2.153,19.433 2.604,19.433L21.396,19.433C21.847,19.433 22.212,18.707 22.212,17.81L22.212,4.585L1.788,4.585ZM6.9,-15.426L1.808,-12.678C1.607,-12.569 1.435,-12.306 1.332,-11.946C1.228,-11.586 1.2,-11.159 1.255,-10.759L1.675,-7.68L4.77,-9.35L6.9,-15.426ZM7.139,-10.629L12.674,-13.616L14.803,-19.692L9.269,-16.705L7.139,-10.629ZM15.043,-14.895L21.386,-18.318L20.969,-21.371C20.913,-21.779 20.779,-22.125 20.595,-22.335C20.411,-22.544 20.192,-22.6 19.987,-22.49L17.173,-20.97L15.043,-14.895Z" fill="#ffffff" transform="matrix(.95173 0 0 .47872 1.016 12.672)" stroke-linejoin="round" class="nc-icon-wrapper" fill-rule="evenodd"></path></g></svg>