<?xml version="1.0" encoding="UTF-8" standalone="no"?><!DOCTYPE svg PUBLIC "-//W3C//DTD SVG 1.1//EN" "http://www.w3.org/Graphics/SVG/1.1/DTD/svg11.dtd"><svg width="100%" height="100%" viewBox="0 0 8 8" version="1.1" xmlns="http://www.w3.org/2000/svg" xmlns:xlink="http://www.w3.org/1999/xlink" xml:space="preserve" xmlns:serif="http://www.serif.com/" style="fill-rule:evenodd;clip-rule:evenodd;stroke-linejoin:round;stroke-miterlimit:2;"><rect id="clip" x="0.231" y="0.03" width="7.68" height="7.68" style="fill:none;"/><clipPath id="_clip1"><rect x="0.231" y="0.03" width="7.68" height="7.68"/></clipPath><g clip-path="url(#_clip1)"><g id="clip-studio" serif:id="clip studio"><path d="M7.911,1.95l0,3.84c0,1.06 -0.86,1.92 -1.92,1.92l-3.84,-0c-1.059,-0 -1.92,-0.86 -1.92,-1.92l0,-3.84c0,-1.06 0.861,-1.92 1.92,-1.92l3.84,-0c1.06,-0 1.92,0.86 1.92,1.92Z" style="fill:#adadad;"/><path d="M7.01,1.933c-0.047,-0.071 -0.096,-0.137 -0.148,-0.203c-0.052,-0.065 -0.106,-0.128 -0.166,-0.186c-0.058,-0.06 -0.118,-0.114 -0.184,-0.169c-0.062,-0.055 -0.128,-0.104 -0.196,-0.153c-0.102,-0.071 -0.208,-0.137 -0.318,-0.197c-0.109,-0.06 -0.224,-0.112 -0.339,-0.156c-0.114,-0.046 -0.235,-0.084 -0.355,-0.115c-0.12,-0.03 -0.243,-0.054 -0.366,-0.071c-0.063,-0.008 -0.126,-0.013 -0.186,-0.019c-0.06,-0.008 -0.123,-0.011 -0.186,-0.011c-0.063,0 -0.126,0 -0.189,0.003c-0.062,0.003 -0.125,0.008 -0.188,0.016c-0.063,0.009 -0.126,0.017 -0.189,0.028c-0.063,0.011 -0.123,0.024 -0.186,0.041c-0.063,0.016 -0.123,0.033 -0.183,0.052c-0.06,0.019 -0.12,0.041 -0.18,0.065l-1.793,0.73c-0.05,0.019 -0.099,0.044 -0.145,0.066c-0.047,0.024 -0.091,0.049 -0.134,0.079c-0.044,0.027 -0.085,0.057 -0.123,0.088c-0.039,0.03 -0.077,0.062 -0.11,0.098c-0.052,0.052 -0.098,0.104 -0.142,0.161c-0.044,0.058 -0.079,0.115 -0.112,0.178c-0.033,0.063 -0.06,0.126 -0.082,0.191c-0.019,0.066 -0.035,0.134 -0.046,0.2c-0.006,0.035 -0.009,0.068 -0.011,0.104c-0.006,0.035 -0.006,0.071 -0.006,0.106c0,0.036 0.003,0.071 0.006,0.107c0.002,0.035 0.008,0.071 0.013,0.107c0.009,0.032 0.017,0.068 0.025,0.103c0.011,0.036 0.022,0.071 0.033,0.107c0.013,0.036 0.027,0.071 0.043,0.104c0.017,0.035 0.033,0.068 0.052,0.104c0.025,0.046 0.055,0.09 0.085,0.131c0.03,0.041 0.063,0.082 0.099,0.123c0.035,0.038 0.071,0.077 0.109,0.112c0.038,0.036 0.079,0.068 0.12,0.101c0.063,0.049 0.129,0.093 0.2,0.131c0.068,0.039 0.142,0.074 0.216,0.104c0.074,0.03 0.15,0.055 0.229,0.077c0.08,0.019 0.159,0.035 0.238,0.046c0.041,0.006 0.082,0.009 0.123,0.011c0.041,0.003 0.082,0.003 0.123,0.003c0.041,-0 0.082,-0.003 0.123,-0.005c0.041,-0.003 0.082,-0.009 0.123,-0.014c0.041,-0.006 0.082,-0.014 0.123,-0.022c0.041,-0.008 0.082,-0.019 0.121,-0.03c0.041,-0.011 0.079,-0.025 0.117,-0.038c0.038,-0.014 0.077,-0.03 0.115,-0.047l1.585,-0.697c0.071,-0.03 0.129,-0.074 0.175,-0.123c0.047,-0.049 0.08,-0.107 0.099,-0.169c0.019,-0.061 0.024,-0.126 0.016,-0.192c-0.008,-0.065 -0.033,-0.131 -0.071,-0.194c-0.038,-0.063 -0.09,-0.115 -0.15,-0.158c-0.06,-0.044 -0.126,-0.077 -0.197,-0.099c-0.071,-0.022 -0.145,-0.03 -0.219,-0.027c-0.074,0.003 -0.147,0.019 -0.219,0.049l-1.569,0.678c-0.016,0.005 -0.03,0.011 -0.046,0.016c-0.016,0.006 -0.03,0.009 -0.047,0.014c-0.016,0.003 -0.03,0.006 -0.046,0.008c-0.016,0.003 -0.03,0.003 -0.046,0.003c-0.025,0 -0.047,0 -0.072,-0.003c-0.024,-0.002 -0.046,-0.005 -0.068,-0.011c-0.022,-0.005 -0.046,-0.011 -0.068,-0.019c-0.022,-0.008 -0.044,-0.016 -0.063,-0.027c-0.011,-0.006 -0.022,-0.011 -0.03,-0.017c-0.011,-0.005 -0.019,-0.01 -0.03,-0.019c-0.008,-0.005 -0.019,-0.013 -0.028,-0.019c-0.008,-0.008 -0.016,-0.013 -0.024,-0.022c-0.008,-0.008 -0.017,-0.016 -0.025,-0.024c-0.008,-0.008 -0.016,-0.017 -0.022,-0.025c-0.008,-0.008 -0.013,-0.019 -0.019,-0.027c-0.005,-0.008 -0.013,-0.019 -0.019,-0.03c-0.008,-0.014 -0.014,-0.028 -0.022,-0.041c-0.005,-0.014 -0.011,-0.028 -0.016,-0.041c-0.006,-0.014 -0.008,-0.028 -0.011,-0.041c-0.003,-0.014 -0.006,-0.028 -0.006,-0.041c-0.002,-0.019 -0.002,-0.041 0,-0.06c0.003,-0.02 0.006,-0.041 0.011,-0.061c0.006,-0.019 0.011,-0.038 0.019,-0.057c0.009,-0.019 0.02,-0.036 0.031,-0.055c0.005,-0.008 0.01,-0.016 0.019,-0.024c0.005,-0.008 0.013,-0.017 0.019,-0.025c0.008,-0.008 0.013,-0.016 0.022,-0.022c0.008,-0.008 0.016,-0.013 0.024,-0.022c0.008,-0.008 0.017,-0.013 0.025,-0.019c0.008,-0.005 0.019,-0.013 0.027,-0.019c0.011,-0.005 0.019,-0.011 0.03,-0.016c0.011,-0.006 0.022,-0.011 0.033,-0.014l1.804,-0.754c0.047,-0.02 0.093,-0.036 0.14,-0.05c0.046,-0.013 0.093,-0.027 0.142,-0.038c0.046,-0.011 0.096,-0.019 0.142,-0.024c0.049,-0.006 0.096,-0.009 0.145,-0.011c0.071,-0.003 0.145,-0 0.216,0.005c0.071,0.006 0.145,0.016 0.216,0.033c0.071,0.016 0.142,0.035 0.21,0.057c0.069,0.025 0.134,0.052 0.2,0.082c0.033,0.017 0.063,0.033 0.095,0.049c0.031,0.02 0.063,0.036 0.093,0.058c0.03,0.019 0.061,0.041 0.088,0.063c0.027,0.022 0.057,0.043 0.082,0.068c0.027,0.025 0.055,0.047 0.079,0.074c0.025,0.024 0.049,0.052 0.074,0.079c0.025,0.028 0.046,0.055 0.068,0.085c0.022,0.03 0.044,0.06 0.063,0.09c0.028,0.041 0.049,0.082 0.071,0.126c0.022,0.041 0.041,0.085 0.055,0.126c0.016,0.043 0.03,0.084 0.041,0.128c0.011,0.044 0.019,0.085 0.027,0.129c0.011,0.065 0.014,0.128 0.014,0.194c-0,0.063 -0.008,0.128 -0.019,0.191c-0.011,0.063 -0.028,0.126 -0.049,0.186c-0.022,0.06 -0.05,0.12 -0.082,0.175c-0.017,0.027 -0.033,0.057 -0.052,0.082c-0.019,0.027 -0.039,0.055 -0.06,0.079c-0.022,0.025 -0.044,0.052 -0.066,0.077c-0.022,0.024 -0.047,0.049 -0.074,0.071c-0.024,0.022 -0.052,0.046 -0.079,0.065c-0.027,0.022 -0.058,0.041 -0.088,0.063c-0.03,0.019 -0.063,0.038 -0.095,0.055c-0.033,0.016 -0.066,0.035 -0.101,0.049l-2.559,1.156l0.995,1.501c0.046,0.068 0.104,0.126 0.169,0.17c0.066,0.043 0.14,0.076 0.216,0.095c0.077,0.019 0.156,0.025 0.235,0.017c0.08,-0.008 0.156,-0.033 0.227,-0.071c0.069,-0.039 0.126,-0.088 0.17,-0.143c0.044,-0.054 0.074,-0.117 0.093,-0.185c0.016,-0.066 0.022,-0.137 0.011,-0.205c-0.011,-0.069 -0.033,-0.14 -0.074,-0.205c-0.003,-0.003 -0.003,-0.006 -0.006,-0.009c-0.002,-0.002 -0.002,-0.005 -0.005,-0.008c-0,-0.003 -0.003,-0.005 -0.006,-0.008c-0.002,-0.003 -0.002,-0.005 -0.005,-0.008l-0.317,-0.47l1.449,-0.67c0.082,-0.038 0.158,-0.079 0.235,-0.123c0.074,-0.044 0.145,-0.093 0.213,-0.142c0.068,-0.05 0.131,-0.104 0.191,-0.159c0.061,-0.055 0.115,-0.112 0.167,-0.172c0.077,-0.09 0.148,-0.183 0.208,-0.282c0.06,-0.098 0.112,-0.199 0.153,-0.303c0.041,-0.104 0.077,-0.211 0.101,-0.32c0.025,-0.109 0.038,-0.219 0.047,-0.331c0.002,-0.054 0.002,-0.112 0.002,-0.169c-0.002,-0.058 -0.005,-0.112 -0.011,-0.17c-0.005,-0.057 -0.016,-0.112 -0.024,-0.169c-0.011,-0.058 -0.025,-0.112 -0.041,-0.17c-0.017,-0.054 -0.033,-0.112 -0.055,-0.166c-0.019,-0.055 -0.044,-0.112 -0.068,-0.167c-0.025,-0.055 -0.052,-0.109 -0.082,-0.164c-0.036,-0.055 -0.069,-0.109 -0.104,-0.161" style="fill:#231815;fill-rule:nonzero;"/></g></g></svg>