<?xml version="1.0" encoding="UTF-8" standalone="no"?>
<!DOCTYPE svg PUBLIC "-//W3C//DTD SVG 1.1//EN" "http://www.w3.org/Graphics/SVG/1.1/DTD/svg11.dtd">
<svg width="100%" height="100%" viewBox="0 0 24 24" version="1.1" xmlns="http://www.w3.org/2000/svg" xmlns:xlink="http://www.w3.org/1999/xlink" xml:space="preserve" xmlns:serif="http://www.serif.com/" style="fill-rule:evenodd;clip-rule:evenodd;stroke-linejoin:round;stroke-miterlimit:2;">
    <g transform="matrix(1,0,0,1,-53.9554,-25.6282)">
        <g id="cloud-down-solid" transform="matrix(1,0,0,1,53.9554,25.6282)">
            <rect x="0" y="0" width="24" height="24" style="fill:none;"/>
            <g transform="matrix(1.06088,0,0,1.06088,-2.98381,-1.99919)">
                <path d="M22.95,10.206C24.144,11.317 24.891,12.901 24.891,14.659C24.891,17.858 22.417,20.483 19.28,20.725C17.455,20.865 8.473,20.743 8.473,20.743C5.669,20.743 3.392,18.466 3.392,15.662C3.392,13.811 4.383,12.191 5.863,11.303C5.761,10.857 5.708,10.394 5.708,9.918C5.708,6.503 8.48,3.731 11.894,3.731C14.355,3.731 16.482,5.171 17.478,7.253C17.494,7.286 17.51,7.318 17.527,7.349L14.123,10.757L13.654,10.288L13.196,9.914L12.684,9.644L11.584,9.43L10.484,9.644L9.972,9.914L9.514,10.288L9.14,10.745L8.871,11.257L8.657,12.357L8.871,13.457L9.14,13.969L9.514,14.427L12.054,16.967L12.5,17.333L13.004,17.602L13.55,17.768L14.125,17.824L14.698,17.768L15.245,17.602L15.749,17.332L16.195,16.966L22.95,10.206Z" style="fill:white;"/>
            </g>
        </g>
        <g transform="matrix(1.01376,0,0,1.01376,53.6725,25.870111)">
            <path d="M20.452,3.988C20.741,3.699 21.21,3.699 21.498,3.987C21.787,4.276 21.788,4.745 21.499,5.033L12.639,13.902C12.501,14.041 12.312,14.119 12.116,14.119C11.92,14.119 11.732,14.041 11.593,13.902L8.935,11.244C8.646,10.956 8.646,10.487 8.935,10.198C9.224,9.909 9.693,9.909 9.981,10.198L12.116,12.333L20.452,3.988Z" style="fill:white;"/>
        </g>
    </g>
</svg>
