<?xml version="1.0" encoding="UTF-8" standalone="no"?>
<!DOCTYPE svg PUBLIC "-//W3C//DTD SVG 1.1//EN" "http://www.w3.org/Graphics/SVG/1.1/DTD/svg11.dtd">
<svg width="100%" height="100%" viewBox="0 0 24 24" version="1.1" xmlns="http://www.w3.org/2000/svg" xmlns:xlink="http://www.w3.org/1999/xlink" xml:space="preserve" xmlns:serif="http://www.serif.com/" style="fill-rule:evenodd;clip-rule:evenodd;stroke-linejoin:round;stroke-miterlimit:2;">
    <g transform="matrix(1,0,0,1,-0.126786,0.56797)">
        <g transform="matrix(1.06088,0,0,1.06088,-2.964138,-1.575996)">
            <path d="M13.536,20.039C13.665,20.16 13.706,20.346 13.642,20.509C13.577,20.673 13.418,20.78 13.242,20.779C13.242,20.787 13.242,20.787 13.242,20.787C11.329,20.787 9.758,20.735 8.513,20.735C8.11,20.735 7.731,20.696 7.377,20.624C5.53,20.217 4.059,18.805 3.568,16.991C3.552,16.925 3.537,16.861 3.525,16.797C3.517,16.757 3.507,16.718 3.494,16.68C3.427,16.351 3.392,16.011 3.392,15.662C3.392,13.811 4.383,12.191 5.863,11.303C5.761,10.857 5.708,10.394 5.708,9.918C5.708,6.503 8.48,3.731 11.894,3.731C14.232,3.731 16.27,5.031 17.322,6.948C17.374,7.049 17.377,7.168 17.329,7.272C17.28,7.375 17.186,7.449 17.075,7.473C13.778,8.246 11.324,11.205 11.324,14.737C11.324,16.811 12.17,18.687 13.536,20.039Z" style="fill:white;"/>
        </g>
        <g transform="matrix(0.664572,0,0,0.664572,8.987779,6.08324)">
            <path d="M12,2.25C6.615,2.25 2.25,6.615 2.25,12C2.25,17.385 6.615,21.75 12,21.75C17.385,21.75 21.75,17.385 21.75,12C21.75,6.615 17.385,2.25 12,2.25ZM12.75,6C12.75,5.589 12.411,5.25 12,5.25C11.589,5.25 11.25,5.589 11.25,6L11.25,12C11.25,12.414 11.586,12.75 12,12.75L16.5,12.75C16.911,12.75 17.25,12.411 17.25,12C17.25,11.589 16.911,11.25 16.5,11.25L12.75,11.25L12.75,6Z" style="fill:white;"/>
        </g>
    </g>
</svg>
