<?xml version="1.0" encoding="UTF-8" standalone="no"?>
<!DOCTYPE svg PUBLIC "-//W3C//DTD SVG 1.1//EN" "http://www.w3.org/Graphics/SVG/1.1/DTD/svg11.dtd">
<svg width="100%" height="100%" viewBox="0 0 24 24" version="1.1" xmlns="http://www.w3.org/2000/svg" xmlns:xlink="http://www.w3.org/1999/xlink" xml:space="preserve" xmlns:serif="http://www.serif.com/" style="fill-rule:evenodd;clip-rule:evenodd;stroke-linejoin:round;stroke-miterlimit:2;">
    <g transform="matrix(1,0,0,1,-25.9848,-25.6282)">
        <path d="M26.708,41.324C26.637,40.975 26.599,40.615 26.599,40.245C26.599,38.281 27.651,36.562 29.221,35.62C29.113,35.147 29.056,34.656 29.056,34.151C29.056,30.528 31.997,27.587 35.619,27.587C38.775,27.587 41.415,29.82 42.042,32.791C42.34,32.748 42.643,32.727 42.953,32.727C46.515,32.727 49.407,35.618 49.407,39.18C49.407,42.574 46.783,45.359 43.455,45.616C42.494,45.689 33.353,45.626 32.032,45.626C31.605,45.626 31.203,45.585 30.827,45.509C28.868,45.077 27.307,43.579 26.786,41.654C26.769,41.584 26.753,41.517 26.741,41.449C26.732,41.406 26.721,41.365 26.708,41.324ZM36.09,35.911L36.09,39.661C36.09,40.275 36.589,40.774 37.204,40.774C37.818,40.774 38.317,40.275 38.317,39.661L38.317,35.911C38.317,35.296 37.818,34.797 37.204,34.797C36.589,34.797 36.09,35.296 36.09,35.911ZM37.206,41.986C36.576,41.986 36.064,42.498 36.064,43.128C36.064,43.758 36.576,44.27 37.206,44.27C37.837,44.27 38.348,43.758 38.348,43.128C38.348,42.498 37.837,41.986 37.206,41.986Z" style="fill:white;"/>
    </g>
</svg>
