<?xml version="1.0" encoding="UTF-8" standalone="no"?>
<!DOCTYPE svg PUBLIC "-//W3C//DTD SVG 1.1//EN" "http://www.w3.org/Graphics/SVG/1.1/DTD/svg11.dtd">
<svg width="100%" height="100%" viewBox="0 0 24 24" version="1.1" xmlns="http://www.w3.org/2000/svg" xmlns:xlink="http://www.w3.org/1999/xlink" xml:space="preserve" xmlns:serif="http://www.serif.com/" style="fill-rule:evenodd;clip-rule:evenodd;stroke-linejoin:round;stroke-miterlimit:2;">
    <g transform="matrix(1,0,0,1,-25.9848,-25.6282)">
        <g id="cloud-up-solid" transform="matrix(1,0,0,1,25.9848,25.6282)">
            <rect x="0" y="0" width="24" height="24" style="fill:none;"/>
            <g transform="matrix(1.06088,0,0,1.06088,-2.98381,-1.99919)">
                <path d="M3.494,16.68C3.427,16.351 3.392,16.011 3.392,15.662C3.392,13.811 4.383,12.191 5.863,11.303C5.761,10.857 5.708,10.394 5.708,9.918C5.708,6.503 8.48,3.731 11.894,3.731C14.869,3.731 17.357,5.836 17.948,8.636C18.229,8.596 18.515,8.576 18.807,8.576C22.165,8.576 24.891,11.301 24.891,14.659C24.891,17.858 22.417,20.483 19.28,20.725C18.374,20.794 15.702,20.799 13.242,20.787C13.685,20.192 13.968,19.468 14.133,18.63C14.364,17.457 14.363,16.033 14.363,14.447L14.363,14.079L17.481,17.139C17.852,17.503 18.449,17.497 18.814,17.126C19.178,16.754 19.172,16.157 18.801,15.793L14.08,11.161C13.713,10.801 13.126,10.801 12.76,11.161L8.039,15.793C7.668,16.157 7.662,16.754 8.026,17.126C8.391,17.497 8.988,17.503 9.359,17.139L12.477,14.079L12.477,14.447C12.477,15.858 12.492,17.128 12.298,18.184C12.146,19.016 11.871,19.7 11.235,20.134C10.632,20.546 9.758,20.735 8.513,20.735C8.11,20.735 7.731,20.696 7.377,20.624C5.53,20.217 4.059,18.805 3.568,16.991C3.552,16.925 3.537,16.861 3.525,16.797C3.517,16.757 3.507,16.718 3.494,16.68Z" style="fill:white;"/>
            </g>
        </g>
    </g>
</svg>
