<?xml version="1.0" encoding="UTF-8" standalone="no"?>
<!DOCTYPE svg PUBLIC "-//W3C//DTD SVG 1.1//EN" "http://www.w3.org/Graphics/SVG/1.1/DTD/svg11.dtd">
<svg width="100%" height="100%" viewBox="0 0 24 24" version="1.1" xmlns="http://www.w3.org/2000/svg" xmlns:xlink="http://www.w3.org/1999/xlink" xml:space="preserve" xmlns:serif="http://www.serif.com/" style="fill-rule:evenodd;clip-rule:evenodd;stroke-linejoin:round;stroke-miterlimit:2;">
    <g transform="matrix(1,0,0,1,-53.9554,-25.6282)">
        <g id="cloud-down-solid" transform="matrix(1,0,0,1,53.9554,25.6282)">
            <rect x="0" y="0" width="24" height="24" style="fill:none;"/>
            <g transform="matrix(1.06088,0,0,1.06088,-2.98381,-1.99919)">
                <path d="M14.127,15.414L14.127,14.675C14.127,12.83 14.251,10.958 15.344,9.768C15.813,9.258 16.958,8.576 18.807,8.576C22.165,8.576 24.891,11.301 24.891,14.659C24.891,17.858 22.417,20.483 19.28,20.725C17.455,20.865 8.473,20.743 8.473,20.743C5.669,20.743 3.392,18.466 3.392,15.662C3.392,13.811 4.383,12.191 5.863,11.303C5.761,10.857 5.708,10.394 5.708,9.918C5.708,6.503 8.48,3.731 11.894,3.731C14.355,3.731 16.482,5.171 17.478,7.253C16.025,7.466 15.014,8.038 14.303,8.811C12.989,10.242 12.713,12.458 12.713,14.675L12.713,15.436C12.439,15.167 12.106,14.84 11.758,14.498L11.119,13.86C11.091,13.832 11.061,13.807 11.029,13.784C10.143,12.914 9.348,12.135 9.348,12.135C8.977,11.77 8.38,11.776 8.015,12.147C7.651,12.519 7.657,13.116 8.028,13.48L12.749,18.112C13.115,18.472 13.702,18.472 14.069,18.112L18.79,13.48C19.161,13.116 19.167,12.519 18.803,12.147C18.438,11.776 17.841,11.77 17.47,12.135L14.127,15.414Z" style="fill:white;"/>
            </g>
        </g>
    </g>
</svg>
