<?xml version="1.0" encoding="UTF-8" standalone="no"?>
<!DOCTYPE svg PUBLIC "-//W3C//DTD SVG 1.1//EN" "http://www.w3.org/Graphics/SVG/1.1/DTD/svg11.dtd">
<svg width="100%" height="100%" viewBox="0 0 24 24" version="1.1" xmlns="http://www.w3.org/2000/svg" xmlns:xlink="http://www.w3.org/1999/xlink" xml:space="preserve" xmlns:serif="http://www.serif.com/" style="fill-rule:evenodd;clip-rule:evenodd;stroke-linejoin:round;stroke-miterlimit:2;">
    <rect id="Artboard1" x="0" y="0" width="24" height="24" style="fill:none;"/>
    <g id="Artboard11" serif:id="Artboard1">
        <g transform="matrix(1.132822,0,0,1.132822,-1.586414,-1.596034)">
            <g transform="matrix(0.01046,0,0,0.01046,-53.917,1.679)">
                <path d="M5899.9,1377.92C5796.77,1236.5 5571.41,1258.72 5487.65,1342.48C5358.37,1471.76 5333.86,1688.21 5437,1829.63C5540.13,1971.05 5730.29,1982.4 5861.38,1854.95C5992.47,1727.51 5978.14,1485.2 5899.9,1377.92Z" style="fill:white;"/>
            </g>
            <g transform="matrix(0.01046,0,0,0.01046,-53.917,1.679)">
                <path d="M6299.31,815.039C6470.11,874.929 6739.37,908.351 6952.92,785.19C7090.07,706.098 7193.35,588.334 7217.34,467.385C7231.64,395.417 7187.02,324.873 7115.86,306.962C6986.96,274.729 6815.35,304.389 6670.84,355.799C6653.08,362.359 6633.24,359.927 6617.58,349.269C6601.93,338.611 6592.4,321.043 6591.99,302.11C6592.64,212.993 6587.63,119.348 6548.35,59.439C6535.98,40.59 6513.9,30.497 6491.55,33.472C6382.39,48.156 6298.45,163.901 6239.61,295.732C6231.75,313.002 6215.94,325.337 6197.28,328.762C6178.61,332.187 6159.45,326.27 6145.97,312.916C6116.14,283.922 6083.85,256.222 6054.88,238.279C6042.66,230.707 6027.8,228.677 6014,232.692C6000.19,236.707 5987.92,246.024 5982.49,259.335C5917.2,419.473 6049.46,727.427 6299.31,815.039Z" style="fill:white;"/>
            </g>
            <g transform="matrix(0.01046,0,0,0.01046,-53.917,1.679)">
                <path d="M5707.28,455.154C5526.97,460.225 5394.27,634.606 5411.14,844.322C5428.01,1054.04 5573.94,1191.87 5754.25,1186.8C5934.57,1181.73 6055.13,1037.69 6038.26,827.969C6021.39,618.252 5887.6,450.083 5707.28,455.154Z" style="fill:white;"/>
            </g>
            <g transform="matrix(0.01046,0,0,0.01046,-53.917,1.679)">
                <path d="M6412,966.767C6175.18,969.058 6013.83,1103.15 6002.1,1295.92C5990.36,1488.68 6128.62,1639.28 6365.44,1636.99C6602.27,1634.7 6804.07,1476.34 6815.8,1283.57C6827.53,1090.8 6648.83,964.476 6412,966.767Z" style="fill:white;"/>
            </g>
        </g>
    </g>
</svg>
