<svg width="24" height="24" xmlns="http://www.w3.org/2000/svg" clip-rule="evenodd" stroke-miterlimit="2" viewBox="0 0 24 24"><title>collapse right</title><g stroke-linejoin="round" fill="#ffffff" class="nc-icon-wrapper" fill-rule="evenodd"><path fill="none" fill-rule="nonzero" d="M0 0H24V24H0z"></path><path d="M10,13L10,18C10,20.194 8.194,22 6,22C3.806,22 2,20.194 2,18L2,6C2,3.806 3.806,2 6,2C8.194,2 10,3.806 10,6L10,11L14.586,11L13.293,9.707C12.903,9.317 12.903,8.683 13.293,8.293C13.683,7.903 14.317,7.903 14.707,8.293L17.707,11.293C17.895,11.481 18,11.734 18,12C18,12.266 17.895,12.519 17.707,12.707L14.707,15.707C14.317,16.097 13.683,16.097 13.293,15.707C12.903,15.317 12.903,14.683 13.293,14.293L14.586,13L10,13ZM18,4C17.448,4 17,3.552 17,3C17,2.448 17.448,2 18,2C20.194,2 22,3.806 22,6L22,18C22,20.194 20.194,22 18,22C17.448,22 17,21.552 17,21C17,20.448 17.448,20 18,20C19.097,20 20,19.097 20,18L20,6C20,4.903 19.097,4 18,4Z" fill="#ffffff"></path></g></svg>