<svg width="24" height="24" xmlns="http://www.w3.org/2000/svg" clip-rule="evenodd" stroke-miterlimit="2" viewBox="0 0 24 24"><title>collapse left</title><g stroke-linejoin="round" fill="#ffffff" class="nc-icon-wrapper" fill-rule="evenodd"><path fill="none" fill-rule="nonzero" d="M0 0H24V24H0z"></path><path d="M6.293,12.707C6.105,12.519 6,12.266 6,12C6,11.734 6.105,11.481 6.293,11.293L9.293,8.293C9.683,7.903 10.317,7.903 10.707,8.293C11.097,8.683 11.097,9.317 10.707,9.707L9.414,11L14,11L14,6C14,3.806 15.806,2 18,2C20.194,2 22,3.806 22,6L22,18C22,20.194 20.194,22 18,22C15.806,22 14,20.194 14,18L14,13L9.414,13L10.707,14.293C11.097,14.683 11.097,15.317 10.707,15.707C10.317,16.097 9.683,16.097 9.293,15.707L6.293,12.707ZM6,20C6.552,20 7,20.448 7,21C7,21.552 6.552,22 6,22C3.806,22 2,20.194 2,18L2,6C2,3.806 3.806,2 6,2C6.552,2 7,2.448 7,3C7,3.552 6.552,4 6,4C4.903,4 4,4.903 4,6L4,18C4,19.097 4.903,20 6,20Z" fill="#ffffff"></path></g></svg>