<?xml version="1.0" encoding="UTF-8" standalone="no"?>
<!DOCTYPE svg PUBLIC "-//W3C//DTD SVG 1.1//EN" "http://www.w3.org/Graphics/SVG/1.1/DTD/svg11.dtd">
<svg width="100%" height="100%" viewBox="0 0 24 24" version="1.1" xmlns="http://www.w3.org/2000/svg" xmlns:xlink="http://www.w3.org/1999/xlink" xml:space="preserve" xmlns:serif="http://www.serif.com/" style="fill-rule:evenodd;clip-rule:evenodd;stroke-linejoin:round;stroke-miterlimit:2;">
    <g>
        <g transform="matrix(1,0,0,1,-0.769305,1.57089)">
            <path d="M20.022,7.298C21.518,7.311 22.727,8.527 22.727,10.025L22.727,19C22.727,20.506 21.506,21.727 20,21.727L4,21.727C2.494,21.727 1.273,20.506 1.273,19L1.273,10.025C1.273,8.744 1.536,7.373 1.974,6.789L4.194,3.829L4.406,3.605L4.662,3.438L4.948,3.334L5.255,3.298L11.655,3.298L11.962,3.334L12.248,3.438L12.504,3.605L12.716,3.829C12.716,3.829 14.906,6.749 14.907,6.75C15.102,6.947 15.225,7.088 15.392,7.174C15.555,7.258 15.759,7.276 16.103,7.293C16.726,7.323 17.687,7.3 19.307,7.298C19.371,7.298 19.435,7.298 19.5,7.298L20,7.298C20.007,7.298 20.015,7.298 20.022,7.298ZM12,18.29C14.355,18.29 16.265,16.38 16.265,14.025C16.265,11.67 14.355,9.761 12,9.761C9.645,9.761 7.735,11.67 7.735,14.025C7.735,16.38 9.645,18.29 12,18.29Z" style="fill:rgb(230,204,73);"/>
        </g>
        <g transform="matrix(1,0,0,1,2.25,-6.75)">
            <path d="M17.25,9.75L17.25,7.5C17.25,7.086 17.586,6.75 18,6.75C18.414,6.75 18.75,7.086 18.75,7.5L18.75,9.75L21,9.75C21.414,9.75 21.75,10.086 21.75,10.5C21.75,10.914 21.414,11.25 21,11.25L18.75,11.25L18.75,13.5C18.75,13.914 18.414,14.25 18,14.25C17.586,14.25 17.25,13.914 17.25,13.5L17.25,11.25L15,11.25C14.586,11.25 14.25,10.914 14.25,10.5C14.25,10.086 14.586,9.75 15,9.75L17.25,9.75Z" style="fill:rgb(230,204,73);"/>
        </g>
    </g>
</svg>
