<?xml version="1.0" encoding="UTF-8" standalone="no"?><!DOCTYPE svg PUBLIC "-//W3C//DTD SVG 1.1//EN" "http://www.w3.org/Graphics/SVG/1.1/DTD/svg11.dtd"><svg width="100%" height="100%" viewBox="0 0 8 8" version="1.1" xmlns="http://www.w3.org/2000/svg" xmlns:xlink="http://www.w3.org/1999/xlink" xml:space="preserve" xmlns:serif="http://www.serif.com/" style="fill-rule:evenodd;clip-rule:evenodd;stroke-linecap:round;stroke-linejoin:round;stroke-miterlimit:1.5;"><rect id="default" x="0.147" y="0.166" width="7.68" height="7.68" style="fill:none;"/><clipPath id="_clip1"><rect x="0.147" y="0.166" width="7.68" height="7.68"/></clipPath><g clip-path="url(#_clip1)"><path d="M4.454,0.166c0.264,0 0.514,0.116 0.685,0.316c0.387,0.455 1.096,1.286 1.451,1.702c0.138,0.163 0.215,0.37 0.215,0.584c-0,0.817 -0,2.953 -0,4.179c-0,0.238 -0.095,0.467 -0.264,0.636c-0.168,0.168 -0.397,0.263 -0.636,0.263c-1.059,0 -2.81,0 -3.87,0c-0.496,0 -0.899,-0.402 -0.899,-0.899l0,-5.882c0,-0.238 0.095,-0.467 0.263,-0.635c0.169,-0.169 0.398,-0.264 0.636,-0.264c0.768,0 1.838,0 2.419,0Z" style="fill:#fff;"/><g><path d="M2.333,2.573l3.307,0" style="fill:none;stroke:#000;stroke-width:0.54px;"/><path d="M2.333,4.006l3.307,0" style="fill:none;stroke:#000;stroke-width:0.54px;"/><path d="M2.333,5.439l3.307,0" style="fill:none;stroke:#000;stroke-width:0.54px;"/></g></g></svg>