<svg width="24" height="24" xmlns="http://www.w3.org/2000/svg" clip-rule="evenodd" stroke-miterlimit="2" viewBox="0 0 24 24"><title>dependency</title><g stroke-linejoin="round" fill="#ffffff" class="nc-icon-wrapper" fill-rule="evenodd"><path fill="none" fill-rule="nonzero" d="M0 0H24V24H0z"></path><path d="M5.25,8.645C4.101,8.315 3.25,7.249 3.25,6C3.25,4.491 4.491,3.25 6,3.25C7.509,3.25 8.75,4.491 8.75,6C8.75,7.249 7.899,8.315 6.75,8.645L6.75,16C6.75,16.686 7.314,17.25 8,17.25L11.189,17.25L9.47,15.53L10.53,14.47L13.53,17.47C13.823,17.763 13.823,18.237 13.53,18.53L10.53,21.53L9.47,20.47L11.189,18.75L8,18.75C6.491,18.75 5.25,17.509 5.25,16L5.25,8.645ZM12.811,6.75L14.53,8.47L13.47,9.53L10.47,6.53C10.177,6.237 10.177,5.763 10.47,5.47L13.47,2.47L14.53,3.53L12.811,5.25L16,5.25C17.509,5.25 18.75,6.491 18.75,8L18.75,15.355C19.899,15.685 20.75,16.751 20.75,18C20.75,19.509 19.509,20.75 18,20.75C16.491,20.75 15.25,19.509 15.25,18C15.25,16.751 16.101,15.685 17.25,15.355L17.25,8C17.25,7.314 16.686,6.75 16,6.75L12.811,6.75Z" fill="#ffffff"></path></g></svg>