<?xml version="1.0" encoding="UTF-8" standalone="no"?><!DOCTYPE svg PUBLIC "-//W3C//DTD SVG 1.1//EN" "http://www.w3.org/Graphics/SVG/1.1/DTD/svg11.dtd"><svg width="100%" height="100%" viewBox="0 0 24 24" version="1.1" xmlns="http://www.w3.org/2000/svg" xmlns:xlink="http://www.w3.org/1999/xlink" xml:space="preserve" xmlns:serif="http://www.serif.com/" style="fill-rule:evenodd;clip-rule:evenodd;stroke-linejoin:round;stroke-miterlimit:2;"><g id="download"><g><path d="M13.253,3.099c4.368,0.61 7.734,4.366 7.734,8.901c0,4.96 -4.027,8.987 -8.987,8.987c-4.96,0 -8.987,-4.027 -8.987,-8.987c0,-4.535 3.366,-8.29 7.734,-8.901l0,8.6l-1.241,-1.241c-0.489,-0.489 -1.283,-0.489 -1.772,0c-0.489,0.489 -0.489,1.283 -0,1.772l3.38,3.38c0.231,0.231 0.547,0.367 0.886,0.367c0.339,-0 0.655,-0.136 0.886,-0.367l3.377,-3.38c0.489,-0.489 0.489,-1.283 -0.001,-1.772c-0.489,-0.489 -1.283,-0.489 -1.772,0.001l-1.237,1.238l0,-8.598Z" style="fill:#fff;"/></g></g></svg>