<?xml version="1.0" encoding="UTF-8" standalone="no"?>
<!DOCTYPE svg PUBLIC "-//W3C//DTD SVG 1.1//EN" "http://www.w3.org/Graphics/SVG/1.1/DTD/svg11.dtd">
<svg width="100%" height="100%" viewBox="0 0 24 24" version="1.1" xmlns="http://www.w3.org/2000/svg" xmlns:xlink="http://www.w3.org/1999/xlink" xml:space="preserve" xmlns:serif="http://www.serif.com/" style="fill-rule:evenodd;clip-rule:evenodd;stroke-linecap:round;stroke-linejoin:round;stroke-miterlimit:1.5;">
    <g>
        <g transform="matrix(1.08467,0,0,1.08467,-1.01601,-0.904851)">
            <path d="M19.5,11.8L19.5,13.795C19.5,14.416 18.996,14.92 18.375,14.92L5.625,14.92C5.004,14.92 4.5,14.416 4.5,13.795L4.5,3.375C4.5,2.754 5.004,2.25 5.625,2.25L10.138,2.25C10.685,2.25 11.181,2.541 11.592,2.95C12.289,3.646 12.75,4.697 12.75,5.625L12.75,7.125C12.75,8.154 13.596,9 14.625,9L16.125,9C17.051,9 18.095,9.464 18.784,10.164C19.192,10.577 19.479,11.077 19.479,11.625C19.479,11.685 19.487,11.744 19.5,11.8ZM13.108,2.413C17.287,2.994 18.906,5.124 19.357,8.672C18.426,7.947 17.215,7.5 16.125,7.5L14.625,7.5C14.419,7.5 14.25,7.331 14.25,7.125L14.25,5.625C14.25,4.547 13.815,3.345 13.108,2.413Z" style="fill:white;"/>
        </g>
        <g transform="matrix(0.96339,0,0,0.715811,0.824945,6.17051)">
            <path d="M18.891,15.295C19.164,15.295 19.385,15.592 19.385,15.959C19.385,17.191 19.385,19.817 19.385,21.049C19.385,21.415 19.164,21.713 18.891,21.713C16.557,21.713 6.642,21.713 4.308,21.713C4.036,21.713 3.815,21.415 3.815,21.049C3.815,19.817 3.815,17.191 3.815,15.959C3.815,15.592 4.036,15.295 4.308,15.295C6.642,15.295 16.557,15.295 18.891,15.295Z" style="fill:white;stroke:white;stroke-width:1.77px;"/>
        </g>
    </g>
</svg>
