<?xml version="1.0" encoding="UTF-8" standalone="no"?>
<!DOCTYPE svg PUBLIC "-//W3C//DTD SVG 1.1//EN" "http://www.w3.org/Graphics/SVG/1.1/DTD/svg11.dtd">
<svg width="100%" height="100%" viewBox="0 0 24 24" version="1.1" xmlns="http://www.w3.org/2000/svg" xmlns:xlink="http://www.w3.org/1999/xlink" xml:space="preserve" xmlns:serif="http://www.serif.com/" style="fill-rule:evenodd;clip-rule:evenodd;stroke-linejoin:round;stroke-miterlimit:2;">
    <g>
        <path d="M12,15C13.646,15 15,13.646 15,12C15,10.354 13.646,9 12,9C10.354,9 9,10.354 9,12C9,13.646 10.354,15 12,15Z" style="fill:white;fill-rule:nonzero;"/>
        <path d="M12.434,20.242C12.289,20.247 12.145,20.25 11.999,20.25C7.029,20.25 2.813,17.027 1.324,12.56C1.204,12.199 1.203,11.808 1.324,11.447C2.812,6.976 7.028,3.75 12.001,3.75C16.971,3.75 21.186,6.973 22.676,11.44C22.796,11.802 22.796,12.192 22.676,12.553C22.542,12.955 22.387,13.347 22.21,13.727C21.127,12.659 19.64,12 18,12C17.746,12 17.496,12.016 17.25,12.047C17.25,12.031 17.25,12.016 17.25,12C17.25,9.12 14.88,6.75 12,6.75C9.12,6.75 6.75,9.12 6.75,12C6.75,14.88 9.12,17.25 12,17.25C12.016,17.25 12.031,17.25 12.047,17.25C12.016,17.496 12,17.746 12,18C12,18.792 12.154,19.549 12.434,20.242Z" style="fill:white;"/>
        <g transform="matrix(0.471438,0,0,0.471438,12.342,12.3427)">
            <path d="M11.078,2.25C10.161,2.25 9.379,2.913 9.228,3.817L9.05,4.889C9.03,5.009 8.935,5.149 8.753,5.237C8.41,5.402 8.081,5.592 7.767,5.807C7.601,5.922 7.433,5.933 7.317,5.89L6.3,5.508C5.445,5.188 4.474,5.536 4.018,6.327L3.096,7.924C2.64,8.714 2.823,9.729 3.528,10.309L4.368,11.001C4.463,11.079 4.538,11.23 4.522,11.431C4.494,11.81 4.494,12.191 4.522,12.57C4.537,12.77 4.463,12.922 4.369,13L3.528,13.692C2.823,14.272 2.64,15.287 3.096,16.077L4.018,17.674C4.474,18.465 5.445,18.812 6.3,18.492L7.319,18.11C7.434,18.067 7.602,18.079 7.769,18.192C8.081,18.406 8.41,18.597 8.754,18.762C8.936,18.85 9.031,18.99 9.051,19.112L9.229,20.183C9.38,21.087 10.162,21.75 11.079,21.75L12.923,21.75C13.839,21.75 14.622,21.087 14.773,20.183L14.951,19.111C14.971,18.991 15.065,18.851 15.248,18.762C15.592,18.597 15.921,18.406 16.233,18.192C16.4,18.078 16.568,18.067 16.683,18.11L17.703,18.492C18.557,18.811 19.527,18.463 19.983,17.673L20.906,16.076C21.362,15.286 21.179,14.271 20.474,13.691L19.634,12.999C19.539,12.921 19.464,12.77 19.48,12.569C19.508,12.19 19.508,11.809 19.48,11.43C19.464,11.23 19.539,11.078 19.633,11L20.473,10.308C21.181,9.726 21.364,8.718 20.906,7.923L19.984,6.326C19.528,5.535 18.557,5.188 17.702,5.508L16.682,5.89C16.568,5.933 16.4,5.921 16.233,5.807C15.92,5.592 15.59,5.402 15.248,5.237C15.065,5.15 14.971,5.01 14.951,4.889L14.772,3.817C14.622,2.916 13.835,2.25 12.922,2.25L11.078,2.25ZM12,15.75C14.057,15.75 15.75,14.057 15.75,12C15.75,9.943 14.057,8.25 12,8.25C9.943,8.25 8.25,9.943 8.25,12C8.25,14.057 9.943,15.75 12,15.75Z" style="fill:white;"/>
        </g>
    </g>
</svg>
