<svg xmlns="http://www.w3.org/2000/svg" height="24" width="24" viewBox="0 0 24 24"><title>face plus</title><g fill="#ffffff" class="nc-icon-wrapper"><path d="M22.33 9.57a2.99 2.99 0 0 1-2.71 1.73 3 3 0 0 1-2.99-2.99v-0.33h-0.34a3 3 0 0 1-2.99-2.99 2.99 2.99 0 0 1 2.48-2.94 10.57 10.57 0 0 0-3.81-0.72c-5.87 0-10.64 4.77-10.64 10.64s4.77 10.64 10.64 10.64 10.64-4.77 10.64-10.64a10.61 10.61 0 0 0-0.28-2.4z m-15.68 2.4a1.33 1.33 0 1 1 2.66 0 1.33 1.33 0 0 1-2.66 0z m9.16 4.2c-0.84 1.32-2.27 2.11-3.84 2.12s-3-0.79-3.84-2.12a1 1 0 0 1 1.69-1.07c0.47 0.74 1.27 1.19 2.15 1.19s1.68-0.44 2.15-1.19a1 1 0 1 1 1.68 1.07z m0.15-2.87a1.33 1.33 0 1 1 0-2.66 1.33 1.33 0 0 1 0 2.66z" fill="#ffffff"></path><path d="M22.94 3.99h-2.32v-2.33a1 1 0 0 0-2 0v2.33h-2.33a1 1 0 0 0 0 2h2.33v2.32a1 1 0 0 0 2 0v-2.32h2.32a1 1 0 0 0 0-2z" fill="#ffffff" data-color="color-2"></path></g></svg>