<?xml version="1.0" encoding="UTF-8" standalone="no"?>
<!DOCTYPE svg PUBLIC "-//W3C//DTD SVG 1.1//EN" "http://www.w3.org/Graphics/SVG/1.1/DTD/svg11.dtd">
<svg width="100%" height="100%" viewBox="0 0 24 24" version="1.1" xmlns="http://www.w3.org/2000/svg" xmlns:xlink="http://www.w3.org/1999/xlink" xml:space="preserve" xmlns:serif="http://www.serif.com/" style="fill-rule:evenodd;clip-rule:evenodd;stroke-linejoin:round;stroke-miterlimit:2;">
    <rect id="file-plus" x="0" y="0" width="24" height="24" style="fill:none;"/>
    <g id="file-plus1" serif:id="file-plus">
        <path d="M11.877,21.75L5.625,21.75C5.004,21.75 4.5,21.246 4.5,20.625L4.5,3.375C4.5,2.754 5.004,2.25 5.625,2.25L10.138,2.25C10.685,2.25 11.181,2.541 11.592,2.95C12.289,3.646 12.75,4.697 12.75,5.625L12.75,7.125C12.75,8.154 13.596,9 14.625,9L16.125,9C17.051,9 18.095,9.464 18.784,10.164C18.814,10.195 18.844,10.226 18.873,10.258C18.276,10.09 17.648,10 17,10C13.16,10 10,13.16 10,17C10,18.826 10.714,20.498 11.877,21.75ZM13.108,2.413C17.287,2.994 18.906,5.124 19.357,8.672C18.426,7.947 17.215,7.5 16.125,7.5L14.625,7.5C14.419,7.5 14.25,7.331 14.25,7.125L14.25,5.625C14.25,4.547 13.815,3.345 13.108,2.413Z" style="fill:white;"/>
        <g transform="matrix(1.386291,0,0,1.386291,-6.570349,-6.635721)">
            <path d="M20.941,17.05C20.941,19.21 19.163,20.988 17.002,20.988C14.842,20.988 13.064,19.21 13.064,17.05C13.064,14.889 14.842,13.111 17.002,13.111C19.163,13.111 20.941,14.889 20.941,17.05ZM16.252,17.8L16.252,18.869C16.252,19.283 16.589,19.619 17.002,19.619C17.416,19.619 17.752,19.283 17.752,18.869L17.752,17.8L18.822,17.8C19.236,17.8 19.572,17.464 19.572,17.05C19.572,16.636 19.236,16.3 18.822,16.3L17.752,16.3L17.752,15.23C17.752,14.816 17.416,14.48 17.002,14.48C16.589,14.48 16.252,14.816 16.252,15.23L16.252,16.3L15.183,16.3C14.769,16.3 14.433,16.636 14.433,17.05C14.433,17.464 14.769,17.8 15.183,17.8L16.252,17.8Z" style="fill:white;"/>
        </g>
    </g>
</svg>
