<?xml version="1.0" encoding="UTF-8" standalone="no"?>
<!DOCTYPE svg PUBLIC "-//W3C//DTD SVG 1.1//EN" "http://www.w3.org/Graphics/SVG/1.1/DTD/svg11.dtd">
<svg width="100%" height="100%" viewBox="0 0 24 24" version="1.1" xmlns="http://www.w3.org/2000/svg" xmlns:xlink="http://www.w3.org/1999/xlink" xml:space="preserve" xmlns:serif="http://www.serif.com/" style="fill-rule:evenodd;clip-rule:evenodd;stroke-linejoin:round;stroke-miterlimit:2;">
    <g>
        <path d="M8.367,21.75L5.625,21.75C5.004,21.75 4.5,21.246 4.5,20.625L4.5,3.375C4.5,2.754 5.004,2.25 5.625,2.25L8.469,2.25L10.138,2.25C10.685,2.25 11.181,2.541 11.592,2.95C12.289,3.646 12.75,4.697 12.75,5.625L12.75,7.125C12.75,8.154 13.596,9 14.625,9L16.125,9C17.051,9 18.095,9.464 18.784,10.164C19.17,10.556 19.449,11.024 19.477,11.539C18.252,10.922 16.869,10.575 15.404,10.575C11.395,10.575 7.994,13.176 6.794,16.781L6.623,17.837L6.795,18.894C7.145,19.944 7.682,20.91 8.367,21.75ZM13.108,2.413C17.287,2.994 18.906,5.124 19.357,8.672C18.426,7.947 17.215,7.5 16.125,7.5L14.625,7.5C14.419,7.5 14.25,7.331 14.25,7.125L14.25,5.625C14.25,4.547 13.815,3.345 13.108,2.413ZM7.969,17.497C9.002,14.392 11.931,12.151 15.385,12.151C18.838,12.151 21.765,14.39 22.8,17.492C22.884,17.744 22.884,18.015 22.8,18.265C21.768,21.371 18.838,23.612 15.384,23.612C11.932,23.612 9.003,21.373 7.969,18.27C7.886,18.019 7.885,17.748 7.969,17.497ZM19.031,17.881C19.031,15.881 17.385,14.235 15.385,14.235C13.384,14.235 11.738,15.881 11.738,17.881C11.738,19.882 13.384,21.528 15.385,21.528C17.385,21.528 19.031,19.882 19.031,17.881ZM15.385,19.965C14.242,19.965 13.301,19.025 13.301,17.881C13.301,16.738 14.242,15.798 15.385,15.798C16.528,15.798 17.469,16.738 17.469,17.881C17.469,19.025 16.528,19.965 15.385,19.965Z" style="fill:white;"/>
    </g>
</svg>
