<?xml version="1.0" encoding="UTF-8" standalone="no"?>
<!DOCTYPE svg PUBLIC "-//W3C//DTD SVG 1.1//EN" "http://www.w3.org/Graphics/SVG/1.1/DTD/svg11.dtd">
<svg width="100%" height="100%" viewBox="0 0 24 24" version="1.1" xmlns="http://www.w3.org/2000/svg" xmlns:xlink="http://www.w3.org/1999/xlink" xml:space="preserve" xmlns:serif="http://www.serif.com/" style="fill-rule:evenodd;clip-rule:evenodd;stroke-linecap:round;stroke-linejoin:round;">
    <g>
        <path d="M12.856,21.75L5.625,21.75C5.004,21.75 4.5,21.246 4.5,20.625L4.5,3.375C4.5,2.754 5.004,2.25 5.625,2.25L10.138,2.25C10.685,2.25 11.181,2.541 11.592,2.95C12.289,3.646 12.75,4.697 12.75,5.625L12.75,7.125C12.75,8.154 13.596,9 14.625,9L16.125,9C17.051,9 18.095,9.464 18.784,10.164C19.14,10.525 19.405,10.952 19.466,11.42C18.88,11.24 18.261,11.144 17.62,11.144C15.928,11.144 14.304,11.817 13.108,13.013C11.912,14.209 11.24,15.833 11.24,17.524C11.24,19.138 11.852,20.621 12.856,21.75ZM13.108,2.413C17.287,2.994 18.906,5.124 19.357,8.672C18.426,7.947 17.215,7.5 16.125,7.5L14.625,7.5C14.419,7.5 14.25,7.331 14.25,7.125L14.25,5.625C14.25,4.547 13.815,3.345 13.108,2.413Z" style="fill:white;"/>
        <g transform="matrix(0.519084,0,0,0.519084,12.169684,12.074077)">
            <path d="M21,21L15.803,15.803M15.803,15.803C17.209,14.397 18,12.488 18,10.499C18,6.385 14.614,2.999 10.5,2.999C8.511,2.999 6.602,3.79 5.196,5.196C3.79,6.602 2.999,8.511 2.999,10.499C2.999,14.614 6.385,18 10.5,18C12.488,18 14.397,17.209 15.803,15.803Z" style="fill:none;fill-rule:nonzero;stroke:white;stroke-width:2.89px;"/>
        </g>
    </g>
</svg>
