<?xml version="1.0" encoding="UTF-8" standalone="no"?>
<!DOCTYPE svg PUBLIC "-//W3C//DTD SVG 1.1//EN" "http://www.w3.org/Graphics/SVG/1.1/DTD/svg11.dtd">
<svg width="100%" height="100%" viewBox="0 0 24 24" version="1.1" xmlns="http://www.w3.org/2000/svg" xmlns:xlink="http://www.w3.org/1999/xlink" xml:space="preserve" xmlns:serif="http://www.serif.com/" style="fill-rule:evenodd;clip-rule:evenodd;stroke-linejoin:round;stroke-miterlimit:2;">
    <g transform="matrix(1,0,0,1,0.395577,18.91066)">
        <path d="M3.63,-3.914L2.241,0L0.486,0L5.561,-13.821L7.288,-13.821L12.363,0L10.609,0L9.219,-3.914L3.63,-3.914ZM8.692,-5.399L6.479,-11.635L6.371,-11.635L4.157,-5.399L8.692,-5.399ZM13.573,0L13.573,-13.821L15.165,-13.821L15.165,-8.719L15.3,-8.719C15.417,-8.899 15.58,-9.13 15.79,-9.411C15.999,-9.692 16.3,-9.944 16.694,-10.167C17.088,-10.389 17.622,-10.501 18.297,-10.501C19.169,-10.501 19.939,-10.283 20.605,-9.846C21.271,-9.41 21.79,-8.791 22.164,-7.99C22.537,-7.189 22.724,-6.245 22.724,-5.156C22.724,-4.058 22.537,-3.108 22.164,-2.305C21.79,-1.502 21.273,-0.881 20.611,-0.442C19.95,-0.003 19.187,0.216 18.324,0.216C17.658,0.216 17.125,0.105 16.724,-0.118C16.324,-0.341 16.016,-0.595 15.8,-0.881C15.584,-1.166 15.417,-1.404 15.3,-1.593L15.111,-1.593L15.111,0L13.573,0ZM15.138,-5.183C15.138,-4.4 15.253,-3.711 15.482,-3.114C15.712,-2.518 16.047,-2.053 16.488,-1.718C16.929,-1.382 17.469,-1.215 18.108,-1.215C18.774,-1.215 19.33,-1.391 19.778,-1.745C20.226,-2.098 20.563,-2.575 20.79,-3.175C21.017,-3.776 21.131,-4.445 21.131,-5.183C21.131,-5.912 21.02,-6.57 20.797,-7.157C20.574,-7.744 20.239,-8.21 19.791,-8.554C19.344,-8.898 18.783,-9.07 18.108,-9.07C17.46,-9.07 16.915,-8.907 16.475,-8.581C16.034,-8.255 15.701,-7.8 15.476,-7.218C15.251,-6.635 15.138,-5.957 15.138,-5.183Z" style="fill:white;"/>
    </g>
</svg>
