<?xml version="1.0" encoding="UTF-8" standalone="no"?>
<!DOCTYPE svg PUBLIC "-//W3C//DTD SVG 1.1//EN" "http://www.w3.org/Graphics/SVG/1.1/DTD/svg11.dtd">
<svg width="100%" height="100%" viewBox="0 0 24 24" version="1.1" xmlns="http://www.w3.org/2000/svg" xmlns:xlink="http://www.w3.org/1999/xlink" xml:space="preserve" xmlns:serif="http://www.serif.com/" style="fill-rule:evenodd;clip-rule:evenodd;stroke-linejoin:round;stroke-miterlimit:2;">
    <g transform="matrix(17,0,0,17,8.86326,17.541891)">
        <path d="M-0.409,-0.266L-0.409,0L-0.497,0L-0.497,-0.727L-0.251,-0.727C-0.194,-0.727 -0.147,-0.717 -0.111,-0.697C-0.075,-0.676 -0.048,-0.648 -0.03,-0.614C-0.013,-0.579 -0.004,-0.54 -0.004,-0.497C-0.004,-0.454 -0.013,-0.415 -0.03,-0.38C-0.047,-0.345 -0.074,-0.317 -0.111,-0.297C-0.147,-0.276 -0.193,-0.266 -0.25,-0.266L-0.409,-0.266L-0.409,-0.344L-0.253,-0.344C-0.214,-0.344 -0.182,-0.35 -0.158,-0.364C-0.135,-0.377 -0.118,-0.396 -0.107,-0.419C-0.096,-0.442 -0.091,-0.468 -0.091,-0.497C-0.091,-0.526 -0.096,-0.552 -0.107,-0.575C-0.118,-0.598 -0.135,-0.616 -0.159,-0.629C-0.183,-0.643 -0.214,-0.649 -0.254,-0.649L-0.409,-0.649L-0.409,-0.344L-0.426,-0.344L-0.426,-0.266L-0.409,-0.266ZM0.138,-0.093C0.12,-0.093 0.105,-0.099 0.093,-0.112C0.08,-0.124 0.074,-0.139 0.074,-0.157C0.074,-0.174 0.08,-0.19 0.093,-0.202C0.105,-0.215 0.12,-0.221 0.138,-0.221C0.155,-0.221 0.17,-0.215 0.183,-0.202C0.195,-0.19 0.202,-0.174 0.202,-0.157C0.202,-0.145 0.199,-0.135 0.193,-0.125C0.187,-0.115 0.18,-0.108 0.17,-0.102C0.16,-0.096 0.15,-0.093 0.138,-0.093ZM0.138,-0.461C0.12,-0.461 0.105,-0.467 0.093,-0.48C0.08,-0.492 0.074,-0.507 0.074,-0.525C0.074,-0.542 0.08,-0.557 0.093,-0.57C0.105,-0.583 0.12,-0.589 0.138,-0.589C0.155,-0.589 0.17,-0.583 0.183,-0.57C0.195,-0.557 0.202,-0.542 0.202,-0.525C0.202,-0.513 0.199,-0.503 0.193,-0.493C0.187,-0.483 0.18,-0.475 0.17,-0.47C0.16,-0.464 0.15,-0.461 0.138,-0.461ZM0.559,-0.761L0.325,0.109L0.248,0.109L0.483,-0.761L0.559,-0.761ZM0.866,-0.761L0.632,0.109L0.555,0.109L0.789,-0.761L0.866,-0.761Z" style="fill:white;"/>
    </g>
</svg>
