<?xml version="1.0" encoding="UTF-8" standalone="no"?>
<!DOCTYPE svg PUBLIC "-//W3C//DTD SVG 1.1//EN" "http://www.w3.org/Graphics/SVG/1.1/DTD/svg11.dtd">
<svg width="100%" height="100%" viewBox="0 0 33 32" version="1.1" xmlns="http://www.w3.org/2000/svg" xmlns:xlink="http://www.w3.org/1999/xlink" xml:space="preserve" xmlns:serif="http://www.serif.com/" style="fill-rule:evenodd;clip-rule:evenodd;stroke-linejoin:round;stroke-miterlimit:2;">
    <g transform="matrix(1,0,0,1,-91,0)">
        <g id="firefox" transform="matrix(1,0,0,1,-547.498,-3.55271e-15)">
            <rect x="639.469" y="0" width="32" height="32" style="fill:none;"/>
            <g transform="matrix(0.391436,0,0,0.391436,640.314,0.35788)">
                <path d="M74.62,26.83C72.936,22.778 69.52,18.403 66.845,17.02C68.753,20.714 70.077,24.681 70.77,28.78L70.777,28.845C66.395,17.925 58.967,13.515 52.897,3.925C52.59,3.44 52.283,2.954 51.984,2.441C51.813,2.148 51.676,1.884 51.557,1.641C51.305,1.154 51.111,0.638 50.979,0.106C50.979,0.055 50.941,0.012 50.891,0.006C50.867,-0.001 50.842,-0.001 50.818,0.006C50.813,0.006 50.805,0.015 50.799,0.017C50.793,0.019 50.78,0.028 50.771,0.032L50.786,0.006C41.051,5.706 37.746,16.256 37.446,21.536C33.557,21.803 29.838,23.236 26.776,25.647C26.457,25.376 26.123,25.123 25.776,24.889C24.893,21.798 24.855,18.526 25.667,15.416C22.092,17.148 18.915,19.603 16.338,22.626L16.32,22.626C14.784,20.679 14.892,14.259 14.98,12.918C14.526,13.101 14.092,13.331 13.686,13.605C12.33,14.573 11.062,15.659 9.898,16.85C8.571,18.195 7.359,19.649 6.275,21.197L6.275,21.203L6.275,21.196C3.784,24.728 2.016,28.718 1.075,32.936L1.023,33.192C0.95,33.533 0.687,35.241 0.642,35.612C0.642,35.641 0.636,35.668 0.633,35.697C0.294,37.46 0.084,39.246 0.004,41.04L0.004,41.24C0.042,62.477 17.527,79.932 38.764,79.932C57.538,79.932 73.746,66.292 76.954,47.794C77.019,47.294 77.072,46.799 77.13,46.294C77.928,39.696 77.064,33.003 74.616,26.824L74.62,26.83ZM29.95,57.17C30.131,57.257 30.301,57.351 30.487,57.434L30.514,57.451C30.326,57.361 30.138,57.267 29.95,57.17ZM70.778,28.856L70.778,28.819L70.785,28.86L70.778,28.856Z" style="fill:url(#_Linear1);fill-rule:nonzero;"/>
                <path d="M74.62,26.83C72.936,22.778 69.52,18.403 66.845,17.02C68.753,20.714 70.077,24.681 70.77,28.78L70.77,28.817L70.777,28.858C73.764,37.404 73.331,46.783 69.571,55.018C65.129,64.549 54.381,74.318 37.551,73.838C19.371,73.323 3.351,59.828 0.361,42.158C-0.184,39.371 0.361,37.958 0.635,35.693C0.261,37.452 0.053,39.243 0.012,41.041L0.012,41.241C0.05,62.478 17.535,79.933 38.772,79.933C57.546,79.933 73.754,66.293 76.962,47.795C77.027,47.295 77.08,46.8 77.138,46.295C77.936,39.697 77.072,33.004 74.624,26.825L74.62,26.83Z" style="fill:url(#_Radial2);fill-rule:nonzero;"/>
                <path d="M74.62,26.83C72.936,22.778 69.52,18.403 66.845,17.02C68.753,20.714 70.077,24.681 70.77,28.78L70.77,28.817L70.777,28.858C73.764,37.404 73.331,46.783 69.571,55.018C65.129,64.549 54.381,74.318 37.551,73.838C19.371,73.323 3.351,59.828 0.361,42.158C-0.184,39.371 0.361,37.958 0.635,35.693C0.261,37.452 0.053,39.243 0.012,41.041L0.012,41.241C0.05,62.478 17.535,79.933 38.772,79.933C57.546,79.933 73.754,66.293 76.962,47.795C77.027,47.295 77.08,46.8 77.138,46.295C77.936,39.697 77.072,33.004 74.624,26.825L74.62,26.83Z" style="fill:url(#_Radial3);fill-rule:nonzero;"/>
                <path d="M55.78,31.38C55.864,31.439 55.942,31.498 56.021,31.557C55.047,29.831 53.836,28.25 52.421,26.862C40.371,14.812 49.264,0.742 50.763,0.022L50.778,-0C41.043,5.7 37.738,16.25 37.438,21.53C37.89,21.499 38.338,21.461 38.8,21.461C45.822,21.475 52.318,25.269 55.78,31.378L55.78,31.38Z" style="fill:url(#_Radial4);fill-rule:nonzero;"/>
                <path d="M38.82,33.79C38.756,34.754 35.35,38.079 34.159,38.079C23.139,38.079 21.349,44.746 21.349,44.746C21.837,50.36 25.749,54.986 30.478,57.426C30.694,57.538 30.913,57.639 31.132,57.738C31.511,57.906 31.891,58.061 32.27,58.204C33.893,58.778 35.593,59.106 37.313,59.177C56.633,60.083 60.373,36.077 46.432,29.107C49.72,28.679 53.052,29.488 55.777,31.376C52.315,25.267 45.819,21.473 38.797,21.459C38.337,21.459 37.887,21.497 37.435,21.528C33.546,21.795 29.827,23.228 26.765,25.639C27.356,26.139 28.023,26.807 29.428,28.192C32.058,30.783 38.803,33.467 38.818,33.782L38.82,33.79Z" style="fill:url(#_Radial5);fill-rule:nonzero;"/>
                <path d="M38.82,33.79C38.756,34.754 35.35,38.079 34.159,38.079C23.139,38.079 21.349,44.746 21.349,44.746C21.837,50.36 25.749,54.986 30.478,57.426C30.694,57.538 30.913,57.639 31.132,57.738C31.511,57.906 31.891,58.061 32.27,58.204C33.893,58.778 35.593,59.106 37.313,59.177C56.633,60.083 60.373,36.077 46.432,29.107C49.72,28.679 53.052,29.488 55.777,31.376C52.315,25.267 45.819,21.473 38.797,21.459C38.337,21.459 37.887,21.497 37.435,21.528C33.546,21.795 29.827,23.228 26.765,25.639C27.356,26.139 28.023,26.807 29.428,28.192C32.058,30.783 38.803,33.467 38.818,33.782L38.82,33.79Z" style="fill:url(#_Radial6);fill-rule:nonzero;"/>
                <path d="M24.96,24.36C25.274,24.56 25.533,24.734 25.76,24.891C24.877,21.8 24.839,18.528 25.651,15.418C22.076,17.15 18.899,19.605 16.322,22.628C16.511,22.623 22.133,22.522 24.96,24.36Z" style="fill:url(#_Radial7);fill-rule:nonzero;"/>
                <path d="M0.354,42.16C3.345,59.83 19.364,73.33 37.544,73.84C54.374,74.316 65.124,64.546 69.564,55.02C73.324,46.785 73.757,37.406 70.77,28.86L70.77,28.823C70.77,28.794 70.764,28.777 70.77,28.786L70.777,28.851C72.152,37.828 67.586,46.521 60.447,52.411L60.425,52.461C46.515,63.791 33.205,59.295 30.515,57.461C30.327,57.371 30.139,57.277 29.951,57.18C21.842,53.304 18.491,45.92 19.211,39.58C15.286,39.638 11.677,37.368 10.03,33.805C14.354,31.156 19.758,30.939 24.28,33.233C28.868,35.315 34.093,35.521 38.83,33.805C38.815,33.49 32.07,30.805 29.44,28.215C28.035,26.83 27.368,26.163 26.777,25.662C26.458,25.391 26.124,25.138 25.777,24.904C25.547,24.747 25.288,24.577 24.977,24.373C22.15,22.535 16.528,22.636 16.342,22.641L16.324,22.641C14.788,20.694 14.896,14.274 14.984,12.933C14.53,13.116 14.096,13.346 13.69,13.62C12.334,14.588 11.066,15.674 9.902,16.865C8.57,18.207 7.353,19.657 6.264,21.202L6.264,21.208L6.264,21.201C3.773,24.733 2.005,28.723 1.064,32.941C1.045,33.02 -0.332,39.04 0.347,42.162L0.354,42.16Z" style="fill:url(#_Radial8);fill-rule:nonzero;"/>
                <path d="M52.42,26.86C53.835,28.25 55.047,29.832 56.02,31.56C56.233,31.721 56.432,31.881 56.601,32.036C65.388,40.136 60.784,51.586 60.441,52.396C67.579,46.515 72.141,37.816 70.771,28.836C66.387,17.906 58.951,13.496 52.891,3.906C52.584,3.421 52.277,2.935 51.978,2.422C51.807,2.129 51.67,1.865 51.551,1.622C51.299,1.135 51.105,0.619 50.973,0.087C50.973,0.036 50.935,-0.007 50.885,-0.013C50.861,-0.02 50.836,-0.02 50.812,-0.013C50.807,-0.013 50.799,-0.004 50.793,-0.002C50.787,0 50.774,0.009 50.765,0.013C49.266,0.724 40.375,14.803 52.425,26.843L52.42,26.86Z" style="fill:url(#_Radial9);fill-rule:nonzero;"/>
                <path d="M56.6,32.04C56.431,31.885 56.232,31.725 56.019,31.564C55.94,31.505 55.862,31.446 55.778,31.387C53.053,29.499 49.721,28.69 46.433,29.118C60.373,36.088 56.633,60.088 37.314,59.188C35.594,59.117 33.894,58.789 32.271,58.215C31.892,58.073 31.512,57.918 31.133,57.749C30.914,57.649 30.695,57.549 30.479,57.437L30.506,57.454C33.2,59.293 46.506,63.786 60.416,52.454L60.438,52.404C60.785,51.594 65.389,40.144 56.598,32.044L56.6,32.04Z" style="fill:url(#_Radial10);fill-rule:nonzero;"/>
                <path d="M21.35,44.74C21.35,44.74 23.139,38.073 34.16,38.073C35.351,38.073 38.76,34.748 38.821,33.784C34.084,35.5 28.859,35.294 24.271,33.212C19.749,30.918 14.345,31.135 10.021,33.784C11.668,37.347 15.277,39.617 19.202,39.559C18.484,45.896 21.834,53.279 29.942,57.159C30.123,57.246 30.293,57.34 30.479,57.423C25.746,54.978 21.838,50.354 21.35,44.743L21.35,44.74Z" style="fill:url(#_Radial11);fill-rule:nonzero;"/>
                <path d="M74.62,26.83C72.936,22.778 69.52,18.403 66.845,17.02C68.753,20.714 70.077,24.681 70.77,28.78L70.777,28.845C66.395,17.925 58.967,13.515 52.897,3.925C52.59,3.44 52.283,2.954 51.984,2.441C51.813,2.148 51.676,1.884 51.557,1.641C51.305,1.154 51.111,0.638 50.979,0.106C50.979,0.055 50.941,0.012 50.891,0.006C50.867,-0.001 50.842,-0.001 50.818,0.006C50.813,0.006 50.805,0.015 50.799,0.017C50.793,0.019 50.78,0.028 50.771,0.032L50.786,0.006C41.051,5.706 37.746,16.256 37.446,21.536C37.898,21.505 38.346,21.467 38.808,21.467C45.83,21.481 52.326,25.275 55.788,31.384C53.063,29.496 49.731,28.687 46.443,29.115C60.383,36.085 56.643,60.085 37.324,59.185C35.604,59.114 33.904,58.786 32.281,58.212C31.902,58.07 31.522,57.915 31.143,57.746C30.924,57.646 30.705,57.546 30.489,57.434L30.516,57.451C30.328,57.361 30.14,57.267 29.952,57.17C30.133,57.257 30.303,57.351 30.489,57.434C25.756,54.988 21.848,50.364 21.36,44.754C21.36,44.754 23.149,38.087 34.17,38.087C35.361,38.087 38.77,34.762 38.831,33.798C38.816,33.483 32.071,30.798 29.441,28.208C28.036,26.823 27.369,26.156 26.778,25.655C26.459,25.384 26.125,25.131 25.778,24.897C24.895,21.806 24.857,18.534 25.669,15.424C22.094,17.156 18.917,19.611 16.34,22.634L16.322,22.634C14.786,20.687 14.894,14.267 14.982,12.926C14.528,13.109 14.094,13.339 13.688,13.613C12.332,14.581 11.064,15.667 9.9,16.858C8.573,18.203 7.361,19.657 6.277,21.205L6.277,21.211L6.277,21.204C3.786,24.736 2.018,28.726 1.077,32.944L1.025,33.2C0.952,33.541 0.625,35.273 0.578,35.645C0.279,37.433 0.088,39.237 0.006,41.048L0.006,41.248C0.044,62.485 17.529,79.94 38.766,79.94C57.54,79.94 73.748,66.3 76.956,47.802C77.021,47.302 77.074,46.807 77.132,46.302C77.93,39.704 77.066,33.011 74.618,26.832L74.62,26.83ZM70.775,28.821L70.782,28.862L70.775,28.821Z" style="fill:url(#_Linear12);fill-rule:nonzero;"/>
            </g>
        </g>
    </g>
    <defs>
        <linearGradient id="_Linear1" x1="0" y1="0" x2="1" y2="0" gradientUnits="userSpaceOnUse" gradientTransform="matrix(-64.343,62.08,-62.08,-64.343,69.49,12.3859)"><stop offset="0" style="stop-color:rgb(255,244,79);stop-opacity:1"/><stop offset="0.05" style="stop-color:rgb(255,244,79);stop-opacity:1"/><stop offset="0.11" style="stop-color:rgb(255,232,71);stop-opacity:1"/><stop offset="0.23" style="stop-color:rgb(255,200,48);stop-opacity:1"/><stop offset="0.37" style="stop-color:rgb(255,152,14);stop-opacity:1"/><stop offset="0.4" style="stop-color:rgb(255,139,22);stop-opacity:1"/><stop offset="0.46" style="stop-color:rgb(255,103,42);stop-opacity:1"/><stop offset="0.53" style="stop-color:rgb(255,54,71);stop-opacity:1"/><stop offset="0.71" style="stop-color:rgb(227,21,135);stop-opacity:1"/><stop offset="1" style="stop-color:rgb(227,21,135);stop-opacity:1"/></linearGradient>
        <radialGradient id="_Radial2" cx="0" cy="0" r="1" gradientUnits="userSpaceOnUse" gradientTransform="matrix(80.8,0,0,80.8,67,9)"><stop offset="0" style="stop-color:rgb(255,189,79);stop-opacity:1"/><stop offset="0.13" style="stop-color:rgb(255,189,79);stop-opacity:1"/><stop offset="0.19" style="stop-color:rgb(255,172,49);stop-opacity:1"/><stop offset="0.25" style="stop-color:rgb(255,157,23);stop-opacity:1"/><stop offset="0.28" style="stop-color:rgb(255,152,14);stop-opacity:1"/><stop offset="0.4" style="stop-color:rgb(255,86,59);stop-opacity:1"/><stop offset="0.47" style="stop-color:rgb(255,55,80);stop-opacity:1"/><stop offset="0.71" style="stop-color:rgb(245,21,108);stop-opacity:1"/><stop offset="0.78" style="stop-color:rgb(235,8,120);stop-opacity:1"/><stop offset="0.86" style="stop-color:rgb(229,0,128);stop-opacity:1"/><stop offset="1" style="stop-color:rgb(229,0,128);stop-opacity:1"/></radialGradient>
        <radialGradient id="_Radial3" cx="0" cy="0" r="1" gradientUnits="userSpaceOnUse" gradientTransform="matrix(80.8,0,0,80.8,37,42)"><stop offset="0" style="stop-color:rgb(150,14,24);stop-opacity:1"/><stop offset="0.3" style="stop-color:rgb(150,14,24);stop-opacity:1"/><stop offset="0.35" style="stop-color:rgb(177,25,39);stop-opacity:0.74"/><stop offset="0.44" style="stop-color:rgb(219,41,61);stop-opacity:0.34"/><stop offset="0.5" style="stop-color:rgb(245,51,75);stop-opacity:0.09"/><stop offset="0.53" style="stop-color:rgb(255,55,80);stop-opacity:0"/><stop offset="1" style="stop-color:rgb(255,55,80);stop-opacity:0"/></radialGradient>
        <radialGradient id="_Radial4" cx="0" cy="0" r="1" gradientUnits="userSpaceOnUse" gradientTransform="matrix(58.53,0,0,58.53,47,-9)"><stop offset="0" style="stop-color:rgb(255,244,79);stop-opacity:1"/><stop offset="0.13" style="stop-color:rgb(255,244,79);stop-opacity:1"/><stop offset="0.25" style="stop-color:rgb(255,220,62);stop-opacity:1"/><stop offset="0.51" style="stop-color:rgb(255,157,18);stop-opacity:1"/><stop offset="1" style="stop-color:rgb(255,152,14);stop-opacity:1"/></radialGradient>
        <radialGradient id="_Radial5" cx="0" cy="0" r="1" gradientUnits="userSpaceOnUse" gradientTransform="matrix(38.47,0,0,38.47,28,63)"><stop offset="0" style="stop-color:rgb(58,142,230);stop-opacity:1"/><stop offset="0.35" style="stop-color:rgb(58,142,230);stop-opacity:1"/><stop offset="0.47" style="stop-color:rgb(92,121,240);stop-opacity:1"/><stop offset="0.67" style="stop-color:rgb(144,89,255);stop-opacity:1"/><stop offset="1" style="stop-color:rgb(193,57,230);stop-opacity:1"/></radialGradient>
        <radialGradient id="_Radial6" cx="0" cy="0" r="1" gradientUnits="userSpaceOnUse" gradientTransform="matrix(19.8288,-4.794,5.61,23.2152,40.908,35.064)"><stop offset="0" style="stop-color:rgb(144,89,255);stop-opacity:0"/><stop offset="0.21" style="stop-color:rgb(144,89,255);stop-opacity:0"/><stop offset="0.28" style="stop-color:rgb(140,79,243);stop-opacity:0.06"/><stop offset="0.75" style="stop-color:rgb(119,22,168);stop-opacity:0.45"/><stop offset="0.98" style="stop-color:rgb(110,0,139);stop-opacity:0.6"/><stop offset="1" style="stop-color:rgb(110,0,139);stop-opacity:0.6"/></radialGradient>
        <radialGradient id="_Radial7" cx="0" cy="0" r="1" gradientUnits="userSpaceOnUse" gradientTransform="matrix(27.68,0,0,27.68,36,6)"><stop offset="0" style="stop-color:rgb(255,226,38);stop-opacity:1"/><stop offset="0.12" style="stop-color:rgb(255,219,39);stop-opacity:1"/><stop offset="0.29" style="stop-color:rgb(255,200,42);stop-opacity:1"/><stop offset="0.5" style="stop-color:rgb(255,169,48);stop-opacity:1"/><stop offset="0.73" style="stop-color:rgb(255,126,55);stop-opacity:1"/><stop offset="0.79" style="stop-color:rgb(255,113,57);stop-opacity:1"/><stop offset="1" style="stop-color:rgb(255,113,57);stop-opacity:1"/></radialGradient>
        <radialGradient id="_Radial8" cx="0" cy="0" r="1" gradientUnits="userSpaceOnUse" gradientTransform="matrix(118.1,0,0,118.1,58,-12)"><stop offset="0" style="stop-color:rgb(255,244,79);stop-opacity:1"/><stop offset="0.11" style="stop-color:rgb(255,244,79);stop-opacity:1"/><stop offset="0.46" style="stop-color:rgb(255,152,14);stop-opacity:1"/><stop offset="0.62" style="stop-color:rgb(255,86,52);stop-opacity:1"/><stop offset="0.72" style="stop-color:rgb(255,54,71);stop-opacity:1"/><stop offset="0.9" style="stop-color:rgb(227,21,135);stop-opacity:1"/><stop offset="1" style="stop-color:rgb(227,21,135);stop-opacity:1"/></radialGradient>
        <radialGradient id="_Radial9" cx="0" cy="0" r="1" gradientUnits="userSpaceOnUse" gradientTransform="matrix(9.0825,86.0675,-56.4845,5.9685,48.184,-5.452)"><stop offset="0" style="stop-color:rgb(255,244,79);stop-opacity:1"/><stop offset="0.06" style="stop-color:rgb(255,232,71);stop-opacity:1"/><stop offset="0.17" style="stop-color:rgb(255,200,48);stop-opacity:1"/><stop offset="0.3" style="stop-color:rgb(255,152,14);stop-opacity:1"/><stop offset="0.36" style="stop-color:rgb(255,139,22);stop-opacity:1"/><stop offset="0.46" style="stop-color:rgb(255,103,42);stop-opacity:1"/><stop offset="0.57" style="stop-color:rgb(255,54,71);stop-opacity:1"/><stop offset="0.74" style="stop-color:rgb(227,21,135);stop-opacity:1"/><stop offset="1" style="stop-color:rgb(227,21,135);stop-opacity:1"/></radialGradient>
        <radialGradient id="_Radial10" cx="0" cy="0" r="1" gradientUnits="userSpaceOnUse" gradientTransform="matrix(73.72,0,0,73.72,36,16)"><stop offset="0" style="stop-color:rgb(255,244,79);stop-opacity:1"/><stop offset="0.14" style="stop-color:rgb(255,244,79);stop-opacity:1"/><stop offset="0.48" style="stop-color:rgb(255,152,14);stop-opacity:1"/><stop offset="0.59" style="stop-color:rgb(255,86,52);stop-opacity:1"/><stop offset="0.66" style="stop-color:rgb(255,54,71);stop-opacity:1"/><stop offset="0.9" style="stop-color:rgb(227,21,135);stop-opacity:1"/><stop offset="1" style="stop-color:rgb(227,21,135);stop-opacity:1"/></radialGradient>
        <radialGradient id="_Radial11" cx="0" cy="0" r="1" gradientUnits="userSpaceOnUse" gradientTransform="matrix(80.69,0,0,80.69,55,20)"><stop offset="0" style="stop-color:rgb(255,244,79);stop-opacity:1"/><stop offset="0.09" style="stop-color:rgb(255,244,79);stop-opacity:1"/><stop offset="0.23" style="stop-color:rgb(255,225,65);stop-opacity:1"/><stop offset="0.51" style="stop-color:rgb(255,175,30);stop-opacity:1"/><stop offset="0.63" style="stop-color:rgb(255,152,14);stop-opacity:1"/><stop offset="1" style="stop-color:rgb(255,152,14);stop-opacity:1"/></radialGradient>
        <linearGradient id="_Linear12" x1="0" y1="0" x2="1" y2="0" gradientUnits="userSpaceOnUse" gradientTransform="matrix(-54.74,54.75,-54.75,-54.74,68.71,12.0559)"><stop offset="0" style="stop-color:rgb(255,244,79);stop-opacity:0.8"/><stop offset="0.17" style="stop-color:rgb(255,244,79);stop-opacity:0.8"/><stop offset="0.27" style="stop-color:rgb(255,244,79);stop-opacity:0.63"/><stop offset="0.49" style="stop-color:rgb(255,244,79);stop-opacity:0.22"/><stop offset="0.6" style="stop-color:rgb(255,244,79);stop-opacity:0"/><stop offset="1" style="stop-color:rgb(255,244,79);stop-opacity:0"/></linearGradient>
    </defs>
</svg>
