<?xml version="1.0" encoding="UTF-8" standalone="no"?><!DOCTYPE svg PUBLIC "-//W3C//DTD SVG 1.1//EN" "http://www.w3.org/Graphics/SVG/1.1/DTD/svg11.dtd"><svg width="100%" height="100%" viewBox="0 0 8 8" version="1.1" xmlns="http://www.w3.org/2000/svg" xmlns:xlink="http://www.w3.org/1999/xlink" xml:space="preserve" xmlns:serif="http://www.serif.com/" style="fill-rule:evenodd;clip-rule:evenodd;stroke-linejoin:round;stroke-miterlimit:2;"><rect id="fla" x="0.053" y="0" width="7.68" height="7.68" style="fill:none;"/><clipPath id="_clip1"><rect x="0.053" y="0" width="7.68" height="7.68"/></clipPath><g clip-path="url(#_clip1)"><path d="M7.733,1.488l0,4.704c0,0.751 -0.609,1.36 -1.36,1.36l-4.96,0c-0.75,0 -1.36,-0.609 -1.36,-1.36l0,-4.704c0,-0.751 0.61,-1.36 1.36,-1.36l4.96,0c0.751,0 1.36,0.609 1.36,1.36Z" style="fill:#00005b;"/><path d="M3.157,4.544l-1.189,0l-0.244,0.751c-0.007,0.028 -0.033,0.048 -0.062,0.046l-0.602,0c-0.035,0 -0.047,-0.018 -0.037,-0.056l1.035,-2.953c0.01,-0.032 0.021,-0.058 0.032,-0.098c0.013,-0.069 0.02,-0.139 0.02,-0.209c-0.002,-0.017 0.01,-0.033 0.028,-0.036c0.003,-0 0.006,-0 0.009,0l0.818,0c0.024,0 0.038,0.009 0.041,0.026l1.166,3.275c0.01,0.034 -0,0.051 -0.032,0.051l-0.67,0c-0.023,0.003 -0.045,-0.013 -0.051,-0.036l-0.262,-0.761Zm-1.001,-0.636l0.814,0c-0.021,-0.068 -0.045,-0.145 -0.072,-0.231c-0.027,-0.086 -0.057,-0.178 -0.088,-0.276l-0.093,-0.293c-0.032,-0.098 -0.059,-0.192 -0.085,-0.284c-0.026,-0.092 -0.049,-0.174 -0.069,-0.25l-0.005,0c-0.029,0.139 -0.065,0.277 -0.108,0.412c-0.049,0.155 -0.098,0.313 -0.147,0.474c-0.05,0.162 -0.099,0.311 -0.147,0.448Zm2.377,1.384l0,-1.9c0,-0.058 -0.001,-0.124 -0.002,-0.196c-0.002,-0.072 -0.005,-0.141 -0.008,-0.206c-0.004,-0.064 -0.007,-0.126 -0.01,-0.163c-0.005,-0.011 -0.003,-0.024 0.005,-0.032c0.008,-0.008 0.02,-0.012 0.032,-0.011l0.514,0c0.018,-0 0.036,0.003 0.052,0.011c0.014,0.007 0.023,0.02 0.025,0.035c0.007,0.021 0.015,0.044 0.024,0.07c0.009,0.034 0.015,0.069 0.018,0.104c0.099,-0.087 0.215,-0.154 0.34,-0.198c0.124,-0.043 0.255,-0.065 0.386,-0.064c0.103,0 0.204,0.017 0.302,0.049c0.227,0.073 0.408,0.248 0.486,0.474c0.052,0.132 0.072,0.303 0.072,0.512l-0,1.512c-0,0.032 -0.014,0.047 -0.041,0.047l-0.602,0.005c-0.002,0 -0.005,0.001 -0.007,0.001c-0.022,-0 -0.042,-0.017 -0.045,-0.04c-0,-0.004 -0,-0.008 0,-0.012l0,-1.433c-0.001,-0.096 -0.022,-0.19 -0.062,-0.278c-0.027,-0.065 -0.073,-0.121 -0.131,-0.16c-0.066,-0.041 -0.142,-0.06 -0.219,-0.057c-0.083,-0.001 -0.165,0.014 -0.242,0.044c-0.071,0.028 -0.137,0.069 -0.192,0.121l-0,1.765c-0,0.032 -0.014,0.046 -0.042,0.046l-0.608,0c-0.022,0.003 -0.043,-0.012 -0.046,-0.034c-0,-0.004 0,-0.008 0.001,-0.012Z" style="fill:#99f;fill-rule:nonzero;"/></g></svg>