<?xml version="1.0" encoding="UTF-8" standalone="no"?>
<!DOCTYPE svg PUBLIC "-//W3C//DTD SVG 1.1//EN" "http://www.w3.org/Graphics/SVG/1.1/DTD/svg11.dtd">
<svg width="100%" height="100%" viewBox="0 0 24 24" version="1.1" xmlns="http://www.w3.org/2000/svg" xmlns:xlink="http://www.w3.org/1999/xlink" xml:space="preserve" xmlns:serif="http://www.serif.com/" style="fill-rule:evenodd;clip-rule:evenodd;stroke-linecap:round;stroke-linejoin:round;">
    <g>
        <path d="M2.25,18L2.25,6C2.25,4.766 3.266,3.75 4.5,3.75L9.879,3.75C10.277,3.75 10.659,3.908 10.94,4.19L13.061,6.31C13.341,6.591 13.723,6.75 14.121,6.75L19.431,6.751C20.712,6.751 21.75,7.79 21.75,9.07L21.75,18C21.75,19.234 20.734,20.25 19.5,20.25L4.5,20.25C3.266,20.25 2.25,19.234 2.25,18ZM18.497,10.947L18.497,13.194C18.497,13.607 18.833,13.942 19.246,13.942C19.659,13.942 19.994,13.607 19.994,13.194L19.994,9.304L19.924,8.954L19.726,8.658L19.43,8.46L19.08,8.39L14.915,8.39C14.502,8.39 14.167,8.725 14.167,9.138C14.167,9.551 14.502,9.886 14.915,9.886L17.437,9.886L12.992,14.331C12.699,14.624 12.699,15.099 12.992,15.392C13.284,15.685 13.76,15.685 14.052,15.392L18.497,10.947Z" style="fill:white;"/>
        <path d="M14.121,6.75C13.723,6.75 13.342,6.591 13.061,6.31L13.06,6.31L10.94,4.19C10.659,3.908 10.277,3.75 9.879,3.75L4.5,3.75C3.266,3.75 2.25,4.766 2.25,6L2.25,18C2.25,19.234 3.266,20.25 4.5,20.25L19.5,20.25C20.734,20.25 21.75,19.234 21.75,18L21.75,9.07C21.75,7.79 20.712,6.751 19.431,6.751C17.186,6.751 14.121,6.75 14.121,6.75Z" style="fill:none;fill-rule:nonzero;stroke:white;stroke-width:1.5px;"/>
    </g>
</svg>
