<?xml version="1.0" encoding="UTF-8" standalone="no"?>
<!DOCTYPE svg PUBLIC "-//W3C//DTD SVG 1.1//EN" "http://www.w3.org/Graphics/SVG/1.1/DTD/svg11.dtd">
<svg width="100%" height="100%" viewBox="0 0 24 24" version="1.1" xmlns="http://www.w3.org/2000/svg" xmlns:xlink="http://www.w3.org/1999/xlink" xml:space="preserve" xmlns:serif="http://www.serif.com/" style="fill-rule:evenodd;clip-rule:evenodd;stroke-linejoin:round;stroke-miterlimit:2;">
    <g transform="matrix(1,0,0,1,0,-27.547986)">
        <path d="M11.405,48.548L4.5,48.548C2.855,48.548 1.5,47.193 1.5,45.548L1.5,33.548C1.5,31.903 2.855,30.548 4.5,30.548L9.879,30.548C10.476,30.548 11.05,30.785 11.47,31.208L13.591,33.328C13.731,33.468 13.922,33.548 14.121,33.548L19.431,33.549C21.126,33.549 22.5,34.924 22.5,36.618L22.5,40.418C21.244,38.749 19.247,37.669 17,37.669C13.204,37.669 10.121,40.751 10.121,44.548C10.121,46.039 10.597,47.421 11.405,48.548Z" style="fill:white;"/>
        <g transform="matrix(1.386291,0,0,1.386291,-6.570349,20.912265)">
            <path d="M20.941,17.05C20.941,19.21 19.163,20.988 17.002,20.988C14.842,20.988 13.064,19.21 13.064,17.05C13.064,14.889 14.842,13.111 17.002,13.111C19.163,13.111 20.941,14.889 20.941,17.05ZM16.252,17.8L16.252,18.869C16.252,19.283 16.589,19.619 17.002,19.619C17.416,19.619 17.752,19.283 17.752,18.869L17.752,17.8L18.822,17.8C19.236,17.8 19.572,17.464 19.572,17.05C19.572,16.636 19.236,16.3 18.822,16.3L17.752,16.3L17.752,15.23C17.752,14.816 17.416,14.48 17.002,14.48C16.589,14.48 16.252,14.816 16.252,15.23L16.252,16.3L15.183,16.3C14.769,16.3 14.433,16.636 14.433,17.05C14.433,17.464 14.769,17.8 15.183,17.8L16.252,17.8Z" style="fill:white;"/>
        </g>
    </g>
</svg>
