<?xml version="1.0" encoding="UTF-8" standalone="no"?>
<!DOCTYPE svg PUBLIC "-//W3C//DTD SVG 1.1//EN" "http://www.w3.org/Graphics/SVG/1.1/DTD/svg11.dtd">
<svg width="100%" height="100%" viewBox="0 0 33 32" version="1.1" xmlns="http://www.w3.org/2000/svg" xmlns:xlink="http://www.w3.org/1999/xlink" xml:space="preserve" xmlns:serif="http://www.serif.com/" style="fill-rule:evenodd;clip-rule:evenodd;stroke-linejoin:round;stroke-miterlimit:2;">
    <g transform="matrix(1,0,0,1,-445,0)">
        <g id="google_drive" transform="matrix(1,0,0,1,-194.041,-2.66454e-15)">
            <rect x="639.469" y="0" width="32" height="32" style="fill:none;"/>
            <g transform="matrix(0.366552,0,0,0.366552,639.469,1.70447)">
                <path d="M6.6,66.85L10.45,73.5C11.25,74.9 12.4,76 13.75,76.8L27.5,53L0,53C0,54.55 0.4,56.1 1.2,57.5L6.6,66.85Z" style="fill:rgb(0,102,218);fill-rule:nonzero;"/>
                <path d="M43.65,25L29.9,1.2C28.55,2 27.4,3.1 26.6,4.5L1.2,48.5C0.415,49.87 0.001,51.421 -0,53L27.5,53L43.65,25Z" style="fill:rgb(0,172,71);fill-rule:nonzero;"/>
                <path d="M73.55,76.8C74.9,76 76.05,74.9 76.85,73.5L78.45,70.75L86.1,57.5C86.9,56.1 87.3,54.55 87.3,53L59.798,53L65.65,64.5L73.55,76.8Z" style="fill:rgb(234,67,53);fill-rule:nonzero;"/>
                <path d="M43.65,25L57.4,1.2C56.05,0.4 54.5,-0 52.9,-0L34.4,-0C32.8,-0 31.25,0.45 29.9,1.2L43.65,25Z" style="fill:rgb(0,131,45);fill-rule:nonzero;"/>
                <path d="M59.8,53L27.5,53L13.75,76.8C15.1,77.6 16.65,78 18.25,78L69.05,78C70.65,78 72.2,77.55 73.55,76.8L59.8,53Z" style="fill:rgb(38,132,252);fill-rule:nonzero;"/>
                <path d="M73.4,26.5L60.7,4.5C59.9,3.1 58.75,2 57.4,1.2L43.65,25L59.8,53L87.25,53C87.25,51.45 86.85,49.9 86.05,48.5L73.4,26.5Z" style="fill:rgb(255,186,0);fill-rule:nonzero;"/>
            </g>
        </g>
    </g>
</svg>
