<?xml version="1.0" encoding="UTF-8" standalone="no"?><!DOCTYPE svg PUBLIC "-//W3C//DTD SVG 1.1//EN" "http://www.w3.org/Graphics/SVG/1.1/DTD/svg11.dtd"><svg width="100%" height="100%" viewBox="0 0 8 8" version="1.1" xmlns="http://www.w3.org/2000/svg" xmlns:xlink="http://www.w3.org/1999/xlink" xml:space="preserve" xmlns:serif="http://www.serif.com/" style="fill-rule:evenodd;clip-rule:evenodd;stroke-linejoin:round;stroke-miterlimit:2;"><rect id="iclone" x="-0" y="0.215" width="7.68" height="7.68" style="fill:none;"/><path d="M2.164,3.699l-1.923,-0l3.103,-3.484l0,2.2c-0.104,0.032 -0.205,0.073 -0.3,0.123l0,-1.535c0,-0 -2.134,2.396 -2.134,2.396l1.348,-0c-0.04,0.096 -0.072,0.196 -0.094,0.3Zm2.172,-1.284l-0,-2.2l3.103,3.484l-1.923,-0c-0.022,-0.104 -0.054,-0.204 -0.094,-0.3l1.348,-0l-2.134,-2.396l-0,1.535c-0.095,-0.05 -0.196,-0.091 -0.3,-0.123Zm1.126,2.193l1.977,-0l-3.599,3.287l-3.599,-3.287l1.977,-0c0.036,0.105 0.082,0.205 0.136,0.3l-1.34,-0l2.826,2.581c-0,-0 2.826,-2.581 2.826,-2.581l-1.34,-0c0.054,-0.095 0.1,-0.195 0.136,-0.3Zm-1.622,-1.874c0.729,-0 1.322,0.592 1.322,1.321c-0,0.729 -0.593,1.322 -1.322,1.322c-0.729,-0 -1.322,-0.593 -1.322,-1.322c0,-0.729 0.593,-1.321 1.322,-1.321Zm0,0.3c-0.564,-0 -1.022,0.457 -1.022,1.021c0,0.564 0.458,1.022 1.022,1.022c0.564,-0 1.022,-0.458 1.022,-1.022c-0,-0.564 -0.458,-1.021 -1.022,-1.021Z" style="fill:#82be0f;"/></svg>