<?xml version="1.0" encoding="UTF-8" standalone="no"?>
<!DOCTYPE svg PUBLIC "-//W3C//DTD SVG 1.1//EN" "http://www.w3.org/Graphics/SVG/1.1/DTD/svg11.dtd">
<svg width="100%" height="100%" viewBox="0 0 24 24" version="1.1" xmlns="http://www.w3.org/2000/svg" xmlns:xlink="http://www.w3.org/1999/xlink" xml:space="preserve" xmlns:serif="http://www.serif.com/" style="fill-rule:evenodd;clip-rule:evenodd;stroke-linejoin:round;stroke-miterlimit:2;">
    <g transform="matrix(1,0,0,1,0,0.651126)">
        <g>
            <path d="M21.003,14.261L18.311,11.569C18.029,11.288 17.648,11.13 17.25,11.13C16.852,11.13 16.471,11.288 16.189,11.569L15.311,12.448L16.28,13.417C16.573,13.71 16.573,14.185 16.28,14.478C15.988,14.771 15.512,14.771 15.22,14.478L10.061,9.319C9.779,9.038 9.398,8.88 9,8.88C8.602,8.88 8.221,9.038 7.939,9.319L3,14.258L3,18C3,18.411 3.339,18.75 3.75,18.75L12.856,18.75C13.27,18.75 13.606,19.086 13.606,19.5C13.606,19.914 13.27,20.25 12.856,20.25L3.75,20.25C2.516,20.25 1.5,19.234 1.5,18L1.5,4.198C1.5,2.963 2.516,1.948 3.75,1.948L20.25,1.948C21.484,1.948 22.5,2.963 22.5,4.198L22.5,14.198C22.5,14.612 22.164,14.948 21.75,14.948C21.357,14.948 21.035,14.645 21.003,14.261ZM14.255,5.347C13.621,5.347 13.106,5.862 13.106,6.497C13.106,7.131 13.621,7.646 14.255,7.646C14.889,7.646 15.404,7.131 15.404,6.497C15.404,5.862 14.889,5.347 14.255,5.347ZM18.25,18.25L18.25,16C18.25,15.586 18.586,15.25 19,15.25C19.414,15.25 19.75,15.586 19.75,16L19.75,18.25L22,18.25C22.414,18.25 22.75,18.586 22.75,19C22.75,19.414 22.414,19.75 22,19.75L19.75,19.75L19.75,22C19.75,22.414 19.414,22.75 19,22.75C18.586,22.75 18.25,22.414 18.25,22L18.25,19.75L16,19.75C15.586,19.75 15.25,19.414 15.25,19C15.25,18.586 15.586,18.25 16,18.25L18.25,18.25Z" style="fill:white;"/>
        </g>
    </g>
</svg>
