<?xml version="1.0" encoding="UTF-8" standalone="no"?>
<!DOCTYPE svg PUBLIC "-//W3C//DTD SVG 1.1//EN" "http://www.w3.org/Graphics/SVG/1.1/DTD/svg11.dtd">
<svg width="100%" height="100%" viewBox="0 0 24 24" version="1.1" xmlns="http://www.w3.org/2000/svg" xmlns:xlink="http://www.w3.org/1999/xlink" xml:space="preserve" xmlns:serif="http://www.serif.com/" style="fill-rule:evenodd;clip-rule:evenodd;stroke-linejoin:round;stroke-miterlimit:2;">
    <g>
        <path d="M2.87,2.82L2.47,2.419C2.177,2.127 2.177,1.651 2.47,1.359C2.762,1.066 3.238,1.066 3.53,1.359L4.811,2.639L20.25,2.639C21.484,2.639 22.5,3.655 22.5,4.889L22.5,18.697C22.5,19.485 22.075,19.903 22.075,19.903L22.625,20.454C22.918,20.746 22.918,21.222 22.625,21.514C22.333,21.807 21.857,21.807 21.565,21.514L19.189,19.139L19.171,19.139L17.671,17.639L17.69,17.639L15.257,15.206C15.244,15.194 15.232,15.182 15.22,15.169L10.06,10.01C10.013,9.963 9.964,9.92 9.913,9.881L2.857,2.826C2.862,2.824 2.866,2.822 2.87,2.82ZM19.811,17.639C20.69,18.517 20.714,18.558 20.979,18.83C20.994,18.772 21,18.71 21,18.648L21,14.949L18.31,12.26C17.728,11.679 16.772,11.679 16.19,12.26L15.31,13.139L16.28,14.109C16.293,14.121 16.305,14.133 16.317,14.146L19.811,17.639ZM13.125,7.139C13.125,7.756 13.633,8.264 14.25,8.264C14.867,8.264 15.375,7.756 15.375,7.139C15.375,6.522 14.867,6.014 14.25,6.014C13.633,6.014 13.125,6.522 13.125,7.139ZM16.202,20.911L3.75,20.911C2.516,20.911 1.5,19.895 1.5,18.661L1.5,4.859C1.5,4.718 1.513,4.58 1.539,4.445L7.507,10.413L3,14.919L3,18.661C3,19.075 3.336,19.411 3.75,19.411L14.702,19.411L16.202,20.911Z" style="fill:white;"/>
    </g>
</svg>
