<?xml version="1.0" encoding="UTF-8" standalone="no"?>
<!DOCTYPE svg PUBLIC "-//W3C//DTD SVG 1.1//EN" "http://www.w3.org/Graphics/SVG/1.1/DTD/svg11.dtd">
<svg width="100%" height="100%" viewBox="0 0 24 24" version="1.1" xmlns="http://www.w3.org/2000/svg" xmlns:xlink="http://www.w3.org/1999/xlink" xml:space="preserve" xmlns:serif="http://www.serif.com/" style="fill-rule:evenodd;clip-rule:evenodd;stroke-linejoin:round;stroke-miterlimit:2;">
    <g>
        <path d="M1.5,4.889C1.5,3.654 2.516,2.639 3.75,2.639L20.25,2.639C21.484,2.639 22.5,3.654 22.5,4.889L22.5,18.631C22.5,19.865 21.484,20.881 20.25,20.881L3.75,20.881C2.516,20.881 1.5,19.865 1.5,18.631L1.5,4.889ZM3,14.949L3,18.631C3,19.045 3.336,19.381 3.75,19.381L20.25,19.381C20.661,19.381 21,19.042 21,18.631L21,14.949L18.31,12.26C17.728,11.679 16.772,11.679 16.19,12.26L15.31,13.139L16.28,14.109C16.432,14.25 16.519,14.449 16.519,14.657C16.519,15.069 16.18,15.407 15.769,15.407C15.561,15.407 15.362,15.321 15.22,15.169L10.06,10.01C9.478,9.429 8.522,9.429 7.94,10.01L3,14.95L3,14.949ZM13.125,7.139C13.125,6.521 13.633,6.014 14.25,6.014C14.867,6.014 15.375,6.521 15.375,7.139C15.375,7.756 14.867,8.264 14.25,8.264C13.633,8.264 13.125,7.756 13.125,7.139Z" style="fill:white;"/>
    </g>
</svg>
