<?xml version="1.0" encoding="UTF-8" standalone="no"?><!DOCTYPE svg PUBLIC "-//W3C//DTD SVG 1.1//EN" "http://www.w3.org/Graphics/SVG/1.1/DTD/svg11.dtd"><svg width="100%" height="100%" viewBox="0 0 8 8" version="1.1" xmlns="http://www.w3.org/2000/svg" xmlns:xlink="http://www.w3.org/1999/xlink" xml:space="preserve" xmlns:serif="http://www.serif.com/" style="fill-rule:evenodd;clip-rule:evenodd;stroke-linejoin:round;stroke-miterlimit:2;"><rect id="indd" x="0.22" y="0" width="7.68" height="7.68" style="fill:none;"/><path d="M7.9,1.456l0,4.768c0,0.751 -0.609,1.36 -1.36,1.36l-4.96,0c-0.75,0 -1.36,-0.609 -1.36,-1.36l0,-4.768c0,-0.751 0.61,-1.36 1.36,-1.36l4.96,-0c0.751,-0 1.36,0.609 1.36,1.36Z" style="fill:#49021f;"/><g id="Id"><path d="M3.009,2.055l0,3.282c0,0.034 -0.015,0.051 -0.046,0.051l-0.624,0c-0.027,0 -0.041,-0.017 -0.041,-0.051l0,-3.282c0,-0.028 0.016,-0.041 0.047,-0.041l0.623,-0c0.002,-0.001 0.003,-0.001 0.005,-0.001c0.02,0 0.037,0.017 0.037,0.037c-0,0.002 -0.001,0.003 -0.001,0.005Z" style="fill:#f36;fill-rule:nonzero;"/><path d="M4.854,5.44c-0.237,0.003 -0.472,-0.046 -0.688,-0.144c-0.201,-0.093 -0.369,-0.245 -0.482,-0.436c-0.117,-0.194 -0.175,-0.437 -0.175,-0.729c-0.002,-0.236 0.058,-0.469 0.175,-0.675c0.12,-0.209 0.297,-0.381 0.51,-0.494c0.223,-0.124 0.493,-0.186 0.809,-0.186c0.017,0 0.04,0.001 0.067,0.003c0.028,0.002 0.06,0.004 0.098,0.008l-0,-1.015c-0,-0.024 0.01,-0.037 0.031,-0.037l0.649,0c0.001,0 0.003,0 0.004,0c0.015,0 0.027,0.013 0.027,0.028c0,0.001 0,0.002 -0,0.003l-0,3.045c-0,0.059 0.002,0.122 0.008,0.191c0.005,0.069 0.009,0.13 0.013,0.185c0.001,0.022 -0.011,0.043 -0.031,0.052c-0.168,0.07 -0.342,0.122 -0.521,0.154c-0.163,0.031 -0.328,0.046 -0.494,0.047Zm0.314,-0.639l-0,-1.407c-0.028,-0.007 -0.056,-0.012 -0.085,-0.015c-0.035,-0.004 -0.07,-0.005 -0.106,-0.005c-0.125,-0.001 -0.248,0.027 -0.36,0.082c-0.109,0.055 -0.203,0.136 -0.271,0.237c-0.07,0.103 -0.105,0.239 -0.105,0.407c-0.003,0.113 0.015,0.224 0.054,0.33c0.031,0.085 0.08,0.162 0.144,0.227c0.061,0.059 0.135,0.103 0.216,0.128c0.086,0.028 0.176,0.042 0.266,0.042c0.048,-0 0.092,-0.002 0.134,-0.005c0.038,-0.003 0.076,-0.01 0.113,-0.021Z" style="fill:#f36;fill-rule:nonzero;"/></g></svg>