<?xml version="1.0" encoding="UTF-8" standalone="no"?>
<!DOCTYPE svg PUBLIC "-//W3C//DTD SVG 1.1//EN" "http://www.w3.org/Graphics/SVG/1.1/DTD/svg11.dtd">
<svg width="100%" height="100%" viewBox="0 0 24 24" version="1.1" xmlns="http://www.w3.org/2000/svg" xmlns:xlink="http://www.w3.org/1999/xlink" xml:space="preserve" xmlns:serif="http://www.serif.com/" style="fill-rule:evenodd;clip-rule:evenodd;stroke-linejoin:round;stroke-miterlimit:2;">
    <g>
        <rect x="0" y="0" width="24" height="24" style="fill:none;fill-rule:nonzero;"/>
        <path d="M9.505,3.077L9.508,3.072C10.035,2.201 10.982,1.668 12,1.668C13.018,1.668 13.965,2.201 14.492,3.072L14.495,3.076L22.601,16.612L22.609,16.626C22.865,17.069 22.999,17.571 22.999,18.082C22.999,19.668 21.704,20.978 20.119,20.996L20.107,20.996L3.893,20.996L3.882,20.996C2.296,20.978 1.001,19.668 1.001,18.082C1.001,17.571 1.135,17.068 1.391,16.625L1.399,16.611L9.505,3.077ZM12,7.378C11.379,7.378 10.875,7.882 10.875,8.503C10.875,9.124 11.379,9.628 12,9.628C12.621,9.628 13.125,9.124 13.125,8.503C13.125,7.882 12.621,7.378 12,7.378ZM13.148,15.366L13.148,11.923C13.148,11.29 12.634,10.776 12,10.776L10.852,10.776C10.219,10.776 9.705,11.29 9.705,11.923C9.705,12.557 10.219,13.071 10.853,13.071L10.852,16.513C10.852,17.147 11.366,17.661 12,17.661L13.148,17.661C13.781,17.661 14.295,17.147 14.295,16.513C14.295,15.88 13.781,15.366 13.148,15.366Z" style="fill:rgb(230,204,73);"/>
    </g>
</svg>
