<?xml version="1.0" encoding="UTF-8" standalone="no"?>
<!DOCTYPE svg PUBLIC "-//W3C//DTD SVG 1.1//EN" "http://www.w3.org/Graphics/SVG/1.1/DTD/svg11.dtd">
<svg width="100%" height="100%" viewBox="0 0 24 24" version="1.1" xmlns="http://www.w3.org/2000/svg" xmlns:xlink="http://www.w3.org/1999/xlink" xml:space="preserve" xmlns:serif="http://www.serif.com/" style="fill-rule:evenodd;clip-rule:evenodd;stroke-linejoin:round;stroke-miterlimit:2;">
    <g>
        <g transform="matrix(1,0,0,1.55985,0,-0.768035)">
            <path d="M15.032,5.153L15.032,13.109C15.032,13.646 14.353,14.081 13.516,14.081L10.484,14.081C9.647,14.081 8.968,13.646 8.968,13.109L8.968,5.153C8.968,4.831 9.376,4.57 9.878,4.57L14.122,4.57C14.624,4.57 15.032,4.831 15.032,5.153Z" style="fill:white;"/>
        </g>
        <g transform="matrix(2.62058e-17,0.427973,-2.05404,1.25774e-16,31.1554,-1.09939)">
            <path d="M15.032,4.886L15.032,13.765C15.032,13.94 14.353,14.081 13.516,14.081L10.484,14.081C9.647,14.081 8.968,13.94 8.968,13.765L8.968,4.886C8.968,4.712 9.647,4.57 10.484,4.57L13.516,4.57C14.353,4.57 15.032,4.712 15.032,4.886Z" style="fill:white;"/>
        </g>
        <g transform="matrix(1,0,0,1.04456,-6.73617,1.58692)">
            <path d="M15.032,5.441L15.032,12.63C15.032,13.431 14.353,14.081 13.516,14.081L10.484,14.081C9.647,14.081 8.968,13.431 8.968,12.63L8.968,5.441C8.968,4.96 9.376,4.57 9.878,4.57L14.122,4.57C14.624,4.57 15.032,4.96 15.032,5.441Z" style="fill:white;"/>
        </g>
        <g transform="matrix(1,0,0,0.62527,6.73613,3.50312)">
            <path d="M15.032,5.997L15.032,11.703C15.032,13.016 14.366,14.081 13.545,14.081L10.455,14.081C9.634,14.081 8.968,13.016 8.968,11.703L8.968,5.997C8.968,5.209 9.368,4.57 9.86,4.57L14.14,4.57C14.632,4.57 15.032,5.209 15.032,5.997Z" style="fill:white;"/>
        </g>
    </g>
</svg>
