<?xml version="1.0" encoding="UTF-8" standalone="no"?>
<!DOCTYPE svg PUBLIC "-//W3C//DTD SVG 1.1//EN" "http://www.w3.org/Graphics/SVG/1.1/DTD/svg11.dtd">
<svg width="100%" height="100%" viewBox="0 0 17 19" version="1.1" xmlns="http://www.w3.org/2000/svg" xmlns:xlink="http://www.w3.org/1999/xlink" xml:space="preserve" xmlns:serif="http://www.serif.com/" style="fill-rule:evenodd;clip-rule:evenodd;stroke-linejoin:round;stroke-miterlimit:2;">
    <g transform="matrix(1,0,0,1,-30.50301,-2.712664)">
        <g transform="matrix(1,0,0,1,26.895987,0)">
            <g transform="matrix(1,0,0,1,-0,0.368233)">
                <path d="M5.546,10.547C5.497,10.465 5.47,10.371 5.47,10.275L5.47,3.641C5.47,3.4 5.595,3.175 5.8,3.047L6.762,2.45C6.926,2.348 7.125,2.318 7.312,2.368C7.499,2.418 7.657,2.544 7.748,2.714L9.436,5.875C9.558,6.103 9.795,6.245 10.053,6.245L13.947,6.245C14.205,6.245 14.442,6.103 14.564,5.875L16.252,2.714C16.343,2.544 16.501,2.418 16.688,2.368C16.875,2.318 17.074,2.348 17.238,2.45L18.2,3.047C18.405,3.175 18.53,3.4 18.53,3.641L18.53,10.275C18.53,10.371 18.503,10.465 18.454,10.547L14.518,17.044C14.389,17.258 14.129,17.354 13.892,17.276L12.233,16.735C12.081,16.685 11.919,16.685 11.767,16.735L10.108,17.276C9.871,17.354 9.611,17.258 9.482,17.044L5.546,10.547ZM14.729,12.337C14.315,12.337 13.979,12.673 13.979,13.087C13.979,13.501 14.315,13.837 14.729,13.837C15.143,13.837 15.479,13.501 15.479,13.087C15.479,12.673 15.143,12.337 14.729,12.337ZM9.271,12.337C8.857,12.337 8.521,12.673 8.521,13.087C8.521,13.501 8.857,13.837 9.271,13.837C9.685,13.837 10.021,13.501 10.021,13.087C10.021,12.673 9.685,12.337 9.271,12.337ZM18.475,13.407C18.572,13.246 18.748,13.15 18.936,13.154C19.124,13.157 19.295,13.261 19.385,13.426L20.306,15.101C20.456,15.374 20.408,15.712 20.188,15.932L15.117,21.003C14.986,21.134 14.808,21.208 14.623,21.208L9.377,21.208C9.192,21.208 9.014,21.134 8.883,21.003L3.812,15.932C3.592,15.712 3.544,15.374 3.694,15.101L4.615,13.426C4.705,13.261 4.876,13.157 5.064,13.154C5.252,13.15 5.428,13.246 5.525,13.407L8.728,18.695C8.909,18.993 9.271,19.128 9.603,19.019L11.833,18.291C11.942,18.256 12.058,18.256 12.167,18.291L14.397,19.019C14.729,19.128 15.091,18.993 15.272,18.695L18.475,13.407Z" style="fill:white;"/>
            </g>
        </g>
    </g>
</svg>
