<svg width="24" height="24" xmlns="http://www.w3.org/2000/svg" clip-rule="evenodd" stroke-miterlimit="2" viewBox="0 0 24 24"><title>layers plus</title><g stroke-linejoin="round" fill="#ffffff" class="nc-icon-wrapper" fill-rule="evenodd"><path d="M17.25,9.75L17.25,7.5C17.25,7.086 17.586,6.75 18,6.75C18.414,6.75 18.75,7.086 18.75,7.5L18.75,9.75L21,9.75C21.414,9.75 21.75,10.086 21.75,10.5C21.75,10.914 21.414,11.25 21,11.25L18.75,11.25L18.75,13.5C18.75,13.914 18.414,14.25 18,14.25C17.586,14.25 17.25,13.914 17.25,13.5L17.25,11.25L15,11.25C14.586,11.25 14.25,10.914 14.25,10.5C14.25,10.086 14.586,9.75 15,9.75L17.25,9.75Z" fill="#ffffff" transform="translate(1.289 -5.742)"></path><path d="M11.644,1.59C11.866,1.47 12.134,1.47 12.356,1.59L22.106,6.84C22.348,6.971 22.5,7.225 22.5,7.5C22.5,7.775 22.348,8.029 22.106,8.16L12.356,13.41C12.134,13.53 11.866,13.53 11.644,13.41L1.894,8.16C1.652,8.029 1.5,7.775 1.5,7.5C1.5,7.225 1.652,6.971 1.894,6.84L11.644,1.59Z" fill="#ffffff" fill-rule="nonzero" transform="translate(0 5.49)"></path><path d="M3.265,10.602L10.933,14.731C11.598,15.089 12.402,15.089 13.067,14.731L20.735,10.601L22.105,11.34C22.347,11.471 22.499,11.725 22.499,12C22.499,12.275 22.347,12.529 22.105,12.66L12.355,17.91C12.134,18.029 11.866,18.029 11.645,17.91L1.895,12.66C1.653,12.529 1.501,12.275 1.501,12C1.501,11.725 1.653,11.471 1.895,11.34L3.265,10.602Z" fill="#ffffff" fill-rule="nonzero" transform="translate(0 5.49)"></path></g></svg>