<?xml version="1.0" encoding="UTF-8" standalone="no"?>
<!DOCTYPE svg PUBLIC "-//W3C//DTD SVG 1.1//EN" "http://www.w3.org/Graphics/SVG/1.1/DTD/svg11.dtd">
<svg width="100%" height="100%" viewBox="0 0 24 24" version="1.1" xmlns="http://www.w3.org/2000/svg" xmlns:xlink="http://www.w3.org/1999/xlink" xml:space="preserve" xmlns:serif="http://www.serif.com/" style="fill-rule:evenodd;clip-rule:evenodd;stroke-linejoin:round;stroke-miterlimit:2;">
    <g>
        <g transform="matrix(1,0,0,1,0,0.499073)">
            <g transform="matrix(0.834008,0,0,0.252242,-2.386481,16.59192)">
                <path d="M10.778,4.916L10.778,19.141C10.778,20.823 10.365,22.189 9.856,22.189L4.661,22.189C4.152,22.189 3.739,20.823 3.739,19.141L3.739,4.916C3.739,3.234 4.152,1.868 4.661,1.868L9.856,1.868C10.365,1.868 10.778,3.234 10.778,4.916Z" style="fill:white;"/>
            </g>
            <g transform="matrix(0.834008,0,0,0.593166,-2.386481,2.997193)">
                <path d="M10.778,3.353L10.778,20.704C10.778,21.524 10.305,22.189 9.722,22.189L4.795,22.189C4.212,22.189 3.739,21.524 3.739,20.704L3.739,3.353C3.739,2.533 4.212,1.868 4.795,1.868L9.722,1.868C10.305,1.868 10.778,2.533 10.778,3.353Z" style="fill:white;"/>
            </g>
            <g transform="matrix(0.834008,0,0,0.252242,4.075795,16.59192)">
                <path d="M10.778,4.916L10.778,19.141C10.778,20.823 10.365,22.189 9.856,22.189L4.661,22.189C4.152,22.189 3.739,20.823 3.739,19.141L3.739,4.916C3.739,3.234 4.152,1.868 4.661,1.868L9.856,1.868C10.365,1.868 10.778,3.234 10.778,4.916Z" style="fill:white;"/>
            </g>
            <g transform="matrix(0.834008,0,0,0.759314,4.075795,-0.689444)">
                <path d="M10.778,3.028L10.778,21.029C10.778,21.669 10.305,22.189 9.722,22.189L4.795,22.189C4.212,22.189 3.739,21.669 3.739,21.029L3.739,3.028C3.739,2.388 4.212,1.868 4.795,1.868L9.722,1.868C10.305,1.868 10.778,2.388 10.778,3.028Z" style="fill:white;"/>
            </g>
            <g transform="matrix(0.80559,-0.215857,0.065097,0.242944,10.309061,4.764688)">
                <path d="M10.778,4.916L10.778,19.141C10.778,20.823 10.366,22.189 9.859,22.189L4.658,22.189C4.151,22.189 3.739,20.823 3.739,19.141L3.739,4.916C3.739,3.234 4.151,1.868 4.658,1.868L9.859,1.868C10.366,1.868 10.778,3.234 10.778,4.916Z" style="fill:white;"/>
            </g>
            <g transform="matrix(0.80559,-0.215857,0.101534,0.378931,11.810078,10.366562)">
                <path d="M10.778,4.113L10.778,19.944C10.778,21.183 10.305,22.189 9.722,22.189L4.795,22.189C4.212,22.189 3.739,21.183 3.739,19.944L3.739,4.113C3.739,2.874 4.212,1.868 4.795,1.868L9.722,1.868C10.305,1.868 10.778,2.874 10.778,4.113Z" style="fill:white;"/>
            </g>
            <g transform="matrix(0.80559,-0.215857,0.049355,0.184195,14.209797,19.322432)">
                <path d="M10.778,4.916L10.778,19.141C10.778,20.823 10.466,22.189 10.081,22.189L4.436,22.189C4.051,22.189 3.739,20.823 3.739,19.141L3.739,4.916C3.739,3.234 4.051,1.868 4.436,1.868L10.081,1.868C10.466,1.868 10.778,3.234 10.778,4.916Z" style="fill:white;"/>
            </g>
        </g>
    </g>
</svg>
