<?xml version="1.0" encoding="UTF-8" standalone="no"?>
<!DOCTYPE svg PUBLIC "-//W3C//DTD SVG 1.1//EN" "http://www.w3.org/Graphics/SVG/1.1/DTD/svg11.dtd">
<svg width="100%" height="100%" viewBox="0 0 24 24" version="1.1" xmlns="http://www.w3.org/2000/svg" xmlns:xlink="http://www.w3.org/1999/xlink" xml:space="preserve" xmlns:serif="http://www.serif.com/" style="fill-rule:evenodd;clip-rule:evenodd;stroke-linejoin:round;stroke-miterlimit:2;">
    <g transform="matrix(5.08347e-17,-0.830194,2.10117,1.28659e-16,-7.59483,21.9623)">
        <path d="M13.225,4.57C14.223,4.57 15.032,4.89 15.032,5.284L15.032,13.367C15.032,13.762 14.223,14.081 13.225,14.081L10.775,14.081C9.777,14.081 8.968,13.762 8.968,13.367L8.968,5.284C8.968,4.89 9.777,4.57 10.775,4.57L13.225,4.57ZM21.318,4.57C22.316,4.57 23.125,4.89 23.125,5.284L23.125,13.367C23.125,13.762 22.316,14.081 21.318,14.081L18.909,14.081C17.912,14.081 17.103,13.762 17.103,13.367L17.103,5.284C17.103,4.89 17.912,4.57 18.909,4.57L21.318,4.57ZM5.091,4.57C6.088,4.57 6.897,4.89 6.897,5.284L6.897,13.367C6.897,13.762 6.088,14.081 5.091,14.081L2.682,14.081C1.684,14.081 0.875,13.762 0.875,13.367L0.875,5.284C0.875,4.89 1.684,4.57 2.682,4.57L5.091,4.57Z" style="fill:white;"/>
    </g>
</svg>
