<?xml version="1.0" encoding="UTF-8" standalone="no"?>
<!DOCTYPE svg PUBLIC "-//W3C//DTD SVG 1.1//EN" "http://www.w3.org/Graphics/SVG/1.1/DTD/svg11.dtd">
<svg width="100%" height="100%" viewBox="0 0 24 24" version="1.1" xmlns="http://www.w3.org/2000/svg" xmlns:xlink="http://www.w3.org/1999/xlink" xml:space="preserve" xmlns:serif="http://www.serif.com/" style="fill-rule:evenodd;clip-rule:evenodd;stroke-linejoin:round;stroke-miterlimit:2;">
    <g id="solid" transform="matrix(5.84407e-17,-1.13344,2.10117,1.52794e-16,-7.59483,21.0147)">
        <path d="M13.709,4.57C14.06,4.57 14.396,4.645 14.644,4.779C14.893,4.913 15.032,5.095 15.032,5.284C15.032,7.049 15.032,11.602 15.032,13.367C15.032,13.557 14.893,13.738 14.644,13.872C14.396,14.006 14.06,14.081 13.709,14.081L10.291,14.081C9.94,14.081 9.604,14.006 9.356,13.872C9.107,13.738 8.968,13.557 8.968,13.367C8.968,11.602 8.968,7.049 8.968,5.284C8.968,5.095 9.107,4.913 9.356,4.779C9.604,4.645 9.94,4.57 10.291,4.57L13.709,4.57ZM5.574,4.57C5.925,4.57 6.262,4.645 6.51,4.779C6.758,4.913 6.897,5.095 6.897,5.284L6.897,13.367C6.897,13.557 6.758,13.738 6.51,13.872C6.262,14.006 5.925,14.081 5.574,14.081L2.198,14.081C1.847,14.081 1.511,14.006 1.262,13.872C1.014,13.738 0.875,13.557 0.875,13.367L0.875,5.284C0.875,5.095 1.014,4.913 1.262,4.779C1.511,4.645 1.847,4.57 2.198,4.57L5.574,4.57Z" style="fill:white;"/>
    </g>
</svg>
