<?xml version="1.0" encoding="UTF-8" standalone="no"?>
<!DOCTYPE svg PUBLIC "-//W3C//DTD SVG 1.1//EN" "http://www.w3.org/Graphics/SVG/1.1/DTD/svg11.dtd">
<svg width="100%" height="100%" viewBox="0 0 24 24" version="1.1" xmlns="http://www.w3.org/2000/svg" xmlns:xlink="http://www.w3.org/1999/xlink" xml:space="preserve" xmlns:serif="http://www.serif.com/" style="fill-rule:evenodd;clip-rule:evenodd;stroke-linejoin:round;stroke-miterlimit:2;">
    <g>
        <path d="M7.5,15.451C7.5,15.213 7.601,14.986 7.776,14.825C8.288,14.363 9.27,13.272 9.27,12C9.27,10.728 8.288,9.637 7.786,9.164C7.614,9.006 7.515,8.783 7.515,8.549C7.5,7.623 7.5,5.25 7.5,5.25C7.5,3.604 8.854,2.25 10.5,2.25L16.5,2.25C18.146,2.25 19.5,3.604 19.5,5.25L19.5,18.75C19.5,20.396 18.146,21.75 16.5,21.75L10.5,21.75C8.854,21.75 7.5,20.396 7.5,18.75L7.5,15.451Z" style="fill:white;"/>
        <g transform="matrix(1,0,0,1,-8.90423,0)">
            <path d="M15.748,12C15.748,12.192 15.675,12.385 15.53,12.53L12.53,15.53C12.388,15.682 12.189,15.769 11.981,15.769C11.57,15.769 11.231,15.43 11.231,15.019C11.231,14.915 11.218,13.569 11.241,12C11.218,10.431 11.231,9.085 11.231,8.981C11.231,8.57 11.57,8.231 11.981,8.231C12.189,8.231 12.388,8.318 12.53,8.47L15.53,11.47C15.675,11.615 15.748,11.808 15.748,12Z" style="fill:white;"/>
        </g>
    </g>
</svg>
