<?xml version="1.0" encoding="UTF-8" standalone="no"?><!DOCTYPE svg PUBLIC "-//W3C//DTD SVG 1.1//EN" "http://www.w3.org/Graphics/SVG/1.1/DTD/svg11.dtd"><svg width="100%" height="100%" viewBox="0 0 8 8" version="1.1" xmlns="http://www.w3.org/2000/svg" xmlns:xlink="http://www.w3.org/1999/xlink" xml:space="preserve" xmlns:serif="http://www.serif.com/" style="fill-rule:evenodd;clip-rule:evenodd;stroke-linejoin:round;stroke-miterlimit:2;"><rect id="lrcat" x="0.082" y="0" width="7.68" height="7.68" style="fill:none;"/><clipPath id="_clip1"><rect x="0.082" y="0" width="7.68" height="7.68"/></clipPath><g clip-path="url(#_clip1)"><path d="M7.762,1.472l0,4.736c0,0.742 -0.602,1.344 -1.344,1.344l-4.992,0c-0.741,0 -1.344,-0.602 -1.344,-1.344l0,-4.736c0,-0.742 0.603,-1.344 1.344,-1.344l4.992,0c0.742,0 1.344,0.602 1.344,1.344Z" style="fill:#001e36;"/><path d="M4.402,3.072l0.544,0c0.027,-0.001 0.052,0.017 0.059,0.043c0.041,0.087 0.064,0.181 0.069,0.277c0.206,-0.266 0.459,-0.384 0.795,-0.384c0.002,-0 0.004,-0 0.006,-0c0.017,-0 0.032,0.014 0.032,0.032c-0,0.001 -0,0.003 -0.001,0.005l0,0.565c0,0.029 -0.014,0.041 -0.042,0.037c-0.308,-0.017 -0.553,0.023 -0.73,0.2c-0.036,0.03 -0.057,0.074 -0.06,0.121l0,1.627c0,0.025 -0.014,0.037 -0.042,0.037l-0.55,0c-0.032,0 -0.048,-0.014 -0.048,-0.043l0,-1.813c0,-0.429 -0.032,-0.491 -0.064,-0.667c-0.003,-0.025 0.007,-0.037 0.032,-0.037Zm-0.431,2.56l-1.984,0c-0.032,0 -0.049,-0.018 -0.049,-0.054l0,-3.358c-0,-0.002 -0,-0.004 -0,-0.006c-0,-0.021 0.017,-0.038 0.038,-0.038c0.002,-0 0.004,-0 0.006,0l0.564,0c0.022,0 0.032,0.013 0.032,0.038l0,2.906l1.496,0c0.032,0 0.046,0.015 0.038,0.044l-0.087,0.424c-0.004,0.027 -0.027,0.046 -0.054,0.044Z" style="fill:#31a8ff;fill-rule:nonzero;"/></g></svg>