<?xml version="1.0" encoding="UTF-8" standalone="no"?><!DOCTYPE svg PUBLIC "-//W3C//DTD SVG 1.1//EN" "http://www.w3.org/Graphics/SVG/1.1/DTD/svg11.dtd"><svg width="100%" height="100%" viewBox="0 0 8 8" version="1.1" xmlns="http://www.w3.org/2000/svg" xmlns:xlink="http://www.w3.org/1999/xlink" xml:space="preserve" xmlns:serif="http://www.serif.com/" style="fill-rule:evenodd;clip-rule:evenodd;stroke-linejoin:round;stroke-miterlimit:2;"><rect id="ma" x="0.147" y="0.096" width="7.68" height="7.68" style="fill:none;"/><clipPath id="_clip1"><rect x="0.147" y="0.096" width="7.68" height="7.68"/></clipPath><g clip-path="url(#_clip1)"><g id="ma1" serif:id="ma"><path d="M2.759,1.3c0.313,-0 0.626,0.003 0.94,-0.002c0.207,0.801 0.404,1.605 0.606,2.407c0.21,-0.803 0.418,-1.607 0.638,-2.407c0.299,0.004 0.599,0.003 0.898,0.001c0.006,0.999 0.003,1.999 0.001,2.999c-0.235,-0.004 -0.47,-0.001 -0.706,-0.002c-0.002,-0.645 0.001,-1.288 -0.001,-1.932c-0.164,0.644 -0.327,1.29 -0.502,1.932c-0.235,-0.003 -0.472,0.007 -0.707,-0.007c-0.169,-0.669 -0.348,-1.336 -0.526,-2.003c0.008,0.669 0.004,1.339 0.004,2.008c-0.216,0.003 -0.431,0.003 -0.647,0c0.004,-0.998 0.001,-1.996 0.002,-2.994" style="fill:#fff;fill-rule:nonzero;"/><path d="M3.186,6.021c0.126,0.001 0.252,0.001 0.379,0.002c0.114,0.379 0.229,0.757 0.341,1.136c-0.098,-0 -0.195,-0.001 -0.293,-0.004c-0.021,-0.081 -0.042,-0.161 -0.064,-0.242c-0.114,-0.002 -0.228,-0.002 -0.342,0.001c-0.02,0.082 -0.041,0.163 -0.061,0.245l-0.286,-0c0.111,-0.379 0.217,-0.759 0.326,-1.138Zm0.188,0.213c-0.041,0.154 -0.079,0.308 -0.11,0.464l0.225,0c-0.035,-0.155 -0.072,-0.311 -0.115,-0.464Zm0.422,-0.211c0.101,-0.001 0.202,-0.001 0.302,-0c0.07,0.158 0.135,0.318 0.208,0.475c0.069,-0.158 0.136,-0.316 0.203,-0.474c0.099,-0.002 0.198,-0.002 0.298,-0.002c-0.11,0.187 -0.204,0.383 -0.306,0.574c-0.107,0.168 -0.041,0.375 -0.059,0.562c-0.095,-0 -0.19,0 -0.285,0c-0.005,-0.153 0.014,-0.309 -0.01,-0.461c-0.11,-0.228 -0.232,-0.45 -0.351,-0.674Zm1.227,0c0.127,-0.001 0.253,-0.001 0.381,-0.002c0.114,0.379 0.224,0.759 0.343,1.137c-0.1,0.002 -0.199,0.002 -0.298,-0.006c-0.019,-0.08 -0.04,-0.161 -0.065,-0.239c-0.113,-0.003 -0.227,-0.003 -0.34,0.005c-0.019,0.08 -0.04,0.161 -0.061,0.242c-0.095,-0.001 -0.19,-0.002 -0.285,-0.002c0.11,-0.378 0.219,-0.756 0.325,-1.135Zm0.191,0.191c-0.041,0.159 -0.075,0.321 -0.117,0.48c0.077,0.002 0.155,0.004 0.233,0.006c-0.044,-0.161 -0.077,-0.324 -0.116,-0.486Z" style="fill:#fff;"/><path d="M0.371,0.801c0.386,-0.239 0.775,-0.471 1.164,-0.704c0.007,1.8 -0.003,3.599 0.005,5.399c-0.181,0.098 -0.354,0.211 -0.532,0.317c-0.213,0.126 -0.423,0.258 -0.637,0.382c-0.001,-1.798 0,-3.596 -0,-5.394" style="fill:#7fc5de;fill-rule:nonzero;"/><path d="M2.759,1.3c-0.001,0.998 0.002,1.996 -0.002,2.994c0.216,0.003 0.431,0.003 0.647,0c-0,-0.669 0.004,-1.339 -0.004,-2.008c0.178,0.667 0.357,1.334 0.526,2.003c0.235,0.014 0.472,0.004 0.707,0.007c0.175,-0.642 0.338,-1.288 0.502,-1.932c0.002,0.644 -0.001,1.287 0.001,1.932c0.236,0.001 0.471,-0.002 0.706,0.002c0.002,-1 0.005,-2 -0.001,-2.999c-0.299,0.002 -0.599,0.003 -0.898,-0.001c-0.22,0.8 -0.428,1.604 -0.638,2.407c-0.202,-0.802 -0.399,-1.606 -0.606,-2.407c-0.314,0.005 -0.627,0.002 -0.94,0.002m-1.224,-1.203c1.716,-0.002 3.431,-0.001 5.147,-0.001c0.193,-0.005 0.38,0.158 0.385,0.355c0.009,0.28 -0.001,0.561 0.003,0.841c0.006,1.399 0.004,2.798 0.001,4.198c-1.843,0.009 -3.687,-0.005 -5.531,0.006c-0.008,-1.8 0.002,-3.599 -0.005,-5.399" style="fill:#39a5cc;fill-rule:nonzero;"/><path d="M5.023,6.023c-0.106,0.379 -0.215,0.757 -0.325,1.135c0.095,0 0.19,0.001 0.285,0.002c0.021,-0.081 0.042,-0.162 0.061,-0.242c0.113,-0.008 0.227,-0.008 0.34,-0.005c0.025,0.078 0.046,0.159 0.065,0.239c0.099,0.008 0.198,0.008 0.298,0.006c-0.119,-0.378 -0.229,-0.758 -0.343,-1.137c-0.128,0.001 -0.254,0.001 -0.381,0.002m-1.227,-0c0.119,0.224 0.241,0.446 0.351,0.674c0.024,0.152 0.005,0.308 0.01,0.461c0.095,0 0.19,-0 0.285,-0c0.018,-0.187 -0.048,-0.394 0.059,-0.562c0.102,-0.191 0.196,-0.387 0.306,-0.574c-0.1,-0 -0.199,0 -0.298,0.002c-0.067,0.158 -0.134,0.316 -0.203,0.474c-0.073,-0.157 -0.138,-0.317 -0.208,-0.475c-0.1,-0.001 -0.201,-0.001 -0.302,-0m-0.61,-0.002c-0.109,0.379 -0.215,0.759 -0.326,1.138l0.286,-0c0.02,-0.082 0.041,-0.163 0.061,-0.245c0.114,-0.003 0.228,-0.003 0.342,-0.001c0.022,0.081 0.043,0.161 0.064,0.242c0.098,0.003 0.195,0.004 0.293,0.005c-0.112,-0.38 -0.227,-0.758 -0.341,-1.137c-0.127,-0.001 -0.253,-0.001 -0.379,-0.002m3.884,-4.729c0.177,-0 0.355,-0 0.533,0.001c0,2.161 -0,4.322 0,6.483c-2.073,-0.005 -4.146,0.001 -6.219,-0.003c-0.21,-0.003 -0.399,-0.197 -0.376,-0.41c-0,-0.517 -0,-1.034 0,-1.55c0.178,-0.106 0.351,-0.219 0.532,-0.317c1.844,-0.011 3.688,0.003 5.531,-0.006c0.003,-1.4 0.005,-2.799 -0.001,-4.198" style="fill:#36687f;fill-rule:nonzero;"/><path d="M3.374,6.234c0.043,0.153 0.08,0.309 0.115,0.464l-0.225,0c0.031,-0.156 0.069,-0.31 0.11,-0.464" style="fill:#36687f;fill-rule:nonzero;"/><path d="M5.214,6.214c0.039,0.162 0.072,0.325 0.116,0.486c-0.078,-0.002 -0.156,-0.004 -0.233,-0.006c0.042,-0.159 0.076,-0.321 0.117,-0.48" style="fill:#36687f;fill-rule:nonzero;"/></g></g></svg>