<svg xmlns="http://www.w3.org/2000/svg" height="24" width="24" viewBox="0 0 24 24"><title>masks</title><g class="nc-icon-wrapper" fill="#ffffff" stroke-linejoin="miter" stroke-linecap="butt"><path fill="none" stroke="#ffffff" stroke-linecap="square" stroke-miterlimit="10" stroke-width="1.5" data-color="color-2" d="M18 12L19 12"></path><path fill="none" stroke="#ffffff" stroke-linecap="square" stroke-miterlimit="10" stroke-width="1.5" d="M5 8L6 8"></path><path fill="none" stroke="#ffffff" stroke-linecap="square" stroke-miterlimit="10" stroke-width="1.5" d="M10 8L11 8"></path><path d="M11.5,21.356A7,7,0,0,0,23,16V6.221a21.188,21.188,0,0,0-5-1.116" fill="none" stroke="#ffffff" stroke-linecap="square" stroke-miterlimit="10" stroke-width="1.5" data-color="color-2"></path><path d="M1,12V2.221a20.676,20.676,0,0,1,14,0V12A7,7,0,0,1,1,12Z" fill="none" stroke="#ffffff" stroke-linecap="square" stroke-miterlimit="10" stroke-width="1.5"></path><path d="M11,13a3,3,0,0,1-6,0Z" fill="#ffffff" data-cap="butt" data-stroke="none" stroke="none"></path><path d="M18.121,18.879A2.991,2.991,0,0,0,16,18" fill="none" stroke="#ffffff" stroke-linecap="square" stroke-miterlimit="10" stroke-width="1.5" data-color="color-2"></path></g></svg>