<?xml version="1.0" encoding="UTF-8" standalone="no"?><!DOCTYPE svg PUBLIC "-//W3C//DTD SVG 1.1//EN" "http://www.w3.org/Graphics/SVG/1.1/DTD/svg11.dtd"><svg width="100%" height="100%" viewBox="0 0 8 8" version="1.1" xmlns="http://www.w3.org/2000/svg" xmlns:xlink="http://www.w3.org/1999/xlink" xml:space="preserve" xmlns:serif="http://www.serif.com/" style="fill-rule:evenodd;clip-rule:evenodd;stroke-linejoin:round;stroke-miterlimit:2;"><rect id="max" x="0.083" y="0.083" width="7.68" height="7.68" style="fill:none;"/><clipPath id="_clip1"><rect x="0.083" y="0.083" width="7.68" height="7.68"/></clipPath><g clip-path="url(#_clip1)"><g id="max1" serif:id="max"><path d="M3.969,1.249c0.245,-0.031 0.498,-0.015 0.731,0.068c0.176,0.063 0.342,0.173 0.443,0.334c0.064,0.1 0.095,0.22 0.094,0.339c-0.002,0.108 0.011,0.223 -0.038,0.324c-0.09,0.194 -0.288,0.315 -0.49,0.367c0.182,0.037 0.363,0.114 0.491,0.253c0.097,0.102 0.153,0.242 0.151,0.384c-0.002,0.137 0.014,0.278 -0.03,0.411c-0.059,0.189 -0.201,0.343 -0.37,0.443c-0.237,0.143 -0.52,0.193 -0.794,0.185c-0.23,-0.006 -0.465,-0.046 -0.667,-0.161c-0.166,-0.091 -0.301,-0.237 -0.376,-0.411c-0.043,-0.097 -0.068,-0.201 -0.08,-0.306c0.234,-0 0.467,-0 0.7,-0c0.012,0.1 0.059,0.199 0.141,0.261c0.106,0.081 0.247,0.096 0.376,0.085c0.115,-0.01 0.236,-0.059 0.3,-0.161c0.06,-0.091 0.061,-0.205 0.058,-0.31c0.004,-0.097 -0.031,-0.199 -0.106,-0.264c-0.092,-0.08 -0.216,-0.109 -0.334,-0.119c-0.109,-0.007 -0.218,-0.002 -0.327,-0.004c-0.001,-0.167 -0,-0.333 -0,-0.499c0.14,-0.005 0.284,0.013 0.421,-0.023c0.088,-0.023 0.176,-0.075 0.213,-0.161c0.035,-0.074 0.026,-0.157 0.027,-0.236c-0.001,-0.073 -0.021,-0.15 -0.075,-0.202c-0.073,-0.073 -0.183,-0.093 -0.283,-0.09c-0.099,-0.001 -0.203,0.029 -0.273,0.102c-0.063,0.064 -0.095,0.153 -0.103,0.241c-0.233,0.002 -0.467,0.001 -0.7,0.001c0.008,-0.212 0.106,-0.417 0.259,-0.563c0.173,-0.166 0.406,-0.256 0.641,-0.288" style="fill:#fff;fill-rule:nonzero;"/><path d="M2.564,6.017c0.119,0 0.238,0.001 0.356,0c0.076,0.303 0.153,0.606 0.228,0.909c0.081,-0.303 0.16,-0.606 0.241,-0.909c0.114,0.001 0.229,-0 0.343,0.001c0,0.377 0,0.754 0,1.131c-0.089,0 -0.179,-0 -0.268,0c-0.001,-0.18 -0,-0.36 -0,-0.54c-0.001,-0.061 0.002,-0.122 -0.005,-0.183c-0.056,0.242 -0.124,0.482 -0.185,0.723c-0.089,0 -0.178,0 -0.267,-0c-0.065,-0.252 -0.133,-0.503 -0.198,-0.755c-0.004,0.251 -0.001,0.503 -0.002,0.755c-0.081,0 -0.162,0 -0.243,-0c0,-0.377 0,-0.754 0,-1.132Zm1.313,1.132c0.108,-0.377 0.216,-0.755 0.324,-1.132c0.125,0.003 0.252,-0.004 0.377,0.003c0.115,0.376 0.228,0.753 0.34,1.129c-0.096,-0 -0.192,0 -0.288,-0c-0.022,-0.083 -0.046,-0.165 -0.069,-0.247c-0.113,-0 -0.226,0 -0.339,-0.001c-0.022,0.083 -0.042,0.166 -0.063,0.248c-0.094,0 -0.188,0 -0.282,-0Zm0.512,-0.945c-0.039,0.162 -0.077,0.325 -0.115,0.487c0.077,0.001 0.155,0 0.232,0c-0.039,-0.162 -0.079,-0.324 -0.117,-0.487Zm0.647,-0.186c0.103,-0.001 0.205,-0.001 0.308,-0.001c0.064,0.12 0.128,0.24 0.19,0.36c0.071,-0.118 0.132,-0.24 0.198,-0.36c0.1,0 0.2,0 0.3,0c-0.107,0.17 -0.215,0.34 -0.322,0.51c0.119,0.207 0.238,0.415 0.357,0.622c-0.106,0 -0.213,0 -0.319,-0c-0.067,-0.134 -0.136,-0.267 -0.204,-0.4c-0.005,-0.008 -0.01,-0.016 -0.016,-0.023c-0.072,0.142 -0.146,0.282 -0.219,0.423c-0.103,0 -0.207,-0 -0.311,0c0.12,-0.199 0.238,-0.399 0.358,-0.598c-0.107,-0.178 -0.214,-0.356 -0.32,-0.533Z" style="fill:#fff;"/><path d="M0.319,0.795c0.387,-0.232 0.773,-0.466 1.16,-0.699c0.001,1.797 -0.001,3.594 0.001,5.39c-0.177,0.108 -0.355,0.214 -0.532,0.321c-0.213,0.127 -0.423,0.258 -0.637,0.382c0.002,-1.76 0,-3.521 0.001,-5.281c0.002,-0.038 -0.009,-0.078 0.007,-0.113" style="fill:#7fc5de;fill-rule:nonzero;"/><path d="M3.969,1.249c-0.235,0.032 -0.468,0.122 -0.641,0.288c-0.153,0.146 -0.251,0.351 -0.259,0.563c0.233,-0 0.467,0.001 0.7,-0.001c0.008,-0.088 0.04,-0.177 0.103,-0.241c0.07,-0.073 0.174,-0.103 0.273,-0.102c0.1,-0.003 0.21,0.017 0.283,0.09c0.054,0.052 0.074,0.129 0.075,0.202c-0.001,0.079 0.008,0.162 -0.027,0.236c-0.037,0.086 -0.125,0.138 -0.213,0.161c-0.137,0.036 -0.281,0.018 -0.421,0.023c-0,0.166 -0.001,0.332 0,0.499c0.109,0.002 0.218,-0.003 0.327,0.004c0.118,0.01 0.242,0.039 0.334,0.119c0.075,0.065 0.11,0.167 0.106,0.264c0.003,0.105 0.002,0.219 -0.058,0.31c-0.064,0.102 -0.185,0.151 -0.3,0.161c-0.129,0.011 -0.27,-0.004 -0.376,-0.085c-0.082,-0.062 -0.129,-0.161 -0.141,-0.261c-0.233,-0 -0.466,-0 -0.7,-0c0.012,0.105 0.037,0.209 0.08,0.306c0.075,0.174 0.21,0.32 0.376,0.411c0.202,0.115 0.437,0.155 0.667,0.161c0.274,0.008 0.557,-0.042 0.794,-0.185c0.169,-0.1 0.311,-0.254 0.37,-0.443c0.044,-0.133 0.028,-0.274 0.03,-0.411c0.002,-0.142 -0.054,-0.282 -0.151,-0.384c-0.128,-0.139 -0.309,-0.216 -0.491,-0.253c0.202,-0.052 0.4,-0.173 0.49,-0.367c0.049,-0.101 0.036,-0.216 0.038,-0.324c0.001,-0.119 -0.03,-0.239 -0.094,-0.339c-0.101,-0.161 -0.267,-0.271 -0.443,-0.334c-0.233,-0.083 -0.486,-0.099 -0.731,-0.068m-2.49,-1.153c1.712,-0 3.423,0 5.134,-0c0.106,-0.002 0.21,0.043 0.283,0.119c0.069,0.072 0.11,0.17 0.109,0.269c0.001,0.27 -0,0.54 0.001,0.81c0.001,1.397 0.001,2.794 -0,4.191c-1.842,0.003 -3.684,0 -5.526,0.001c-0.002,-1.796 -0,-3.593 -0.001,-5.39" style="fill:#39a5cc;fill-rule:nonzero;"/><path d="M5.036,6.018c0.106,0.177 0.213,0.355 0.32,0.533c-0.12,0.199 -0.238,0.399 -0.358,0.598c0.104,-0 0.208,0 0.311,0c0.073,-0.141 0.147,-0.281 0.219,-0.423c0.006,0.007 0.011,0.015 0.016,0.023c0.068,0.133 0.137,0.266 0.204,0.4c0.106,0 0.213,0 0.319,-0c-0.119,-0.207 -0.238,-0.415 -0.357,-0.622c0.107,-0.17 0.215,-0.34 0.322,-0.51c-0.1,0 -0.2,0 -0.3,0c-0.066,0.12 -0.127,0.242 -0.198,0.36c-0.062,-0.12 -0.126,-0.24 -0.19,-0.36c-0.103,0 -0.205,0 -0.308,0.001m-1.159,1.131c0.094,0 0.188,0 0.282,0c0.021,-0.082 0.041,-0.165 0.063,-0.248c0.113,0.001 0.226,0.001 0.339,0.001c0.023,0.082 0.047,0.164 0.069,0.247c0.096,0 0.192,-0 0.288,0c-0.112,-0.376 -0.225,-0.753 -0.34,-1.129c-0.125,-0.007 -0.252,-0 -0.377,-0.003c-0.108,0.377 -0.216,0.755 -0.324,1.132m-1.313,-1.132c0,0.378 0,0.755 0,1.132c0.081,0 0.162,0 0.243,-0c0.001,-0.252 -0.002,-0.504 0.002,-0.755c0.065,0.252 0.133,0.503 0.198,0.755c0.089,0 0.178,0 0.267,-0c0.061,-0.241 0.129,-0.481 0.185,-0.723c0.007,0.061 0.004,0.122 0.005,0.183c-0,0.18 -0.001,0.36 0,0.54c0.089,-0 0.179,0 0.268,0c0,-0.377 0,-0.754 0,-1.131c-0.114,-0.001 -0.229,-0 -0.343,-0.001c-0.081,0.303 -0.16,0.606 -0.241,0.909c-0.075,-0.303 -0.152,-0.606 -0.228,-0.909c-0.118,0.001 -0.237,0 -0.356,0m4.442,-4.723c0.176,-0.001 0.353,-0 0.53,-0c0,2.156 0.001,4.312 0,6.469c-2.047,-0.001 -4.095,-0.001 -6.142,-0c-0.072,0.002 -0.147,-0.002 -0.213,-0.033c-0.139,-0.06 -0.234,-0.205 -0.233,-0.356c-0,-0.522 0,-1.044 0,-1.567c0.177,-0.107 0.355,-0.213 0.532,-0.321c1.842,-0.001 3.684,0.002 5.526,-0.001c0.001,-1.397 0.001,-2.794 -0,-4.191" style="fill:#36687f;fill-rule:nonzero;"/><path d="M4.389,6.204c0.038,0.163 0.078,0.325 0.117,0.487c-0.077,0 -0.155,0.001 -0.232,0c0.038,-0.162 0.076,-0.325 0.115,-0.487" style="fill:#36687f;fill-rule:nonzero;"/></g></g></svg>