<?xml version="1.0" encoding="UTF-8" standalone="no"?>
<!DOCTYPE svg PUBLIC "-//W3C//DTD SVG 1.1//EN" "http://www.w3.org/Graphics/SVG/1.1/DTD/svg11.dtd">
<svg width="100%" height="100%" viewBox="0 0 24 24" version="1.1" xmlns="http://www.w3.org/2000/svg" xmlns:xlink="http://www.w3.org/1999/xlink" xml:space="preserve" xmlns:serif="http://www.serif.com/" style="fill-rule:evenodd;clip-rule:evenodd;stroke-linecap:round;stroke-linejoin:round;">
    <g>
        <rect x="0" y="0" width="24" height="24" style="fill:none;fill-rule:nonzero;"/>
        <path d="M7,5.667C7,4.204 8.204,3 9.667,3L18.333,3C19.796,3 21,4.204 21,5.667L21,14.333C21,15.796 19.796,17 18.333,17L9.667,17C8.204,17 7,15.796 7,14.333L7,5.667Z" style="fill:none;fill-rule:nonzero;stroke:white;stroke-width:2px;"/>
        <g transform="matrix(1,0,0,1,-4,4.26)">
            <path d="M20.311,16.114C19.822,16.657 19.114,17 18.333,17L9.667,17C8.204,17 7,15.796 7,14.333L7,5.667C7,4.878 7.351,4.164 7.903,3.673" style="fill:none;fill-rule:nonzero;stroke:white;stroke-width:2px;"/>
        </g>
    </g>
</svg>
