<?xml version="1.0" encoding="UTF-8" standalone="no"?>
<!DOCTYPE svg PUBLIC "-//W3C//DTD SVG 1.1//EN" "http://www.w3.org/Graphics/SVG/1.1/DTD/svg11.dtd">
<svg width="100%" height="100%" viewBox="0 0 24 24" version="1.1" xmlns="http://www.w3.org/2000/svg" xmlns:xlink="http://www.w3.org/1999/xlink" xml:space="preserve" xmlns:serif="http://www.serif.com/" style="fill-rule:evenodd;clip-rule:evenodd;stroke-linejoin:round;stroke-miterlimit:2;">
    <g>
        <path d="M10.07,18L5.25,18C3.605,18 2.25,16.645 2.25,15L2.25,5.25C2.25,3.605 3.605,2.25 5.25,2.25L18.75,2.25C20.395,2.25 21.75,3.605 21.75,5.25L21.75,15C21.75,16.645 20.395,18 18.75,18L13.93,18L13.93,18.257C13.93,18.808 14.335,19.187 14.768,19.478C15.607,20.043 16.657,20.267 16.657,20.267C17.032,20.347 17.286,20.698 17.246,21.079C17.205,21.461 16.884,21.75 16.5,21.75L7.5,21.75C7.118,21.75 6.797,21.463 6.755,21.083C6.712,20.703 6.963,20.352 7.336,20.268C7.336,20.268 8.389,20.033 9.231,19.464C9.663,19.172 10.07,18.798 10.07,18.257L10.07,18ZM3.75,5.25L3.75,12C3.75,12.823 4.427,13.5 5.25,13.5L18.75,13.5C19.573,13.5 20.25,12.823 20.25,12L20.25,5.25C20.25,4.427 19.573,3.75 18.75,3.75L5.25,3.75C4.427,3.75 3.75,4.427 3.75,5.25ZM11.25,7.868L11.25,5.618C11.25,5.204 11.586,4.868 12,4.868C12.414,4.868 12.75,5.204 12.75,5.618L12.75,7.868L15,7.868C15.414,7.868 15.75,8.204 15.75,8.618C15.75,9.032 15.414,9.368 15,9.368L12.75,9.368L12.75,11.618C12.75,12.032 12.414,12.368 12,12.368C11.586,12.368 11.25,12.032 11.25,11.618L11.25,9.368L9,9.368C8.586,9.368 8.25,9.032 8.25,8.618C8.25,8.204 8.586,7.868 9,7.868L11.25,7.868Z" style="fill:white;"/>
    </g>
</svg>
