<?xml version="1.0" encoding="UTF-8" standalone="no"?>
<!DOCTYPE svg PUBLIC "-//W3C//DTD SVG 1.1//EN" "http://www.w3.org/Graphics/SVG/1.1/DTD/svg11.dtd">
<svg width="100%" height="100%" viewBox="0 0 24 24" version="1.1" xmlns="http://www.w3.org/2000/svg" xmlns:xlink="http://www.w3.org/1999/xlink" xml:space="preserve" xmlns:serif="http://www.serif.com/" style="fill-rule:evenodd;clip-rule:evenodd;stroke-linejoin:round;stroke-miterlimit:2;">
    <g>
        <rect x="0" y="0" width="24" height="24" style="fill:none;fill-rule:nonzero;"/>
        <path d="M11.969,21.75C6.634,21.733 2.25,17.338 2.25,12C2.25,6.651 6.651,2.25 12,2.25C17.407,2.25 21.75,6.193 21.75,11C21.75,12.269 21.19,13.491 20.18,14.389C19.204,15.257 17.88,15.75 16.5,15.75L14,15.75C13.996,15.75 13.974,15.75 13.968,15.75C13.282,15.75 12.718,16.314 12.718,17C12.718,17.454 12.965,17.874 13.363,18.094C13.416,18.123 13.464,18.158 13.509,18.199C13.929,18.587 14.168,19.133 14.168,19.705C14.168,20.83 13.243,21.755 12.118,21.755C12.069,21.755 12.019,21.754 11.969,21.75ZM6.75,10.5C6.75,11.46 7.54,12.25 8.5,12.25C9.46,12.25 10.25,11.46 10.25,10.5C10.25,9.54 9.46,8.75 8.5,8.75C7.54,8.75 6.75,9.54 6.75,10.5ZM14.75,10.5C14.75,11.46 15.54,12.25 16.5,12.25C17.46,12.25 18.25,11.46 18.25,10.5C18.25,9.54 17.46,8.75 16.5,8.75C15.54,8.75 14.75,9.54 14.75,10.5ZM10.75,7.5C10.75,8.46 11.54,9.25 12.5,9.25C13.46,9.25 14.25,8.46 14.25,7.5C14.25,6.54 13.46,5.75 12.5,5.75C11.54,5.75 10.75,6.54 10.75,7.5Z" style="fill:white;"/>
    </g>
</svg>
