<?xml version="1.0" encoding="UTF-8" standalone="no"?>
<!DOCTYPE svg PUBLIC "-//W3C//DTD SVG 1.1//EN" "http://www.w3.org/Graphics/SVG/1.1/DTD/svg11.dtd">
<svg width="100%" height="100%" viewBox="0 0 24 24" version="1.1" xmlns="http://www.w3.org/2000/svg" xmlns:xlink="http://www.w3.org/1999/xlink" xml:space="preserve" xmlns:serif="http://www.serif.com/" style="fill-rule:evenodd;clip-rule:evenodd;stroke-linecap:round;stroke-linejoin:round;">
    <g>
        <path d="M14.744,22.587C14.915,22.675 15.013,22.859 14.991,23.05C14.968,23.241 14.83,23.398 14.644,23.444C13.871,23.635 13.003,23.737 11.999,23.735C8.576,23.731 6.153,22.21 4.078,20.698C3.889,20.561 3.779,20.34 3.783,20.106C3.856,15.649 7.542,12.022 12,12.022C12.583,12.022 13.154,12.084 13.704,12.202C13.881,12.242 14.019,12.378 14.062,12.554C14.104,12.729 14.043,12.914 13.904,13.03C13.764,13.148 13.628,13.271 13.498,13.402C12.405,14.495 11.79,15.979 11.79,17.524C11.79,19.68 12.986,21.578 14.744,22.587ZM16.468,6C16.468,8.451 14.451,10.468 12,10.468C9.549,10.468 7.532,8.451 7.532,6C7.532,3.549 9.549,1.532 12,1.532C14.451,1.532 16.468,3.549 16.468,6Z" style="fill:white;"/>
        <g transform="matrix(0.519084,0,0,0.519084,12.169684,12.074077)">
            <path d="M21,21L15.803,15.803M15.803,15.803C17.209,14.397 18,12.488 18,10.499C18,6.385 14.614,2.999 10.5,2.999C8.511,2.999 6.602,3.79 5.196,5.196C3.79,6.602 2.999,8.511 2.999,10.499C2.999,14.614 6.385,18 10.5,18C12.488,18 14.397,17.209 15.803,15.803Z" style="fill:none;fill-rule:nonzero;stroke:white;stroke-width:2.89px;"/>
        </g>
    </g>
</svg>
