<?xml version="1.0" encoding="UTF-8" standalone="no"?><!DOCTYPE svg PUBLIC "-//W3C//DTD SVG 1.1//EN" "http://www.w3.org/Graphics/SVG/1.1/DTD/svg11.dtd"><svg width="100%" height="100%" viewBox="0 0 8 8" version="1.1" xmlns="http://www.w3.org/2000/svg" xmlns:xlink="http://www.w3.org/1999/xlink" xml:space="preserve" xmlns:serif="http://www.serif.com/" style="fill-rule:evenodd;clip-rule:evenodd;stroke-linejoin:round;stroke-miterlimit:2;"><rect id="prproj" x="0.108" y="0.006" width="7.68" height="7.68" style="fill:none;"/><clipPath id="_clip1"><rect x="0.108" y="0.006" width="7.68" height="7.68"/></clipPath><g clip-path="url(#_clip1)"><path d="M7.788,1.478l-0,4.736c-0,0.742 -0.602,1.344 -1.344,1.344l-4.992,0c-0.742,0 -1.344,-0.602 -1.344,-1.344l-0,-4.736c-0,-0.741 0.602,-1.344 1.344,-1.344l4.992,0c0.742,0 1.344,0.603 1.344,1.344Z" style="fill:#00005b;"/><path d="M1.772,5.603l-0,-3.485c-0,-0.001 -0,-0.002 -0,-0.004c-0,-0.017 0.014,-0.032 0.032,-0.032c0.001,0 0.002,0 0.004,0.001c0.259,-0.007 0.565,-0.029 0.965,-0.029c0.471,0 0.816,0.099 1.037,0.31c0.216,0.202 0.336,0.488 0.33,0.784c-0,0.385 -0.137,0.672 -0.41,0.86c-0.273,0.187 -0.616,0.281 -1.03,0.281l-0.288,0.005l-0,1.303c0,0.002 0,0.004 0,0.006c0,0.019 -0.016,0.036 -0.036,0.036c-0.002,-0 -0.003,-0 -0.005,-0.001l-0.558,0c-0.027,0 -0.041,-0.011 -0.041,-0.035Zm0.64,-3.049l-0,1.26c-0,0 0.146,-0.005 0.32,-0.005c0.229,-0 0.414,-0.051 0.555,-0.151c0.142,-0.101 0.213,-0.266 0.213,-0.495c-0,-0.201 -0.062,-0.357 -0.187,-0.466c-0.125,-0.109 -0.305,-0.163 -0.54,-0.163c-0.058,0 -0.115,0 -0.172,0.003c-0.056,0.003 -0.102,0.003 -0.138,0.003c-0.036,-0 -0.055,-0.002 -0.051,0.014Zm2.208,0.524l0.544,0c0.027,-0 0.051,0.017 0.058,0.043c0.041,0.087 0.065,0.181 0.07,0.277c0.205,-0.265 0.458,-0.384 0.795,-0.384c0.002,0 0.003,-0 0.005,-0c0.018,-0 0.032,0.014 0.032,0.032c0,0.002 0,0.004 -0,0.006l-0,0.565c-0,0.028 -0.014,0.04 -0.043,0.037c-0.308,-0.018 -0.552,0.023 -0.729,0.199c-0.036,0.031 -0.058,0.075 -0.06,0.121l-0,1.627c-0,0.025 -0.014,0.037 -0.043,0.037l-0.549,0c-0.032,0 -0.048,-0.014 -0.048,-0.042l-0,-1.814c-0,-0.429 -0.032,-0.49 -0.064,-0.666c-0.004,-0.025 0.007,-0.038 0.032,-0.038Z" style="fill:#99f;fill-rule:nonzero;"/></g></svg>