<?xml version="1.0" encoding="UTF-8" standalone="no"?><!DOCTYPE svg PUBLIC "-//W3C//DTD SVG 1.1//EN" "http://www.w3.org/Graphics/SVG/1.1/DTD/svg11.dtd"><svg width="100%" height="100%" viewBox="0 0 8 8" version="1.1" xmlns="http://www.w3.org/2000/svg" xmlns:xlink="http://www.w3.org/1999/xlink" xml:space="preserve" xmlns:serif="http://www.serif.com/" style="fill-rule:evenodd;clip-rule:evenodd;stroke-linejoin:round;stroke-miterlimit:2;"><rect id="psd" x="0.116" y="0.006" width="7.68" height="7.68" style="fill:none;"/><clipPath id="_clip1"><rect x="0.116" y="0.006" width="7.68" height="7.68"/></clipPath><g clip-path="url(#_clip1)"><path d="M7.79,1.478l-0,4.736c-0,0.742 -0.602,1.344 -1.344,1.344l-4.992,0c-0.742,0 -1.344,-0.602 -1.344,-1.344l-0,-4.736c-0,-0.741 0.602,-1.344 1.344,-1.344l4.992,0c0.742,0 1.344,0.603 1.344,1.344Z" style="fill:#001e36;"/><path d="M1.71,5.602l-0,-3.484c-0,-0.001 -0,-0.002 -0,-0.004c-0,-0.017 0.014,-0.032 0.032,-0.032c0.001,0 0.002,0 0.004,0c0.259,-0.006 0.565,-0.028 0.965,-0.028c0.471,0 0.816,0.098 1.037,0.31c0.216,0.202 0.336,0.487 0.33,0.783c-0,0.386 -0.137,0.673 -0.41,0.861c-0.273,0.187 -0.616,0.281 -1.03,0.281l-0.288,0.005l-0,1.303c0,0.002 0,0.004 0,0.005c0,0.02 -0.016,0.037 -0.036,0.037c-0.002,-0 -0.003,-0 -0.005,-0.001l-0.558,0c-0.027,0 -0.041,-0.012 -0.041,-0.036Zm0.64,-3.048l-0,1.26c-0,0 0.146,-0.006 0.32,-0.006c0.229,0 0.414,-0.05 0.555,-0.151c0.142,-0.1 0.213,-0.265 0.213,-0.494c-0,-0.202 -0.062,-0.357 -0.187,-0.466c-0.125,-0.109 -0.305,-0.164 -0.54,-0.163c-0.058,0 -0.115,0 -0.172,0.003c-0.056,0.002 -0.102,0.002 -0.138,0.002c-0.036,0 -0.055,-0.001 -0.051,0.015Zm3.84,2.252c-0,0.392 -0.256,0.576 -0.256,0.576l-0,-0.002c-0.015,0.015 -0.032,0.029 -0.048,0.043c-0.177,0.144 -0.415,0.215 -0.715,0.215c-0.3,0 -0.546,-0.055 -0.736,-0.166c-0.022,-0.007 -0.035,-0.029 -0.032,-0.052l-0,-0.482c-0.001,-0.011 0.004,-0.022 0.013,-0.028c0.007,-0.006 0.017,-0.004 0.023,0.002c0.203,0.16 0.453,0.247 0.712,0.249c0.119,0 0.21,-0.021 0.273,-0.064c0.06,-0.035 0.096,-0.099 0.096,-0.169c0.002,-0.069 -0.026,-0.136 -0.076,-0.184c-0.052,-0.05 -0.152,-0.104 -0.302,-0.163c-0.274,-0.107 -0.464,-0.222 -0.571,-0.345c-0.114,-0.123 -0.176,-0.286 -0.173,-0.454c0,-0.211 0.092,-0.412 0.251,-0.55c0.16,-0.146 0.389,-0.218 0.686,-0.218c0.277,-0 0.49,0.038 0.64,0.114c0.017,0.01 0.025,0.032 0.025,0.067l0,0.43c0,0.042 -0.015,0.052 -0.046,0.032c-0.178,-0.116 -0.386,-0.18 -0.599,-0.181c-0.119,0 -0.207,0.023 -0.263,0.068c-0.052,0.036 -0.084,0.096 -0.085,0.16c-0,0.062 0.026,0.121 0.072,0.163c0.048,0.047 0.148,0.101 0.302,0.163c0.268,0.105 0.46,0.215 0.576,0.33l0.003,0.003c0.119,0.11 0.23,0.261 0.23,0.443Z" style="fill:#31a8ff;fill-rule:nonzero;"/></g></svg>