<?xml version="1.0" encoding="UTF-8" standalone="no"?><!DOCTYPE svg PUBLIC "-//W3C//DTD SVG 1.1//EN" "http://www.w3.org/Graphics/SVG/1.1/DTD/svg11.dtd"><svg width="100%" height="100%" viewBox="0 0 8 8" version="1.1" xmlns="http://www.w3.org/2000/svg" xmlns:xlink="http://www.w3.org/1999/xlink" xml:space="preserve" xmlns:serif="http://www.serif.com/" style="fill-rule:evenodd;clip-rule:evenodd;stroke-linejoin:round;stroke-miterlimit:2;"><rect id="sbs" x="0.2" y="0.092" width="7.68" height="7.68" style="fill:none;"/><clipPath id="_clip1"><rect x="0.2" y="0.092" width="7.68" height="7.68"/></clipPath><g clip-path="url(#_clip1)"><g id="_3D_Substance_Surface-4"><g id="Outline_no_shadow-4"><path id="Path_367779" d="M1.56,0.23l4.959,0c0.003,-0 0.005,-0 0.008,-0c0.742,-0 1.353,0.611 1.353,1.353c-0,0.002 -0,0.005 -0,0.007l-0,4.684c-0,0.003 -0,0.005 -0,0.008c-0,0.742 -0.611,1.353 -1.353,1.353c-0.003,-0 -0.005,-0 -0.008,-0l-4.959,-0c-0.002,-0 -0.005,-0 -0.008,-0c-0.742,-0 -1.352,-0.611 -1.352,-1.353c-0,-0.003 -0,-0.005 -0,-0.008l-0,-4.684c-0,-0.002 -0,-0.005 -0,-0.007c-0,-0.742 0.61,-1.353 1.352,-1.353c0.003,-0 0.006,-0 0.008,0Z" style="fill:#1e3101;fill-rule:nonzero;"/></g></g><path id="Path_367780" d="M6.473,3.582c-0.002,0.012 -0.018,0.018 -0.005,0.005c0.002,-0.002 0.003,-0.003 0.005,-0.005Zm-0,0c0,-0.004 -0.001,-0.008 -0.005,-0.012l-0,0.001c-0.097,-0.053 -0.202,-0.088 -0.31,-0.104c-0.119,-0.028 -0.241,-0.04 -0.363,-0.034c-0.063,-0.003 -0.127,0.003 -0.189,0.017c-0.035,-0 -0.069,0.034 -0.104,0.069c-0.013,0.026 -0.019,0.056 -0.017,0.086c0,0.034 0.017,0.051 0.035,0.086c0.099,0.101 0.225,0.172 0.362,0.206c0.157,0.051 0.307,0.121 0.448,0.207c0.101,0.063 0.185,0.152 0.241,0.258c0.049,0.102 0.073,0.214 0.069,0.327c0.005,0.147 -0.037,0.292 -0.121,0.413c-0.088,0.128 -0.215,0.225 -0.362,0.276c-0.182,0.068 -0.374,0.103 -0.568,0.103c-0.144,-0.003 -0.288,-0.014 -0.43,-0.034c-0.108,-0.019 -0.213,-0.054 -0.31,-0.104c-0.018,-0.017 -0.035,-0.034 -0.035,-0.051l0,-0.55c0,-0.018 0,-0.018 0.017,-0.035c0.017,-0.017 0.017,-0 0.035,-0c0.118,0.069 0.246,0.121 0.379,0.155c0.135,0.034 0.273,0.052 0.413,0.052c0.103,-0 0.293,-0.035 0.293,-0.172c-0.002,-0.063 -0.044,-0.119 -0.104,-0.138c-0.11,-0.062 -0.225,-0.114 -0.344,-0.155c-0.135,-0.052 -0.262,-0.122 -0.379,-0.208c-0.2,-0.125 -0.322,-0.346 -0.322,-0.582c0,-0.136 0.041,-0.269 0.116,-0.382c0.083,-0.123 0.195,-0.224 0.327,-0.293c0.172,-0.082 0.36,-0.123 0.551,-0.12c0.133,-0.006 0.266,0.006 0.396,0.034c0.088,0.015 0.175,0.038 0.258,0.069c0.018,0 0.018,0.017 0.035,0.035l-0,0.551c-0,0.015 -0,0.017 -0.012,0.029Zm-4.827,1.815l0,-3.238c0.001,-0.018 0.016,-0.033 0.035,-0.034l0.981,-0c0.351,-0.017 0.7,0.054 1.016,0.206c0.255,0.123 0.466,0.321 0.604,0.568c0.135,0.255 0.206,0.539 0.206,0.827c-0,0.222 -0.035,0.443 -0.103,0.654c-0.064,0.175 -0.157,0.339 -0.276,0.483c-0.121,0.133 -0.26,0.249 -0.413,0.345c-0.153,0.086 -0.315,0.155 -0.483,0.206c-0.17,0.04 -0.343,0.063 -0.517,0.069l-1.033,0c-0.002,-0.029 -0.008,-0.058 -0.017,-0.086Zm0.706,-2.669l0,2.1l0.31,0c0.152,0.004 0.304,-0.019 0.448,-0.068c0.126,-0.048 0.242,-0.118 0.344,-0.207c0.096,-0.099 0.172,-0.216 0.224,-0.344c0.054,-0.15 0.083,-0.307 0.086,-0.465c0.004,-0.152 -0.02,-0.304 -0.069,-0.448c-0.052,-0.123 -0.128,-0.234 -0.224,-0.327c-0.1,-0.086 -0.218,-0.15 -0.344,-0.189c-0.145,-0.044 -0.297,-0.061 -0.448,-0.052l-0.327,-0Z" style="fill:#99e83f;"/></g></svg>