<?xml version="1.0" encoding="UTF-8" standalone="no"?><!DOCTYPE svg PUBLIC "-//W3C//DTD SVG 1.1//EN" "http://www.w3.org/Graphics/SVG/1.1/DTD/svg11.dtd"><svg width="100%" height="100%" viewBox="0 0 8 8" version="1.1" xmlns="http://www.w3.org/2000/svg" xmlns:xlink="http://www.w3.org/1999/xlink" xml:space="preserve" xmlns:serif="http://www.serif.com/" style="fill-rule:evenodd;clip-rule:evenodd;stroke-linejoin:round;stroke-miterlimit:2;"><rect id="sbsar" x="0.125" y="0.092" width="7.68" height="7.68" style="fill:none;"/><clipPath id="_clip1"><rect x="0.125" y="0.092" width="7.68" height="7.68"/></clipPath><g clip-path="url(#_clip1)"><g id="_3D_Substance_Surface-2"><g id="Outline_no_shadow-2"><path id="Path_367773" d="M1.485,0.23l4.959,0c0.003,-0 0.006,-0 0.008,-0c0.742,-0 1.353,0.611 1.353,1.353c-0,0.002 -0,0.005 -0,0.007l-0,4.684c-0,0.003 -0,0.005 -0,0.008c-0,0.742 -0.611,1.353 -1.353,1.353c-0.002,-0 -0.005,-0 -0.008,-0l-4.959,-0c-0.002,-0 -0.005,-0 -0.008,-0c-0.742,-0 -1.352,-0.611 -1.352,-1.353c-0,-0.003 -0,-0.005 -0,-0.008l-0,-4.684c-0,-0.002 -0,-0.005 -0,-0.007c-0,-0.742 0.61,-1.353 1.353,-1.353c0.002,-0 0.005,-0 0.007,0Z" style="fill:#1e3101;fill-rule:nonzero;"/></g></g><g id="Sa_copy"><g id="Group_307125"><path id="Path_367774" d="M2.552,5.465c-0.173,0 -0.346,-0.017 -0.516,-0.051c-0.13,-0.03 -0.256,-0.071 -0.379,-0.121c-0.032,-0.016 -0.052,-0.05 -0.052,-0.086l0,-0.604c0,-0.017 0,-0.017 0.017,-0.034l0.035,-0c0.14,0.086 0.291,0.155 0.447,0.206c0.153,0.04 0.308,0.063 0.465,0.069c0.144,0.015 0.288,-0.015 0.414,-0.086c0.072,-0.052 0.116,-0.135 0.121,-0.224c-0.004,-0.053 -0.015,-0.105 -0.035,-0.155c-0.037,-0.054 -0.084,-0.101 -0.138,-0.138c-0.088,-0.052 -0.18,-0.098 -0.275,-0.137l-0.259,-0.104c-0.172,-0.071 -0.334,-0.163 -0.483,-0.275c-0.108,-0.086 -0.191,-0.199 -0.241,-0.327c-0.049,-0.12 -0.072,-0.249 -0.068,-0.378c-0.005,-0.366 0.213,-0.701 0.551,-0.844c0.213,-0.088 0.441,-0.135 0.672,-0.137c0.15,-0.007 0.3,0.005 0.447,0.034c0.119,0.019 0.235,0.054 0.345,0.104c0.021,0.016 0.034,0.042 0.034,0.069l0,0.551c0,0.017 0,0.034 -0.017,0.034l-0.034,0c-0.114,-0.058 -0.237,-0.099 -0.363,-0.121c-0.135,-0.034 -0.274,-0.051 -0.413,-0.051c-0.082,-0.007 -0.165,0.005 -0.242,0.034c-0.06,0.016 -0.118,0.039 -0.172,0.069c-0.042,0.025 -0.078,0.061 -0.103,0.103c-0.02,0.038 -0.031,0.079 -0.035,0.121c-0.001,0.051 0.017,0.1 0.052,0.138c0.04,0.053 0.093,0.095 0.155,0.121c0.103,0.051 0.189,0.103 0.293,0.155l0.189,0.069c0.187,0.07 0.361,0.168 0.517,0.292c0.114,0.084 0.203,0.197 0.258,0.327c0.048,0.121 0.071,0.25 0.069,0.379c0.004,0.184 -0.05,0.365 -0.155,0.517c-0.116,0.152 -0.271,0.271 -0.448,0.344c-0.201,0.105 -0.428,0.152 -0.654,0.138l0.001,-0.001Z" style="fill:#99e83f;fill-rule:nonzero;"/><path id="Path_367775" d="M5.256,2.848c0.209,-0.006 0.417,0.041 0.604,0.138c0.156,0.081 0.278,0.215 0.344,0.378c0.073,0.163 0.114,0.339 0.121,0.517l-0,1.343c-0,0.017 -0,0.017 -0.017,0.035c-0.155,0.051 -0.293,0.103 -0.414,0.137c-0.113,0.032 -0.228,0.055 -0.344,0.069c-0.12,0.015 -0.241,0.02 -0.362,0.017c-0.176,-0.003 -0.35,-0.032 -0.517,-0.086c-0.149,-0.055 -0.28,-0.15 -0.379,-0.275c-0.105,-0.138 -0.154,-0.311 -0.137,-0.483c-0.002,-0.168 0.053,-0.332 0.155,-0.465c0.108,-0.13 0.251,-0.226 0.413,-0.276c0.189,-0.062 0.387,-0.091 0.585,-0.086l0.31,0l0,-0.035c0,-0.034 -0.017,-0.051 -0.017,-0.086c-0.017,-0.034 -0.034,-0.085 -0.069,-0.103c-0.039,-0.038 -0.086,-0.068 -0.137,-0.086c-0.085,-0.02 -0.172,-0.031 -0.259,-0.034c-0.121,0.003 -0.242,0.014 -0.362,0.034c-0.108,0.019 -0.212,0.054 -0.31,0.104l-0.034,-0c-0.017,-0 -0.017,-0.018 -0.017,-0.035l-0,-0.516c-0,-0.017 0.017,-0.051 0.034,-0.051c0.123,-0.051 0.249,-0.091 0.379,-0.121c0.172,-0.017 0.31,-0.035 0.43,-0.035l-0,0.001Zm0.379,2.032l-0,-0.534c-0.035,-0 -0.086,-0.018 -0.121,-0.018l-0.138,0c-0.132,-0.016 -0.267,0.014 -0.379,0.086c-0.072,0.053 -0.116,0.135 -0.12,0.224c0.001,0.048 0.013,0.095 0.034,0.138c0.033,0.049 0.082,0.085 0.138,0.103c0.081,0.037 0.17,0.049 0.258,0.035c0.058,0.003 0.116,-0.003 0.172,-0.017c0.053,0.004 0.105,-0.002 0.155,-0.017l0.001,-0Z" style="fill:#99e83f;fill-rule:nonzero;"/></g></g></g></svg>