<svg xmlns="http://www.w3.org/2000/svg" width="24" height="24" viewBox="0 0 24 24"><title>scale</title><g fill="#ffffff" class="nc-icon-wrapper"><path d="M17.62 19.95h-4.65v-12.63a1 1 0 0 0-2 0v12.63h-4.65a1 1 0 0 0 0 2h11.3a1 1 0 0 0 0-2z" fill="#ffffff"></path><path d="M9.64 3.99h-4.95a1 1 0 0 0-0.89 0.55l-3.66 7.32a1 1 0 0 0 1.78 0.89l2.76-5.52 2.7 5.51a0.99 0.99 0 0 0 1.34 0.46 1 1 0 0 0 0.45-1.34l-2.88-5.88h3.35a1 1 0 0 0 0-1.99z" fill="#ffffff"></path><path d="M23.8 11.86l-3.66-7.32a0.99 0.99 0 0 0-0.71-0.52 0.57 0.57 0 0 0-0.18-0.03h-4.95a1 1 0 0 0 0 1.99h3.35l-2.88 5.88a1 1 0 0 0 1.79 0.88l2.7-5.5 2.76 5.51a1 1 0 1 0 1.78-0.89z" fill="#ffffff"></path><path d="M9.2 11.97h-9.07a1.14 1.14 0 0 0-0.1 0.32 2.52 2.52 0 0 0-0.03 0.35c0 2.57 2.09 4.66 4.66 4.65s4.66-2.09 4.65-4.66c0-0.12-0.01-0.23-0.04-0.42-0.01-0.09-0.04-0.16-0.07-0.24z" fill="#ffffff"></path><path d="M23.83 11.97h-9.07a1.14 1.14 0 0 0-0.1 0.32 2.52 2.52 0 0 0-0.03 0.35c0 2.57 2.09 4.66 4.66 4.65s4.66-2.09 4.65-4.66c0-0.12-0.01-0.23-0.04-0.42-0.01-0.09-0.04-0.16-0.07-0.24z" fill="#ffffff"></path><path fill="#ffffff" d="M11.97 2a2.99 2.99 0 1 0 0 5.98 2.99 2.99 0 1 0 0-5.99z"></path></g></svg>