<?xml version="1.0" encoding="UTF-8" standalone="no"?><!DOCTYPE svg PUBLIC "-//W3C//DTD SVG 1.1//EN" "http://www.w3.org/Graphics/SVG/1.1/DTD/svg11.dtd"><svg width="100%" height="100%" viewBox="0 0 8 8" version="1.1" xmlns="http://www.w3.org/2000/svg" xmlns:xlink="http://www.w3.org/1999/xlink" xml:space="preserve" xmlns:serif="http://www.serif.com/" style="fill-rule:evenodd;clip-rule:evenodd;stroke-linejoin:round;stroke-miterlimit:2;"><rect id="sesx" x="0.091" y="0.095" width="7.68" height="7.68" style="fill:none;"/><clipPath id="_clip1"><rect x="0.091" y="0.095" width="7.68" height="7.68"/></clipPath><g clip-path="url(#_clip1)"><path d="M1.435,0.223l4.992,-0c0.742,-0 1.344,0.601 1.344,1.344l-0,4.736c-0,0.742 -0.602,1.344 -1.344,1.344l-4.992,-0c-0.743,-0 -1.344,-0.602 -1.344,-1.344l-0,-4.736c-0,-0.743 0.601,-1.344 1.344,-1.344Z" style="fill:#00005b;fill-rule:nonzero;"/><path d="M6.603,3.205l-0,2.01c-0,0.281 0.006,0.339 0.061,0.473c0.003,0.013 0.003,0.026 -0.007,0.029c-0.013,0.006 -0.025,0.01 -0.038,0.006l-0.557,0c-0.022,0.004 -0.045,-0.009 -0.054,-0.032c-0.02,-0.048 -0.029,-0.099 -0.032,-0.153c-0.18,0.166 -0.413,0.249 -0.701,0.249c-0.57,0 -0.855,-0.32 -0.855,-0.963l0,-1.619c-0.003,-0.019 0.013,-0.038 0.032,-0.042l0.57,0c0.026,0 0.038,0.013 0.038,0.042l0,1.578c0,0.339 0.144,0.492 0.42,0.492c0.179,0 0.361,-0.051 0.476,-0.182l0,-1.888c-0.003,-0.019 0.013,-0.038 0.032,-0.042l0.564,0c0.038,0.004 0.051,0.016 0.051,0.042Zm-3.335,1.69l-1.145,-0l-0.295,0.854c-0.003,0.029 -0.022,0.042 -0.054,0.042l-0.538,-0c-0.035,-0 -0.048,-0.02 -0.038,-0.052l1.037,-3.081c0.029,-0.093 0.045,-0.192 0.041,-0.291c-0.003,-0.016 0.01,-0.029 0.026,-0.032l0.758,-0c0.023,-0 0.036,0.009 0.039,0.025l1.161,3.383c0.01,0.032 0.004,0.048 -0.025,0.048l-0.602,-0c-0.022,-0 -0.045,-0.013 -0.054,-0.032l-0.311,-0.864Zm-1.017,-0.576l0.893,-0c-0.023,-0.048 -0.423,-1.341 -0.452,-1.45l-0.006,-0l-0.435,1.45Z" style="fill:#99f;fill-rule:nonzero;"/></g></svg>