<?xml version="1.0" encoding="UTF-8" standalone="no"?><!DOCTYPE svg PUBLIC "-//W3C//DTD SVG 1.1//EN" "http://www.w3.org/Graphics/SVG/1.1/DTD/svg11.dtd"><svg width="100%" height="100%" viewBox="0 0 8 8" version="1.1" xmlns="http://www.w3.org/2000/svg" xmlns:xlink="http://www.w3.org/1999/xlink" xml:space="preserve" xmlns:serif="http://www.serif.com/" style="fill-rule:evenodd;clip-rule:evenodd;stroke-linejoin:round;stroke-miterlimit:2;"><rect id="smod" x="0.109" y="0.092" width="7.68" height="7.68" style="fill:none;"/><clipPath id="_clip1"><rect x="0.109" y="0.092" width="7.68" height="7.68"/></clipPath><g clip-path="url(#_clip1)"><g><path id="Path_367784" d="M1.468,0.188l4.963,0c0.745,0.001 1.357,0.614 1.358,1.358l0,4.772c-0.001,0.745 -0.613,1.358 -1.358,1.359l-4.963,-0c-0.745,-0.001 -1.358,-0.614 -1.359,-1.359l0,-4.772c0.001,-0.744 0.614,-1.357 1.359,-1.358Z" style="fill:#1e3101;fill-rule:nonzero;"/><path id="Path_367785" d="M1.067,2.121c0.001,-0.018 0.016,-0.033 0.035,-0.034l0.906,-0c0.034,-0 0.052,0.017 0.052,0.034c0.017,0.087 0.052,0.192 0.087,0.314c0.034,0.122 0.069,0.261 0.104,0.418c0.033,0.159 0.074,0.316 0.123,0.47c0.032,0.159 0.073,0.316 0.122,0.47c0.042,0.137 0.07,0.277 0.086,0.419c0.035,0.122 0.052,0.226 0.069,0.313c0.018,-0.069 0.035,-0.174 0.07,-0.296c0.035,-0.122 0.07,-0.261 0.122,-0.4c0.035,-0.157 0.087,-0.296 0.122,-0.471c0.035,-0.174 0.087,-0.313 0.122,-0.47c0.036,-0.157 0.087,-0.296 0.122,-0.435c0.036,-0.14 0.07,-0.245 0.087,-0.331c0.002,-0.019 0.017,-0.034 0.035,-0.035l0.871,-0c0.035,-0 0.035,0.017 0.035,0.035l0.139,3.291l0,0.035c-0.009,0.01 -0.021,0.016 -0.035,0.018l-0.662,-0c-0.009,-0.01 -0.015,-0.022 -0.017,-0.035l-0,-2.822c-0.017,0.087 -0.052,0.192 -0.087,0.331c-0.035,0.139 -0.07,0.296 -0.122,0.47c-0.035,0.174 -0.087,0.348 -0.139,0.54c-0.053,0.192 -0.105,0.366 -0.14,0.557c-0.052,0.174 -0.087,0.349 -0.139,0.505c-0.035,0.157 -0.087,0.296 -0.104,0.418c-0.018,0.035 -0.035,0.035 -0.053,0.035l-0.557,0c-0.035,0 -0.052,-0.017 -0.052,-0.035c-0.035,-0.122 -0.07,-0.261 -0.105,-0.418c-0.035,-0.157 -0.069,-0.313 -0.122,-0.488c-0.053,-0.176 -0.087,-0.349 -0.122,-0.523c-0.035,-0.174 -0.087,-0.348 -0.122,-0.522c-0.035,-0.175 -0.07,-0.331 -0.105,-0.471c-0.035,-0.139 -0.052,-0.278 -0.087,-0.383l0,0.923c0,0.192 -0.017,0.383 -0.017,0.592c-0,0.209 -0.018,0.418 -0.018,0.645c0,0.226 -0.015,0.436 -0.015,0.663c-0,0.034 -0.018,0.034 -0.035,0.034l-0.628,0c-0.005,-0.004 -0.008,-0.01 -0.008,-0.017c0,-0.007 0.003,-0.013 0.008,-0.017l0.174,-3.327Zm4.841,3.396c-0.239,0.001 -0.476,-0.046 -0.696,-0.139c-0.204,-0.091 -0.375,-0.243 -0.489,-0.435c-0.126,-0.223 -0.187,-0.476 -0.174,-0.732c-0.004,-0.238 0.056,-0.473 0.174,-0.679c0.123,-0.204 0.297,-0.373 0.505,-0.489c0.246,-0.132 0.522,-0.198 0.801,-0.191l0.175,-0l-0,-1.009c0.001,-0.019 0.016,-0.034 0.035,-0.035l0.661,-0c0.019,0.001 0.034,0.016 0.035,0.035l0,3.238c-0.003,0.065 0.002,0.129 0.018,0.192c-0,0.017 -0.018,0.035 -0.035,0.052c-0.169,0.068 -0.344,0.121 -0.523,0.157c-0.16,0.028 -0.324,0.04 -0.487,0.035Zm0.314,-0.644l-0,-1.411c-0.029,-0.007 -0.058,-0.013 -0.087,-0.017l-0.105,-0c-0.127,0.001 -0.252,0.031 -0.366,0.087c-0.11,0.052 -0.202,0.137 -0.261,0.244c-0.073,0.12 -0.11,0.26 -0.105,0.4c-0.002,0.113 0.015,0.225 0.053,0.331c0.031,0.084 0.079,0.161 0.139,0.227c0.059,0.057 0.13,0.099 0.209,0.122c0.084,0.029 0.172,0.04 0.261,0.035l0.139,-0c0.042,0.003 0.083,-0.003 0.122,-0.018l0.001,-0Z" style="fill:#99e83f;"/></g></g></svg>