<?xml version="1.0" encoding="UTF-8" standalone="no"?><!DOCTYPE svg PUBLIC "-//W3C//DTD SVG 1.1//EN" "http://www.w3.org/Graphics/SVG/1.1/DTD/svg11.dtd"><svg width="100%" height="100%" viewBox="0 0 8 8" version="1.1" xmlns="http://www.w3.org/2000/svg" xmlns:xlink="http://www.w3.org/1999/xlink" xml:space="preserve" xmlns:serif="http://www.serif.com/" style="fill-rule:evenodd;clip-rule:evenodd;stroke-linejoin:round;stroke-miterlimit:2;"><rect id="spp" x="0.034" y="0.092" width="7.68" height="7.68" style="fill:none;"/><clipPath id="_clip1"><rect x="0.034" y="0.092" width="7.68" height="7.68"/></clipPath><g clip-path="url(#_clip1)"><g><path id="Path_367770" d="M1.395,0.23l4.959,0c0.003,-0 0.005,-0 0.008,-0c0.742,-0 1.352,0.611 1.352,1.353c0,0.002 0,0.005 0,0.007l0,4.684c0,0.003 0,0.005 0,0.008c0,0.742 -0.61,1.353 -1.352,1.353c-0.003,-0 -0.005,-0 -0.008,-0l-4.959,-0c-0.003,-0 -0.005,-0 -0.008,-0c-0.742,-0 -1.353,-0.611 -1.353,-1.353c0,-0.003 0.001,-0.005 0.001,-0.008l-0,-4.684c-0,-0.002 -0.001,-0.005 -0.001,-0.007c0,-0.742 0.611,-1.353 1.353,-1.353c0.003,-0 0.005,-0 0.008,0Z" style="fill:#1e3101;fill-rule:nonzero;"/><path id="Path_367771" d="M1.86,5.397l-0,-3.238c0.001,-0.019 0.016,-0.034 0.034,-0.035l0.999,0c0.222,-0 0.443,0.034 0.654,0.104c0.162,0.052 0.309,0.14 0.431,0.258c0.106,0.098 0.183,0.223 0.224,0.362c0.048,0.133 0.071,0.273 0.069,0.414c0.015,0.238 -0.052,0.475 -0.19,0.671c-0.125,0.173 -0.299,0.305 -0.499,0.379c-0.226,0.083 -0.465,0.124 -0.706,0.121l-0.293,-0l0,0.998c0,0.018 -0.017,0.035 -0.034,0.052l-0.638,0c-0.034,-0.052 -0.051,-0.069 -0.051,-0.086Zm0.706,-2.669l-0,1.05l0.293,0c0.122,-0 0.244,-0.017 0.362,-0.052c0.222,-0.06 0.374,-0.269 0.362,-0.499c0.004,-0.096 -0.02,-0.192 -0.069,-0.275c-0.053,-0.081 -0.132,-0.141 -0.224,-0.173c-0.114,-0.047 -0.238,-0.071 -0.362,-0.068l-0.206,-0c-0.051,0.011 -0.103,0.016 -0.156,0.017l-0,-0Zm3.581,2.203l-0,0.413c-0.001,0.027 -0.013,0.052 -0.035,0.069l-0.206,0.052c-0.08,0.014 -0.161,0.02 -0.242,0.017c-0.105,-0 -0.21,-0.018 -0.31,-0.052c-0.099,-0.026 -0.184,-0.087 -0.241,-0.172c-0.065,-0.086 -0.107,-0.186 -0.121,-0.293c-0.015,-0.108 -0.021,-0.218 -0.017,-0.327l-0,-1.135l-0.293,-0c-0.035,-0 -0.035,-0.017 -0.035,-0.052l0,-0.5c0,-0.035 0.018,-0.035 0.052,-0.035l0.293,0c-0.002,-0.069 0.004,-0.138 0.017,-0.206c0,-0.069 0.017,-0.156 0.017,-0.224c0.014,-0.063 0.019,-0.126 0.017,-0.19c0,-0.017 0.018,-0.017 0.018,-0.034c-0,-0.01 0.007,-0.017 0.017,-0.017l0.604,-0.069l0.017,-0c0.009,0.009 0.015,0.021 0.017,0.034c-0,0.086 -0.017,0.19 -0.017,0.31c0.003,0.127 -0.003,0.253 -0.017,0.379l0.465,-0c0.018,0.001 0.033,0.016 0.034,0.034l0,0.517c-0.001,0.013 -0.007,0.025 -0.017,0.035l-0.483,-0l0,0.964c-0.018,0.123 -0,0.249 0.052,0.362c0.04,0.055 0.104,0.087 0.172,0.086l0.189,0c0.018,0 0.035,-0.017 0.052,0c-0.017,0.017 0,0.017 0,0.035l0.001,-0.001Z" style="fill:#99e83f;"/></g></g></svg>