<?xml version="1.0" encoding="UTF-8" standalone="no"?>
<!DOCTYPE svg PUBLIC "-//W3C//DTD SVG 1.1//EN" "http://www.w3.org/Graphics/SVG/1.1/DTD/svg11.dtd">
<svg width="100%" height="100%" viewBox="0 0 24 24" version="1.1" xmlns="http://www.w3.org/2000/svg" xmlns:xlink="http://www.w3.org/1999/xlink" xml:space="preserve" xmlns:serif="http://www.serif.com/" style="fill-rule:evenodd;clip-rule:evenodd;stroke-linejoin:round;stroke-miterlimit:2;">
    <g transform="matrix(1,0,0,1,-29.588871,0)">
        <g id="stall" transform="matrix(1,0,0,1,29.588871,0)">
            <rect x="0" y="0" width="24" height="24" style="fill:none;"/>
            <path d="M20,11.548L20,21.015C20,21.559 19.559,22 19.015,22C17.902,22 16.098,22 14.985,22C14.441,22 14,21.559 14,21.015L14,16.985C14,16.723 13.896,16.473 13.712,16.288C13.527,16.104 13.277,16 13.015,16L10.985,16C10.723,16 10.473,16.104 10.288,16.288C10.104,16.473 10,16.723 10,16.985L10,21.015C10,21.559 9.559,22 9.015,22L4.985,22C4.441,22 4,21.559 4,21.015C4,18.413 4,11.548 4,11.548C5.019,11.546 5.976,11.125 6.665,10.415C7.353,11.128 8.313,11.549 9.334,11.549C10.353,11.549 11.312,11.128 12,10.416C12.688,11.128 13.647,11.549 14.666,11.549C15.687,11.549 16.647,11.128 17.335,10.415C18.024,11.125 18.981,11.546 20,11.548Z" style="fill:white;"/>
            <path d="M5.132,2C4.43,2 3.779,2.369 3.417,2.971C2.545,4.425 1,7 1,7C1,7.002 1,7.004 1,7.007C1,8.648 2.351,9.999 3.992,9.999C5.123,9.999 6.161,9.358 6.667,8.347C7.169,9.358 8.205,10 9.334,10C10.462,10 11.498,9.358 12,8.347C12.502,9.358 13.538,10 14.666,10C15.795,10 16.831,9.358 17.333,8.347C17.839,9.358 18.877,9.999 20.008,9.999C21.649,9.999 23,8.648 23,7.007C23,7.004 23,7.002 23,7C23,7 21.455,4.425 20.583,2.971C20.221,2.369 19.57,2 18.868,2C15.927,2 8.073,2 5.132,2Z" style="fill:white;fill-rule:nonzero;"/>
        </g>
    </g>
</svg>
