<svg width="24" height="24" xmlns="http://www.w3.org/2000/svg" clip-rule="evenodd" viewBox="0 0 24 24"><title>status retake</title><g class="nc-icon-wrapper" fill-rule="evenodd" fill="#ffffff" stroke-linecap="round" stroke-linejoin="round"><path fill="none" fill-rule="nonzero" d="M0 0H24V24H0z"></path><path d="M3,4.001L3,9.001L8,9.001" fill="none" fill-rule="nonzero" stroke="#ffffff" stroke-width="1.5" transform="rotate(63.433 10.39 13.944) scale(.84073)"></path><path d="M10,20.777C9.13,20.58 8.294,20.253 7.52,19.808" fill="none" fill-rule="nonzero" stroke="#ffffff" stroke-width="1.5" transform="translate(0 1.09)"></path><path d="M14,3.223C18.08,4.155 20.998,7.815 20.998,12C20.998,16.185 18.08,19.845 14,20.777" fill="none" fill-rule="nonzero" stroke="#ffffff" stroke-width="1.5" transform="translate(0 1.09)"></path><path d="M4.579,17.093C4.034,16.3 3.619,15.425 3.352,14.501" fill="none" fill-rule="nonzero" stroke="#ffffff" stroke-width="1.5" transform="translate(0 1.09)"></path><path d="M3.124,10.5C3.284,9.55 3.592,8.65 4.024,7.825L4.193,7.52" fill="none" fill-rule="nonzero" stroke="#ffffff" stroke-width="1.5" transform="translate(0 1.09)"></path><path d="M6.907,4.579C7.843,3.935 8.892,3.475 10,3.223" fill="none" fill-rule="nonzero" stroke="#ffffff" stroke-width="1.5" transform="translate(0 1.09)"></path></g></svg>