<?xml version="1.0" encoding="UTF-8" standalone="no"?><!DOCTYPE svg PUBLIC "-//W3C//DTD SVG 1.1//EN" "http://www.w3.org/Graphics/SVG/1.1/DTD/svg11.dtd"><svg width="100%" height="100%" viewBox="0 0 8 8" version="1.1" xmlns="http://www.w3.org/2000/svg" xmlns:xlink="http://www.w3.org/1999/xlink" xml:space="preserve" xmlns:serif="http://www.serif.com/" style="fill-rule:evenodd;clip-rule:evenodd;stroke-linejoin:round;stroke-miterlimit:2;"><rect id="tif" x="0.202" y="0.138" width="7.68" height="7.68" style="fill:none;"/><clipPath id="_clip1"><rect x="0.202" y="0.138" width="7.68" height="7.68"/></clipPath><g clip-path="url(#_clip1)"><path id="icon_clip" d="M7.882,1.674l0,4.608c0,0.847 -0.688,1.536 -1.536,1.536l-4.608,-0c-0.848,-0 -1.536,-0.689 -1.536,-1.536l0,-4.608c0,-0.848 0.688,-1.536 1.536,-1.536l4.608,-0c0.848,-0 1.536,0.688 1.536,1.536Z" style="fill:none;"/><clipPath id="_clip2"><path d="M7.882,1.674l0,4.608c0,0.847 -0.688,1.536 -1.536,1.536l-4.608,-0c-0.848,-0 -1.536,-0.689 -1.536,-1.536l0,-4.608c0,-0.848 0.688,-1.536 1.536,-1.536l4.608,-0c0.848,-0 1.536,0.688 1.536,1.536Z"/></clipPath><g clip-path="url(#_clip2)"><g id="sketchbook"><path d="M0.202,1.691l0,-1.299c0,-0.14 0.114,-0.254 0.255,-0.254l1.302,-0l5.868,-0c0.141,-0 0.255,0.114 0.255,0.254l0,4.428c-0.658,-0.649 -1.765,-1.744 -3.631,-3.587c0.03,0.032 0.059,0.083 0.085,0.156l0.365,1.146l0.917,2.885c0.047,0.104 0.09,0.236 0.128,0.399l0,1.999l-5.289,-0c-0.141,-0 -0.255,-0.114 -0.255,-0.255l0,-5.872Z" style="fill:#e35831;"/><path d="M7.882,7.563l0,-2.743c-0.658,-0.649 -1.765,-1.744 -3.631,-3.588c0.03,0.033 0.059,0.084 0.085,0.158l0.364,1.145l0.918,2.885c0.047,0.104 0.09,0.236 0.128,0.399l0,1.999l1.881,-0c0.141,-0 0.255,-0.114 0.255,-0.255" style="fill:#9e3226;fill-rule:nonzero;"/><path d="M4.336,1.389l0.365,1.146l-0.396,-0c-0,-0 -0.101,-1.105 -0.253,-1.314c0.056,-0.045 0.122,-0.061 0.186,-0c0.005,0.004 0.009,0.008 0.013,0.012c0.03,0.032 0.059,0.083 0.085,0.156" style="fill:#293641;fill-rule:nonzero;"/><path d="M4.305,2.535l-0.737,-0l0.369,-1.146c0.018,-0.054 0.061,-0.125 0.115,-0.168c0.152,0.209 0.253,1.314 0.253,1.314" style="fill:#3d4b55;fill-rule:nonzero;"/><path d="M4.701,2.535l0.917,2.885c-0.262,-0.582 -0.632,-0.273 -0.822,0.623l-0.491,-3.508l0.396,-0Z" style="fill:#998775;fill-rule:nonzero;"/><path d="M4.305,2.535l0.491,3.508c-0.379,-1.473 -1.129,-0.933 -1.347,-0c-0.367,-1.45 -0.691,-0.923 -0.845,-0.51l0.964,-2.998l0.737,-0Z" style="fill:#f7dbc1;fill-rule:nonzero;"/><path d="M5.746,5.822l0,1.996l-0.95,-0l0,-1.77c0.19,-0.9 0.56,-1.212 0.822,-0.627c0.047,0.105 0.09,0.238 0.128,0.401" style="fill:#394659;fill-rule:nonzero;"/><path d="M4.796,6.048l0,1.77l-1.347,-0l0,-1.77c0.218,-0.938 0.968,-1.481 1.347,-0" style="fill:#ba8984;fill-rule:nonzero;"/><path d="M3.449,6.048l0,1.77l-0.94,-0l0,-1.974c0,-0 0.034,-0.142 0.093,-0.303l0.002,-0.006c0.154,-0.415 0.478,-0.945 0.845,0.513" style="fill:#f1b49d;fill-rule:nonzero;"/></g></g></g></svg>