<svg width="24" height="24" xmlns="http://www.w3.org/2000/svg" clip-rule="evenodd" stroke-miterlimit="2" viewBox="0 0 24 24"><title>unarchive</title><g stroke-linejoin="round" fill="#ffffff" class="nc-icon-wrapper" fill-rule="evenodd"><path d="M3.375,3C2.339,3 1.5,3.84 1.5,4.875L1.5,5.625C1.5,6.661 2.34,7.5 3.375,7.5L20.625,7.5C21.66,7.5 22.5,6.66 22.5,5.625L22.5,4.875C22.5,3.839 21.66,3 20.625,3L3.375,3Z" fill="#ffffff" fill-rule="nonzero"></path><path d="M3.087,9L3.627,18.176C3.72,19.752 5.041,20.999 6.62,21L17.377,21C18.956,21 20.279,19.753 20.372,18.176L20.913,9L3.087,9ZM12,18.53C12.411,18.53 12.75,18.191 12.75,17.78L12.75,12.84L14.47,14.56C14.612,14.712 14.811,14.799 15.019,14.799C15.43,14.799 15.769,14.46 15.769,14.049C15.769,13.841 15.682,13.642 15.53,13.5L12.53,10.5C12.239,10.209 11.761,10.209 11.47,10.5L8.47,13.5C8.318,13.642 8.231,13.841 8.231,14.049C8.231,14.46 8.57,14.799 8.981,14.799C9.189,14.799 9.388,14.712 9.53,14.56L11.25,12.84L11.25,17.78C11.25,18.191 11.589,18.53 12,18.53Z" fill="#ffffff"></path></g></svg>