<?xml version="1.0" encoding="UTF-8" standalone="no"?>
<!DOCTYPE svg PUBLIC "-//W3C//DTD SVG 1.1//EN" "http://www.w3.org/Graphics/SVG/1.1/DTD/svg11.dtd">
<svg width="100%" height="100%" viewBox="0 0 24 24" version="1.1" xmlns="http://www.w3.org/2000/svg" xmlns:xlink="http://www.w3.org/1999/xlink" xml:space="preserve" xmlns:serif="http://www.serif.com/" style="fill-rule:evenodd;clip-rule:evenodd;stroke-linejoin:round;stroke-miterlimit:2;">
    <g transform="matrix(1,0,0,1,0,-54.46394)">
        <g id="web-plus" transform="matrix(1,0,0,1,0,54.46394)">
            <rect x="0" y="0" width="24" height="24" style="fill:none;"/>
            <path d="M10.088,15.897C9.556,15.839 9.031,15.757 8.514,15.653C8.439,15.637 8.38,15.58 8.364,15.506C8.13,14.434 8,13.247 8,12C8,11.528 8.018,11.065 8.054,10.613C8.059,10.555 8.091,10.501 8.139,10.469C8.188,10.437 8.249,10.428 8.305,10.445C9.473,10.805 10.713,11 12,11C12.532,11.001 13.061,10.967 13.583,10.901C11.759,11.933 10.433,13.759 10.088,15.897ZM16.953,10C16.972,9.979 16.995,9.962 17.022,9.951C17.893,9.567 18.724,9.084 19.493,8.506C19.539,8.471 19.6,8.459 19.657,8.473C19.714,8.488 19.762,8.528 19.786,8.582C20.111,9.323 20.328,10.107 20.431,10.909C19.415,10.331 18.243,10 17,10C16.984,10 16.969,10 16.953,10ZM10.688,20.01C10.354,19.752 10.042,19.402 9.755,18.981C9.382,18.433 9.056,17.768 8.789,17.012C8.766,16.947 8.78,16.877 8.824,16.824C8.868,16.773 8.936,16.748 9.002,16.76C9.333,16.813 9.665,16.858 10.001,16.893C10,16.929 10,16.964 10,17C10,18.075 10.247,19.096 10.688,20.01ZM3.796,13.961C3.746,13.935 3.71,13.888 3.697,13.833C3.566,13.231 3.499,12.617 3.5,12C3.5,10.784 3.755,9.627 4.215,8.581C4.239,8.528 4.287,8.488 4.344,8.473C4.4,8.459 4.461,8.471 4.507,8.506C5.269,9.077 6.097,9.563 6.978,9.95C7.056,9.984 7.102,10.063 7.093,10.146C7.033,10.745 7,11.365 7,12C7,13.072 7.092,14.102 7.261,15.061C7.272,15.126 7.25,15.194 7.2,15.239C7.151,15.284 7.081,15.3 7.016,15.281C5.892,14.946 4.814,14.503 3.796,13.961ZM8.93,19.545C8.977,19.615 8.974,19.708 8.921,19.774C8.868,19.84 8.778,19.864 8.7,19.832C6.824,19.035 5.266,17.581 4.357,15.722C4.323,15.65 4.338,15.564 4.394,15.507C4.45,15.45 4.535,15.434 4.609,15.466C5.526,15.865 6.48,16.192 7.467,16.44C7.534,16.458 7.587,16.509 7.605,16.575C7.937,17.744 8.391,18.756 8.93,19.545ZM4.943,7.58C4.863,7.518 4.845,7.406 4.9,7.322C5.836,5.903 7.167,4.813 8.7,4.167C8.778,4.136 8.867,4.16 8.919,4.226C8.972,4.292 8.975,4.385 8.928,4.453L8.93,4.455C8.199,5.525 7.625,7.008 7.299,8.732C7.287,8.791 7.25,8.842 7.196,8.869C7.143,8.896 7.08,8.897 7.026,8.872C6.284,8.514 5.586,8.081 4.943,7.58ZM12,3.5C12.849,3.5 13.609,4.086 14.245,5.018C14.95,6.053 15.487,7.507 15.772,9.196C15.788,9.289 15.733,9.381 15.643,9.411C14.478,9.8 13.248,10.001 12,10C10.728,10 9.502,9.793 8.357,9.411C8.267,9.38 8.212,9.289 8.227,9.196C8.513,7.507 9.05,6.053 9.755,5.018C10.391,4.086 11.151,3.5 12,3.5ZM15.071,4.455C15.022,4.385 15.025,4.291 15.078,4.224C15.131,4.157 15.222,4.133 15.301,4.165C16.833,4.813 18.164,5.903 19.1,7.323C19.155,7.407 19.137,7.519 19.058,7.581C18.408,8.086 17.709,8.519 16.974,8.871C16.92,8.897 16.857,8.895 16.804,8.868C16.751,8.841 16.713,8.791 16.702,8.733C16.376,7.009 15.801,5.525 15.071,4.455Z" style="fill:white;"/>
            <g transform="matrix(1.386291,0,0,1.386291,-6.570349,-6.635721)">
                <path d="M20.941,17.05C20.941,19.21 19.163,20.988 17.002,20.988C14.842,20.988 13.064,19.21 13.064,17.05C13.064,14.889 14.842,13.111 17.002,13.111C19.163,13.111 20.941,14.889 20.941,17.05ZM16.252,17.8L16.252,18.869C16.252,19.283 16.589,19.619 17.002,19.619C17.416,19.619 17.752,19.283 17.752,18.869L17.752,17.8L18.822,17.8C19.236,17.8 19.572,17.464 19.572,17.05C19.572,16.636 19.236,16.3 18.822,16.3L17.752,16.3L17.752,15.23C17.752,14.816 17.416,14.48 17.002,14.48C16.589,14.48 16.252,14.816 16.252,15.23L16.252,16.3L15.183,16.3C14.769,16.3 14.433,16.636 14.433,17.05C14.433,17.464 14.769,17.8 15.183,17.8L16.252,17.8Z" style="fill:white;"/>
            </g>
        </g>
    </g>
</svg>
