<svg width="24" height="24" xmlns="http://www.w3.org/2000/svg" clip-rule="evenodd" stroke-miterlimit="2" viewBox="0 0 24 24"><title>website</title><g stroke-linejoin="round" fill="#ffffff" class="nc-icon-wrapper" fill-rule="evenodd"><path d="M8.697,15.268C8.62,15.252 8.559,15.193 8.542,15.116C8.3,14.008 8.166,12.782 8.166,11.493C8.166,11.005 8.185,10.526 8.222,10.059C8.227,9.999 8.26,9.944 8.31,9.91C8.36,9.877 8.423,9.868 8.481,9.886C9.688,10.258 10.97,10.459 12.3,10.459C13.605,10.461 14.892,10.264 16.119,9.885C16.177,9.866 16.24,9.875 16.291,9.909C16.341,9.943 16.373,9.998 16.378,10.059C16.415,10.526 16.434,11.005 16.434,11.493C16.434,12.782 16.3,14.008 16.058,15.116C16.041,15.193 15.98,15.253 15.903,15.269C14.722,15.508 13.515,15.629 12.3,15.627C11.067,15.627 9.862,15.503 8.697,15.268ZM3.821,13.52C3.769,13.493 3.732,13.444 3.719,13.387C3.583,12.765 3.514,12.13 3.515,11.493C3.515,10.236 3.779,9.04 4.254,7.959C4.279,7.904 4.328,7.863 4.387,7.848C4.445,7.833 4.508,7.846 4.556,7.882C5.343,8.472 6.199,8.974 7.11,9.374C7.19,9.409 7.238,9.491 7.229,9.577C7.166,10.196 7.132,10.837 7.132,11.493C7.132,12.601 7.227,13.665 7.402,14.656C7.414,14.724 7.391,14.794 7.339,14.84C7.288,14.887 7.216,14.903 7.149,14.884C5.987,14.538 4.873,14.08 3.821,13.52ZM9.127,19.291C9.176,19.363 9.173,19.459 9.118,19.527C9.063,19.596 8.97,19.62 8.889,19.587C6.95,18.764 5.34,17.261 4.401,15.34C4.366,15.265 4.381,15.176 4.439,15.117C4.497,15.059 4.585,15.042 4.661,15.075C5.609,15.487 6.595,15.825 7.615,16.082C7.684,16.1 7.739,16.153 7.758,16.221C8.101,17.429 8.57,18.475 9.127,19.291C9.127,19.291 9.127,19.291 9.127,19.291ZM5.006,6.925C4.924,6.861 4.905,6.745 4.962,6.658C5.929,5.191 7.305,4.065 8.889,3.397C8.97,3.365 9.062,3.39 9.116,3.458C9.17,3.526 9.174,3.622 9.125,3.693C9.127,3.694 9.127,3.695 9.127,3.695C8.372,4.801 7.778,6.333 7.441,8.115C7.429,8.176 7.391,8.229 7.335,8.257C7.28,8.285 7.215,8.286 7.159,8.26C6.392,7.89 5.671,7.442 5.006,6.925ZM12.3,20.278C11.423,20.278 10.637,19.672 9.98,18.708C9.594,18.142 9.257,17.454 8.981,16.673C8.958,16.606 8.972,16.533 9.018,16.479C9.063,16.426 9.133,16.4 9.202,16.412C10.211,16.575 11.245,16.66 12.3,16.66C13.341,16.662 14.377,16.578 15.397,16.411C15.467,16.399 15.538,16.425 15.583,16.479C15.629,16.533 15.643,16.607 15.62,16.674C15.343,17.454 15.006,18.142 14.62,18.708C13.963,19.672 13.177,20.278 12.3,20.278ZM19.939,15.073C20.015,15.039 20.104,15.056 20.163,15.116C20.221,15.175 20.236,15.265 20.2,15.34C19.26,17.261 17.65,18.764 15.71,19.585C15.63,19.617 15.538,19.593 15.484,19.525C15.43,19.458 15.426,19.363 15.475,19.292C15.474,19.291 15.474,19.291 15.474,19.291C16.03,18.475 16.499,17.429 16.842,16.221C16.862,16.153 16.916,16.1 16.985,16.082C17.994,15.828 18.982,15.49 19.939,15.073ZM12.3,2.708C13.177,2.708 13.963,3.314 14.62,4.277C15.349,5.346 15.904,6.849 16.198,8.595C16.215,8.691 16.158,8.786 16.065,8.817C14.861,9.219 13.59,9.427 12.3,9.426C10.985,9.426 9.718,9.212 8.535,8.817C8.442,8.785 8.385,8.691 8.401,8.595C8.696,6.849 9.251,5.346 9.98,4.277C10.637,3.314 11.423,2.708 12.3,2.708ZM15.474,3.694C15.423,3.622 15.426,3.525 15.481,3.456C15.536,3.387 15.63,3.362 15.712,3.395C17.295,4.065 18.671,5.191 19.638,6.659C19.695,6.746 19.676,6.862 19.595,6.926C18.923,7.448 18.2,7.895 17.441,8.259C17.385,8.286 17.32,8.284 17.265,8.256C17.21,8.228 17.171,8.176 17.16,8.116C16.823,6.334 16.228,4.801 15.474,3.695C15.474,3.695 15.474,3.694 15.474,3.694ZM20.044,7.882C20.092,7.845 20.155,7.833 20.214,7.848C20.273,7.863 20.322,7.904 20.347,7.96C20.834,9.07 21.087,10.273 21.085,11.492C21.085,12.143 21.014,12.777 20.88,13.387C20.868,13.444 20.831,13.493 20.78,13.52C19.715,14.086 18.599,14.542 17.45,14.883C17.384,14.902 17.313,14.885 17.262,14.839C17.211,14.793 17.187,14.724 17.199,14.656C17.373,13.665 17.468,12.601 17.468,11.493C17.468,10.837 17.434,10.196 17.371,9.577C17.363,9.491 17.41,9.409 17.49,9.375C18.391,8.978 19.249,8.479 20.044,7.882Z" fill="#ffffff" transform="matrix(.96756 0 0 .96756 .099 .88)"></path></g></svg>