<svg width="24" height="24" xmlns="http://www.w3.org/2000/svg" clip-rule="evenodd" viewBox="0 0 24 24"><title>website link</title><g class="nc-icon-wrapper" fill-rule="evenodd" fill="#ffffff" stroke-linecap="round" stroke-linejoin="round"><path d="M9.503,20.719C9.503,20.719 9.514,20.733 8.404,20.246C7.838,19.998 7.3,19.693 6.798,19.338C5.106,18.138 3.83,16.362 3.284,14.253M8.709,18.138C8.553,17.803 8.409,17.444 8.279,17.063C7.788,15.621 7.5,13.878 7.5,12C7.5,7.03 9.515,3 12,3M12,3C15.246,2.999 18.25,4.754 19.843,7.582M12,3C8.754,2.999 5.75,4.754 4.157,7.582M19.843,7.582C17.666,9.467 14.88,10.504 12,10.5C9.002,10.5 6.26,9.4 4.157,7.582M19.843,7.582C19.938,7.751 20.028,7.923 20.112,8.097C20.356,8.604 20.814,9.91 20.814,9.91M11.644,16.547C11.644,16.547 10.587,16.459 9.897,16.378C7.521,16.102 5.286,15.363 3.284,14.253M3.284,14.253C3.095,13.517 2.999,12.76 3,12C3,10.395 3.42,8.887 4.157,7.582" fill="none" fill-rule="nonzero" stroke="#ffffff" stroke-width="1.5" transform="translate(-.728 -.562)"></path><path d="M16.56,11.955C16.56,11.955 16.488,11.244 16.465,10.876C16.441,10.48 16.403,10.093 16.354,9.715C15.848,5.851 14.09,3 12,3" fill="none" fill-rule="nonzero" stroke="#ffffff" stroke-width="1.5" transform="translate(-.728 -.562)"></path><path d="M13.19,8.688C14.752,9.434 15.751,11.018 15.751,12.749C15.751,13.942 15.276,15.088 14.432,15.932L9.932,20.432C9.088,21.276 7.943,21.75 6.75,21.75C4.281,21.75 2.25,19.719 2.25,17.25C2.25,16.057 2.724,14.912 3.568,14.068L5.325,12.311M18.675,11.689L20.432,9.932C21.276,9.088 21.75,7.943 21.75,6.75C21.75,4.281 19.719,2.25 17.25,2.25C16.057,2.25 14.912,2.724 14.068,3.568L9.568,8.068C8.724,8.912 8.249,10.058 8.249,11.251C8.249,12.982 9.248,14.566 10.81,15.312" fill="none" fill-rule="nonzero" stroke="#ffffff" stroke-width="2.56" transform="translate(10.396 10.41) scale(.58595)"></path></g></svg>