<?xml version="1.0" encoding="UTF-8" standalone="no"?><!DOCTYPE svg PUBLIC "-//W3C//DTD SVG 1.1//EN" "http://www.w3.org/Graphics/SVG/1.1/DTD/svg11.dtd"><svg width="100%" height="100%" viewBox="0 0 8 8" version="1.1" xmlns="http://www.w3.org/2000/svg" xmlns:xlink="http://www.w3.org/1999/xlink" xml:space="preserve" xmlns:serif="http://www.serif.com/" style="fill-rule:evenodd;clip-rule:evenodd;stroke-miterlimit:10;"><rect id="xcf" x="0.125" y="0.138" width="7.68" height="7.68" style="fill:none;"/><clipPath id="_clip1"><rect x="0.125" y="0.138" width="7.68" height="7.68"/></clipPath><g clip-path="url(#_clip1)"><g id="gimp"><path id="path8887" d="M1.988,1.547c0,-0 0.672,1.544 2.028,1.508c2.842,-0.074 3.348,-1.754 3.655,-2.139c1.274,9.566 -6.969,5.447 -6.74,3.943c1.462,-0.449 0.941,-0.617 0.941,-0.617l0.116,-2.695Z" style="fill:#fff;"/><path id="path8889" d="M5.321,5.067c-0,0 0.182,0.159 0.289,0.304c-0.405,0.328 -1.097,0.593 -2.456,0.308c0.686,0.254 1.264,0.37 1.71,0.341c-0.271,0.094 -0.612,0.163 -1.052,0.186c0.981,0.095 1.712,-0.096 1.97,-0.497c0.068,0.076 0.134,0.208 0.198,0.377c0.044,-0.289 0.149,-0.428 -0.018,-0.654c-0.167,-0.226 -0.641,-0.365 -0.641,-0.365l-0,0Z"/><path id="path8893" d="M0.492,3.651c0.391,-0.296 1.031,-0.068 1.428,0.51c0.397,0.578 0.402,1.287 0.011,1.583c-0.391,0.296 -1.031,0.067 -1.428,-0.51c-0.397,-0.578 -0.402,-1.287 -0.011,-1.583Z" style="stroke:#fff;stroke-width:0.06px;"/><ellipse id="path8897" cx="0.8" cy="4.241" rx="0.356" ry="0.449" style="fill:#fff;"/><ellipse id="path8899" cx="2.832" cy="3.904" rx="0.803" ry="0.874" style="fill:#fff;stroke:#000;stroke-width:0.12px;"/><path id="path8907" d="M3.047,3.567l0,0c-0.293,0 -0.534,0.253 -0.534,0.561c-0,-0 -0,0 -0,0c0,0.308 0.241,0.56 0.534,0.56c0.293,0 0.534,-0.252 0.535,-0.56c-0,0 -0,-0 -0,-0c-0,-0.308 -0.242,-0.561 -0.535,-0.561Zm-0.201,0.154c0.116,-0 0.211,0.1 0.211,0.221c-0,0.122 -0.095,0.222 -0.211,0.222c0,0 0,0 0,0c-0.116,0 -0.211,-0.1 -0.211,-0.222l-0,0c-0,-0.121 0.095,-0.221 0.211,-0.221c0,-0 0,-0 0,-0Z"/><ellipse id="path8901" cx="4.599" cy="4.088" rx="0.963" ry="1.01" style="fill:#fff;stroke:#000;stroke-width:0.1px;"/><path id="path8903" d="M4.835,3.506c-0.375,0 -0.684,0.324 -0.684,0.718c-0,-0 -0,0 -0,0c-0,0.394 0.309,0.718 0.684,0.718c0,0 0,0 0,0c0.376,0 0.685,-0.324 0.685,-0.718c-0,0 -0,-0 -0,-0c-0,-0.394 -0.309,-0.718 -0.685,-0.718c0,-0 0,-0 0,-0Zm-0.189,0.145c0.176,-0 0.32,0.152 0.32,0.337c0,-0 0,-0 0,-0c0,0.184 -0.144,0.336 -0.32,0.336c-0.176,0 -0.321,-0.152 -0.321,-0.336c0,-0 0,-0 0,-0c0,-0.185 0.145,-0.337 0.321,-0.337Z"/></g></g></svg>