<?xml version="1.0" encoding="UTF-8" standalone="no"?><!DOCTYPE svg PUBLIC "-//W3C//DTD SVG 1.1//EN" "http://www.w3.org/Graphics/SVG/1.1/DTD/svg11.dtd"><svg width="100%" height="100%" viewBox="0 0 8 8" version="1.1" xmlns="http://www.w3.org/2000/svg" xmlns:xlink="http://www.w3.org/1999/xlink" xml:space="preserve" xmlns:serif="http://www.serif.com/" style="fill-rule:evenodd;clip-rule:evenodd;stroke-linejoin:round;stroke-miterlimit:2;"><rect id="xstage" x="0.056" y="0.03" width="7.68" height="7.68" style="fill:none;"/><clipPath id="_clip1"><rect x="0.056" y="0.03" width="7.68" height="7.68"/></clipPath><g clip-path="url(#_clip1)"><g id="toonboom"><path id="icon_clip" d="M7.736,1.566l-0,4.608c-0,0.848 -0.689,1.536 -1.536,1.536l-4.608,-0c-0.848,-0 -1.536,-0.688 -1.536,-1.536l-0,-4.608c-0,-0.848 0.688,-1.536 1.536,-1.536l4.608,-0c0.847,-0 1.536,0.688 1.536,1.536Z" style="fill:#fff;"/><path d="M6.388,4.249l-0.423,0.423l0.187,-0.311l-0.834,0.436l0.56,-0.498l-1.281,0.237l1.032,-0.461l-1.642,-0.199l1.642,-0.199l-1.032,-0.46l1.281,0.236l-0.56,-0.498l0.834,0.436l-0.187,-0.311l0.423,0.423c0.212,0.186 0.212,0.535 0,0.746m0.274,-1.144l-2.451,-2.452l1.02,1.693l-2.476,-1.295l1.891,1.68l-3.247,-0.585l2.787,1.257l-3.77,0.461l3.77,0.46l-2.787,1.269l3.247,-0.597l-1.891,1.68l2.476,-1.294l-1.02,1.704l2.451,-2.451c0.423,-0.423 0.423,-1.107 0,-1.53" style="fill:#ffce00;fill-rule:nonzero;"/></g></g></svg>