<?xml version="1.0" encoding="UTF-8" standalone="no"?><!DOCTYPE svg PUBLIC "-//W3C//DTD SVG 1.1//EN" "http://www.w3.org/Graphics/SVG/1.1/DTD/svg11.dtd"><svg width="100%" height="100%" viewBox="0 0 8 8" version="1.1" xmlns="http://www.w3.org/2000/svg" xmlns:xlink="http://www.w3.org/1999/xlink" xml:space="preserve" xmlns:serif="http://www.serif.com/" style="fill-rule:evenodd;clip-rule:evenodd;stroke-linejoin:round;stroke-miterlimit:2;"><rect id="zpr" x="0.087" y="-0" width="7.68" height="7.68" style="fill:none;"/><path d="M4.027,1.36c-0.028,-0.14 0.008,-0.285 0.104,-0.435c0.115,-0.181 0.25,-0.28 0.405,-0.3c0.201,-0.023 0.387,0.084 0.56,0.315c0.16,0.217 0.232,0.42 0.214,0.606c-0.003,0.112 -0.168,0.181 -0.497,0.204c-0.257,0.02 -0.442,-0.005 -0.562,-0.079c-0.125,-0.074 -0.199,-0.178 -0.224,-0.311Zm3.548,5.663c-0.018,0.038 -0.082,0.033 -0.191,-0.015c-0.186,-0.089 -0.392,-0.224 -0.624,-0.407c-0.257,-0.204 -0.407,-0.364 -0.448,-0.481c-0.007,-0.028 -0.005,-0.064 0.011,-0.11l0.048,-0.13c0.033,-0.119 -0.01,-0.239 -0.13,-0.358c-0.058,-0.059 -0.137,-0.115 -0.234,-0.168c-0.226,-0.12 -0.552,-0.222 -0.982,-0.303c-0.446,-0.084 -0.871,-0.133 -1.275,-0.143l-0.492,0.026c-0.129,0.15 -0.254,0.29 -0.374,0.42c-0.102,0.107 -0.201,0.206 -0.298,0.297c-0.389,0.349 -0.768,0.614 -1.14,0.797c-0.506,0.247 -0.886,0.318 -1.143,0.209c-0.033,-0.023 -0.043,-0.061 -0.033,-0.115l0.046,-0.142c0.176,-0.382 0.463,-0.731 0.858,-1.046c0.033,-0.028 0.069,-0.054 0.102,-0.079c0.313,-0.232 0.735,-0.476 1.267,-0.728c0.349,-0.15 0.636,-0.25 0.86,-0.298l0.212,-0.293c0.084,-0.104 0.173,-0.203 0.262,-0.297c0.191,-0.207 0.387,-0.397 0.593,-0.568c0.018,-0.008 0.02,-0.018 0.01,-0.03c-0.104,-0.059 -0.275,-0.169 -0.506,-0.329c-0.199,-0.135 -0.354,-0.229 -0.466,-0.28c-0.351,-0.158 -0.71,-0.112 -1.079,0.138c-0.222,0.147 -0.341,0.31 -0.354,0.488l-0.013,0.219c0.013,0.061 -0.183,0.163 -0.585,0.306c-0.074,0.022 -0.135,0.043 -0.186,0.056c-0.089,0.017 -0.15,0.02 -0.181,0.005l-0.01,-0.005l-0.028,-0.018c-0.036,-0.071 0.132,-0.316 0.501,-0.736c0.026,-0.028 0.052,-0.056 0.078,-0.083l0,-0.001l0.001,-0.001c0.668,-0.703 1.456,-0.975 2.362,-0.813c0.25,0.043 0.662,0.196 1.24,0.455c0.063,-0.063 0.173,-0.14 0.323,-0.226c0.191,-0.11 0.349,-0.168 0.468,-0.171c0.262,-0.002 0.428,0.097 0.497,0.303c0.04,0.125 -0.051,0.301 -0.278,0.527c-0.234,0.239 -0.455,0.389 -0.664,0.45c-0.262,0.079 -0.547,0.034 -0.85,-0.132c-0.135,0.105 -0.288,0.255 -0.453,0.446c-0.008,0.007 -0.016,0.017 -0.023,0.025l-0.392,0.468l-0.005,0.033l0.27,-0.01c0.193,0.005 0.389,0.038 0.59,0.102c0.547,0.176 1.005,0.392 1.374,0.649c0.176,0.125 0.347,0.267 0.507,0.428c0.165,0.168 0.326,0.356 0.476,0.562c0.132,0.183 0.244,0.369 0.338,0.555c0.133,0.26 0.181,0.443 0.143,0.552Zm-2.006,-4.459c0.049,0.038 0.163,0.054 0.349,0.046c0.206,-0.008 0.346,-0.048 0.425,-0.127c0.038,-0.038 0.038,-0.077 -0.005,-0.112c-0.048,-0.043 -0.137,-0.054 -0.265,-0.036c-0.109,0.018 -0.226,0.056 -0.354,0.115c-0.124,0.058 -0.175,0.096 -0.15,0.114Zm-2.776,2.438l-0.059,-0.007c-0.176,0.035 -0.338,0.076 -0.489,0.122c-0.211,0.069 -0.407,0.148 -0.588,0.237c-0.145,0.068 -0.28,0.145 -0.404,0.226c-0.397,0.257 -0.581,0.507 -0.547,0.748l0.038,0.044c0.104,0.068 0.31,0.015 0.616,-0.161c0.415,-0.241 0.786,-0.526 1.114,-0.857c0.11,-0.112 0.217,-0.229 0.319,-0.352Z" style="fill-rule:nonzero;"/><path d="M4.244,3.09c-0.096,-0.06 -0.214,-0.139 -0.354,-0.236c-0.189,-0.128 -0.336,-0.219 -0.443,-0.267c-0.305,-0.137 -0.616,-0.091 -0.936,0.125l-0,0.001c-0.174,0.115 -0.279,0.236 -0.289,0.375c0,0 -0.012,0.204 -0.012,0.205c0.003,0.044 -0.01,0.094 -0.056,0.145c-0.063,0.069 -0.27,0.177 -0.628,0.304c-0.002,0.001 -0.004,0.001 -0.005,0.002c-0.077,0.024 -0.141,0.045 -0.194,0.058c-0.003,0 -0.005,0.001 -0.007,0.001c-0.136,0.028 -0.23,0.016 -0.276,-0.007c-0.003,-0.002 -0.006,-0.003 -0.009,-0.005c-0.005,-0.002 -0.01,-0.005 -0.015,-0.008l-0.027,-0.017l0.079,0.023l-0.132,-0.082c-0.023,-0.046 -0.033,-0.129 0.022,-0.242c0.064,-0.129 0.229,-0.349 0.5,-0.657l0.001,-0.001c0.027,-0.03 0.053,-0.059 0.08,-0.087c0.001,-0.001 0.001,-0.001 0.002,-0.002l0,-0c0.706,-0.742 1.539,-1.027 2.494,-0.857c0.244,0.043 0.64,0.185 1.189,0.428c0.069,-0.054 0.161,-0.115 0.275,-0.181l0,-0c0.219,-0.126 0.402,-0.188 0.539,-0.19c0.001,-0 0.001,-0 0.002,-0c0.34,-0.004 0.548,0.136 0.638,0.403l0,0.001c0.026,0.079 0.023,0.171 -0.018,0.275c-0.045,0.112 -0.141,0.248 -0.295,0.402c-0.256,0.261 -0.5,0.422 -0.727,0.488c-0.271,0.082 -0.564,0.05 -0.874,-0.098c-0.11,0.094 -0.231,0.217 -0.36,0.366c-0.002,0.003 -0.004,0.005 -0.006,0.008c-0.005,0.005 -0.01,0.01 -0.015,0.016c-0.001,0.001 -0.002,0.002 -0.003,0.003l-0.206,0.246c0.198,0.008 0.398,0.043 0.604,0.108l0,0c0.563,0.181 1.034,0.404 1.414,0.669l0.001,0.001c0.182,0.129 0.359,0.277 0.525,0.443l0.001,0.001c0.171,0.173 0.336,0.367 0.49,0.579l0.001,0.001c0.137,0.189 0.253,0.382 0.35,0.574c0.088,0.172 0.14,0.314 0.161,0.426c0.017,0.098 0.011,0.178 -0.011,0.242c-0.001,0.005 -0.003,0.009 -0.005,0.014c-0.024,0.051 -0.064,0.086 -0.124,0.103c-0.05,0.013 -0.139,0.008 -0.261,-0.046c-0.001,-0 -0.003,-0.001 -0.004,-0.002c-0.194,-0.093 -0.409,-0.233 -0.651,-0.424c-0.289,-0.229 -0.45,-0.417 -0.496,-0.549c-0.001,-0.003 -0.002,-0.006 -0.003,-0.01c-0.014,-0.049 -0.015,-0.113 0.012,-0.194c0.001,-0.002 0.002,-0.004 0.002,-0.005c0,-0 0.046,-0.123 0.046,-0.125c0.016,-0.071 -0.022,-0.137 -0.093,-0.208c-0.05,-0.05 -0.118,-0.097 -0.2,-0.142c-0.217,-0.115 -0.529,-0.21 -0.94,-0.288c-0.435,-0.082 -0.85,-0.13 -1.246,-0.14c0,0 -0.422,0.022 -0.422,0.022c-0.116,0.133 -0.228,0.259 -0.336,0.376c-0.001,0 -0.001,0.001 -0.002,0.002c-0.103,0.108 -0.204,0.209 -0.303,0.303c-0.001,0.001 -0.002,0.002 -0.003,0.003c-0.401,0.358 -0.791,0.63 -1.173,0.819l-0.001,-0c-0.559,0.273 -0.982,0.333 -1.265,0.212c-0.01,-0.004 -0.018,-0.009 -0.027,-0.015c-0.077,-0.053 -0.118,-0.138 -0.094,-0.263c0.001,-0.006 0.003,-0.012 0.005,-0.018l0.045,-0.143c0.002,-0.005 0.004,-0.011 0.007,-0.016c0.184,-0.401 0.485,-0.767 0.898,-1.099c0.035,-0.029 0.071,-0.055 0.106,-0.081c0,-0.001 0.001,-0.001 0.002,-0.002c0.319,-0.236 0.749,-0.486 1.292,-0.743c0.002,-0 0.003,-0.001 0.005,-0.002c0.331,-0.142 0.609,-0.24 0.831,-0.294l0.179,-0.247c0.001,-0.002 0.003,-0.004 0.005,-0.006c0.086,-0.107 0.177,-0.21 0.269,-0.306c0.154,-0.167 0.311,-0.323 0.475,-0.468Zm3.331,3.933c0.038,-0.109 -0.01,-0.292 -0.143,-0.552c-0.094,-0.186 -0.206,-0.372 -0.338,-0.555c-0.15,-0.206 -0.311,-0.394 -0.476,-0.562c-0.16,-0.161 -0.331,-0.303 -0.507,-0.428c-0.369,-0.257 -0.827,-0.473 -1.374,-0.649c-0.201,-0.064 -0.397,-0.097 -0.59,-0.102l-0.27,0.01l0.005,-0.033l0.392,-0.468c0.007,-0.008 0.015,-0.018 0.023,-0.025c0.165,-0.191 0.318,-0.341 0.453,-0.446c0.303,0.166 0.588,0.211 0.85,0.132c0.209,-0.061 0.43,-0.211 0.664,-0.45c0.227,-0.226 0.318,-0.402 0.278,-0.527c-0.069,-0.206 -0.235,-0.305 -0.497,-0.303c-0.119,0.003 -0.277,0.061 -0.468,0.171c-0.15,0.086 -0.26,0.163 -0.323,0.226c-0.578,-0.259 -0.99,-0.412 -1.24,-0.455c-0.906,-0.162 -1.694,0.11 -2.362,0.813l-0.001,0.001l-0,0.001c-0.026,0.027 -0.052,0.055 -0.078,0.083c-0.369,0.42 -0.537,0.665 -0.501,0.736l0.028,0.018l0.01,0.005c0.031,0.015 0.092,0.012 0.181,-0.005c0.051,-0.013 0.112,-0.034 0.186,-0.056c0.402,-0.143 0.598,-0.245 0.585,-0.306l0.013,-0.219c0.013,-0.178 0.132,-0.341 0.354,-0.488c0.369,-0.25 0.728,-0.296 1.079,-0.138c0.112,0.051 0.267,0.145 0.466,0.28c0.231,0.16 0.402,0.27 0.506,0.329c0.01,0.012 0.008,0.022 -0.01,0.03c-0.206,0.171 -0.402,0.361 -0.593,0.568c-0.089,0.094 -0.178,0.193 -0.262,0.297l-0.212,0.293c-0.224,0.048 -0.511,0.148 -0.86,0.298c-0.532,0.252 -0.954,0.496 -1.267,0.728c-0.033,0.025 -0.069,0.051 -0.102,0.079c-0.395,0.315 -0.682,0.664 -0.858,1.046l-0.046,0.142c-0.01,0.054 0,0.092 0.033,0.115c0.257,0.109 0.637,0.038 1.143,-0.209c0.372,-0.183 0.751,-0.448 1.14,-0.797c0.097,-0.091 0.196,-0.19 0.298,-0.297c0.12,-0.13 0.245,-0.27 0.374,-0.42l0.492,-0.026c0.404,0.01 0.829,0.059 1.275,0.143c0.43,0.081 0.756,0.183 0.982,0.303c0.097,0.053 0.176,0.109 0.234,0.168c0.12,0.119 0.163,0.239 0.13,0.358l-0.048,0.13c-0.016,0.046 -0.018,0.082 -0.011,0.11c0.041,0.117 0.191,0.277 0.448,0.481c0.232,0.183 0.438,0.318 0.624,0.407c0.109,0.048 0.173,0.053 0.191,0.015Zm-2.006,-4.459c-0.025,-0.018 0.026,-0.056 0.15,-0.114c0.128,-0.059 0.245,-0.097 0.354,-0.115c0.128,-0.018 0.217,-0.007 0.265,0.036c0.043,0.035 0.043,0.074 0.005,0.112c-0.079,0.079 -0.219,0.119 -0.425,0.127c-0.186,0.008 -0.3,-0.008 -0.349,-0.046Zm-4.68,3.835c0.006,-0.032 0.001,-0.065 -0.013,-0.093c0.016,0.033 0.012,0.066 -0.002,0.094c-0.054,0.003 -0.097,-0.006 -0.13,-0.028l-0.038,-0.044c-0.034,-0.241 0.15,-0.491 0.547,-0.748c0.124,-0.081 0.259,-0.158 0.404,-0.226c0.181,-0.089 0.377,-0.168 0.588,-0.237c0.151,-0.046 0.313,-0.087 0.489,-0.122l0.059,0.007c-0.102,0.123 -0.209,0.24 -0.319,0.352c-0.328,0.331 -0.699,0.616 -1.114,0.857c-0.2,0.115 -0.357,0.178 -0.471,0.188Zm1.501,-1.17c-0.034,0.009 -0.068,0.019 -0.1,0.029c-0.204,0.066 -0.393,0.142 -0.567,0.228c-0.001,0.001 -0.002,0.001 -0.002,0.001c-0.139,0.066 -0.268,0.139 -0.387,0.217l-0.001,0c-0.18,0.117 -0.313,0.23 -0.396,0.343c-0.052,0.071 -0.083,0.141 -0.087,0.209c0.023,0.002 0.053,-0.006 0.089,-0.016c0.093,-0.024 0.208,-0.077 0.347,-0.157c0.403,-0.234 0.764,-0.511 1.083,-0.833c0.007,-0.007 0.014,-0.014 0.021,-0.021Zm-0.855,-2.499c-0.016,0.021 -0.025,0.041 -0.027,0.06c0.004,-0.022 0.013,-0.042 0.027,-0.06Zm-0.442,1.077c-0.001,-0 -0.002,-0 -0.002,-0l0.019,0.004l-0.017,-0.004Zm2.789,-2.418c-0.035,-0.174 0.004,-0.356 0.125,-0.543c0.143,-0.226 0.316,-0.342 0.51,-0.368c0.001,0 0.001,0 0.002,0c0.247,-0.028 0.483,0.09 0.695,0.374l0.001,0c0.185,0.251 0.261,0.489 0.242,0.704c-0.004,0.088 -0.049,0.17 -0.154,0.231c-0.093,0.054 -0.251,0.094 -0.479,0.11c-0.297,0.024 -0.51,-0.014 -0.649,-0.099c-0.164,-0.097 -0.26,-0.235 -0.293,-0.409Zm0.145,-0.029c0.025,0.133 0.099,0.237 0.224,0.311c0.12,0.074 0.305,0.099 0.562,0.079c0.329,-0.023 0.494,-0.092 0.497,-0.204c0.018,-0.186 -0.054,-0.389 -0.214,-0.606c-0.173,-0.231 -0.359,-0.338 -0.56,-0.315c-0.155,0.02 -0.29,0.119 -0.405,0.3c-0.096,0.15 -0.132,0.295 -0.104,0.435Z" style="fill:#fff;"/></svg>