<?xml version="1.0" encoding="UTF-8" standalone="no"?><!DOCTYPE svg PUBLIC "-//W3C//DTD SVG 1.1//EN" "http://www.w3.org/Graphics/SVG/1.1/DTD/svg11.dtd"><svg width="100%" height="100%" viewBox="0 0 8 8" version="1.1" xmlns="http://www.w3.org/2000/svg" xmlns:xlink="http://www.w3.org/1999/xlink" xml:space="preserve" xmlns:serif="http://www.serif.com/" style="fill-rule:evenodd;clip-rule:evenodd;stroke-linejoin:round;stroke-miterlimit:2;"><rect id="zprj" x="0.157" y="0.138" width="7.68" height="7.68" style="fill:none;"/><clipPath id="_clip1"><rect x="0.157" y="0.138" width="7.68" height="7.68"/></clipPath><g clip-path="url(#_clip1)"><path id="marvelous" d="M3.38,0.303c0.382,-0.221 0.852,-0.221 1.234,-0c0.635,0.367 1.621,0.936 2.257,1.303c0.381,0.22 0.617,0.628 0.617,1.068l-0,2.607c-0,0.44 -0.236,0.848 -0.617,1.068c-0.636,0.367 -1.622,0.936 -2.257,1.303c-0.382,0.221 -0.852,0.221 -1.234,0c-0.636,-0.367 -1.621,-0.936 -2.257,-1.303c-0.382,-0.22 -0.617,-0.628 -0.617,-1.068l-0,-2.607c-0,-0.44 0.235,-0.848 0.617,-1.068c0.636,-0.367 1.621,-0.936 2.257,-1.303Z" style="fill:#fff;"/><clipPath id="_clip2"><path d="M3.38,0.303c0.382,-0.221 0.852,-0.221 1.234,-0c0.635,0.367 1.621,0.936 2.257,1.303c0.381,0.22 0.617,0.628 0.617,1.068l-0,2.607c-0,0.44 -0.236,0.848 -0.617,1.068c-0.636,0.367 -1.622,0.936 -2.257,1.303c-0.382,0.221 -0.852,0.221 -1.234,0c-0.636,-0.367 -1.621,-0.936 -2.257,-1.303c-0.382,-0.22 -0.617,-0.628 -0.617,-1.068l-0,-2.607c-0,-0.44 0.235,-0.848 0.617,-1.068c0.636,-0.367 1.621,-0.936 2.257,-1.303Z"/></clipPath><g clip-path="url(#_clip2)"><path d="M6.352,3.851c0.082,-0.061 0.132,-0.158 0.132,-0.262l0,-0.891c0,-0.032 -0.017,-0.062 -0.045,-0.078c-0.028,-0.016 -0.063,-0.016 -0.091,-0l-2.258,1.303c-0.058,0.034 -0.129,0.034 -0.187,0l-2.258,-1.303c-0.005,-0.003 -0.011,-0.006 -0.016,-0.008l-0.202,-0.116c-0.19,-0.11 -0.424,-0.11 -0.614,-0c-0.19,0.109 -0.307,0.312 -0.307,0.531l-0,-0.353c-0,-0.44 0.235,-0.848 0.617,-1.068l2.257,-1.303c0.382,-0.221 0.852,-0.221 1.234,-0l2.257,1.303c0.304,0.176 0.515,0.47 0.588,0.806c0.006,0.013 0.011,0.034 0.015,0.062c0.006,0.046 0.009,0.089 0.012,0.13c0.001,0.024 0.002,0.047 0.002,0.07c-0,0.004 -0,0.076 -0,0.076l-0.002,0.001c-0.025,0.427 -0.273,0.605 -0.593,0.79l-0.573,0.331l0.008,-0.006c-0.002,0.002 -0.004,0.003 -0.006,0.004l-0.179,0.103l0.194,-0.112l0.015,-0.01Z" style="fill:url(#_Linear3);"/></g><path id="marvelous1" serif:id="marvelous" d="M3.38,0.303c0.382,-0.221 0.852,-0.221 1.234,-0c0.635,0.367 1.621,0.936 2.257,1.303c0.381,0.22 0.617,0.628 0.617,1.068l-0,2.607c-0,0.44 -0.236,0.848 -0.617,1.068c-0.636,0.367 -1.622,0.936 -2.257,1.303c-0.382,0.221 -0.852,0.221 -1.234,0c-0.636,-0.367 -1.621,-0.936 -2.257,-1.303c-0.382,-0.22 -0.617,-0.628 -0.617,-1.068l-0,-2.607c-0,-0.44 0.235,-0.848 0.617,-1.068c0.636,-0.367 1.621,-0.936 2.257,-1.303Zm2.969,4.992c0.084,-0.049 0.135,-0.138 0.135,-0.235c0,-0.19 0,-0.51 0,-0.698c0,-0.031 -0.016,-0.059 -0.043,-0.075c-0.027,-0.015 -0.06,-0.015 -0.087,0c-0.256,0.148 -0.826,0.477 -1.087,0.628c-0.083,0.048 -0.135,0.138 -0.135,0.234c0,0.191 0,0.511 0,0.699c0,0.03 0.017,0.059 0.043,0.074c0.027,0.016 0.06,0.016 0.087,0c0.256,-0.148 0.826,-0.477 1.087,-0.627Zm-4.704,-2.675c-0.028,-0.016 -0.062,-0.016 -0.09,-0c-0.028,0.016 -0.046,0.046 -0.046,0.078c0,0.228 0,0.648 0,0.891c0,0.116 0.062,0.223 0.163,0.281c0.476,0.275 1.858,1.073 2.231,1.288c0.058,0.034 0.129,0.034 0.187,0c0.373,-0.215 1.756,-1.013 2.232,-1.288c0.1,-0.058 0.162,-0.165 0.162,-0.281c0,-0.243 0,-0.663 0,-0.891c0,-0.032 -0.017,-0.062 -0.045,-0.078c-0.028,-0.016 -0.063,-0.016 -0.091,-0c-0.448,0.259 -1.877,1.084 -2.258,1.303c-0.058,0.034 -0.129,0.034 -0.187,0c-0.38,-0.219 -1.809,-1.044 -2.258,-1.303Zm1.087,3.302c0.027,0.016 0.06,0.016 0.086,0c0.027,-0.015 0.044,-0.044 0.044,-0.074c-0,-0.188 -0,-0.508 -0,-0.699c-0,-0.096 -0.052,-0.186 -0.136,-0.234c-0.261,-0.151 -0.83,-0.48 -1.087,-0.628c-0.027,-0.015 -0.06,-0.015 -0.086,0c-0.027,0.016 -0.044,0.044 -0.044,0.075c0,0.188 0,0.508 0,0.698c0,0.097 0.052,0.186 0.136,0.235c0.261,0.15 0.83,0.479 1.087,0.627Z" style="fill:url(#_Linear4);"/><clipPath id="_clip5"><path d="M3.38,0.303c0.382,-0.221 0.852,-0.221 1.234,-0c0.635,0.367 1.621,0.936 2.257,1.303c0.381,0.22 0.617,0.628 0.617,1.068l-0,2.607c-0,0.44 -0.236,0.848 -0.617,1.068c-0.636,0.367 -1.622,0.936 -2.257,1.303c-0.382,0.221 -0.852,0.221 -1.234,0c-0.636,-0.367 -1.621,-0.936 -2.257,-1.303c-0.382,-0.22 -0.617,-0.628 -0.617,-1.068l-0,-2.607c-0,-0.44 0.235,-0.848 0.617,-1.068c0.636,-0.367 1.621,-0.936 2.257,-1.303Zm2.969,4.992c0.084,-0.049 0.135,-0.138 0.135,-0.235c0,-0.19 0,-0.51 0,-0.698c0,-0.031 -0.016,-0.059 -0.043,-0.075c-0.027,-0.015 -0.06,-0.015 -0.087,0c-0.256,0.148 -0.826,0.477 -1.087,0.628c-0.083,0.048 -0.135,0.138 -0.135,0.234c0,0.191 0,0.511 0,0.699c0,0.03 0.017,0.059 0.043,0.074c0.027,0.016 0.06,0.016 0.087,0c0.256,-0.148 0.826,-0.477 1.087,-0.627Zm-4.704,-2.675c-0.028,-0.016 -0.062,-0.016 -0.09,-0c-0.028,0.016 -0.046,0.046 -0.046,0.078c0,0.228 0,0.648 0,0.891c0,0.116 0.062,0.223 0.163,0.281c0.476,0.275 1.858,1.073 2.231,1.288c0.058,0.034 0.129,0.034 0.187,0c0.373,-0.215 1.756,-1.013 2.232,-1.288c0.1,-0.058 0.162,-0.165 0.162,-0.281c0,-0.243 0,-0.663 0,-0.891c0,-0.032 -0.017,-0.062 -0.045,-0.078c-0.028,-0.016 -0.063,-0.016 -0.091,-0c-0.448,0.259 -1.877,1.084 -2.258,1.303c-0.058,0.034 -0.129,0.034 -0.187,0c-0.38,-0.219 -1.809,-1.044 -2.258,-1.303Zm1.087,3.302c0.027,0.016 0.06,0.016 0.086,0c0.027,-0.015 0.044,-0.044 0.044,-0.074c-0,-0.188 -0,-0.508 -0,-0.699c-0,-0.096 -0.052,-0.186 -0.136,-0.234c-0.261,-0.151 -0.83,-0.48 -1.087,-0.628c-0.027,-0.015 -0.06,-0.015 -0.086,0c-0.027,0.016 -0.044,0.044 -0.044,0.075c0,0.188 0,0.508 0,0.698c0,0.097 0.052,0.186 0.136,0.235c0.261,0.15 0.83,0.479 1.087,0.627Z"/></clipPath><g clip-path="url(#_clip5)"><path d="M6.352,3.851c0.082,-0.061 0.132,-0.158 0.132,-0.262l0,-0.891c0,-0.032 -0.017,-0.062 -0.045,-0.078c-0.028,-0.016 -0.063,-0.016 -0.091,-0l-2.258,1.303c-0.058,0.034 -0.129,0.034 -0.187,0l-2.258,-1.303c-0.005,-0.003 -0.011,-0.006 -0.016,-0.008l-0.202,-0.116c-0.19,-0.11 -0.424,-0.11 -0.614,-0c-0.19,0.109 -0.307,0.312 -0.307,0.531l-0,-0.353c-0,-0.44 0.235,-0.848 0.617,-1.068l2.257,-1.303c0.382,-0.221 0.852,-0.221 1.234,-0l2.257,1.303c0.304,0.176 0.515,0.47 0.588,0.806c0.006,0.013 0.011,0.034 0.015,0.062c0.006,0.046 0.009,0.089 0.012,0.13c0.001,0.024 0.002,0.047 0.002,0.07c-0,0.004 -0,0.076 -0,0.076l-0.002,0.001c-0.025,0.427 -0.273,0.605 -0.593,0.79l-0.573,0.331l0.008,-0.006c-0.002,0.002 -0.004,0.003 -0.006,0.004l-0.179,0.103l0.194,-0.112l0.015,-0.01Z" style="fill:url(#_Linear6);"/></g></g><defs><linearGradient id="_Linear3" x1="0" y1="0" x2="1" y2="0" gradientUnits="userSpaceOnUse" gradientTransform="matrix(6.94822,0,0,6.94822,0.518476,2.37863)"><stop offset="0" style="stop-color:#edac1f;stop-opacity:1"/><stop offset="1" style="stop-color:#e74e08;stop-opacity:1"/></linearGradient><linearGradient id="_Linear4" x1="0" y1="0" x2="1" y2="0" gradientUnits="userSpaceOnUse" gradientTransform="matrix(-6.95729,8.52023e-16,-8.52023e-16,-6.95729,7.49391,4.03858)"><stop offset="0" style="stop-color:#eeb01f;stop-opacity:1"/><stop offset="1" style="stop-color:#e74e08;stop-opacity:1"/></linearGradient><linearGradient id="_Linear6" x1="0" y1="0" x2="1" y2="0" gradientUnits="userSpaceOnUse" gradientTransform="matrix(6.94822,0,0,6.94822,0.518476,2.37863)"><stop offset="0" style="stop-color:#edac1f;stop-opacity:1"/><stop offset="1" style="stop-color:#e74e08;stop-opacity:1"/></linearGradient></defs></svg>