<svg fill="none" stroke="currentColor" stroke-linecap="round" stroke-linejoin="round" stroke-width="1.5" viewBox="0 0 33 33"><g transform="matrix(1.00465 0 0 1 -101.313 .053)"><path d="M101.787 0h31.852v32h-31.852z"/><clipPath id="a"><path d="M101.787 0h31.852v32h-31.852z"/></clipPath><g clip-path="url(#a)"><g transform="matrix(.22524 0 0 .22629 54.917 -44.406)"><ellipse cx="278.872" cy="267.017" rx="69.27" ry="67.827" style="fill:rgb(255,209,1)"/><path d="M278.748 331.691c-34.498-.1-63.482-27.062-64.596-61.479-.121-3.748 1.639-5.939 3.943-6.436 3.173-.683 5.271.852 6.38 3.738 1.246 3.246 2.271 5.683 5.117 5.496.881-.058 1.533-.28 2.022-.684 1.343-1.111 1.385-3.297 1.554-4.865.657-6.131 3.449-11.574 10.901-11.765 7.651-.196 11.358 5.284 12.16 14.935.378 4.555.087 15.482-.113 21.731-.065 2.008-.47 5.712-.36 7.133.293 3.802 2.39 5.069 4.411 4.999 2.536-.089 4.009-2.169 4.066-4.577.053-2.261-.409-5.253-.815-7.674-.669-3.994-1.373-9.352-1.716-14.448-.532-7.902-.86-13.773 1.061-20.878 1.864-6.897 7.021-11.282 14.07-11.183 14.634.206 17.092 18.992 15.315 29.676-.384 2.302-.57 4.886 1.299 6.358.963.758 3.804.984 4.854-1.831 1.103-2.958-.934-7.923-.155-13.524.749-5.372 7.927-5.104 9.501.35 1.489 5.159 1.39 11.344.799 16.444-.359 3.104-1.366 7.26 1.8 9.155 1.073.642 2.129.722 2.95.312 1.342-.671 1.484-2.796 1.537-3.907.266-5.507-1.128-12.107-1.013-17.816.17-8.414 2.716-15.833 10.843-16.149 7.943-.308 9.611 6.156 10.114 10.375.469 3.94.637 5.649 2.184 5.752 3.907.26.874-7.187 4.566-7.102 1.648.038 1.917 1.844 1.917 3.286.008 35.488-28.798 64.478-64.596 64.578m34.498-126.457c-10.499-5.898-22.399-8.997-34.498-8.997a70.16 70.16 0 0 0-47.597 18.594 63.7 63.7 0 0 0-14.099 17.693c-19 34.089-6.8 77.174 27.298 96.168s77.195 6.797 96.194-27.291 6.8-77.173-27.298-96.167" style="fill:rgb(0,94,184)"/></g></g></g></svg>