<svg fill="none" stroke="currentColor" stroke-linecap="round" stroke-linejoin="round" stroke-width="1.5" viewBox="0 0 8 8"><path d="M.077 0h7.68v7.68H.077z"/><path d="M7.757 1.472v4.736c0 .742-.603 1.344-1.344 1.344H1.421A1.344 1.344 0 0 1 .077 6.208V1.472C.077.73.679.128 1.421.128h4.992c.741 0 1.344.602 1.344 1.344" style="fill:#00005b"/><path d="M3.302 4.736H2.157l-.296.854q-.004.042-.054.042H1.27q-.054 0-.038-.053L2.27 2.498a1 1 0 0 0 .043-.29v-.004c0-.015.012-.028.028-.028h.756q.033 0 .038.026l1.161 3.383q.016.048-.027.047h-.602a.06.06 0 0 1-.053-.032zM2.285 4.16h.892a65 65 0 0 1-.452-1.451H2.72zm3.729.336h-.948q.005.332.186.524.181.194.544.192c.203.004.404-.035.591-.114q.032-.021.032.021v.379a.08.08 0 0 1-.032.063q-.294.135-.725.135-.638 0-.935-.366-.299-.367-.298-.918 0-.572.31-.956.311-.384.85-.384.512 0 .764.317c.168.211.256.474.252.743q.005.152-.021.301a.046.046 0 0 1-.041.042 4 4 0 0 1-.529.021m-.948-.4h.684q.224 0 .254-.011a.63.63 0 0 0-.099-.424q-.103-.156-.337-.156a.41.41 0 0 0-.352.166.83.83 0 0 0-.15.425" style="fill:#99f"/></svg>