<svg fill="none" stroke="currentColor" stroke-linecap="round" stroke-linejoin="round" stroke-width="1.5" viewBox="0 0 8 8"><path d="M.125.059h7.68v7.68H.125z"/><clipPath id="a"><path d="M.125.059h7.68v7.68H.125z"/></clipPath><g clip-path="url(#a)"><path d="M7.792.809a.75.75 0 0 0-.75-.75H.862a.75.75 0 0 0-.75.75v6.18c0 .414.336.75.75.75h6.18a.75.75 0 0 0 .75-.75z" style="fill:#134881"/><path d="M7.23 6.879a.3.3 0 0 1-.3.297H3.902L2.608 4.935H7.23zM.675 6.876V5.56L3.526.621h1.115L2.232 4.794l1.375 2.382H.975a.3.3 0 0 1-.3-.3m3.654-2.197H3.202a.351.351 0 0 1-.305-.527l.564-.976zM6.93.621a.3.3 0 0 1 .3.298v3.76H4.624L3.608 2.92 4.936.621z" style="fill:url(#b)"/></g><defs><radialGradient id="b" cx="0" cy="0" r="1" gradientTransform="translate(5.685 -.61)scale(7.78695)" gradientUnits="userSpaceOnUse"><stop offset="0" style="stop-color:#6be1fb;stop-opacity:1"/><stop offset="1" style="stop-color:#38bdfa;stop-opacity:1"/></radialGradient></defs></svg>