<svg fill="none" stroke="currentColor" stroke-linecap="round" stroke-linejoin="round" stroke-width="1.5" viewBox="0 0 8 8"><path d="M.125.059h7.68v7.68H.125z"/><clipPath id="a"><path d="M.125.059h7.68v7.68H.125z"/></clipPath><g clip-path="url(#a)"><path d="M7.805.809a.75.75 0 0 0-.75-.75H.875a.75.75 0 0 0-.75.75v6.18c0 .414.336.75.75.75h6.18a.75.75 0 0 0 .75-.75z" style="fill:#4e3188"/><path d="M7.242 4.934v1.942a.3.3 0 0 1-.294.3H4.965L3.67 4.934zM4.67 7.176H1.162l1.755-3.035zm-3.79-.02a.3.3 0 0 1-.192-.258L.687 5.56l1.427-2.469h1.114zm3.368-4.07c.097 0 .19.057.24.142l.002.003.294.51.003.004c.048.084.05.191.002.276l-.299.518a.28.28 0 0 1-.24.139l-.564.001a.28.28 0 0 1-.242-.137l-.003-.006-.296-.511a.29.29 0 0 1 .002-.283l.296-.513a.29.29 0 0 1 .24-.143zM7.039.637 4.705 4.679h2.537V.921a.3.3 0 0 0-.203-.284M3.54.621h3.213L5.015 3.63 3.409.848zm.721 2.214h-2l1-1.731z" style="fill:url(#b)"/></g><defs><radialGradient id="b" cx="0" cy="0" r="1" gradientTransform="matrix(7.78687 0 0 7.78695 5.698 -.61)" gradientUnits="userSpaceOnUse"><stop offset="0" style="stop-color:#f9a6ff;stop-opacity:1"/><stop offset="1" style="stop-color:#ea73ff;stop-opacity:1"/></radialGradient></defs></svg>