<svg fill="none" stroke="currentColor" stroke-linecap="round" stroke-linejoin="round" stroke-width="1.5" viewBox="0 0 8 8"><path d="M.056.236h7.68v7.68H.056z"/><clipPath id="a"><path d="M.056.236h7.68v7.68H.056z"/></clipPath><g clip-path="url(#a)"><path d="M7.736.986a.75.75 0 0 0-.75-.75H.806a.75.75 0 0 0-.75.75v6.18c0 .414.336.75.75.75h6.18a.75.75 0 0 0 .75-.75z" style="fill:#891b26"/><path d="M3.552 7.354 1.618 4.006l-1 1.731v1.317a.3.3 0 0 0 .3.3zm1.41 0H3.847L1.919 4.016a.53.53 0 0 1 0-.531l.404-.7zm1.41 0H5.257l-2.77-4.852.541-.937zM7.173 6.3v.754a.3.3 0 0 1-.3.3h-.206L3.176 1.309l.295-.51h.525zm-.3-5.501H4.291L7.173 5.79V1.099a.3.3 0 0 0-.3-.3" style="fill:url(#b)"/></g><defs><radialGradient id="b" cx="0" cy="0" r="1" gradientTransform="translate(5.628 -.433)scale(7.78695)" gradientUnits="userSpaceOnUse"><stop offset="0" style="stop-color:#ffae71;stop-opacity:1"/><stop offset="1" style="stop-color:#ff9350;stop-opacity:1"/></radialGradient></defs></svg>