<svg fill="none" stroke="currentColor" stroke-linecap="round" stroke-linejoin="round" stroke-width="1.5" viewBox="0 0 8 8"><path d="M.125.006h7.68v7.68H.125z"/><clipPath id="a"><path d="M.125.006h7.68v7.68H.125z"/></clipPath><g clip-path="url(#a)"><path d="M7.805 1.478v4.736c0 .742-.602 1.344-1.344 1.344H1.469A1.344 1.344 0 0 1 .125 6.214V1.478C.125.737.727.134 1.469.134h4.992c.742 0 1.344.603 1.344 1.344" style="fill:#300"/><path d="M3.99 4.742H2.845l-.296.854q-.005.042-.053.042h-.538q-.054 0-.037-.052l1.037-3.082a1 1 0 0 0 .043-.29v-.003c0-.016.013-.029.028-.029h.757q.032 0 .037.027l1.161 3.382q.016.047-.027.047h-.601a.054.054 0 0 1-.054-.032zm-1.017-.576h.892a71 71 0 0 1-.452-1.45h-.005zm2.653-1.344a.38.38 0 0 1-.276-.102.37.37 0 0 1-.105-.279.37.37 0 0 1 .108-.281.4.4 0 0 1 .279-.106.37.37 0 0 1 .278.106.4.4 0 0 1 .103.281.37.37 0 0 1-.106.279.4.4 0 0 1-.281.102M5.309 5.59V3.121l-.001-.005c0-.021.017-.038.038-.038h.565c.021 0 .038.017.038.038v2.485a.04.04 0 0 1-.038.038l-.005-.001h-.549l-.006.001a.043.043 0 0 1-.043-.043z" style="fill:#ff9a00"/></g></svg>