<svg width="24" height="24" xmlns="http://www.w3.org/2000/svg" clip-rule="evenodd" viewBox="0 0 24 24"><title>archive</title><g stroke-linejoin="round" class="nc-icon-wrapper" fill="#ffffff" stroke-linecap="round" fill-rule="evenodd"><path d="M20.25,7.5L19.625,18.132C19.555,19.315 18.563,20.25 17.378,20.25L6.622,20.25C5.437,20.25 4.445,19.315 4.375,18.132L3.75,7.5M12,10.5L12,17.25M12,17.25L9,14.25M12,17.25L15,14.25M3.375,7.5L20.625,7.5C21.246,7.5 21.75,6.996 21.75,6.375L21.75,4.875C21.75,4.254 21.246,3.75 20.625,3.75L3.375,3.75C2.754,3.75 2.25,4.254 2.25,4.875L2.25,6.375C2.25,6.996 2.754,7.5 3.375,7.5Z" fill="none" fill-rule="nonzero" stroke="#ffffff" stroke-width="1.5"></path></g></svg>