<svg fill="none" stroke="currentColor" stroke-linecap="round" stroke-linejoin="round" stroke-width="1.5" viewBox="0 0 8 8"><path d="M.125.013h7.68v7.68H.125z"/><path d="M3.138 4.189c.028-.498.272-.937.64-1.248.36-.306.846-.492 1.376-.492s1.016.186 1.377.492c.368.311.611.75.64 1.248.028.511-.178.987-.539 1.339a2.1 2.1 0 0 1-1.478.584c-.586 0-1.11-.225-1.478-.584a1.73 1.73 0 0 1-.538-1.339"/><path d="M4.12 4.234a.9.9 0 0 1 .328-.641c.185-.157.435-.252.707-.252s.521.095.706.252c.189.16.314.385.328.64a.9.9 0 0 1-.276.688 1.08 1.08 0 0 1-.758.299c-.301 0-.57-.115-.759-.299a.9.9 0 0 1-.276-.687" style="fill:#265787"/><path d="M2.477 4.759c.002.1.034.295.082.447.101.322.272.62.509.882.244.27.545.487.892.641.365.161.761.244 1.171.243s.806-.085 1.171-.247c.347-.156.647-.373.891-.643.238-.264.408-.562.509-.884a2.24 2.24 0 0 0-.245-1.873 2.5 2.5 0 0 0-.592-.654L4.466.829 4.46.824a.53.53 0 0 0-.595 0c-.176.123-.196.325-.04.453v.001l1 .813-3.05.004h-.004c-.252 0-.494.165-.542.374-.049.213.122.39.384.391l-.001.001 1.546-.003L.4 4.975l-.011.008c-.26.199-.344.531-.18.74.166.214.52.214.783.002l1.505-1.233s-.022.167-.02.267m3.869.557c-.31.316-.745.495-1.215.496a1.7 1.7 0 0 1-1.215-.492 1.45 1.45 0 0 1-.331-.519 1.37 1.37 0 0 1 .09-1.127 1.5 1.5 0 0 1 .369-.438 1.72 1.72 0 0 1 1.087-.38c.402 0 .785.132 1.087.377q.232.19.369.437a1.37 1.37 0 0 1 .09 1.125c-.069.189-.18.366-.331.521" style="fill:#ea7600"/></svg>