<svg fill="none" stroke="currentColor" stroke-linecap="round" stroke-linejoin="round" stroke-width="1.5" viewBox="0 0 24 24"><path d="M0 0h24v24H0z"/><path d="M4.103.603h4.183c.427 0 .837.233 1.139.646s.473.974.473 1.558v2.547c0 .184.053.36.148.49a.45.45 0 0 0 .358.203h2.595a.45.45 0 0 0 .359-.203.84.84 0 0 0 .148-.49V2.807c0-1.217.722-2.204 1.612-2.204h3.463c.89 0 1.612.987 1.612 2.204v2.551c0 .38.226.689.504.689h.202c.89 0 1.612.987 1.612 2.204V18.83c0 .585-.17 1.145-.472 1.558s-.712.646-1.14.646h-1.892m-4.896 0H2.549c-.428 0-.838-.232-1.14-.646-.302-.413-.472-.973-.472-1.558V8.251c0-1.217.722-2.204 1.612-2.204h1.062" transform="matrix(.9306 0 0 .6806 1.09 4.637)"/><path d="m2.679 3.331 17.985 17.985"/></svg>