<svg fill="none" stroke="currentColor" stroke-linecap="round" stroke-linejoin="round" stroke-width="1.5" viewBox="0 0 24 24"><path d="M12 21c-2.162 0-4.291-.143-6.378-.42-1.085-.144-1.872-1.086-1.872-2.18v-4.25M21 12.489V8.706c0-1.081-.768-2.015-1.837-2.175a48 48 0 0 0-3.413-.387m-12 8.006A2.18 2.18 0 0 1 3 12.489V8.706c0-1.081.768-2.015 1.837-2.175a48 48 0 0 1 3.413-.387m7.5 0V5.25A2.26 2.26 0 0 0 13.5 3h-3a2.26 2.26 0 0 0-2.25 2.25v.894m7.5 0a49 49 0 0 0-7.5 0M12 12.75h.008v.008H12z"/><path d="M12 15.75a24 24 0 0 1-7.577-1.22 2 2 0 0 1-.673-.38m13.815-.746a.884.884 0 0 0-.873.738l-.083.506c-.01.056-.055.122-.14.164a3.5 3.5 0 0 0-.465.269c-.079.054-.158.06-.212.039l-.48-.18a.886.886 0 0 0-1.076.386l-.434.753a.886.886 0 0 0 .203 1.124l.396.326c.045.037.08.108.073.203q-.02.269 0 .537c.007.094-.028.166-.072.203l-.397.326a.886.886 0 0 0-.203 1.124l.434.753a.886.886 0 0 0 1.076.386l.48-.18c.055-.02.134-.015.213.038q.22.152.464.27c.086.04.13.107.14.164l.084.505a.884.884 0 0 0 .872.739h.87a.885.885 0 0 0 .872-.739l.083-.505c.01-.057.054-.123.14-.165q.244-.117.465-.269c.079-.053.158-.058.212-.038l.48.18a.886.886 0 0 0 1.076-.386l.435-.753a.886.886 0 0 0-.204-1.125l-.396-.326c-.045-.037-.08-.108-.072-.202q.02-.27 0-.537c-.008-.095.027-.166.072-.203l.396-.326a.884.884 0 0 0 .204-1.125l-.435-.753a.886.886 0 0 0-1.076-.385l-.48.18c-.054.02-.133.014-.212-.04a3.5 3.5 0 0 0-.464-.268c-.087-.041-.131-.107-.14-.164l-.085-.506a.886.886 0 0 0-.872-.738zm.434 6.364A1.777 1.777 0 0 0 19.767 18 1.777 1.777 0 0 0 18 16.232 1.777 1.777 0 0 0 16.231 18 1.777 1.777 0 0 0 18 19.768"/></svg>