<svg fill="none" stroke="currentColor" stroke-linecap="round" stroke-linejoin="round" stroke-width="1.5" viewBox="0 0 24 24"><path d="M0 0h24v24H0z"/><path d="M9.682 20.945a48 48 0 0 1-4.06-.365c-1.085-.144-1.872-1.086-1.872-2.18v-4.25M21 10.296v-1.59c0-1.081-.768-2.015-1.837-2.175a48 48 0 0 0-3.413-.387m-12 8.006A2.18 2.18 0 0 1 3 12.489V8.706c0-1.081.768-2.015 1.837-2.175a48 48 0 0 1 3.413-.387m7.5 0V5.25A2.26 2.26 0 0 0 13.5 3h-3a2.26 2.26 0 0 0-2.25 2.25v.894m7.5 0a49 49 0 0 0-7.5 0"/><path d="M8.736 15.53a24 24 0 0 1-4.313-1 2 2 0 0 1-.673-.38m13.253 1.08v3.64m1.82-1.82h-3.64m7.279 0c0 2.994-2.465 5.459-5.459 5.459s-5.459-2.465-5.459-5.459 2.465-5.459 5.459-5.459 5.459 2.465 5.459 5.459"/></svg>