<?xml version="1.0" encoding="UTF-8" standalone="no"?>
<!DOCTYPE svg PUBLIC "-//W3C//DTD SVG 1.1//EN" "http://www.w3.org/Graphics/SVG/1.1/DTD/svg11.dtd">
<svg width="100%" height="100%" viewBox="0 0 24 24" version="1.1" xmlns="http://www.w3.org/2000/svg" xmlns:xlink="http://www.w3.org/1999/xlink" xml:space="preserve" xmlns:serif="http://www.serif.com/" style="fill-rule:evenodd;clip-rule:evenodd;stroke-linecap:round;stroke-linejoin:round;">
    <g transform="matrix(1,0,0,1,-29.064662,-80.978504)">
        <g id="web-plus" transform="matrix(1,0,0,1,29.064662,80.978504)">
            <rect x="0" y="0" width="24" height="24" style="fill:none;"/>
            <path d="M9.682,20.945C8.313,20.88 6.959,20.757 5.622,20.58C4.537,20.436 3.75,19.494 3.75,18.4L3.75,14.15M21,10.296L21,8.706C21,7.625 20.232,6.691 19.163,6.531C18.03,6.361 16.892,6.232 15.75,6.144M3.75,14.15C3.27,13.733 2.995,13.125 3,12.489L3,8.706C3,7.625 3.768,6.691 4.837,6.531C5.97,6.361 7.108,6.232 8.25,6.144M15.75,6.144L15.75,5.25C15.75,4.016 14.734,3 13.5,3L10.5,3C9.266,3 8.25,4.016 8.25,5.25L8.25,6.144M15.75,6.144C13.254,5.951 10.746,5.951 8.25,6.144" style="fill:none;fill-rule:nonzero;stroke:white;stroke-width:1.5px;"/>
            <path d="M8.736,15.53C7.251,15.328 5.809,14.99 4.423,14.53C4.176,14.448 3.948,14.319 3.75,14.15" style="fill:none;fill-rule:nonzero;stroke:white;stroke-width:1.5px;"/>
            <g transform="matrix(0.606493,0,0,0.606493,9.724536,9.771692)">
                <path d="M12,9L12,15M15,12L9,12M21,12C21,16.937 16.937,21 12,21C7.063,21 3,16.937 3,12C3,7.063 7.063,3 12,3C16.937,3 21,7.063 21,12Z" style="fill:none;fill-rule:nonzero;stroke:white;stroke-width:2.47px;"/>
            </g>
        </g>
    </g>
</svg>
