<svg fill="none" stroke="currentColor" stroke-linecap="round" stroke-linejoin="round" stroke-width="1.5" viewBox="0 0 24 24"><path d="M0 0h24v24H0z"/><path d="M12.541 7.628V3.536c0-1.026.727-1.857 1.623-1.857s1.622.832 1.622 1.858v4.09m-6.11 5.223c0 2.245-.566 5.936-2.791 7.93m7.022-7.93c0 2.26-.573 6.118-2.836 7.975m-4.186-.044c.897.83 2.36 1.451 4 .192q.095-.073.186-.148m-4.186-.044q-.113.1-.231.192c-3.022 2.32-5.44-1.741-4.836-1.741 2.324.637 3.262-3.43 3.556-7.543.158-2.21 1.92-4.061 4.136-4.061h8.705a4.06 4.06 0 0 1 4.061 4.061c0 2.32-.604 7.427-3.022 9.284-1.64 1.26-3.103.639-4-.192m2.791-7.931c0 2.32-.604 6.266-3.022 8.123-1.611 1.237-3.05.66-3.952-.148"/></svg>