<svg fill="none" stroke="currentColor" stroke-linecap="round" stroke-linejoin="round" stroke-width="1.5" viewBox="0 0 24 24"><path d="M9.53 16.122a3 3 0 0 0-2.78-1.872c-1.646 0-3 1.354-3 3q0 0 0 0a2.26 2.26 0 0 1-2.4 2.245 4.5 4.5 0 0 0 3.9 2.255c2.469 0 4.5-2.031 4.5-4.5q0 0 0 0c0-.399-.078-.78-.22-1.128m0 0a16 16 0 0 0 3.388-1.62m-5.043-.025c.405-1.192.95-2.331 1.622-3.395m3.42 3.42a16 16 0 0 0 4.764-4.648l3.876-5.814c.127-.19.195-.413.195-.641 0-.631-.52-1.151-1.151-1.151-.228 0-.451.068-.641.195L14.146 6.32a16 16 0 0 0-4.649 4.763m3.42 3.42a6.78 6.78 0 0 0-3.42-3.42M4 1v6m3-3H1"/></svg>