<svg fill="none" stroke="currentColor" stroke-linecap="round" stroke-linejoin="round" stroke-width="1.5" viewBox="0 0 33 32"><g transform="translate(-638.726)"><path d="M639.469 0h32v32h-32z"/><clipPath id="a"><path d="M639.469 0h32v32h-32z"/></clipPath><g clip-path="url(#a)"><g transform="translate(639.469)scale(.01684)"><circle cx="950" cy="950" r="950" style="fill:rgb(125,42,231)"/><circle cx="950" cy="950" r="950" style="fill:url(#b)"/><circle cx="950" cy="950" r="950" style="fill:url(#c)"/><circle cx="950" cy="950" r="950" style="fill:url(#d)"/><circle cx="950" cy="950" r="950" style="fill:url(#e)"/><path d="M1360.14 1144.88c-7.84 0-14.74 6.62-21.92 21.08-81.08 164.41-221.12 280.74-383.174 280.74-187.38 0-303.419-169.15-303.419-402.83 0-395.834 220.548-624.697 414.263-624.697 90.52 0 145.8 56.885 145.8 147.41 0 107.439-61.04 164.324-61.04 202.216 0 17.009 10.58 27.308 31.56 27.308 84.29 0 183.22-96.855 183.22-233.682 0-132.669-115.47-230.186-309.18-230.186-320.145 0-604.665 296.804-604.665 707.471 0 317.88 181.522 527.94 461.601 527.94 297.274 0 469.164-295.77 469.164-391.77 0-21.26-10.87-31-22.21-31"/></g></g></g><defs><radialGradient id="b" cx="0" cy="0" r="1" gradientTransform="rotate(-49.416 2013.203 443.786)scale(1469.491)" gradientUnits="userSpaceOnUse"><stop offset="0" style="stop-color:rgb(100,32,255);stop-opacity:1"/><stop offset="1" style="stop-color:rgb(100,32,255);stop-opacity:0"/></radialGradient><radialGradient id="c" cx="0" cy="0" r="1" gradientTransform="rotate(54.703 42.717 594.194)scale(1657.122)" gradientUnits="userSpaceOnUse"><stop offset="0" style="stop-color:rgb(0,196,204);stop-opacity:1"/><stop offset="1" style="stop-color:rgb(0,196,204);stop-opacity:0"/></radialGradient><radialGradient id="d" cx="0" cy="0" r="1" gradientTransform="matrix(1023 -1030 473.711 470.491 367 1684)" gradientUnits="userSpaceOnUse"><stop offset="0" style="stop-color:rgb(100,32,255);stop-opacity:1"/><stop offset="1" style="stop-color:rgb(100,32,255);stop-opacity:0"/></radialGradient><radialGradient id="e" cx="0" cy="0" r="1" gradientTransform="matrix(595.999 1372 -2298.41 998.431 777 256)" gradientUnits="userSpaceOnUse"><stop offset="0" style="stop-color:rgb(0,196,204);stop-opacity:0.73"/><stop offset="0" style="stop-color:rgb(0,196,204);stop-opacity:1"/><stop offset="1" style="stop-color:rgb(0,196,204);stop-opacity:0"/></radialGradient></defs></svg>