<svg fill="none" stroke="currentColor" stroke-linecap="round" stroke-linejoin="round" stroke-width="1.5" viewBox="0 0 8 8"><path d="M.231.138h7.68v7.68H.231z"/><clipPath id="a"><path d="M.231.138h7.68v7.68H.231z"/></clipPath><g clip-path="url(#a)"><path d="M2.746.138h5.165v5.165a2.52 2.52 0 0 1-2.514 2.515H2.746A2.523 2.523 0 0 1 .231 5.303V2.652A2.52 2.52 0 0 1 2.746.138" style="fill:url(#b)"/><path d="M6.022 6.149c.043-.045.124-.126.175-.174a.4.4 0 0 1 .088-.073.1.1 0 0 1 .048-.01q.02.005.028.018.01.012.014.036l.011.078.017.12q.008.061.008.097c0 .024-.004.036-.014.049a.2.2 0 0 1-.037.038.1.1 0 0 1-.04.02q-.021.003-.051.001a2 2 0 0 1-.127-.018l-.065-.01-.069-.011a.1.1 0 0 1-.037-.014l-.014-.024a.1.1 0 0 1-.002-.029.1.1 0 0 1 .012-.032.3.3 0 0 1 .055-.062M2.423 1.73c.16-.148.3-.165.434-.063a848 848 0 0 0 3.165 3.154.7.7 0 0 1 .239.388q.028.185.049.362c.002.024-.005.038-.015.06a.6.6 0 0 1-.184.213l-.312.304c-.062.07-.209.036-.315.014-.24-.048-.262-.009-.458-.195L1.872 2.814q-.15-.136-.147-.208a.3.3 0 0 1 .001-.069.5.5 0 0 1 .108-.216q.051-.066.126-.138.19-.196.463-.453" style="fill:#fefefe"/><path d="M2.17 1.979a.1.1 0 0 0-.006.046.2.2 0 0 0 .037.088 1 1 0 0 0 .079.087l.226.228.222.225.211.209.065.062c.005.004.005.004.096-.089l.369-.372.092-.092-.117-.117-.462-.462c-.116-.115-.115-.115-.122-.12q-.01-.009-.033-.024a.3.3 0 0 0-.105-.04.25.25 0 0 0-.117.009.6.6 0 0 0-.174.107q-.025.021-.055.05l-.157.151a.3.3 0 0 0-.049.054" style="fill:url(#c)"/><path d="M6.295 5.631a.4.4 0 0 1-.057.089 4 4 0 0 1-.278-.025q-.2-.009-.465-.268L3.268 3.194l-.506.51-.114-.114 1.065-1.067 2.379 2.368q.129.135.169.318l.046.342a.1.1 0 0 1-.012.08" style="fill:url(#d)"/></g><defs><linearGradient id="b" x1="0" x2="1" y1="0" y2="0" gradientTransform="rotate(45.262 -1.151 2.963)scale(10.05051)" gradientUnits="userSpaceOnUse"><stop offset="0" style="stop-color:#85e31c;stop-opacity:1"/><stop offset=".37" style="stop-color:#2cc02b;stop-opacity:1"/><stop offset="1" style="stop-color:#298822;stop-opacity:1"/></linearGradient><linearGradient id="c" x1="0" x2="1" y1="0" y2="0" gradientTransform="rotate(44.787 -.945 4.012)scale(1.37512)" gradientUnits="userSpaceOnUse"><stop offset="0" style="stop-color:#c6c6c6;stop-opacity:1"/><stop offset=".61" style="stop-color:#e2e2e2;stop-opacity:1"/><stop offset="1" style="stop-color:#fefefe;stop-opacity:1"/></linearGradient><linearGradient id="d" x1="0" x2="1" y1="0" y2="0" gradientTransform="rotate(47.027 -1.534 5.817)scale(3.45938)" gradientUnits="userSpaceOnUse"><stop offset="0" style="stop-color:#c6c6c6;stop-opacity:1"/><stop offset=".67" style="stop-color:#e2e2e2;stop-opacity:1"/><stop offset="1" style="stop-color:#fefefe;stop-opacity:1"/></linearGradient></defs></svg>