<svg fill="none" stroke="currentColor" stroke-linecap="round" stroke-linejoin="round" stroke-width="1.5" viewBox="0 0 8 8"><path d="M.071.215h7.68v7.68H.071z"/><path d="M2.698 4.456a.35.35 0 0 0-.352-.335H.816a.35.35 0 0 0-.352.352v1.773h.861v.3H.164V4.473c0-.36.292-.652.652-.652h1.53c.354 0 .643.283.652.635h1.826a.653.653 0 0 1 .652-.635h1.53c.36 0 .652.292.652.652v2.073H6.497v-.3h.861V4.473a.35.35 0 0 0-.352-.352h-1.53a.35.35 0 0 0-.352.335h.153c.351 0 .635.284.635.635V7.18H4.664l-1.215-.658h-.866v-.3h.943l1.214.658h.872V5.091a.335.335 0 0 0-.335-.335H2.545a.335.335 0 0 0-.335.335V6.88h1.616v.3H1.91V5.091c0-.351.284-.635.635-.635zm4.378-2.453v1.026a.55.55 0 0 1-.548.548h-.53a.55.55 0 0 1-.548-.548V2.003c0-.303.245-.548.548-.548h.53c.303 0 .548.245.548.548m-.3 0a.25.25 0 0 0-.248-.248h-.53a.25.25 0 0 0-.248.248v1.026c0 .137.111.248.248.248h.53a.25.25 0 0 0 .248-.248zm-6.03 0c0-.303.245-.548.548-.548h.53c.303 0 .548.245.548.548v1.026a.55.55 0 0 1-.548.548h-.53a.55.55 0 0 1-.548-.548zm.3 0v1.026c0 .137.111.248.248.248h.53a.25.25 0 0 0 .248-.248V2.003a.25.25 0 0 0-.248-.248h-.53a.25.25 0 0 0-.248.248m3.895-.4v1.928a.673.673 0 0 1-.673.672h-.714a.67.67 0 0 1-.672-.672V1.603c0-.372.301-.673.672-.673h.714c.371 0 .673.301.673.673m-.3 0a.373.373 0 0 0-.373-.373h-.714a.373.373 0 0 0-.372.373v1.928c0 .205.167.372.372.372h.714a.373.373 0 0 0 .373-.372zm-.402 4.943v-.3h1.196v.3z" style="fill:#82be0f"/></svg>