<?xml version="1.0" encoding="UTF-8" standalone="no"?>
<!DOCTYPE svg PUBLIC "-//W3C//DTD SVG 1.1//EN" "http://www.w3.org/Graphics/SVG/1.1/DTD/svg11.dtd">
<svg width="100%" height="100%" viewBox="0 0 24 25" version="1.1" xmlns="http://www.w3.org/2000/svg" xmlns:xlink="http://www.w3.org/1999/xlink" xml:space="preserve" xmlns:serif="http://www.serif.com/" style="fill-rule:evenodd;clip-rule:evenodd;stroke-linejoin:round;stroke-miterlimit:2;">
    <g transform="matrix(1,0,0,1,-78,-286)">
        <g id="chevron_down" transform="matrix(1,0,0,1,78,234.65)">
            <rect x="0" y="52" width="24" height="24" style="fill:none;"/>
            <clipPath id="_clip1">
                <rect x="0" y="52" width="24" height="24"/>
            </clipPath>
            <g clip-path="url(#_clip1)">
                <g transform="matrix(1.54693e-16,-2.52632,2.52632,1.54693e-16,-18.3158,93.0527)">
                    <path d="M14.03,7.47C14.323,7.763 14.323,8.237 14.03,8.53L10.561,12L14.03,15.47C14.323,15.763 14.323,16.237 14.03,16.53C13.737,16.823 13.263,16.823 12.97,16.53L8.97,12.53C8.677,12.237 8.677,11.763 8.97,11.47L12.97,7.47C13.263,7.177 13.737,7.177 14.03,7.47Z"/>
                </g>
            </g>
        </g>
    </g>
</svg>
