<svg fill="none" stroke="currentColor" stroke-linecap="round" stroke-linejoin="round" stroke-width="1.5" viewBox="0 0 8 8"><path d="M.099 0h7.68v7.68H.099z"/><clipPath id="a"><path d="M.099 0h7.68v7.68H.099z"/></clipPath><g clip-path="url(#a)"><path d="M7.779 1.332v5.016a1.2 1.2 0 0 1-1.2 1.2h-5.28c-.662 0-1.2-.538-1.2-1.2V1.332c0-.662.538-1.2 1.2-1.2h5.28a1.2 1.2 0 0 1 1.2 1.2" style="fill:#00005b"/><path d="M3.774 4.767v.545a.07.07 0 0 1-.041.074q-.147.054-.304.071a3 3 0 0 1-.404.024 2.2 2.2 0 0 1-.569-.072 1.6 1.6 0 0 1-.492-.216 1.5 1.5 0 0 1-.629-.848 2.1 2.1 0 0 1-.088-.634q0-.534.227-.938c.151-.269.375-.488.644-.629a2.1 2.1 0 0 1 .995-.238q.2-.001.399.021.139.016.27.064a.07.07 0 0 1 .026.063v.595q0 .047-.036.031a1.1 1.1 0 0 0-.308-.096q-.187-.03-.376-.029a1.16 1.16 0 0 0-.589.146 1 1 0 0 0-.381.394 1.25 1.25 0 0 0-.134.594q-.004.223.065.434.06.178.177.322a.9.9 0 0 0 .258.217q.146.08.307.119.155.043.316.049.175.001.348-.016.143-.02.278-.073.02-.016.031-.008a.04.04 0 0 1 .01.034M4.957 3.52v1.853q0 .042-.036.042h-.643l-.006.001a.04.04 0 0 1-.041-.042l.001-.006V1.719q0-.037.041-.037h.648l.004-.001c.018 0 .032.015.032.033v.005l.004 1.247q.14-.096.297-.156c.109-.041.235-.05.379-.05q.154 0 .301.047.158.046.281.156a.8.8 0 0 1 .198.322q.077.204.077.526v1.557q0 .048-.041.047H5.85l-.007.001a.046.046 0 0 1-.045-.047V3.885a.7.7 0 0 0-.049-.277.4.4 0 0 0-.134-.167.43.43 0 0 0-.236-.058.8.8 0 0 0-.226.034.6.6 0 0 0-.196.103" style="fill:#99f"/></g></svg>