<svg fill="none" stroke="currentColor" stroke-linecap="round" stroke-linejoin="round" stroke-width="1.5" viewBox="0 0 33 32"><g transform="translate(-639.043)"><path d="M639.469 0h32v32h-32z"/><clipPath id="a"><path d="M639.469 0h32v32h-32z"/></clipPath><g clip-path="url(#a)"><g transform="translate(639.469)scale(.66668)"><circle cx="24" cy="23.995" r="12"/><path d="M3.215 36A24.03 24.03 0 0 0 24 48c13.166 0 24-10.834 24-24S37.166 0 24 0a24 24 0 0 0-12 3.215C.598 9.798-3.368 24.598 3.215 36m31.177-18A12 12 0 0 1 36 24c0 6.583-5.417 12-12 12s-12-5.417-12-12c0-4.282 2.292-8.251 6-10.392 5.701-3.292 13.101-1.309 16.392 4.392"/><path d="M24 12h20.781A24.02 24.02 0 0 0 24 0 24.02 24.02 0 0 0 3.217 12.003L13.608 30l.009-.002A12 12 0 0 1 12 23.985C12 17.41 17.41 12 23.985 12z" style="fill:url(#b)"/><circle cx="24" cy="24" r="9.5" style="fill:rgb(26,115,232)"/><path d="M34.391 30.003 24.001 48h.003c13.163 0 23.994-10.831 23.994-23.994 0-4.214-1.11-8.354-3.218-12.003H23.999l-.003.009h.024c6.574 0 11.985 5.411 11.985 11.985 0 2.109-.557 4.181-1.614 6.006" style="fill:url(#c)"/><path d="M13.609 30.003 3.218 12.006a24 24 0 0 0-3.216 12C.002 37.169 10.833 48 23.996 48h.007l10.39-17.997-.007-.007a12 12 0 0 1-10.391 6.013c-4.281 0-8.25-2.295-10.386-6.006" style="fill:url(#d)"/></g></g></g><defs><linearGradient id="b" x1="0" x2="1" y1="0" y2="0" gradientTransform="translate(3.217 15)scale(41.5639)" gradientUnits="userSpaceOnUse"><stop offset="0" style="stop-color:rgb(217,48,37);stop-opacity:1"/><stop offset="1" style="stop-color:rgb(234,67,53);stop-opacity:1"/></linearGradient><linearGradient id="c" x1="0" x2="1" y1="0" y2="0" gradientTransform="rotate(-60 51.664 5.902)scale(41.564)" gradientUnits="userSpaceOnUse"><stop offset="0" style="stop-color:rgb(252,201,52);stop-opacity:1"/><stop offset="1" style="stop-color:rgb(251,188,4);stop-opacity:1"/></linearGradient><linearGradient id="d" x1="0" x2="1" y1="0" y2="0" gradientTransform="rotate(-120 26.723 15.573)scale(41.564)" gradientUnits="userSpaceOnUse"><stop offset="0" style="stop-color:rgb(30,142,62);stop-opacity:1"/><stop offset="1" style="stop-color:rgb(52,168,83);stop-opacity:1"/></linearGradient></defs></svg>