<svg fill="none" stroke="currentColor" stroke-linecap="round" stroke-linejoin="round" stroke-miterlimit="2" stroke-width="1.5" viewBox="0 0 24 24"><path fill="currentColor" fill-rule="evenodd" d="M1.218 9.591.763 7.914a2.25 2.25 0 0 1 1.58-2.758L19.646.458a2.26 2.26 0 0 1 2.775 1.59l.79 2.91L6.142 9.59h17.514v11.607a2.277 2.277 0 0 1-2.277 2.277H3.494a2.277 2.277 0 0 1-2.276-2.277zm20.938 3.776v-2.276h-3.937l-2.7 2.276zm-6.264-2.276h-5.437l-2.7 2.276h5.436zm-7.765 0h-5.41v2.276h2.71zm-5.41 3.776v6.331c0 .43.348.777.777.777H21.38c.43 0 .777-.348.777-.777v-6.331zm4.866-9.58L2.737 6.603a.747.747 0 0 0-.527.918l.4 1.474 2.946-.799zm.227 2.297 5.268-1.43 2.026-2.909-5.266 1.43zm7.523-2.043 6.037-1.638-.397-1.462a.76.76 0 0 0-.935-.535l-2.678.727z"/></svg>