<svg fill="none" stroke="currentColor" stroke-linecap="round" stroke-linejoin="round" stroke-width="1.5" viewBox="0 0 8 8"><path d="M.231.03h7.68v7.68H.231z"/><clipPath id="a"><path d="M.231.03h7.68v7.68H.231z"/></clipPath><g clip-path="url(#a)"><path d="M7.911 1.95v3.84c0 1.06-.86 1.92-1.92 1.92h-3.84c-1.059 0-1.92-.86-1.92-1.92V1.95c0-1.06.861-1.92 1.92-1.92h3.84c1.06 0 1.92.86 1.92 1.92" style="fill:#adadad"/><path d="M7.01 1.933a3 3 0 0 0-.148-.203 2.3 2.3 0 0 0-.35-.355 3 3 0 0 0-.196-.153 3 3 0 0 0-.318-.197 3 3 0 0 0-.339-.156 3 3 0 0 0-.355-.115 4 4 0 0 0-.366-.071Q4.843.672 4.752.664a1.4 1.4 0 0 0-.186-.011q-.095 0-.189.003a2 2 0 0 0-.188.016Q4.094.684 4 .7a3.3 3.3 0 0 0-.549.158l-1.793.73c-.05.019-.099.044-.145.066a1 1 0 0 0-.134.079 1 1 0 0 0-.123.088 1.7 1.7 0 0 0-.252.259 1.3 1.3 0 0 0-.194.369 2 2 0 0 0-.046.2 1 1 0 0 0-.011.104q-.007.053-.006.106 0 .054.006.107.004.053.013.107l.025.103.033.107q.02.054.043.104l.052.104q.039.07.085.131a2 2 0 0 0 .208.235q.058.053.12.101.094.074.2.131a1.8 1.8 0 0 0 .445.181q.12.029.238.046.062.008.123.011.061.004.123.003.061-.001.123-.005l.123-.014a3 3 0 0 0 .244-.052q.06-.018.117-.038.058-.021.115-.047l1.585-.697a.5.5 0 0 0 .175-.123.4.4 0 0 0 .099-.169.46.46 0 0 0-.055-.386.5.5 0 0 0-.15-.158.66.66 0 0 0-.416-.126.6.6 0 0 0-.219.049l-1.569.678-.046.016q-.023.008-.047.014l-.046.008q-.023.004-.046.003-.036 0-.072-.003a.6.6 0 0 1-.136-.03q-.034-.011-.063-.027-.017-.008-.03-.017a.1.1 0 0 1-.03-.019l-.028-.019-.024-.022-.025-.024-.022-.025-.019-.027-.019-.03-.022-.041-.016-.041q-.008-.021-.011-.041-.005-.021-.006-.041a.3.3 0 0 1 0-.06q.004-.03.011-.061.008-.029.019-.057.014-.028.031-.055a.1.1 0 0 1 .019-.024l.019-.025q.01-.013.022-.022l.024-.022q.012-.012.025-.019l.027-.019.03-.016.033-.014 1.804-.754q.07-.03.14-.05.069-.02.142-.038a1.77 1.77 0 0 1 .929.06q.102.037.2.082l.095.049c.031.02.063.036.093.058q.046.03.088.063.043.032.082.068.042.036.079.074.037.037.074.079a2 2 0 0 1 .131.175q.04.06.071.126a1.2 1.2 0 0 1 .123.383 1.14 1.14 0 0 1-.136.746q-.025.043-.052.082a1 1 0 0 1-.06.079l-.066.077a1 1 0 0 1-.074.071 1 1 0 0 1-.079.065l-.088.063-.095.055c-.033.016-.066.035-.101.049L2.926 5.3l.995 1.501a.64.64 0 0 0 .385.265.7.7 0 0 0 .235.017.6.6 0 0 0 .397-.214.5.5 0 0 0 .104-.39.5.5 0 0 0-.074-.205l-.006-.009-.005-.008q0-.004-.006-.008l-.005-.008-.317-.47 1.449-.67q.121-.057.235-.123.111-.067.213-.142a2.3 2.3 0 0 0 .566-.613q.09-.147.153-.303a2.1 2.1 0 0 0 .148-.651q.002-.082.002-.169a2 2 0 0 0-.011-.17c-.005-.057-.016-.112-.024-.169a2 2 0 0 0-.041-.17c-.017-.054-.033-.112-.055-.166q-.03-.083-.068-.167a3 3 0 0 0-.082-.164z" style="fill:#231815"/></g></svg>