<svg fill="none" stroke="currentColor" stroke-linecap="round" stroke-linejoin="round" stroke-width="1.5" viewBox="0 0 24 24"><path d="M3.961 11.25a5.815 5.815 0 0 1 5.546-7.551 5.8 5.8 0 0 1 4.922 2.723M5.92 20.302a4.674 4.674 0 0 1-4.67-4.67 4.67 4.67 0 0 1 2.807-4.283m1.864 8.952h5.205M15.378 9.06q.703-.187 1.463-.19a5.71 5.71 0 0 1 4.64 2.38 5.717 5.717 0 0 1-4.64 9.05"/><path d="M16.84 10.776v3.81h2.858m2.857 0c0 3.135-2.58 5.715-5.715 5.715s-5.715-2.58-5.715-5.715 2.58-5.715 5.715-5.715 5.715 2.58 5.715 5.715"/></svg>