<?xml version="1.0" encoding="UTF-8" standalone="no"?>
<!DOCTYPE svg PUBLIC "-//W3C//DTD SVG 1.1//EN" "http://www.w3.org/Graphics/SVG/1.1/DTD/svg11.dtd">
<svg width="100%" height="100%" viewBox="0 0 24 24" version="1.1" xmlns="http://www.w3.org/2000/svg" xmlns:xlink="http://www.w3.org/1999/xlink" xml:space="preserve" xmlns:serif="http://www.serif.com/" style="fill-rule:evenodd;clip-rule:evenodd;stroke-linecap:round;stroke-linejoin:round;stroke-miterlimit:1.5;">
    <g transform="matrix(1,0,0,1,-0.126786,0.56797)">
        <g transform="matrix(1.05547,0,0,1.05547,-2.92069,-1.525997)">
            <path d="M6.64,11.566C6.477,11.046 6.388,10.492 6.388,9.918C6.388,6.879 8.856,4.412 11.894,4.412C13.858,4.412 15.584,5.443 16.558,6.992" style="fill:none;stroke:white;stroke-width:1.42px;"/>
        </g>
        <g transform="matrix(0.848193,0,0,0.848193,-4.04082,6.650693)">
            <path d="M11.894,15.424C8.856,15.424 6.388,12.957 6.388,9.918C6.388,7.66 7.751,5.718 9.697,4.869" style="fill:none;stroke:white;stroke-width:1.77px;"/>
        </g>
        <g transform="matrix(1,0,0,1,0,0.449323)">
            <path d="M6.048,19.284L11.253,19.284" style="fill:none;stroke:white;stroke-width:1.5px;"/>
        </g>
        <g transform="matrix(1.03798,0,0,1.03798,4.62198,3.723383)">
            <path d="M10.485,4.594C10.935,4.475 11.407,4.412 11.894,4.412C13.734,4.412 15.364,5.316 16.364,6.704C17.016,7.608 17.4,8.719 17.4,9.918C17.4,12.957 14.933,15.424 11.894,15.424" style="fill:none;stroke:white;stroke-width:1.45px;"/>
        </g>
        <g transform="matrix(0.635013,0,0,0.635013,9.347557,6.397911)">
            <path d="M12,6L12,12L16.5,12M21,12C21,16.937 16.937,21 12,21C7.063,21 3,16.937 3,12C3,7.063 7.063,3 12,3C16.937,3 21,7.063 21,12Z" style="fill:none;fill-rule:nonzero;stroke:white;stroke-width:2.36px;stroke-miterlimit:4;"/>
        </g>
    </g>
</svg>
