<svg fill="none" stroke="currentColor" stroke-linecap="round" stroke-linejoin="round" stroke-width="1.5" viewBox="0 0 24 24"><path d="M0 0h24v24H0z"/><path d="M4.088 11.25a5.815 5.815 0 0 1 5.546-7.551 5.8 5.8 0 0 1 4.922 2.723 6.5 6.5 0 0 1 .915 2.45m-7.398 11.43H6.048a4.674 4.674 0 0 1-4.67-4.67 4.67 4.67 0 0 1 2.807-4.283m11.32-2.289q.703-.187 1.463-.19a5.72 5.72 0 0 1 5.715 5.716 5.72 5.72 0 0 1-5.715 5.715h-2.793m-2.956-6.774v3.75"/><circle cx="11.238" cy="15.692" r=".762" transform="translate(-.262 4.25)scale(1.02181)"/></svg>