<svg fill="none" stroke="currentColor" stroke-linecap="round" stroke-linejoin="round" stroke-width="1.5" viewBox="0 0 24 24"><path d="M0 0h24v24H0z"/><path d="M4.088 11.25a5.815 5.815 0 0 1 5.546-7.551 5.8 5.8 0 0 1 4.922 2.723 6.5 6.5 0 0 1 .915 2.45m-4.217 5.473c0 4.952-2.376 5.957-5.206 5.957a4.674 4.674 0 0 1-4.67-4.67 4.67 4.67 0 0 1 2.807-4.283m11.32-2.289q.703-.187 1.463-.19a5.72 5.72 0 0 1 5.715 5.716 5.72 5.72 0 0 1-5.715 5.715H12"/><path d="m8.282 14.105 2.971-2.971 2.971 2.971m-2.971.239v-3.21"/></svg>