<svg fill="none" stroke="currentColor" stroke-linecap="round" stroke-linejoin="round" stroke-miterlimit="2" stroke-width="1.5" viewBox="0 0 24 24"><path fill="currentColor" fill-rule="evenodd" d="M10.538 3.201c2.2-3.876 5.86-3.293 5.9.52 1.516-.4 3.144-.546 4.426-.225h.002a2.88 2.88 0 0 1 2.12 3.352c-.32 1.611-1.63 3.235-3.457 4.289a9 9 0 0 1-1.864.81c.793.895 1.22 2.03 1.146 3.245-.163 2.674-2.847 5.015-6.132 5.047a6.45 6.45 0 0 1-2.844-.608 5.4 5.4 0 0 1-1.44 2.481c-2.04 1.984-4.997 1.753-6.602-.448-1.475-2.024-1.186-5.15.69-6.973q.207-.203.428-.374a5.96 5.96 0 0 1-1.66-3.691c-.248-3.086 1.837-5.548 4.49-5.622.442-.013.878.042 1.298.157.01-2.248 1.994-3.226 3.499-1.96M5.78 6.44c-1.886.053-3.274 1.877-3.097 4.07.176 2.194 1.702 3.636 3.588 3.583s3.148-1.56 2.971-3.753c-.176-2.194-1.576-3.953-3.462-3.9m7.372 5.351c-2.478.024-4.165 1.427-4.288 3.443s1.323 3.592 3.8 3.568c2.478-.024 4.589-1.68 4.711-3.697.123-2.016-1.746-3.338-4.223-3.314m-1.18-1.587c1.787.627 4.604.976 6.838-.312 1.434-.827 2.514-2.059 2.765-3.324a1.44 1.44 0 0 0-1.061-1.678c-1.348-.337-3.143-.027-4.655.51a.613.613 0 0 1-.825-.56c.007-.933-.045-1.913-.456-2.54a.61.61 0 0 0-.594-.27c-1.142.153-2.02 1.363-2.636 2.742a.607.607 0 0 1-.98.18c-.311-.303-.649-.593-.952-.78a.53.53 0 0 0-.428-.059.5.5 0 0 0-.33.279c-.682 1.675.701 4.896 3.315 5.812m-4.177 5.888c-1.079-1.48-3.436-1.247-4.312-.37-1.352 1.352-1.609 3.616-.53 5.095 1.079 1.48 3.068 1.598 4.439.265s1.221-3.868.403-4.99"/></svg>