<svg xmlns="http://www.w3.org/2000/svg" width="24" height="24" viewBox="0 0 24 24"><title>collapse down</title><g class="nc-icon-wrapper" stroke-linejoin="round" fill="none" stroke="#ffffff" stroke-width="2" stroke-linecap="round"><path stroke="none" d="M0 0h24v24H0z" fill="none"></path><path d="M21 18a3 3 0 0 1 -3 3h-12a3 3 0 0 1 -3 -3"></path><path d="M3 3m0 3a3 3 0 0 1 3 -3h12a3 3 0 0 1 3 3v0a3 3 0 0 1 -3 3h-12a3 3 0 0 1 -3 -3z"></path><path d="M12 9v8"></path><path d="M9 14l3 3l3 -3"></path></g></svg>