<?xml version="1.0" encoding="UTF-8" standalone="no"?>
<!DOCTYPE svg PUBLIC "-//W3C//DTD SVG 1.1//EN" "http://www.w3.org/Graphics/SVG/1.1/DTD/svg11.dtd">
<svg width="100%" height="100%" viewBox="0 0 25 24" version="1.1" xmlns="http://www.w3.org/2000/svg" xmlns:xlink="http://www.w3.org/1999/xlink" xml:space="preserve" xmlns:serif="http://www.serif.com/" style="fill-rule:evenodd;clip-rule:evenodd;stroke-linejoin:round;stroke-miterlimit:2;">
    <g transform="matrix(1,0,0,1,98,-130)">
        <g transform="matrix(1,0,0,1,-149.262,0)">
            <g id="comment" transform="matrix(1,0,0,1,52,78)">
                <rect x="0" y="52" width="24" height="24" style="fill:none;"/>
                <g transform="matrix(1.4074,0,0,1.4074,-4.85178,46.7241)">
                    <path d="M12.361,4C6.581,4 2.643,9.857 4.823,15.21L5.756,17.498C5.839,17.703 5.778,17.938 5.606,18.077L3.634,19.66C3.469,19.793 3.405,20.016 3.476,20.216C3.546,20.416 3.735,20.55 3.947,20.55L11.768,20.55C16.59,20.55 20.5,16.64 20.5,11.818C20.5,7.5 17,4 12.682,4L12.361,4Z" style="fill:white;fill-rule:nonzero;"/>
                </g>
            </g>
        </g>
    </g>
</svg>
