<?xml version="1.0" encoding="UTF-8" standalone="no"?>
<!DOCTYPE svg PUBLIC "-//W3C//DTD SVG 1.1//EN" "http://www.w3.org/Graphics/SVG/1.1/DTD/svg11.dtd">
<svg width="100%" height="100%" viewBox="0 0 24 24" version="1.1" xmlns="http://www.w3.org/2000/svg" xmlns:xlink="http://www.w3.org/1999/xlink" xml:space="preserve" xmlns:serif="http://www.serif.com/" style="fill-rule:evenodd;clip-rule:evenodd;stroke-linecap:round;stroke-linejoin:round;">
    <g>
        <g transform="matrix(1,0,0,1,-0.814122,1.48806)">
            <path d="M2,19L2,10.025C2,8.921 2.177,7.729 2.555,7.225L4.775,4.265C4.888,4.114 5.066,4.025 5.255,4.025L11.655,4.025C11.844,4.025 12.022,4.114 12.135,4.265L14.355,7.225C15.31,8.18 15.11,8.025 19.5,8.025L20,8.025C21.105,8.025 22,8.921 22,10.025L22,19C22,20.105 21.105,21 20,21L4,21C2.895,21 2,20.105 2,19Z" style="fill:none;fill-rule:nonzero;stroke:rgb(230,204,73);stroke-width:1.5px;"/>
        </g>
        <g transform="matrix(1,0,0,1,-0.814122,2.5132)">
            <path d="M12,17C14.209,17 16,15.209 16,13C16,10.791 14.209,9 12,9C9.791,9 8,10.791 8,13C8,15.209 9.791,17 12,17Z" style="fill:none;fill-rule:nonzero;stroke:rgb(230,204,73);stroke-width:1.5px;"/>
        </g>
        <g transform="matrix(1,0,0,1,2.25,-6.75)">
            <path d="M17.25,9.75L17.25,7.5C17.25,7.086 17.586,6.75 18,6.75C18.414,6.75 18.75,7.086 18.75,7.5L18.75,9.75L21,9.75C21.414,9.75 21.75,10.086 21.75,10.5C21.75,10.914 21.414,11.25 21,11.25L18.75,11.25L18.75,13.5C18.75,13.914 18.414,14.25 18,14.25C17.586,14.25 17.25,13.914 17.25,13.5L17.25,11.25L15,11.25C14.586,11.25 14.25,10.914 14.25,10.5C14.25,10.086 14.586,9.75 15,9.75L17.25,9.75Z" style="fill:rgb(230,204,73);"/>
        </g>
    </g>
</svg>
