<svg fill="none" stroke="currentColor" stroke-linecap="round" stroke-linejoin="round" stroke-width="1.5" viewBox="0 0 24 24"><path d="M2 19v-8.975c0-1.104.177-2.296.555-2.8l2.22-2.96a.6.6 0 0 1 .48-.24h6.4a.6.6 0 0 1 .48.24l2.22 2.96c.955.955.755.8 5.145.8h.5a2 2 0 0 1 2 2V19a2 2 0 0 1-2 2H4a2 2 0 0 1-2-2" style="stroke:rgb(230,204,73)" transform="translate(-.814 1.488)"/><path d="M12 17a4 4 0 1 0 0-8 4 4 0 0 0 0 8" style="stroke:rgb(230,204,73)" transform="translate(-.814 2.513)"/><path d="M17.25 9.75V7.5a.75.75 0 0 1 1.5 0v2.25H21a.75.75 0 0 1 0 1.5h-2.25v2.25a.75.75 0 0 1-1.5 0v-2.25H15a.75.75 0 0 1 0-1.5z" style="fill:rgb(230,204,73)" transform="translate(2.25 -6.75)"/></svg>