<svg fill="none" stroke="currentColor" stroke-linecap="round" stroke-linejoin="round" stroke-width="1.5" viewBox="0 0 24 24"><g fill-rule="evenodd"><path d="M10 21.4v-3.8a.6.6 0 0 0-.6-.6H3.6a.6.6 0 0 0-.6.6v3.8a.6.6 0 0 0 .6.6h5.8a.6.6 0 0 0 .6-.6m5.5-15V2.6a.6.6 0 0 0-.6-.6H9.1a.6.6 0 0 0-.6.6v3.8a.6.6 0 0 0 .6.6h5.8a.6.6 0 0 0 .6-.6m5.5 15v-3.8a.6.6 0 0 0-.6-.6h-5.8a.6.6 0 0 0-.6.6v3.8a.6.6 0 0 0 .6.6h5.8a.6.6 0 0 0 .6-.6"/><path d="M6.5 17v-3.5a2 2 0 0 1 2-2h7a2 2 0 0 1 2 2V17M12 11.5V7"/></g></svg>