<?xml version="1.0" encoding="UTF-8" standalone="no"?>
<!DOCTYPE svg PUBLIC "-//W3C//DTD SVG 1.1//EN" "http://www.w3.org/Graphics/SVG/1.1/DTD/svg11.dtd">
<svg width="100%" height="100%" viewBox="0 0 24 24" version="1.1" xmlns="http://www.w3.org/2000/svg" xmlns:xlink="http://www.w3.org/1999/xlink" xml:space="preserve" xmlns:serif="http://www.serif.com/" style="fill-rule:evenodd;clip-rule:evenodd;">
    <g>
        <g>
            <g transform="matrix(1,0,0,-1,3,22)">
                <path d="M7,0.6L7,4.4C7,4.731 6.731,5 6.4,5L0.6,5C0.269,5 0,4.731 0,4.4L0,0.6C0,0.269 0.269,0 0.6,0L6.4,0C6.731,0 7,0.269 7,0.6Z" style="fill:none;stroke:rgb(247,247,247);stroke-width:1.5px;"/>
            </g>
            <g transform="matrix(1,0,0,-1,8.5,7)">
                <path d="M7,0.6L7,4.4C7,4.731 6.731,5 6.4,5L0.6,5C0.269,5 0,4.731 0,4.4L0,0.6C0,0.269 0.269,0 0.6,0L6.4,0C6.731,0 7,0.269 7,0.6Z" style="fill:none;stroke:rgb(247,247,247);stroke-width:1.5px;"/>
            </g>
            <g transform="matrix(1,0,0,-1,14,22)">
                <path d="M7,0.6L7,4.4C7,4.731 6.731,5 6.4,5L0.6,5C0.269,5 0,4.731 0,4.4L0,0.6C0,0.269 0.269,0 0.6,0L6.4,0C6.731,0 7,0.269 7,0.6Z" style="fill:none;stroke:rgb(247,247,247);stroke-width:1.5px;"/>
            </g>
            <path d="M6.5,17L6.5,13.5C6.5,12.395 7.395,11.5 8.5,11.5L15.5,11.5C16.605,11.5 17.5,12.395 17.5,13.5L17.5,17" style="fill:none;fill-rule:nonzero;stroke:rgb(247,247,247);stroke-width:1.5px;"/>
            <path d="M12,11.5L12,7" style="fill:none;fill-rule:nonzero;stroke:rgb(247,247,247);stroke-width:1.5px;"/>
        </g>
    </g>
</svg>
