<svg width="24" height="24" xmlns="http://www.w3.org/2000/svg" clip-rule="evenodd" viewBox="0 0 24 24"><title>dependency graph 2</title><g class="nc-icon-wrapper" fill="#ffffff" fill-rule="evenodd"><path d="M7,0.6L7,4.4C7,4.731 6.731,5 6.4,5L0.6,5C0.269,5 0,4.731 0,4.4L0,0.6C0,0.269 0.269,0 0.6,0L6.4,0C6.731,0 7,0.269 7,0.6Z" fill="none" stroke="#ffffff" stroke-width="1.5" transform="matrix(1 0 0 -1 3 22)"></path><path d="M7,0.6L7,4.4C7,4.731 6.731,5 6.4,5L0.6,5C0.269,5 0,4.731 0,4.4L0,0.6C0,0.269 0.269,0 0.6,0L6.4,0C6.731,0 7,0.269 7,0.6Z" fill="none" stroke="#ffffff" stroke-width="1.5" transform="matrix(1 0 0 -1 8.5 7)"></path><path d="M7,0.6L7,4.4C7,4.731 6.731,5 6.4,5L0.6,5C0.269,5 0,4.731 0,4.4L0,0.6C0,0.269 0.269,0 0.6,0L6.4,0C6.731,0 7,0.269 7,0.6Z" fill="none" stroke="#ffffff" stroke-width="1.5" transform="matrix(1 0 0 -1 14 22)"></path><path d="M6.5,17L6.5,13.5C6.5,12.395 7.395,11.5 8.5,11.5L15.5,11.5C16.605,11.5 17.5,12.395 17.5,13.5L17.5,17" fill="none" fill-rule="nonzero" stroke="#ffffff" stroke-width="1.5"></path><path d="M12,11.5L12,7" fill="none" fill-rule="nonzero" stroke="#ffffff" stroke-width="1.5"></path></g></svg>