<svg xmlns="http://www.w3.org/2000/svg" height="24" width="24" viewBox="0 0 24 24"><title>drum</title><g stroke-linecap="butt" fill="#ffffff" class="nc-icon-wrapper" stroke-linejoin="miter"><path d="M1,9.5v9C1,20.985,5.925,23,12,23s11-2.015,11-4.5v-9" fill="none" stroke="#ffffff" stroke-miterlimit="10" stroke-width="1.5" data-cap="butt"></path><path fill="none" stroke="#ffffff" stroke-linecap="square" stroke-miterlimit="10" stroke-width="1.5" data-color="color-2" d="M22 2L8 9"></path><path fill="none" stroke="#ffffff" stroke-linecap="square" stroke-miterlimit="10" stroke-width="1.5" data-color="color-2" d="M2 2L16 9"></path><path d="M4,6.419C2.146,7.224,1,8.306,1,9.5,1,11.985,5.925,14,12,14s11-2.015,11-4.5c0-1.194-1.146-2.276-3-3.081" fill="none" stroke="#ffffff" stroke-miterlimit="10" stroke-width="1.5" data-cap="butt"></path><path fill="none" stroke="#ffffff" stroke-miterlimit="10" stroke-width="1.5" data-cap="butt" d="M12 23L12 18"></path><path fill="none" stroke="#ffffff" stroke-miterlimit="10" stroke-width="1.5" data-cap="butt" d="M5 17.092L5 21.971"></path><path fill="none" stroke="#ffffff" stroke-miterlimit="10" stroke-width="1.5" data-cap="butt" d="M19 17.092L19 21.971"></path></g></svg>