<?xml version="1.0" encoding="UTF-8" standalone="no"?>
<!DOCTYPE svg PUBLIC "-//W3C//DTD SVG 1.1//EN" "http://www.w3.org/Graphics/SVG/1.1/DTD/svg11.dtd">
<svg width="100%" height="100%" viewBox="0 0 25 24" version="1.1" xmlns="http://www.w3.org/2000/svg" xmlns:xlink="http://www.w3.org/1999/xlink" xml:space="preserve" xmlns:serif="http://www.serif.com/" style="fill-rule:evenodd;clip-rule:evenodd;stroke-linejoin:round;stroke-miterlimit:2;">
    <g transform="matrix(1,0,0,1,72,-130)">
        <g transform="matrix(1,0,0,1,-149.262,0)">
            <g id="export" transform="matrix(1,0,0,1,78,78)">
                <rect x="0" y="52" width="24" height="24" style="fill:none;"/>
                <clipPath id="_clip1">
                    <rect x="0" y="52" width="24" height="24"/>
                </clipPath>
                <g clip-path="url(#_clip1)">
                    <g transform="matrix(1.41382,0,0,1.41382,-4.96589,-26.4847)">
                        <g transform="matrix(1,0,0,1,0,51.7377)">
                            <path d="M5,16.25C5.414,16.25 5.75,16.586 5.75,17L5.75,19C5.75,19.138 5.862,19.25 6,19.25L18,19.25C18.138,19.25 18.25,19.138 18.25,19L18.25,17C18.25,16.586 18.586,16.25 19,16.25C19.414,16.25 19.75,16.586 19.75,17L19.75,19C19.75,19.966 18.967,20.75 18,20.75L6,20.75C5.034,20.75 4.25,19.966 4.25,19L4.25,17C4.25,16.586 4.586,16.25 5,16.25Z" style="fill:white;"/>
                        </g>
                        <g transform="matrix(1,0,0,1,0,51.7377)">
                            <path d="M10.738,16.127C10.224,16.127 9.794,15.734 9.749,15.222C9.596,13.469 9.569,11.708 9.668,9.951C9.421,9.938 9.174,9.922 8.928,9.904L7.438,9.795C6.864,9.753 6.543,9.113 6.853,8.628C7.915,6.966 9.283,5.521 10.885,4.37L11.482,3.941C11.792,3.719 12.208,3.719 12.518,3.941L13.115,4.37C14.717,5.521 16.085,6.966 17.147,8.628C17.457,9.113 17.136,9.753 16.562,9.795L15.072,9.904C14.826,9.922 14.579,9.938 14.332,9.951C14.431,11.708 14.404,13.469 14.251,15.222C14.206,15.734 13.777,16.127 13.262,16.127L10.738,16.127Z" style="fill:white;"/>
                        </g>
                    </g>
                </g>
            </g>
        </g>
    </g>
</svg>
