<svg fill="none" stroke="currentColor" stroke-linecap="round" stroke-linejoin="round" stroke-width="1.5" viewBox="0 0 24 24"><path d="M19.5 11.625a3.39 3.39 0 0 0-3.375-3.375h-1.5A1.13 1.13 0 0 1 13.5 7.125v-1.5a3.39 3.39 0 0 0-3.375-3.375H8.25m11.25 9c0-4.937-4.063-9-9-9H5.625c-.621 0-1.125.504-1.125 1.125v10.796m2.078 7.583a3.5 3.5 0 0 1-1.675-.393 2.77 2.77 0 0 1-1.075-1.133 3.47 3.47 0 0 1-.382-1.722q0-.982.382-1.71a2.77 2.77 0 0 1 1.063-1.144 3.1 3.1 0 0 1 1.618-.417 3.12 3.12 0 0 1 2.104.798 2.3 2.3 0 0 1 .635 1.005 4.6 4.6 0 0 1 .22 1.399v.485H4.15v-1.086h3.676a1.16 1.16 0 0 0-.162-.67 1.16 1.16 0 0 0-.462-.451 1.42 1.42 0 0 0-1.376.011 1.39 1.39 0 0 0-.647 1.168v1.028a1.7 1.7 0 0 0 .173.81q.174.346.497.531.312.174.752.185a2.3 2.3 0 0 0 .543-.08 1.2 1.2 0 0 0 .404-.255 1.2 1.2 0 0 0 .266-.393l1.618.104a2.3 2.3 0 0 1-.508 1.017 2.3 2.3 0 0 1-.971.67 3.5 3.5 0 0 1-1.376.243m5.334-6.426 1.156 2.196 1.19-2.196h1.792l-1.826 3.144 1.872 3.155h-1.78l-1.248-2.184-1.225 2.184h-1.803l1.872-3.155-1.803-3.144zm8.517 0v1.306h-3.79v-1.306zm-2.924-1.514h1.745v5.871q0 .243.07.382.08.138.208.185a1.2 1.2 0 0 0 .312.057l.243-.023.196-.034.266 1.294q-.116.046-.37.093a2.3 2.3 0 0 1-.578.069 2.3 2.3 0 0 1-1.098-.162 1.5 1.5 0 0 1-.74-.6 1.73 1.73 0 0 1-.254-1.03z"/></svg>