<svg fill="none" stroke="currentColor" stroke-linecap="round" stroke-linejoin="round" stroke-width="1.5" viewBox="0 0 24 24"><path d="M12 19.5c-4.638 0-8.573-3.007-9.963-7.178h-.001a1 1 0 0 1 0-.639C3.423 7.51 7.36 4.5 12 4.5c4.638 0 8.573 3.007 9.963 7.178.07.207.07.431 0 .639q-.185.558-.43 1.086"/><path d="M15 12c0 1.646-1.354 3-3 3s-3-1.354-3-3 1.354-3 3-3 3 1.354 3 3m2.565 1.404a.884.884 0 0 0-.873.738l-.083.506c-.01.056-.055.122-.14.164a3.5 3.5 0 0 0-.465.269c-.079.054-.158.06-.212.039l-.48-.18a.886.886 0 0 0-1.076.386l-.434.753a.886.886 0 0 0 .203 1.124l.396.326c.045.037.08.108.073.203q-.02.269 0 .537c.007.094-.028.166-.072.203l-.397.326a.886.886 0 0 0-.203 1.124l.434.753a.886.886 0 0 0 1.076.386l.48-.18c.055-.02.134-.015.213.038q.22.152.464.27c.086.04.13.107.14.164l.084.505a.884.884 0 0 0 .872.739h.87a.885.885 0 0 0 .872-.739l.083-.505c.01-.057.054-.123.14-.165q.244-.117.465-.269c.079-.053.158-.058.212-.038l.48.18a.886.886 0 0 0 1.076-.386l.435-.753a.886.886 0 0 0-.204-1.125l-.396-.326c-.045-.037-.08-.108-.072-.202q.02-.27 0-.537c-.008-.095.027-.166.072-.203l.396-.326a.884.884 0 0 0 .204-1.125l-.435-.753a.886.886 0 0 0-1.076-.385l-.48.18c-.054.02-.133.014-.212-.04a3.5 3.5 0 0 0-.464-.268c-.087-.041-.131-.107-.14-.164l-.085-.506a.886.886 0 0 0-.872-.738zm.434 6.364A1.777 1.777 0 0 0 19.767 18 1.777 1.777 0 0 0 18 16.232 1.777 1.777 0 0 0 16.231 18 1.777 1.777 0 0 0 18 19.768"/></svg>