<svg xmlns="http://www.w3.org/2000/svg" height="24" width="24" viewBox="0 0 24 24"><title>face plus</title><g fill="#ffffff" class="nc-icon-wrapper"><path d="M14.96 15.64a3.54 3.54 0 0 1-5.98 0" fill="none" stroke="#ffffff" stroke-linecap="round" stroke-linejoin="round" stroke-width="1.5" data-color="color-2"></path><path fill="#ffffff" data-color="color-2" data-stroke="none" d="M7.98 10.64a1.33 1.33 0 1 0 0 2.66 1.33 1.33 0 1 0 0-2.66z" stroke="none"></path><path fill="#ffffff" data-color="color-2" data-stroke="none" d="M15.96 10.64a1.33 1.33 0 1 0 0 2.66 1.33 1.33 0 1 0 0-2.66z" stroke="none"></path><path fill="none" stroke="#ffffff" stroke-linecap="round" stroke-linejoin="round" stroke-width="1.5" data-color="color-2" d="M19.62 1.66v6.65"></path><path fill="none" stroke="#ffffff" stroke-linecap="round" stroke-linejoin="round" stroke-width="1.5" data-color="color-2" d="M22.94 4.99h-6.65"></path><path d="M14.04 2.56a9.66 9.66 0 0 0-2.07-0.23 9.64 9.64 0 1 0 9.59 8.67" fill="none" stroke="#ffffff" stroke-linecap="round" stroke-linejoin="round" stroke-width="1.5"></path></g></svg>