<svg fill="none" stroke="currentColor" stroke-linecap="round" stroke-linejoin="round" stroke-width="1.5" viewBox="0 0 24 24"><g fill="currentColor"><path d="M14.96 15.64a3.54 3.54 0 0 1-5.98 0" data-color="color-2"/><path d="M7.98 10.64a1.33 1.33 0 1 0 0 2.66 1.33 1.33 0 1 0 0-2.66m7.98 0a1.33 1.33 0 1 0 0 2.66 1.33 1.33 0 1 0 0-2.66" data-color="color-2" data-stroke="none"/><path d="M19.62 1.66v6.65m3.32-3.32h-6.65" data-color="color-2"/><path d="M14.04 2.56a9.7 9.7 0 0 0-2.07-.23A9.64 9.64 0 1 0 21.56 11"/></g></svg>