<svg fill="none" stroke="currentColor" stroke-linecap="round" stroke-linejoin="round" stroke-width="1.5" viewBox="0 0 33 32"><g transform="translate(-639.408)"><path d="M639.469 0h32v32h-32z"/><clipPath id="a"><path d="M639.469 0h32v32h-32z"/></clipPath><g clip-path="url(#a)"><path d="M416.833 2500c230 0 416.667-186.67 416.667-416.67v-416.66H416.833c-230 0-416.666 186.66-416.666 416.66S186.833 2500 416.833 2500" style="fill:rgb(10,207,131)" transform="translate(644.8)scale(.0128)"/><path d="M.167 1250c0-230 186.666-416.667 416.666-416.667H833.5v833.337H416.833C186.833 1666.67.167 1480 .167 1250" style="fill:rgb(162,89,255)" transform="translate(644.8)scale(.0128)"/><path d="M.167 416.667C.167 186.667 186.833 0 416.833 0H833.5v833.333H416.833c-230 0-416.666-186.666-416.666-416.666" style="fill:rgb(242,78,30)" transform="translate(644.8)scale(.0128)"/><path d="M833.5 0h416.67c230 0 416.66 186.667 416.66 416.667s-186.66 416.666-416.66 416.666H833.5z" style="fill:rgb(255,114,98)" transform="translate(644.8)scale(.0128)"/><path d="M1666.83 1250c0 230-186.66 416.67-416.66 416.67S833.5 1480 833.5 1250s186.67-416.667 416.67-416.667S1666.83 1020 1666.83 1250" style="fill:rgb(26,188,254)" transform="translate(644.8)scale(.0128)"/></g></g></svg>