<?xml version="1.0" encoding="UTF-8" standalone="no"?>
<!DOCTYPE svg PUBLIC "-//W3C//DTD SVG 1.1//EN" "http://www.w3.org/Graphics/SVG/1.1/DTD/svg11.dtd">
<svg width="100%" height="100%" viewBox="0 0 24 24" version="1.1" xmlns="http://www.w3.org/2000/svg" xmlns:xlink="http://www.w3.org/1999/xlink" xml:space="preserve" xmlns:serif="http://www.serif.com/" style="fill-rule:evenodd;clip-rule:evenodd;stroke-linecap:round;stroke-linejoin:round;">
    <g>
        <path d="M19.5,11.625C19.5,9.774 17.976,8.25 16.125,8.25L14.625,8.25C14.008,8.25 13.5,7.742 13.5,7.125L13.5,5.625C13.5,3.774 11.976,2.25 10.125,2.25L8.25,2.25M19.5,11.25C19.5,6.313 15.437,2.25 10.5,2.25L5.625,2.25C5.004,2.25 4.5,2.754 4.5,3.375L4.5,20.625C4.5,21.246 5.004,21.75 5.625,21.75L12.582,21.75" style="fill:none;fill-rule:nonzero;stroke:white;stroke-width:1.5px;"/>
        <g transform="matrix(0.519084,0,0,0.519084,12.169684,12.074077)">
            <path d="M21,21L15.803,15.803M15.803,15.803C17.209,14.397 18,12.488 18,10.499C18,6.385 14.614,2.999 10.5,2.999C8.511,2.999 6.602,3.79 5.196,5.196C3.79,6.602 2.999,8.511 2.999,10.499C2.999,14.614 6.385,18 10.5,18C12.488,18 14.397,17.209 15.803,15.803Z" style="fill:none;fill-rule:nonzero;stroke:white;stroke-width:2.89px;"/>
        </g>
    </g>
</svg>
