<svg fill="none" stroke="currentColor" stroke-linecap="round" stroke-linejoin="round" stroke-width="1.5" viewBox="0 0 24 24"><path d="M0 0h24v24H0z"/><path d="M18.61 9.351a3.37 3.37 0 0 0-2.485-1.101h-1.5A1.13 1.13 0 0 1 13.5 7.125v-1.5a3.39 3.39 0 0 0-3.375-3.375H8.25m10.36 7.101c.219.22.68-.049.602-.35-1.01-3.864-4.55-6.751-8.712-6.751H5.625c-.621 0-1.125.504-1.125 1.125v17.25c0 .621.504 1.125 1.125 1.125h4.834"/><path d="M17.003 15.23v3.64m1.82-1.82h-3.64m7.279 0c0 2.994-2.465 5.459-5.459 5.459s-5.459-2.465-5.459-5.459 2.465-5.459 5.459-5.459 5.459 2.465 5.459 5.459"/></svg>