<svg fill="none" stroke="currentColor" stroke-linecap="round" stroke-linejoin="round" stroke-width="1.5" viewBox="0 0 24 24"><path d="M1.91 13.02v4.522H.414V5.183h4.182q1.462 0 2.38.51a3.4 3.4 0 0 1 1.377 1.411 5.1 5.1 0 0 1 .442 1.989 5.1 5.1 0 0 1-.442 1.989 3.4 3.4 0 0 1-1.377 1.411 5.1 5.1 0 0 1-2.363.527zv-1.326h2.652a3.4 3.4 0 0 0 1.615-.34 2.04 2.04 0 0 0 .867-.935 3.4 3.4 0 0 0 .272-1.326 3.4 3.4 0 0 0-.272-1.326 2.04 2.04 0 0 0-.884-.918 3.4 3.4 0 0 0-1.615-.34H1.91v5.185h-.289v1.326zm9.299 2.941a1.02 1.02 0 0 1-.765-.323 1.02 1.02 0 0 1-.323-.765 1.02 1.02 0 0 1 .323-.765 1.02 1.02 0 0 1 .765-.323q.442 0 .765.323a1.02 1.02 0 0 1 .323.765 1.7 1.7 0 0 1-.153.544 1.7 1.7 0 0 1-.391.391 1.7 1.7 0 0 1-.544.153m0-6.256a1.02 1.02 0 0 1-.765-.323 1.02 1.02 0 0 1-.323-.765q0-.425.323-.765a1.02 1.02 0 0 1 .765-.323q.442 0 .765.323a1.2 1.2 0 0 1 .323.765 1.7 1.7 0 0 1-.153.544 1 1 0 0 1-.391.391 1.7 1.7 0 0 1-.544.153m7.157-5.1-3.978 14.79h-1.309l3.995-14.79zm5.219 0-3.978 14.79h-1.309l3.978-14.79z"/></svg>