<svg fill="none" stroke="currentColor" stroke-linecap="round" stroke-linejoin="round" stroke-width="1.5" viewBox="0 0 24 24"><path d="M4.026 14.996 2.637 18.91H.882L5.957 5.089h1.727l5.075 13.821h-1.754l-1.39-3.914zm5.062-1.485L6.875 7.275h-.108l-2.214 6.236zm4.881 5.399V5.089h1.592v5.102h.135q.175-.27.49-.692.313-.421.904-.756.59-.334 1.603-.334 1.309 0 2.308.655.999.654 1.559 1.856t.56 2.834q0 1.647-.56 2.851-.56 1.205-1.553 1.863t-2.287.658q-.999 0-1.6-.334-.6-.334-.924-.763a10 10 0 0 1-.5-.712h-.189v1.593zm1.565-5.183q0 1.174.344 2.069.345.894 1.006 1.396.662.504 1.62.503.999 0 1.67-.53.672-.53 1.012-1.43.34-.901.341-2.008 0-1.094-.334-1.974t-1.006-1.397q-.67-.516-1.683-.516-.973 0-1.633.489-.662.49-.999 1.363-.338.874-.338 2.035"/></svg>