<svg fill="none" stroke="currentColor" stroke-linecap="round" stroke-linejoin="round" stroke-width="1.5" viewBox="0 0 24 24"><path d="M19.5 11.625a3.39 3.39 0 0 0-3.375-3.375h-1.5A1.13 1.13 0 0 1 13.5 7.125v-1.5a3.39 3.39 0 0 0-3.375-3.375H8.25m11.25 9c0-4.937-4.063-9-9-9H5.625c-.621 0-1.125.504-1.125 1.125v17.25c0 .621.504 1.125 1.125 1.125h6.957"/><path d="m23.07 22.975-2.697-2.698m0 0a3.9 3.9 0 0 0 1.14-2.753 3.91 3.91 0 0 0-3.893-3.893 3.895 3.895 0 0 0-3.893 3.893 3.91 3.91 0 0 0 3.893 3.893 3.9 3.9 0 0 0 2.753-1.14"/></svg>