<svg fill="none" stroke="currentColor" stroke-linecap="round" stroke-linejoin="round" stroke-width="1.5" viewBox="0 0 24 24"><g fill-rule="evenodd"><path d="M19.5 11.625a3.39 3.39 0 0 0-3.375-3.375h-1.5A1.13 1.13 0 0 1 13.5 7.125v-1.5a3.39 3.39 0 0 0-3.375-3.375H8.25m11.25 9c0-4.937-4.063-9-9-9H5.625c-.621 0-1.125.504-1.125 1.125v17.25c0 .621.504 1.125 1.125 1.125h2.142"/><path d="M8.789 18.05a.67.67 0 0 1 0-.425 6.972 6.972 0 0 1 13.23-.003.66.66 0 0 1 0 .424 6.97 6.97 0 0 1-13.23.004"/><path d="M17.396 17.836a2 2 0 0 1-1.992 1.992 2 2 0 0 1-1.992-1.992c0-1.093.899-1.992 1.992-1.992s1.992.899 1.992 1.992"/></g></svg>