<svg fill="none" stroke="currentColor" stroke-linecap="round" stroke-linejoin="round" stroke-width="1.5" viewBox="0 0 33 32"><path d="M.971 0h32v32h-32z"/><path d="M74.62 26.83c-1.684-4.052-5.1-8.427-7.775-9.81a40.2 40.2 0 0 1 3.925 11.76l.007.065c-4.382-10.92-11.81-15.33-17.88-24.92a47 47 0 0 1-.913-1.484 12 12 0 0 1-.427-.8 7 7 0 0 1-.578-1.535.1.1 0 0 0-.088-.1.13.13 0 0 0-.073 0c-.005 0-.013.009-.019.011s-.019.011-.028.015l.015-.026c-9.735 5.7-13.04 16.25-13.34 21.53a19.4 19.4 0 0 0-10.67 4.111 11 11 0 0 0-1-.758 17.97 17.97 0 0 1-.109-9.473 28.7 28.7 0 0 0-9.329 7.21h-.018c-1.536-1.947-1.428-8.367-1.34-9.708a7 7 0 0 0-1.294.687 28 28 0 0 0-3.788 3.245 34 34 0 0 0-3.623 4.347v.006-.007a32.7 32.7 0 0 0-5.2 11.74l-.052.256a62 62 0 0 0-.381 2.42c0 .029-.006.056-.009.085a37 37 0 0 0-.629 5.343v.2c.038 21.237 17.523 38.692 38.76 38.692 18.774 0 34.982-13.64 38.19-32.138.065-.5.118-.995.176-1.5a39.9 39.9 0 0 0-2.514-19.47zM29.95 57.17c.181.087.351.181.537.264l.027.017q-.282-.135-.564-.281m40.828-28.314v-.037l.007.041z" style="fill:url(#a)" transform="translate(1.816 .358)scale(.39144)"/><path d="M74.62 26.83c-1.684-4.052-5.1-8.427-7.775-9.81a40.2 40.2 0 0 1 3.925 11.76v.037l.007.041a35.1 35.1 0 0 1-1.206 26.16c-4.442 9.531-15.19 19.3-32.02 18.82-18.18-.515-34.2-14.01-37.19-31.68-.545-2.787 0-4.2.274-6.465a29 29 0 0 0-.623 5.348v.2c.038 21.237 17.523 38.692 38.76 38.692 18.774 0 34.982-13.64 38.19-32.138.065-.5.118-.995.176-1.5a39.9 39.9 0 0 0-2.514-19.47z" style="fill:url(#b)" transform="translate(1.816 .358)scale(.39144)"/><path d="M74.62 26.83c-1.684-4.052-5.1-8.427-7.775-9.81a40.2 40.2 0 0 1 3.925 11.76v.037l.007.041a35.1 35.1 0 0 1-1.206 26.16c-4.442 9.531-15.19 19.3-32.02 18.82-18.18-.515-34.2-14.01-37.19-31.68-.545-2.787 0-4.2.274-6.465a29 29 0 0 0-.623 5.348v.2c.038 21.237 17.523 38.692 38.76 38.692 18.774 0 34.982-13.64 38.19-32.138.065-.5.118-.995.176-1.5a39.9 39.9 0 0 0-2.514-19.47z" style="fill:url(#c)" transform="translate(1.816 .358)scale(.39144)"/><path d="M55.78 31.38q.124.089.241.177a21.1 21.1 0 0 0-3.6-4.695C40.371 14.812 49.264.742 50.763.022L50.778 0c-9.735 5.7-13.04 16.25-13.34 21.53.452-.031.9-.069 1.362-.069a19.58 19.58 0 0 1 16.98 9.917z" style="fill:url(#d)" transform="translate(1.816 .358)scale(.39144)"/><path d="M38.82 33.79c-.064.964-3.47 4.289-4.661 4.289-11.02 0-12.81 6.667-12.81 6.667.488 5.614 4.4 10.24 9.129 12.68.216.112.435.213.654.312q.569.252 1.138.466a17.3 17.3 0 0 0 5.043.973c19.32.906 23.06-23.1 9.119-30.07a13.38 13.38 0 0 1 9.345 2.269 19.58 19.58 0 0 0-16.98-9.917c-.46 0-.91.038-1.362.069a19.4 19.4 0 0 0-10.67 4.111c.591.5 1.258 1.168 2.663 2.553 2.63 2.591 9.375 5.275 9.39 5.59z" style="fill:url(#e)" transform="translate(1.816 .358)scale(.39144)"/><path d="M38.82 33.79c-.064.964-3.47 4.289-4.661 4.289-11.02 0-12.81 6.667-12.81 6.667.488 5.614 4.4 10.24 9.129 12.68.216.112.435.213.654.312q.569.252 1.138.466a17.3 17.3 0 0 0 5.043.973c19.32.906 23.06-23.1 9.119-30.07a13.38 13.38 0 0 1 9.345 2.269 19.58 19.58 0 0 0-16.98-9.917c-.46 0-.91.038-1.362.069a19.4 19.4 0 0 0-10.67 4.111c.591.5 1.258 1.168 2.663 2.553 2.63 2.591 9.375 5.275 9.39 5.59z" style="fill:url(#f)" transform="translate(1.816 .358)scale(.39144)"/><path d="M24.96 24.36c.314.2.573.374.8.531a17.97 17.97 0 0 1-.109-9.473 28.7 28.7 0 0 0-9.329 7.21c.189-.005 5.811-.106 8.638 1.732" style="fill:url(#g)" transform="translate(1.816 .358)scale(.39144)"/><path d="M.354 42.16c2.991 17.67 19.01 31.17 37.19 31.68 16.83.476 27.58-9.294 32.02-18.82a35.1 35.1 0 0 0 1.206-26.16v-.037c0-.029-.006-.046 0-.037l.007.065c1.375 8.977-3.191 17.67-10.33 23.56l-.022.05c-13.91 11.33-27.22 6.834-29.91 5q-.282-.135-.564-.281c-8.109-3.876-11.46-11.26-10.74-17.6a9.97 9.97 0 0 1-9.181-5.775 14.63 14.63 0 0 1 14.25-.572 19.3 19.3 0 0 0 14.55.572c-.015-.315-6.76-3-9.39-5.59-1.405-1.385-2.072-2.052-2.663-2.553a11 11 0 0 0-1-.758c-.23-.157-.489-.327-.8-.531-2.827-1.838-8.449-1.737-8.635-1.732h-.018c-1.536-1.947-1.428-8.367-1.34-9.708a7 7 0 0 0-1.294.687 28 28 0 0 0-3.788 3.245 34 34 0 0 0-3.638 4.337v.006-.007a32.7 32.7 0 0 0-5.2 11.74c-.019.079-1.396 6.099-.717 9.221z" style="fill:url(#h)" transform="translate(1.816 .358)scale(.39144)"/><path d="M52.42 26.86a21.1 21.1 0 0 1 3.6 4.7c.213.161.412.321.581.476 8.787 8.1 4.183 19.55 3.84 20.36 7.138-5.881 11.7-14.58 10.33-23.56-4.384-10.93-11.82-15.34-17.88-24.93a47 47 0 0 1-.913-1.484 12 12 0 0 1-.427-.8 7 7 0 0 1-.578-1.535.1.1 0 0 0-.088-.1.13.13 0 0 0-.073 0c-.005 0-.013.009-.019.011s-.019.011-.028.015c-1.499.711-10.39 14.79 1.66 26.83z" style="fill:url(#i)" transform="translate(1.816 .358)scale(.39144)"/><path d="M56.6 32.04a8 8 0 0 0-.581-.476q-.117-.088-.241-.177a13.38 13.38 0 0 0-9.345-2.269c13.94 6.97 10.2 30.97-9.119 30.07a17.3 17.3 0 0 1-5.043-.973 20 20 0 0 1-1.138-.466c-.219-.1-.438-.2-.654-.312l.027.017c2.694 1.839 16 6.332 29.91-5l.022-.05c.347-.81 4.951-12.26-3.84-20.36z" style="fill:url(#j)" transform="translate(1.816 .358)scale(.39144)"/><path d="M21.35 44.74s1.789-6.667 12.81-6.667c1.191 0 4.6-3.325 4.661-4.289a19.3 19.3 0 0 1-14.55-.572 14.63 14.63 0 0 0-14.25.572 9.97 9.97 0 0 0 9.181 5.775c-.718 6.337 2.632 13.72 10.74 17.6.181.087.351.181.537.264-4.733-2.445-8.641-7.069-9.129-12.68z" style="fill:url(#k)" transform="translate(1.816 .358)scale(.39144)"/><path d="M74.62 26.83c-1.684-4.052-5.1-8.427-7.775-9.81a40.2 40.2 0 0 1 3.925 11.76l.007.065c-4.382-10.92-11.81-15.33-17.88-24.92a47 47 0 0 1-.913-1.484 12 12 0 0 1-.427-.8 7 7 0 0 1-.578-1.535.1.1 0 0 0-.088-.1.13.13 0 0 0-.073 0c-.005 0-.013.009-.019.011s-.019.011-.028.015l.015-.026c-9.735 5.7-13.04 16.25-13.34 21.53.452-.031.9-.069 1.362-.069a19.58 19.58 0 0 1 16.98 9.917 13.38 13.38 0 0 0-9.345-2.269c13.94 6.97 10.2 30.97-9.119 30.07a17.3 17.3 0 0 1-5.043-.973 20 20 0 0 1-1.138-.466c-.219-.1-.438-.2-.654-.312l.027.017q-.282-.135-.564-.281c.181.087.351.181.537.264-4.733-2.446-8.641-7.07-9.129-12.68 0 0 1.789-6.667 12.81-6.667 1.191 0 4.6-3.325 4.661-4.289-.015-.315-6.76-3-9.39-5.59-1.405-1.385-2.072-2.052-2.663-2.553a11 11 0 0 0-1-.758 17.97 17.97 0 0 1-.109-9.473 28.7 28.7 0 0 0-9.329 7.21h-.018c-1.536-1.947-1.428-8.367-1.34-9.708a7 7 0 0 0-1.294.687A28 28 0 0 0 9.9 16.858a34 34 0 0 0-3.623 4.347v.006-.007a32.7 32.7 0 0 0-5.2 11.74l-.052.256c-.073.341-.4 2.073-.447 2.445a45 45 0 0 0-.572 5.403v.2C.044 62.485 17.529 79.94 38.766 79.94c18.774 0 34.982-13.64 38.19-32.138.065-.5.118-.995.176-1.5a39.9 39.9 0 0 0-2.514-19.47zm-3.845 1.991.007.041z" style="fill:url(#l)" transform="translate(1.816 .358)scale(.39144)"/><defs><radialGradient id="b" cx="0" cy="0" r="1" gradientTransform="translate(67 9)scale(80.8)" gradientUnits="userSpaceOnUse"><stop offset="0" style="stop-color:rgb(255,189,79);stop-opacity:1"/><stop offset=".13" style="stop-color:rgb(255,189,79);stop-opacity:1"/><stop offset=".19" style="stop-color:rgb(255,172,49);stop-opacity:1"/><stop offset=".25" style="stop-color:rgb(255,157,23);stop-opacity:1"/><stop offset=".28" style="stop-color:rgb(255,152,14);stop-opacity:1"/><stop offset=".4" style="stop-color:rgb(255,86,59);stop-opacity:1"/><stop offset=".47" style="stop-color:rgb(255,55,80);stop-opacity:1"/><stop offset=".71" style="stop-color:rgb(245,21,108);stop-opacity:1"/><stop offset=".78" style="stop-color:rgb(235,8,120);stop-opacity:1"/><stop offset=".86" style="stop-color:rgb(229,0,128);stop-opacity:1"/><stop offset="1" style="stop-color:rgb(229,0,128);stop-opacity:1"/></radialGradient><radialGradient id="c" cx="0" cy="0" r="1" gradientTransform="translate(37 42)scale(80.8)" gradientUnits="userSpaceOnUse"><stop offset="0" style="stop-color:rgb(150,14,24);stop-opacity:1"/><stop offset=".3" style="stop-color:rgb(150,14,24);stop-opacity:1"/><stop offset=".35" style="stop-color:rgb(177,25,39);stop-opacity:0.74"/><stop offset=".44" style="stop-color:rgb(219,41,61);stop-opacity:0.34"/><stop offset=".5" style="stop-color:rgb(245,51,75);stop-opacity:0.09"/><stop offset=".53" style="stop-color:rgb(255,55,80);stop-opacity:0"/><stop offset="1" style="stop-color:rgb(255,55,80);stop-opacity:0"/></radialGradient><radialGradient id="d" cx="0" cy="0" r="1" gradientTransform="translate(47 -9)scale(58.53)" gradientUnits="userSpaceOnUse"><stop offset="0" style="stop-color:rgb(255,244,79);stop-opacity:1"/><stop offset=".13" style="stop-color:rgb(255,244,79);stop-opacity:1"/><stop offset=".25" style="stop-color:rgb(255,220,62);stop-opacity:1"/><stop offset=".51" style="stop-color:rgb(255,157,18);stop-opacity:1"/><stop offset="1" style="stop-color:rgb(255,152,14);stop-opacity:1"/></radialGradient><radialGradient id="e" cx="0" cy="0" r="1" gradientTransform="translate(28 63)scale(38.47)" gradientUnits="userSpaceOnUse"><stop offset="0" style="stop-color:rgb(58,142,230);stop-opacity:1"/><stop offset=".35" style="stop-color:rgb(58,142,230);stop-opacity:1"/><stop offset=".47" style="stop-color:rgb(92,121,240);stop-opacity:1"/><stop offset=".67" style="stop-color:rgb(144,89,255);stop-opacity:1"/><stop offset="1" style="stop-color:rgb(193,57,230);stop-opacity:1"/></radialGradient><radialGradient id="f" cx="0" cy="0" r="1" gradientTransform="matrix(19.8288 -4.794 5.61 23.2152 40.908 35.064)" gradientUnits="userSpaceOnUse"><stop offset="0" style="stop-color:rgb(144,89,255);stop-opacity:0"/><stop offset=".21" style="stop-color:rgb(144,89,255);stop-opacity:0"/><stop offset=".28" style="stop-color:rgb(140,79,243);stop-opacity:0.06"/><stop offset=".75" style="stop-color:rgb(119,22,168);stop-opacity:0.45"/><stop offset=".98" style="stop-color:rgb(110,0,139);stop-opacity:0.6"/><stop offset="1" style="stop-color:rgb(110,0,139);stop-opacity:0.6"/></radialGradient><radialGradient id="g" cx="0" cy="0" r="1" gradientTransform="translate(36 6)scale(27.68)" gradientUnits="userSpaceOnUse"><stop offset="0" style="stop-color:rgb(255,226,38);stop-opacity:1"/><stop offset=".12" style="stop-color:rgb(255,219,39);stop-opacity:1"/><stop offset=".29" style="stop-color:rgb(255,200,42);stop-opacity:1"/><stop offset=".5" style="stop-color:rgb(255,169,48);stop-opacity:1"/><stop offset=".73" style="stop-color:rgb(255,126,55);stop-opacity:1"/><stop offset=".79" style="stop-color:rgb(255,113,57);stop-opacity:1"/><stop offset="1" style="stop-color:rgb(255,113,57);stop-opacity:1"/></radialGradient><radialGradient id="h" cx="0" cy="0" r="1" gradientTransform="translate(58 -12)scale(118.1)" gradientUnits="userSpaceOnUse"><stop offset="0" style="stop-color:rgb(255,244,79);stop-opacity:1"/><stop offset=".11" style="stop-color:rgb(255,244,79);stop-opacity:1"/><stop offset=".46" style="stop-color:rgb(255,152,14);stop-opacity:1"/><stop offset=".62" style="stop-color:rgb(255,86,52);stop-opacity:1"/><stop offset=".72" style="stop-color:rgb(255,54,71);stop-opacity:1"/><stop offset=".9" style="stop-color:rgb(227,21,135);stop-opacity:1"/><stop offset="1" style="stop-color:rgb(227,21,135);stop-opacity:1"/></radialGradient><radialGradient id="i" cx="0" cy="0" r="1" gradientTransform="matrix(9.0825 86.0675 -56.4845 5.9685 48.184 -5.452)" gradientUnits="userSpaceOnUse"><stop offset="0" style="stop-color:rgb(255,244,79);stop-opacity:1"/><stop offset=".06" style="stop-color:rgb(255,232,71);stop-opacity:1"/><stop offset=".17" style="stop-color:rgb(255,200,48);stop-opacity:1"/><stop offset=".3" style="stop-color:rgb(255,152,14);stop-opacity:1"/><stop offset=".36" style="stop-color:rgb(255,139,22);stop-opacity:1"/><stop offset=".46" style="stop-color:rgb(255,103,42);stop-opacity:1"/><stop offset=".57" style="stop-color:rgb(255,54,71);stop-opacity:1"/><stop offset=".74" style="stop-color:rgb(227,21,135);stop-opacity:1"/><stop offset="1" style="stop-color:rgb(227,21,135);stop-opacity:1"/></radialGradient><radialGradient id="j" cx="0" cy="0" r="1" gradientTransform="translate(36 16)scale(73.72)" gradientUnits="userSpaceOnUse"><stop offset="0" style="stop-color:rgb(255,244,79);stop-opacity:1"/><stop offset=".14" style="stop-color:rgb(255,244,79);stop-opacity:1"/><stop offset=".48" style="stop-color:rgb(255,152,14);stop-opacity:1"/><stop offset=".59" style="stop-color:rgb(255,86,52);stop-opacity:1"/><stop offset=".66" style="stop-color:rgb(255,54,71);stop-opacity:1"/><stop offset=".9" style="stop-color:rgb(227,21,135);stop-opacity:1"/><stop offset="1" style="stop-color:rgb(227,21,135);stop-opacity:1"/></radialGradient><radialGradient id="k" cx="0" cy="0" r="1" gradientTransform="translate(55 20)scale(80.69)" gradientUnits="userSpaceOnUse"><stop offset="0" style="stop-color:rgb(255,244,79);stop-opacity:1"/><stop offset=".09" style="stop-color:rgb(255,244,79);stop-opacity:1"/><stop offset=".23" style="stop-color:rgb(255,225,65);stop-opacity:1"/><stop offset=".51" style="stop-color:rgb(255,175,30);stop-opacity:1"/><stop offset=".63" style="stop-color:rgb(255,152,14);stop-opacity:1"/><stop offset="1" style="stop-color:rgb(255,152,14);stop-opacity:1"/></radialGradient><linearGradient id="a" x1="0" x2="1" y1="0" y2="0" gradientTransform="rotate(136.025 32.245 20.222)scale(89.409)" gradientUnits="userSpaceOnUse"><stop offset="0" style="stop-color:rgb(255,244,79);stop-opacity:1"/><stop offset=".05" style="stop-color:rgb(255,244,79);stop-opacity:1"/><stop offset=".11" style="stop-color:rgb(255,232,71);stop-opacity:1"/><stop offset=".23" style="stop-color:rgb(255,200,48);stop-opacity:1"/><stop offset=".37" style="stop-color:rgb(255,152,14);stop-opacity:1"/><stop offset=".4" style="stop-color:rgb(255,139,22);stop-opacity:1"/><stop offset=".46" style="stop-color:rgb(255,103,42);stop-opacity:1"/><stop offset=".53" style="stop-color:rgb(255,54,71);stop-opacity:1"/><stop offset=".71" style="stop-color:rgb(227,21,135);stop-opacity:1"/><stop offset="1" style="stop-color:rgb(227,21,135);stop-opacity:1"/></linearGradient><linearGradient id="l" x1="0" x2="1" y1="0" y2="0" gradientTransform="rotate(135 31.858 20.26)scale(77.42)" gradientUnits="userSpaceOnUse"><stop offset="0" style="stop-color:rgb(255,244,79);stop-opacity:0.8"/><stop offset=".17" style="stop-color:rgb(255,244,79);stop-opacity:0.8"/><stop offset=".27" style="stop-color:rgb(255,244,79);stop-opacity:0.63"/><stop offset=".49" style="stop-color:rgb(255,244,79);stop-opacity:0.22"/><stop offset=".6" style="stop-color:rgb(255,244,79);stop-opacity:0"/><stop offset="1" style="stop-color:rgb(255,244,79);stop-opacity:0"/></linearGradient></defs></svg>