<svg fill="none" stroke="currentColor" stroke-linecap="round" stroke-linejoin="round" stroke-width="1.5" viewBox="0 0 8 8"><path d="M.053 0h7.68v7.68H.053z"/><clipPath id="a"><path d="M.053 0h7.68v7.68H.053z"/></clipPath><g clip-path="url(#a)"><path d="M7.733 1.488v4.704a1.36 1.36 0 0 1-1.36 1.36h-4.96a1.36 1.36 0 0 1-1.36-1.36V1.488c0-.751.61-1.36 1.36-1.36h4.96c.751 0 1.36.609 1.36 1.36" style="fill:#00005b"/><path d="M3.157 4.544H1.968l-.244.751a.06.06 0 0 1-.062.046H1.06q-.052 0-.037-.056l1.035-2.953c.01-.032.021-.058.032-.098a1 1 0 0 0 .02-.209.033.033 0 0 1 .028-.036h.827q.036 0 .041.026L4.172 5.29q.015.051-.032.051h-.67a.05.05 0 0 1-.051-.036zm-1.001-.636h.814l-.072-.231-.088-.276-.093-.293a15 15 0 0 1-.154-.534h-.005a4 4 0 0 1-.108.412l-.147.474q-.075.243-.147.448m2.377 1.384v-1.9l-.002-.196-.008-.206-.01-.163a.03.03 0 0 1 .005-.032.04.04 0 0 1 .032-.011h.514q.027 0 .052.011.021.012.025.035l.024.07a1 1 0 0 1 .018.104q.15-.131.34-.198.188-.065.386-.064a1 1 0 0 1 .302.049.76.76 0 0 1 .486.474c.052.132.072.303.072.512v1.512q0 .048-.041.047l-.602.005-.007.001a.046.046 0 0 1-.045-.04V3.857a.7.7 0 0 0-.062-.278.36.36 0 0 0-.131-.16.4.4 0 0 0-.219-.057.7.7 0 0 0-.242.044.6.6 0 0 0-.192.121v1.765q0 .047-.042.046h-.608a.04.04 0 0 1-.046-.034z" style="fill:#99f"/></g></svg>