<svg fill="none" stroke="currentColor" stroke-linecap="round" stroke-linejoin="round" stroke-width="1.5" viewBox="0 0 24 24"><path d="M17.003 15.23v3.64m1.82-1.82h-3.64m7.279 0c0 2.994-2.465 5.459-5.459 5.459s-5.459-2.465-5.459-5.459 2.465-5.459 5.459-5.459 5.459 2.465 5.459 5.459"/><path d="m9.475 21.018-4.99.029a2.96 2.96 0 0 1-2.974-2.958V5.937a2.96 2.96 0 0 1 2.937-2.958l5.42-.037a2.06 2.06 0 0 1 1.469.602l1.928 1.928c.385.385.909.602 1.454.602h4.813a2.96 2.96 0 0 1 2.958 2.958v1.698"/></svg>