<svg fill="none" stroke="currentColor" stroke-linecap="round" stroke-linejoin="round" stroke-width="1.5" viewBox="0 0 33 32"><path d="M.455 0h32v32h-32z"/><path d="M29.375 0H4.406C1.983 0 0 1.994 0 4.432v56.136C0 63.006 1.983 65 4.406 65h38.188C45.017 65 47 63.006 47 60.568V17.727l-10.281-7.386z" style="fill:rgb(66,133,244)" transform="translate(4.885)scale(.4923)"/><path d="M30.664 16.431 47 32.858V17.727z" style="fill:url(#a)" transform="translate(4.885)scale(.4923)"/><path d="M11.75 47.273h23.5v-2.955h-23.5zm0 5.909h17.625v-2.955H11.75zm0-20.682v2.955h23.5V32.5zm0 8.864h23.5v-2.955h-23.5z" style="fill:rgb(241,241,241)" transform="translate(4.885)scale(.4923)"/><path d="M2.938 2.955V16.25c0 2.449 1.971 4.432 4.406 4.432h13.219z" style="fill:rgb(161,194,250)" transform="translate(17.9 -1.455)scale(.4923)"/><path d="M4.406 0C1.983 0 0 1.994 0 4.432v.369C0 2.364 1.983.369 4.406.369h24.969V0z" style="fill-opacity:0.2" transform="translate(4.885)scale(.4923)"/><path d="M42.594 64.631H4.406C1.983 64.631 0 62.636 0 60.199v.369C0 63.006 1.983 65 4.406 65h38.188C45.017 65 47 63.006 47 60.568v-.369c0 2.437-1.983 4.432-4.406 4.432" style="fill:rgb(26,35,126);fill-opacity:0.2" transform="translate(4.885)scale(.4923)"/><path d="M33.781 17.727c-2.434 0-4.406-1.983-4.406-4.432v.37c0 2.448 1.972 4.432 4.406 4.432H47v-.37z" style="fill:rgb(26,35,126);fill-opacity:0.1" transform="translate(4.885)scale(.4923)"/><path d="M29.375 0H4.406C1.983 0 0 1.994 0 4.432v56.136C0 63.006 1.983 65 4.406 65h38.188C45.017 65 47 63.006 47 60.568V17.727z" style="fill:url(#b)" transform="translate(4.885)scale(.4923)"/><defs><radialGradient id="b" cx="0" cy="0" r="1" gradientTransform="translate(2.978 3.533)scale(104.812)" gradientUnits="userSpaceOnUse"><stop offset="0" style="stop-color:white;stop-opacity:0.1"/><stop offset="1" style="stop-color:white;stop-opacity:0"/></radialGradient><linearGradient id="a" x1="0" x2="1" y1="0" y2="0" gradientTransform="rotate(90 10.496 28.337)scale(15.0191)" gradientUnits="userSpaceOnUse"><stop offset="0" style="stop-color:rgb(26,35,126);stop-opacity:0.2"/><stop offset="1" style="stop-color:rgb(26,35,126);stop-opacity:0.02"/></linearGradient></defs></svg>