<svg fill="none" stroke="currentColor" stroke-linecap="round" stroke-linejoin="round" stroke-width="1.5" viewBox="0 0 8 8"><path d="M0 .215h7.68v7.68H0z"/><path d="M2.164 3.699H.241L3.344.215v2.2a2 2 0 0 0-.3.123V1.003L.91 3.399h1.348q-.06.144-.094.3m2.172-1.284v-2.2l3.103 3.484H5.516a1.7 1.7 0 0 0-.094-.3H6.77L4.636 1.003v1.535a2 2 0 0 0-.3-.123m1.126 2.193h1.977L3.84 7.895.241 4.608h1.977q.054.158.136.3h-1.34L3.84 7.489l2.826-2.581h-1.34q.081-.143.136-.3M3.84 2.734a1.323 1.323 0 0 1 0 2.643 1.323 1.323 0 0 1 0-2.643m0 .3a1.022 1.022 0 1 0 0 2.043 1.022 1.022 0 0 0 0-2.043" style="fill:#82be0f"/></svg>