<svg fill="none" stroke="currentColor" stroke-linecap="round" stroke-linejoin="round" stroke-width="1.5" viewBox="0 0 24 24"><path d="M2.25 14.659 7.409 9.5a2.25 2.25 0 0 1 3.182 0l5.159 5.159m-1.5-1.5 1.409-1.409a2.25 2.25 0 0 1 3.182 0l2.909 2.909m-18 5.472h16.5c.823 0 1.5-.677 1.5-1.5V4.909c0-.823-.677-1.5-1.5-1.5H3.75c-.823 0-1.5.677-1.5 1.5v13.722c0 .823.677 1.5 1.5 1.5m10.5-12.972h.008v.008h-.008zm.375 0a.376.376 0 0 1-.375.375.376.376 0 0 1-.375-.375c0-.206.169-.375.375-.375s.375.169.375.375"/></svg>