<svg fill="none" stroke="currentColor" stroke-linecap="round" stroke-linejoin="round" stroke-width="1.5" viewBox="0 0 24 24"><path d="m2.25 14.609 3.882-3.882m8.118 2.412 1.409-1.409a2.25 2.25 0 0 1 3.182 0l2.909 2.909m-19.5-7.41v11.402c0 .823.677 1.5 1.5 1.5h11.604M14.25 7.139h.008v.008h-.008zm.375 0a.376.376 0 0 1-.375.375.376.376 0 0 1-.375-.375c0-.206.169-.375.375-.375s.375.169.375.375"/><path d="M21.168 19.904c.353-.276.582-.705.582-1.183V4.889c0-.823-.677-1.5-1.5-1.5H4.618M3 1.889l18.976 18.976"/></svg>