<svg fill="none" stroke="currentColor" stroke-linecap="round" stroke-linejoin="round" stroke-width="1.5" viewBox="0 0 8 8"><path d="M.22 0H7.9v7.68H.22z"/><path d="M7.9 1.456v4.768a1.36 1.36 0 0 1-1.36 1.36H1.58a1.36 1.36 0 0 1-1.36-1.36V1.456C.22.705.83.096 1.58.096h4.96c.751 0 1.36.609 1.36 1.36" style="fill:#49021f"/><path d="M3.009 2.055v3.282q0 .051-.046.051h-.624q-.04 0-.041-.051V2.055q0-.041.047-.041h.623l.005-.001c.02 0 .037.017.037.037zM4.854 5.44a1.6 1.6 0 0 1-.688-.144 1.1 1.1 0 0 1-.482-.436q-.175-.291-.175-.729a1.34 1.34 0 0 1 .175-.675c.12-.209.297-.381.51-.494a1.64 1.64 0 0 1 .876-.183l.098.008V1.772q0-.037.031-.037h.653c.015 0 .027.013.027.028v3.048q0 .088.008.191l.013.185a.05.05 0 0 1-.031.052q-.252.105-.521.154a2.7 2.7 0 0 1-.494.047m.314-.639V3.394a1 1 0 0 0-.191-.02.8.8 0 0 0-.36.082.7.7 0 0 0-.271.237.7.7 0 0 0-.105.407.9.9 0 0 0 .054.33q.047.128.144.227a.54.54 0 0 0 .216.128.9.9 0 0 0 .266.042q.071 0 .134-.005a.6.6 0 0 0 .113-.021" style="fill:#f36"/></svg>