<svg width="24" height="24" xmlns="http://www.w3.org/2000/svg" clip-rule="evenodd" viewBox="0 0 24 24"><title>layers plus</title><g stroke-linejoin="round" class="nc-icon-wrapper" fill="#ffffff" stroke-linecap="round" fill-rule="evenodd"><path d="M6.429,9.75L2.25,12L6.429,14.25M6.429,9.75L12,12.75L17.571,9.75M6.429,9.75L2.25,7.5L12,2.25L21.75,7.5L17.571,9.75M17.571,9.75L21.75,12L17.571,14.25M17.571,14.25L12,17.253M17.571,14.25L12,17.25L6.429,14.25" fill="none" fill-rule="nonzero" stroke="#ffffff" stroke-width="1.5" transform="translate(0 5.508)"></path><path d="M18,7.5L18,10.5M18,10.5L18,13.5M18,10.5L21,10.5M18,10.5L15,10.5" fill="none" fill-rule="nonzero" stroke="#ffffff" stroke-width="1.5" transform="translate(1.289 -5.742)"></path></g></svg>