<svg fill="none" stroke="currentColor" stroke-linecap="round" stroke-linejoin="round" stroke-width="1.5" viewBox="0 0 24 24"><path d="M10.778 4.916v14.225c0 1.682-.433 3.048-.966 3.048H4.705c-.533 0-.966-1.366-.966-3.048V4.916c0-1.682.433-3.048.966-3.048h5.107c.533 0 .966 1.366.966 3.048m-5.24 2.625v8.974H8.98V7.541z" transform="matrix(.834 0 0 .2644 -2.386 17.068)"/><path d="M10.778 2.842v18.373c0 .537-.473.974-1.056.974H4.795c-.583 0-1.056-.437-1.056-.974V2.842c0-.537.473-.974 1.056-.974h4.927c.583 0 1.056.437 1.056.974m-5.24.686v17.001H8.98V3.528z" transform="matrix(.834 0 0 .90383 -2.386 2.916)"/><path d="M10.778 4.916v14.225c0 1.682-.436 3.048-.972 3.048H4.712c-.537 0-.973-1.366-.973-3.048V4.916c0-1.682.436-3.048.973-3.048h5.094c.536 0 .972 1.366.972 3.048m-5.24 2.588v9.049H8.98V7.504z" transform="matrix(.834 0 0 .26617 4.076 17.065)"/><path d="M10.778 2.691v18.675c0 .454-.473.823-1.056.823H4.795c-.583 0-1.056-.369-1.056-.823V2.691c0-.454.473-.823 1.056-.823h4.927c.583 0 1.056.369 1.056.823m-5.24.579v17.517H8.98V3.27z" transform="matrix(.834 0 0 1.06998 4.076 -.77)"/><path d="M10.778 4.916v14.225c0 1.682-.398 3.048-.89 3.048H4.629c-.491 0-.89-1.366-.89-3.048V4.916c0-1.682.399-3.048.89-3.048h5.259c.492 0 .89 1.366.89 3.048m-5.24 3.111v8.003H8.98V8.027z" transform="matrix(.80559 -.21586 .06303 .23525 10.355 5.435)"/><path d="M10.778 2.825v18.407c0 .528-.473.957-1.056.957H4.795c-.583 0-1.056-.429-1.056-.957V2.825c0-.528.473-.957 1.056-.957h4.927c.583 0 1.056.429 1.056.957m-5.24.673v17.061H8.98V3.498z" transform="matrix(.80559 -.21586 .2382 .88895 10.032 4.23)"/><path d="M10.778 4.916v14.225c0 1.682-.398 3.048-.89 3.048H4.629c-.491 0-.89-1.366-.89-3.048V4.916c0-1.682.399-3.048.89-3.048h5.259c.492 0 .89 1.366.89 3.048m-5.24 3.112v8.001H8.98V8.028z" transform="matrix(.80559 -.21586 .06302 .2352 13.907 18.69)"/></svg>