<svg fill="none" stroke="currentColor" stroke-linecap="round" stroke-linejoin="round" stroke-width="1.5" viewBox="0 0 24 24"><path d="m12.456 6.154.408.277.332.751.224 1.116.083 1.368v2.885l-.083 1.368-.224 1.115-.332.751-.408.278H2.869l-.408-.278-.332-.751-.224-1.115-.083-1.368V9.666l.083-1.368.224-1.116.332-.751.408-.277zm0 2.926H2.869c-.096 0-.174.262-.174.586v2.885c0 .323.078.585.174.585h9.587c.096 0 .174-.262.174-.585V9.666c0-.324-.078-.586-.174-.586m0-16.141.408.277.332.751.224 1.116.083 1.368v2.885L13.42.704l-.224 1.115-.332.752-.408.277H2.869l-.408-.277-.332-.752L1.905.704 1.822-.664v-2.885l.083-1.368.224-1.116.332-.751.408-.277zm0 2.927H2.869c-.096 0-.174.262-.174.585v2.885c0 .323.078.585.174.585h9.587c.096 0 .174-.262.174-.585v-2.885c0-.323-.078-.585-.174-.585m0 23.493.408.277.332.751.224 1.116.083 1.368v2.885l-.083 1.368-.224 1.115-.332.751-.408.278H2.869l-.408-.278-.332-.751-.224-1.115-.083-1.368v-2.885l.083-1.368.224-1.116.332-.751.408-.277zm0 2.926H2.869c-.096 0-.174.262-.174.586v2.884c0 .324.078.586.174.586h9.587c.096 0 .174-.262.174-.586v-2.884c0-.324-.078-.586-.174-.586" transform="matrix(1.71939 0 0 .5125 -1.175 6.307)"/></svg>