<svg fill="none" stroke="currentColor" stroke-linecap="round" stroke-linejoin="round" stroke-width="1.5" viewBox="0 0 24 24"><path d="m12.456 7.036.408.161.332.437.224.649.083.796v3.375l-.083.795-.224.649-.332.438-.408.161H2.869l-.408-.161-.332-.438-.224-.649-.083-.795V9.079l.083-.796.224-.649.332-.437.408-.161zm0 1.703H2.869c-.096 0-.174.152-.174.34v3.375c0 .188.078.34.174.34h9.587c.096 0 .174-.152.174-.34V9.079c0-.188-.078-.34-.174-.34m0 8.725.408.161.332.438.224.649.083.796v3.374l-.083.796-.224.649-.332.437-.408.161H2.869l-.408-.161-.332-.437-.224-.649-.083-.796v-3.374l.083-.796.224-.649.332-.438.408-.161zm0 1.703H2.869c-.096 0-.174.153-.174.341v3.374c0 .188.078.341.174.341h9.587c.096 0 .174-.153.174-.341v-3.374c0-.188-.078-.341-.174-.341" transform="matrix(1.71939 0 0 .88084 -1.175 -2.076)"/></svg>