<svg fill="none" stroke="currentColor" stroke-linecap="round" stroke-linejoin="round" stroke-width="1.5" viewBox="0 0 8 8"><path d="M.082 0h7.68v7.68H.082z"/><clipPath id="a"><path d="M.082 0h7.68v7.68H.082z"/></clipPath><g clip-path="url(#a)"><path d="M7.762 1.472v4.736c0 .742-.602 1.344-1.344 1.344H1.426A1.345 1.345 0 0 1 .082 6.208V1.472C.082.73.685.128 1.426.128h4.992c.742 0 1.344.602 1.344 1.344" style="fill:#001e36"/><path d="M4.402 3.072h.544a.06.06 0 0 1 .059.043.7.7 0 0 1 .069.277.93.93 0 0 1 .795-.384h.006c.017 0 .032.014.032.032l-.001.005v.565q0 .043-.042.037c-.308-.017-.553.023-.73.2a.17.17 0 0 0-.06.121v1.627q0 .037-.042.037h-.55q-.048 0-.048-.043V3.776c0-.429-.032-.491-.064-.667q-.005-.037.032-.037m-.431 2.56H1.987q-.049 0-.049-.054V2.214c0-.021.017-.038.038-.038h.57q.032 0 .032.038V5.12h1.496q.049 0 .038.044l-.087.424a.05.05 0 0 1-.054.044" style="fill:#31a8ff"/></g></svg>