<svg fill="none" stroke="currentColor" stroke-linecap="round" stroke-linejoin="round" stroke-width="1.5" viewBox="0 0 8 8"><path d="M.147.096h7.68v7.68H.147z"/><clipPath id="a"><path d="M.147.096h7.68v7.68H.147z"/></clipPath><g clip-path="url(#a)"><path d="M2.759 1.3c.313 0 .626.003.94-.002.207.801.404 1.605.606 2.407.21-.803.418-1.607.638-2.407q.449.005.898.001c.006.999.003 1.999.001 2.999-.235-.004-.47-.001-.706-.002-.002-.645.001-1.288-.001-1.932-.164.644-.327 1.29-.502 1.932-.235-.003-.472.007-.707-.007-.169-.669-.348-1.336-.526-2.003.008.669.004 1.339.004 2.008q-.324.005-.647 0c.004-.998.001-1.996.002-2.994m.427 4.721.379.002q.172.568.341 1.136-.146 0-.293-.004l-.064-.242a8 8 0 0 0-.342.001l-.061.245H2.86c.111-.379.217-.759.326-1.138m.188.213a7 7 0 0 0-.11.464h.225a9 9 0 0 0-.115-.464m.422-.211h.302c.07.158.135.318.208.475q.103-.237.203-.474.148-.002.298-.002c-.11.187-.204.383-.306.574-.107.168-.041.375-.059.562h-.285c-.005-.153.014-.309-.01-.461-.11-.228-.232-.45-.351-.674m1.227 0 .381-.002c.114.379.224.759.343 1.137q-.15.004-.298-.006a3 3 0 0 0-.065-.239 4 4 0 0 0-.34.005q-.029.12-.061.242l-.285-.002q.166-.567.325-1.135m.191.191c-.041.159-.075.321-.117.48l.233.006c-.044-.161-.077-.324-.116-.486"/><path d="M.371.801C.757.562 1.146.33 1.535.097c.007 1.8-.003 3.599.005 5.399-.181.098-.354.211-.532.317-.213.126-.423.258-.637.382z" style="fill:#7fc5de"/><path d="M2.759 1.3c-.001.998.002 1.996-.002 2.994q.324.005.647 0c0-.669.004-1.339-.004-2.008.178.667.357 1.334.526 2.003.235.014.472.004.707.007.175-.642.338-1.288.502-1.932.002.644-.001 1.287.001 1.932.236.001.471-.002.706.002.002-1 .005-2-.001-2.999q-.449.004-.898-.001c-.22.8-.428 1.604-.638 2.407-.202-.802-.399-1.606-.606-2.407-.314.005-.627.002-.94.002M1.535.097Q4.109.095 6.682.096c.193-.005.38.158.385.355.009.28-.001.561.003.841q.007 2.098.001 4.198c-1.843.009-3.687-.005-5.531.006-.008-1.8.002-3.599-.005-5.399" style="fill:#39a5cc"/><path d="M5.023 6.023q-.16.568-.325 1.135l.285.002q.032-.122.061-.242.17-.01.34-.005.037.118.065.239.148.01.298.006c-.119-.378-.229-.758-.343-1.137zm-1.227 0c.119.224.241.446.351.674.024.152.005.308.01.461h.285c.018-.187-.048-.394.059-.562.102-.191.196-.387.306-.574q-.15 0-.298.002-.1.237-.203.474c-.073-.157-.138-.317-.208-.475zm-.61-.002L2.86 7.159h.286l.061-.245q.171-.004.342-.001l.064.242q.146.004.293.005-.169-.57-.341-1.137zM7.07 1.292l.533.001v6.483c-2.073-.005-4.146.001-6.219-.003-.21-.003-.399-.197-.376-.41v-1.55c.178-.106.351-.219.532-.317 1.844-.011 3.688.003 5.531-.006q.006-2.1-.001-4.198" style="fill:#36687f"/><path d="M3.374 6.234q.063.23.115.464h-.225a7 7 0 0 1 .11-.464m1.84-.02c.039.162.072.325.116.486l-.233-.006c.042-.159.076-.321.117-.48" style="fill:#36687f"/></g></svg>