<svg fill="none" stroke="currentColor" stroke-linecap="round" stroke-linejoin="round" stroke-width="1.5" viewBox="0 0 24 24"><g fill="currentColor"><path stroke-linecap="square" stroke-miterlimit="10" d="M18 12h1" data-color="color-2"/><path stroke-linecap="square" stroke-miterlimit="10" d="M5 8h1m4 0h1"/><path stroke-linecap="square" stroke-miterlimit="10" d="M11.5 21.356A7 7 0 0 0 23 16V6.221a21.2 21.2 0 0 0-5-1.116" data-color="color-2"/><path stroke-linecap="square" stroke-miterlimit="10" d="M1 12V2.221a20.68 20.68 0 0 1 14 0V12a7 7 0 0 1-14 0Z"/><path d="M11 13a3 3 0 0 1-6 0Z" data-stroke="none"/><path stroke-linecap="square" stroke-miterlimit="10" d="M18.121 18.879A3 3 0 0 0 16 18" data-color="color-2"/></g></svg>