<svg fill="none" stroke="currentColor" stroke-linecap="round" stroke-linejoin="round" stroke-width="1.5" viewBox="0 0 8 8"><path d="M.083.083h7.68v7.68H.083z"/><clipPath id="a"><path d="M.083.083h7.68v7.68H.083z"/></clipPath><g clip-path="url(#a)"><path d="M3.969 1.249c.245-.031.498-.015.731.068a.86.86 0 0 1 .443.334c.064.1.095.22.094.339-.002.108.011.223-.038.324-.09.194-.288.315-.49.367a.9.9 0 0 1 .491.253.55.55 0 0 1 .151.384c-.002.137.014.278-.03.411a.8.8 0 0 1-.37.443c-.237.143-.52.193-.794.185a1.4 1.4 0 0 1-.667-.161.86.86 0 0 1-.376-.411 1 1 0 0 1-.08-.306h.7c.012.1.059.199.141.261a.54.54 0 0 0 .376.085c.115-.01.236-.059.3-.161.06-.091.061-.205.058-.31a.33.33 0 0 0-.106-.264.57.57 0 0 0-.334-.119c-.109-.007-.218-.002-.327-.004v-.499c.14-.005.284.013.421-.023.088-.023.176-.075.213-.161.035-.074.026-.157.027-.236a.28.28 0 0 0-.075-.202c-.073-.073-.183-.093-.283-.09a.37.37 0 0 0-.273.102.4.4 0 0 0-.103.241q-.35.002-.7.001a.83.83 0 0 1 .259-.563c.173-.166.406-.256.641-.288M2.564 6.017h.356l.228.909.241-.909.343.001v1.131h-.268v-.54c-.001-.061.002-.122-.005-.183-.056.242-.124.482-.185.723h-.267l-.198-.755c-.004.251-.001.503-.002.755h-.243zm1.313 1.132.324-1.132c.125.003.252-.004.377.003q.172.565.34 1.129H4.63l-.069-.247-.339-.001-.063.248zm.512-.945-.115.487h.232q-.06-.243-.117-.487m.647-.186.308-.001.19.36c.071-.118.132-.24.198-.36h.3l-.322.51.357.622h-.319l-.204-.4-.016-.023-.219.423h-.311l.358-.598z"/><path d="m.319.795 1.16-.699.001 5.39-.532.321c-.213.127-.423.258-.637.382L.312.908C.314.87.303.83.319.795" style="fill:#7fc5de"/><path d="M3.969 1.249a1.14 1.14 0 0 0-.641.288.83.83 0 0 0-.259.563q.35.001.7-.001a.4.4 0 0 1 .103-.241.37.37 0 0 1 .273-.102c.1-.003.21.017.283.09a.28.28 0 0 1 .075.202c-.001.079.008.162-.027.236-.037.086-.125.138-.213.161-.137.036-.281.018-.421.023v.499c.109.002.218-.003.327.004.118.01.242.039.334.119.075.065.11.167.106.264.003.105.002.219-.058.31-.064.102-.185.151-.3.161a.54.54 0 0 1-.376-.085.38.38 0 0 1-.141-.261h-.7q.017.159.08.306c.075.174.21.32.376.411.202.115.437.155.667.161.274.008.557-.042.794-.185a.8.8 0 0 0 .37-.443c.044-.133.028-.274.03-.411a.55.55 0 0 0-.151-.384.9.9 0 0 0-.491-.253c.202-.052.4-.173.49-.367.049-.101.036-.216.038-.324a.6.6 0 0 0-.094-.339.86.86 0 0 0-.443-.334 1.6 1.6 0 0 0-.731-.068M1.479.096h5.134a.387.387 0 0 1 .392.388l.001.81q.002 2.096 0 4.191c-1.842.003-3.684 0-5.526.001z" style="fill:#39a5cc"/><path d="m5.036 6.018.32.533-.358.598h.311q.11-.21.219-.423l.016.023.204.4h.319l-.357-.622.322-.51h-.3c-.066.12-.127.242-.198.36l-.19-.36zM3.877 7.149h.282l.063-.248.339.001.069.247h.288q-.168-.565-.34-1.129c-.125-.007-.252 0-.377-.003zM2.564 6.017v1.132h.243c.001-.252-.002-.504.002-.755l.198.755h.267c.061-.241.129-.481.185-.723.007.061.004.122.005.183v.54h.268V6.018l-.343-.001-.241.909-.228-.909zm4.442-4.723h.53v6.469H1.394a.5.5 0 0 1-.213-.033.39.39 0 0 1-.233-.356V5.807l.532-.321c1.842-.001 3.684.002 5.526-.001q.002-2.096 0-4.191" style="fill:#36687f"/><path d="m4.389 6.204.117.487h-.232z" style="fill:#36687f"/></g></svg>