<svg fill="none" stroke="currentColor" stroke-linecap="round" stroke-linejoin="round" stroke-width="1.5" viewBox="0 0 24 24"><path d="m19.17 8.929 2.99 2.99-2.99 2.99"/><path d="M12.432 3v2.799c0 6.559 8.128-.273 8.128 9.423" transform="matrix(0 -.8873 -1.1574 0 23.457 22.95)"/><path d="M12.432 3v2.799c0 6.559 8.128-.273 8.128 9.423" transform="matrix(0 .8873 -1.1574 0 23.457 .888)"/><path d="M12 3v12.852" transform="matrix(0 1.07321 -1.1574 0 24.186 -.96)"/><path d="M5.839 11.919c0 1.097-.903 2-2 2s-2-.903-2-2 .903-2 2-2 2 .903 2 2m0 7.211c0 1.097-.903 2-2 2s-2-.903-2-2 .903-2 2-2 2 .903 2 2m0-14.26c0 1.097-.903 2-2 2s-2-.903-2-2 .903-2 2-2 2 .903 2 2"/></svg>