<?xml version="1.0" encoding="UTF-8" standalone="no"?>
<!DOCTYPE svg PUBLIC "-//W3C//DTD SVG 1.1//EN" "http://www.w3.org/Graphics/SVG/1.1/DTD/svg11.dtd">
<svg width="100%" height="100%" viewBox="0 0 24 24" version="1.1" xmlns="http://www.w3.org/2000/svg" xmlns:xlink="http://www.w3.org/1999/xlink" xml:space="preserve" xmlns:serif="http://www.serif.com/" style="fill-rule:evenodd;clip-rule:evenodd;stroke-linecap:round;stroke-linejoin:round;">
    <g transform="matrix(1,0,0,1,-0.429058,-0.020179)">
        <g transform="matrix(0,0.747451,-0.747451,0,24.832473,2.969329)">
            <path d="M8,7L12,3L16,7" style="fill:none;fill-rule:nonzero;stroke:white;stroke-width:2.01px;"/>
        </g>
        <g transform="matrix(-0,1.073211,-1.157408,0,24.615252,-1.240062)">
            <g transform="matrix(-0.826779,0,-0,1,22.558303,0.630179)">
                <path d="M12.432,3L12.432,5.799C12.432,12.358 20.56,5.526 20.56,15.222" style="fill:none;fill-rule:nonzero;stroke:white;stroke-width:1.4px;"/>
            </g>
            <g transform="matrix(0.826779,0,0,1,2.001273,0.630179)">
                <path d="M12.432,3L12.432,5.799C12.432,12.358 20.56,5.526 20.56,15.222" style="fill:none;fill-rule:nonzero;stroke:white;stroke-width:1.4px;"/>
            </g>
            <g transform="matrix(1,0,0,1,0.279788,0)">
                <path d="M12,3L12,15.852" style="fill:none;fill-rule:nonzero;stroke:white;stroke-width:1.4px;"/>
            </g>
        </g>
        <g transform="matrix(-1,0,0,1,33.677317,-3.235719)">
            <g transform="matrix(1,0,0,1,11.409321,-2.82554)">
                <path d="M16,18C16,19.097 16.903,20 18,20C19.097,20 20,19.097 20,18C20,16.903 19.097,16 18,16C16.903,16 16,16.903 16,18" style="fill:none;fill-rule:nonzero;stroke:white;stroke-width:1.5px;"/>
            </g>
            <g transform="matrix(1,0,0,1,11.409321,4.386058)">
                <path d="M16,18C16,19.097 16.903,20 18,20C19.097,20 20,19.097 20,18C20,16.903 19.097,16 18,16C16.903,16 16,16.903 16,18" style="fill:none;fill-rule:nonzero;stroke:white;stroke-width:1.5px;"/>
            </g>
            <g transform="matrix(1,0,0,1,11.409321,-9.874262)">
                <path d="M16,18C16,19.097 16.903,20 18,20C19.097,20 20,19.097 20,18C20,16.903 19.097,16 18,16C16.903,16 16,16.903 16,18" style="fill:none;fill-rule:nonzero;stroke:white;stroke-width:1.5px;"/>
            </g>
        </g>
    </g>
</svg>
