<svg fill="none" stroke="currentColor" stroke-linecap="round" stroke-linejoin="round" stroke-width="1.5" viewBox="0 0 33 32"><path d="M3 100.754C3 46.26 47.243 2 101.754 2h197.492C353.756 2 398 46.243 398 100.754v197.492c0 54.51-44.244 98.754-98.754 98.754H101.754C47.243 397 3 352.756 3 298.246z" style="fill:rgb(255,221,51)" transform="translate(.257 -.162)scale(.08101)"/><path d="M265.573 77.349H229.74l29.889 52.501-65.723-52.501h-35.834l32.862 64.119-68.696-64.119H86.404l35.834 81.682-35.834 163.346h35.834l68.696-174.981-32.862 174.981h35.834l65.723-186.684-29.889 186.684h35.833l65.724-204.145-65.724-40.799z" style="fill:rgb(28,28,30)" transform="translate(.257 -.162)scale(.08101)"/></svg>