<svg width="24" height="24" xmlns="http://www.w3.org/2000/svg" clip-rule="evenodd" viewBox="0 0 24 24"><title>monitor plus</title><g stroke-linejoin="round" class="nc-icon-wrapper" fill="#ffffff" stroke-linecap="round" fill-rule="evenodd"><g transform="translate(-26 -259.5)"><path d="M21,5.25L21,15C21,16.234 19.984,17.25 18.75,17.25L5.25,17.25C4.016,17.25 3,16.234 3,15L3,5.25M21,5.25C21,4.016 19.984,3 18.75,3L5.25,3C4.016,3 3,4.016 3,5.25M21,5.25L21,12C21,13.234 19.984,14.25 18.75,14.25L5.25,14.25C4.016,14.25 3,13.234 3,12L3,5.25" fill="none" fill-rule="nonzero" stroke="#ffffff" stroke-width="1.5" transform="translate(26 259.5)"></path><path d="M10.82,17.25L10.82,18.257C10.82,20.255 7.5,21 7.5,21L16.5,21C16.5,21 13.18,20.288 13.18,18.257L13.18,17.25M21,5.25L21,15C21,16.234 19.984,17.25 18.75,17.25L17.267,17.25M21,5.25C21,4.016 19.984,3 18.75,3L5.25,3C4.806,3 4.39,3.132 4.039,3.358M21,5.25L21,12C21,13.234 19.984,14.25 18.75,14.25L14.645,14.25" fill="none" fill-rule="nonzero" stroke="#ffffff" stroke-width="1.5" transform="translate(26 259.5)"></path><path d="M12,9L12,15M15,12L9,12" fill="none" fill-rule="nonzero" stroke="#ffffff" stroke-width="1.5" transform="translate(26 256.135)"></path></g></g></svg>