<?xml version="1.0" encoding="UTF-8" standalone="no"?>
<!DOCTYPE svg PUBLIC "-//W3C//DTD SVG 1.1//EN" "http://www.w3.org/Graphics/SVG/1.1/DTD/svg11.dtd">
<svg width="100%" height="100%" viewBox="0 0 25 24" version="1.1" xmlns="http://www.w3.org/2000/svg" xmlns:xlink="http://www.w3.org/1999/xlink" xml:space="preserve" xmlns:serif="http://www.serif.com/" style="fill-rule:evenodd;clip-rule:evenodd;stroke-linejoin:round;stroke-miterlimit:2;">
    <g transform="matrix(1,0,0,1,72,-156)">
        <g transform="matrix(1,0,0,1,-149.262,0)">
            <g id="new_checkpoint_white" transform="matrix(1,0,0,1,78,104)">
                <rect x="0" y="52" width="24" height="24" style="fill:none;"/>
                <clipPath id="_clip1">
                    <rect x="0" y="52" width="24" height="24"/>
                </clipPath>
                <g clip-path="url(#_clip1)">
                    <path d="M12,70.43C11.679,70.43 11.358,70.549 11.108,70.787L5.895,75.739C5.348,76.258 4.443,75.961 4.31,75.219C4.31,75.219 3.479,63.093 4.069,54.939C4.163,53.631 5.357,52.661 6.649,52.445C8.417,52.148 10.208,52 12,52C13.792,52 15.583,52.148 17.351,52.445C18.643,52.661 19.837,53.631 19.931,54.939C20.521,63.093 19.69,75.219 19.69,75.219C19.557,75.961 18.652,76.258 18.105,75.739L12.892,70.787C12.642,70.549 12.321,70.43 12,70.43ZM13.319,57.234C13.319,56.526 12.745,55.951 12.037,55.951C11.329,55.951 10.754,56.526 10.754,57.234L10.754,60.226L7.762,60.226C7.054,60.226 6.479,60.801 6.479,61.509C6.479,62.217 7.054,62.791 7.762,62.791L10.754,62.791L10.754,65.784C10.754,66.492 11.329,67.066 12.037,67.066C12.745,67.066 13.319,66.492 13.319,65.784L13.319,62.791L16.312,62.791C17.02,62.791 17.594,62.217 17.594,61.509C17.594,60.801 17.02,60.226 16.312,60.226L13.319,60.226L13.319,57.234Z" style="fill:white;"/>
                </g>
            </g>
        </g>
    </g>
</svg>
