<svg fill="none" stroke="currentColor" stroke-linecap="round" stroke-linejoin="round" stroke-width="1.5" viewBox="0 0 33 32"><g transform="translate(-638.862)"><path d="M639.469 0h32v32h-32z"/><clipPath id="a"><path d="M639.469 0h32v32h-32z"/></clipPath><g clip-path="url(#a)"><path d="M642.08 1.38 659.785.072c2.175-.186 2.734-.06 4.101.934l5.653 3.982c.932.684 1.242.87 1.242 1.616v21.838c0 1.369-.497 2.178-2.237 2.302l-20.562 1.245c-1.305.062-1.927-.124-2.61-.996l-4.163-5.412c-.747-.996-1.056-1.742-1.056-2.614V3.557c0-1.12.497-2.053 1.925-2.177"/><path d="M659.786.072 642.08 1.38c-1.428.124-1.925 1.057-1.925 2.176v19.412c0 .871.31 1.617 1.056 2.613l4.162 5.412c.684.872 1.306 1.059 2.612.997l20.562-1.245c1.739-.124 2.237-.934 2.237-2.302V6.605c0-.708-.28-.911-1.102-1.515l-5.793-4.084c-1.368-.995-1.927-1.12-4.102-.934M648.45 6.247c-1.68.113-2.06.139-3.014-.637l-2.424-1.928c-.247-.25-.123-.56.498-.623l17.022-1.244c1.43-.125 2.174.374 2.733.809l2.92 2.115c.124.063.434.435.061.435l-17.579 1.059zm-1.958 22.01V9.716c0-.81.249-1.183.993-1.245l20.19-1.182c.685-.062.995.373.995 1.181v18.416c0 .81-.125 1.494-1.243 1.556l-19.32 1.12c-1.119.062-1.615-.31-1.615-1.307m19.072-17.546c.124.56 0 1.12-.56 1.184l-.93.185v13.688c-.81.435-1.554.683-2.176.683-.994 0-1.242-.31-1.987-1.243l-6.09-9.581v9.27l1.927.435s0 1.12-1.555 1.12l-4.285.25c-.124-.25 0-.872.435-.996l1.119-.31V13.138l-1.553-.126c-.125-.56.185-1.368 1.056-1.43l4.597-.31 6.336 9.704v-8.585l-1.615-.186c-.124-.686.373-1.184.993-1.245z"/></g></g></svg>