<?xml version="1.0" encoding="UTF-8" standalone="no"?>
<!DOCTYPE svg PUBLIC "-//W3C//DTD SVG 1.1//EN" "http://www.w3.org/Graphics/SVG/1.1/DTD/svg11.dtd">
<svg width="100%" height="100%" viewBox="0 0 25 24" version="1.1" xmlns="http://www.w3.org/2000/svg" xmlns:xlink="http://www.w3.org/1999/xlink" xml:space="preserve" xmlns:serif="http://www.serif.com/" style="fill-rule:evenodd;clip-rule:evenodd;stroke-linejoin:round;stroke-miterlimit:2;">
    <g transform="matrix(1,0,0,1,46,-182)">
        <g transform="matrix(1,0,0,1,-149.262,0)">
            <g id="open_workspace" transform="matrix(1,0,0,1,104,130)">
                <rect x="0" y="52" width="24" height="24" style="fill:none;"/>
                <g transform="matrix(1.12277,0,0,1.12277,-2.53289,50.0685)">
                    <path d="M21.488,10.25C21.464,10.069 21.437,9.888 21.408,9.707L21.344,9.306C21.119,7.895 19.901,6.856 18.472,6.856L10.355,6.856C10.054,5.785 9.07,5 7.903,5L5.612,5C4.129,5 2.88,6.108 2.703,7.58L2.431,9.849C2.138,12.286 2.213,14.754 2.655,17.168C2.891,18.46 3.971,19.428 5.281,19.522L6.795,19.63C10.261,19.878 13.74,19.878 17.205,19.63L18.843,19.513C19.652,19.455 20.368,19.044 20.829,18.426C21.442,17.837 21.925,17.118 22.238,16.315L23.487,13.102C24.021,11.73 23.009,10.25 21.536,10.25L21.488,10.25ZM5.612,6.5C4.888,6.5 4.279,7.041 4.192,7.759L3.92,10.028C3.645,12.316 3.716,14.632 4.13,16.898C4.243,17.517 4.761,17.981 5.388,18.026L5.474,18.032L7.806,12.007C8.216,10.948 9.235,10.25 10.37,10.25L19.973,10.25C19.959,10.148 19.943,10.046 19.927,9.944L19.863,9.542C19.754,8.859 19.164,8.356 18.472,8.356L9.759,8.356C9.312,8.356 8.95,7.994 8.95,7.547C8.95,6.969 8.481,6.5 7.903,6.5L5.612,6.5Z" style="fill:white;"/>
                </g>
            </g>
        </g>
    </g>
</svg>
