<?xml version="1.0" encoding="UTF-8" standalone="no"?>
<!DOCTYPE svg PUBLIC "-//W3C//DTD SVG 1.1//EN" "http://www.w3.org/Graphics/SVG/1.1/DTD/svg11.dtd">
<svg width="100%" height="100%" viewBox="0 0 25 24" version="1.1" xmlns="http://www.w3.org/2000/svg" xmlns:xlink="http://www.w3.org/1999/xlink" xml:space="preserve" xmlns:serif="http://www.serif.com/" style="fill-rule:evenodd;clip-rule:evenodd;stroke-linejoin:round;stroke-miterlimit:2;">
    <g transform="matrix(1,0,0,1,-78,0)">
        <g id="overflow" transform="matrix(1,0,0,1,78.0393,0)">
            <rect x="0" y="0" width="24" height="24" style="fill:none;"/>
            <g transform="matrix(1.54839,0,0,1.54839,-6.58065,-6.58065)">
                <path d="M19.75,12C19.75,12.414 19.414,12.75 19,12.75L5,12.75C4.586,12.75 4.25,12.414 4.25,12C4.25,11.586 4.586,11.25 5,11.25L19,11.25C19.414,11.25 19.75,11.586 19.75,12ZM19.75,7C19.75,7.414 19.414,7.75 19,7.75L5,7.75C4.586,7.75 4.25,7.414 4.25,7C4.25,6.586 4.586,6.25 5,6.25L19,6.25C19.414,6.25 19.75,6.586 19.75,7ZM19.75,17C19.75,17.414 19.414,17.75 19,17.75L5,17.75C4.586,17.75 4.25,17.414 4.25,17C4.25,16.586 4.586,16.25 5,16.25L19,16.25C19.414,16.25 19.75,16.586 19.75,17Z" style="fill:white;"/>
            </g>
        </g>
    </g>
</svg>
