<svg fill="none" stroke="currentColor" stroke-linecap="round" stroke-linejoin="round" stroke-width="1.5" viewBox="0 0 24 24"><path d="M15.75 6A3.77 3.77 0 0 1 12 9.75 3.77 3.77 0 0 1 8.25 6 3.77 3.77 0 0 1 12 2.25 3.77 3.77 0 0 1 15.75 6m-1.631 16.831c-.633.12-1.332.187-2.119.186-3.244-.004-5.533-1.466-7.499-2.899C4.567 16.05 7.932 12.74 12 12.74q.891.002 1.727.203"/><path d="m23.07 22.975-2.697-2.698m0 0a3.9 3.9 0 0 0 1.14-2.753 3.91 3.91 0 0 0-3.893-3.893 3.895 3.895 0 0 0-3.893 3.893 3.91 3.91 0 0 0 3.893 3.893 3.9 3.9 0 0 0 2.753-1.14"/></svg>