<?xml version="1.0" encoding="UTF-8" standalone="no"?>
<!DOCTYPE svg PUBLIC "-//W3C//DTD SVG 1.1//EN" "http://www.w3.org/Graphics/SVG/1.1/DTD/svg11.dtd">
<svg width="100%" height="100%" viewBox="0 0 24 24" version="1.1" xmlns="http://www.w3.org/2000/svg" xmlns:xlink="http://www.w3.org/1999/xlink" xml:space="preserve" xmlns:serif="http://www.serif.com/" style="fill-rule:evenodd;clip-rule:evenodd;stroke-linecap:round;stroke-linejoin:round;">
    <g>
        <path d="M15.75,6C15.75,8.057 14.057,9.75 12,9.75C9.943,9.75 8.25,8.057 8.25,6C8.25,3.943 9.943,2.25 12,2.25C14.057,2.25 15.75,3.943 15.75,6ZM14.119,22.831C13.486,22.951 12.787,23.018 12,23.017C8.756,23.013 6.467,21.551 4.501,20.118C4.567,16.05 7.932,12.74 12,12.74C12.593,12.74 13.171,12.81 13.727,12.943" style="fill:none;fill-rule:nonzero;stroke:white;stroke-width:1.5px;"/>
        <g transform="matrix(0.519084,0,0,0.519084,12.169684,12.074077)">
            <path d="M21,21L15.803,15.803M15.803,15.803C17.209,14.397 18,12.488 18,10.499C18,6.385 14.614,2.999 10.5,2.999C8.511,2.999 6.602,3.79 5.196,5.196C3.79,6.602 2.999,8.511 2.999,10.499C2.999,14.614 6.385,18 10.5,18C12.488,18 14.397,17.209 15.803,15.803Z" style="fill:none;fill-rule:nonzero;stroke:white;stroke-width:2.89px;"/>
        </g>
    </g>
</svg>
