<svg fill="none" stroke="currentColor" stroke-linecap="round" stroke-linejoin="round" stroke-width="1.5" viewBox="0 0 8 8"><path d="M.108.006h7.68v7.68H.108z"/><clipPath id="a"><path d="M.108.006h7.68v7.68H.108z"/></clipPath><g clip-path="url(#a)"><path d="M7.788 1.478v4.736c0 .742-.602 1.344-1.344 1.344H1.452A1.344 1.344 0 0 1 .108 6.214V1.478C.108.737.71.134 1.452.134h4.992c.742 0 1.344.603 1.344 1.344" style="fill:#00005b"/><path d="M1.772 5.603V2.114c0-.017.014-.032.032-.032l.004.001c.259-.007.565-.029.965-.029.471 0 .816.099 1.037.31.216.202.336.488.33.784q0 .578-.41.86-.41.28-1.03.281l-.288.005v1.309a.036.036 0 0 1-.036.036l-.005-.001h-.558q-.04 0-.041-.035m.64-3.049v1.26s.146-.005.32-.005q.344 0 .555-.151.213-.151.213-.495 0-.302-.187-.466-.187-.163-.54-.163-.087 0-.172.003-.084.004-.138.003c-.036 0-.055-.002-.051.014m2.208.524h.544a.06.06 0 0 1 .058.043.7.7 0 0 1 .07.277.93.93 0 0 1 .795-.384h.005c.018 0 .032.014.032.032v.571q0 .042-.043.037c-.308-.018-.552.023-.729.199a.17.17 0 0 0-.06.121v1.627q0 .037-.043.037H4.7q-.048 0-.048-.042V3.782c0-.429-.032-.49-.064-.666q-.006-.038.032-.038" style="fill:#99f"/></g></svg>