<svg fill="none" stroke="currentColor" stroke-linecap="round" stroke-linejoin="round" stroke-width="1.5" viewBox="0 0 8 8"><path d="M.116.006h7.68v7.68H.116z"/><clipPath id="a"><path d="M.116.006h7.68v7.68H.116z"/></clipPath><g clip-path="url(#a)"><path d="M7.79 1.478v4.736c0 .742-.602 1.344-1.344 1.344H1.454A1.344 1.344 0 0 1 .11 6.214V1.478C.11.737.712.134 1.454.134h4.992c.742 0 1.344.603 1.344 1.344" style="fill:#001e36"/><path d="M1.71 5.602V2.114c0-.017.014-.032.032-.032h.004c.259-.006.565-.028.965-.028.471 0 .816.098 1.037.31.216.202.336.487.33.783q0 .579-.41.861-.41.28-1.03.281l-.288.005v1.308c0 .02-.016.037-.036.037l-.005-.001h-.558q-.04 0-.041-.036m.64-3.048v1.26s.146-.006.32-.006q.344 0 .555-.151.213-.15.213-.494 0-.303-.187-.466t-.54-.163q-.087 0-.172.003l-.138.002c-.036 0-.055-.001-.051.015m3.84 2.252c0 .392-.256.576-.256.576V5.38q-.023.022-.048.043-.265.216-.715.215-.45 0-.736-.166a.05.05 0 0 1-.032-.052v-.482a.03.03 0 0 1 .013-.028q.012-.008.023.002c.203.16.453.247.712.249q.178 0 .273-.064a.2.2 0 0 0 .096-.169.25.25 0 0 0-.076-.184 1 1 0 0 0-.302-.163q-.41-.16-.571-.345a.65.65 0 0 1-.173-.454.73.73 0 0 1 .251-.55q.24-.218.686-.218.415 0 .64.114.025.015.025.067v.43q0 .062-.046.032a1.1 1.1 0 0 0-.599-.181q-.179 0-.263.068a.2.2 0 0 0-.085.16.22.22 0 0 0 .072.163q.071.07.302.163.402.158.576.33l.003.003c.119.11.23.261.23.443" style="fill:#31a8ff"/></g></svg>