<?xml version="1.0" encoding="UTF-8" standalone="no"?>
<!DOCTYPE svg PUBLIC "-//W3C//DTD SVG 1.1//EN" "http://www.w3.org/Graphics/SVG/1.1/DTD/svg11.dtd">
<svg width="100%" height="100%" viewBox="0 0 25 24" version="1.1" xmlns="http://www.w3.org/2000/svg" xmlns:xlink="http://www.w3.org/1999/xlink" xml:space="preserve" xmlns:serif="http://www.serif.com/" style="fill-rule:evenodd;clip-rule:evenodd;stroke-linejoin:round;stroke-miterlimit:2;">
    <g transform="matrix(1,0,0,1,150,-182)">
        <g transform="matrix(1,0,0,1,-149.262,0)">
            <g id="purge" transform="matrix(1,0,0,1,0,130)">
                <rect x="0" y="52" width="24" height="24" style="fill:none;"/>
                <clipPath id="_clip1">
                    <rect x="0" y="52" width="24" height="24"/>
                </clipPath>
                <g clip-path="url(#_clip1)">
                    <g transform="matrix(0.533586,0,0,0.533586,-1.32078,51.0156)">
                        <path d="M16.41,4.413C18.351,7.862 20.778,12.359 22.89,16.827C23.259,17.607 22.876,18.448 22.273,18.874C21.12,19.688 20.368,21.006 20.245,22.422C20.181,23.161 19.641,23.915 18.779,23.984C13.891,24.372 8.822,24.501 4.894,24.53C3.573,24.539 2.432,23.497 2.477,22.126C2.723,14.588 6.758,7.516 13.109,3.52C14.277,2.785 15.759,3.257 16.41,4.413ZM36.82,3.52C43.172,7.516 47.207,14.588 47.453,22.126C47.498,23.497 46.356,24.539 45.036,24.53C41.107,24.501 36.038,24.372 31.15,23.984C30.289,23.915 29.748,23.161 29.684,22.422C29.562,21.006 28.809,19.688 27.656,18.874C27.054,18.448 26.671,17.607 27.039,16.827C29.151,12.359 31.578,7.862 33.519,4.413C34.17,3.257 35.652,2.785 36.82,3.52ZM29.076,27.631C31.86,31.716 34.51,36.091 36.5,39.51C37.159,40.643 36.833,42.14 35.637,42.791C32.461,44.519 28.826,45.5 24.965,45.5C21.104,45.5 17.469,44.519 14.293,42.791C13.096,42.14 12.77,40.643 13.429,39.51C15.419,36.091 18.069,31.716 20.853,27.631C21.345,26.91 22.278,26.821 22.953,27.141C23.563,27.43 24.244,27.592 24.965,27.592C25.685,27.592 26.366,27.43 26.977,27.141C27.652,26.821 28.585,26.91 29.076,27.631Z" style="fill:white;"/>
                    </g>
                </g>
            </g>
        </g>
    </g>
</svg>
