<svg width="24" height="24" xmlns="http://www.w3.org/2000/svg" clip-rule="evenodd" viewBox="0 0 24 24"><title>recycle</title><g stroke-linejoin="round" class="nc-icon-wrapper" fill="#ffffff" stroke-linecap="round" fill-rule="evenodd"><path d="M10,19L19,19C19.319,18.984 19.629,18.891 19.904,18.731C20.18,18.57 20.413,18.346 20.584,18.076C20.756,17.807 20.86,17.501 20.889,17.183C20.918,16.866 20.87,16.546 20.75,16.25L20.2,15.25M12,17L10,19L12,21L12,17Z" fill="none" fill-rule="nonzero" stroke="#ffffff" stroke-width="1.5" transform="translate(.009 -.013)"></path><path d="M7.804,8.268L3.304,16.062C3.159,16.346 3.084,16.661 3.085,16.98C3.086,17.299 3.164,17.613 3.311,17.896C3.459,18.179 3.672,18.423 3.933,18.606C4.193,18.79 4.494,18.909 4.81,18.953L5.951,18.976M8.536,11L7.804,8.268L5.072,9L8.536,11Z" fill="none" fill-rule="nonzero" stroke="#ffffff" stroke-width="1.5" transform="translate(.009 -.013)"></path><path d="M18.196,11.732L13.696,3.938C13.523,3.67 13.288,3.448 13.011,3.289C12.734,3.131 12.423,3.041 12.104,3.028C11.785,3.014 11.468,3.076 11.179,3.21C10.889,3.344 10.636,3.546 10.44,3.797L9.849,4.774M15.464,11L18.196,11.732L18.928,9L15.464,11Z" fill="none" fill-rule="nonzero" stroke="#ffffff" stroke-width="1.5" transform="translate(.009 -.013)"></path></g></svg>