<svg fill="none" stroke="currentColor" stroke-linecap="round" stroke-linejoin="round" stroke-width="1.5" viewBox="0 0 8 8"><path d="M.2.092h7.68v7.68H.2z"/><clipPath id="a"><path d="M.2.092h7.68v7.68H.2z"/></clipPath><g clip-path="url(#a)"><path d="M1.56.23h4.967A1.36 1.36 0 0 1 7.88 1.583v4.699a1.36 1.36 0 0 1-1.353 1.353H1.552A1.36 1.36 0 0 1 .2 6.282V1.583C.2.841.81.23 1.552.23z" style="fill:#1e3101"/><path d="M6.473 3.582c-.002.012-.018.018-.005.005zm0 0a.02.02 0 0 0-.005-.012v.001a.9.9 0 0 0-.31-.104 1.3 1.3 0 0 0-.363-.034.7.7 0 0 0-.189.017c-.035 0-.069.034-.104.069a.2.2 0 0 0-.017.086c0 .034.017.051.035.086a.77.77 0 0 0 .362.206q.236.077.448.207a.7.7 0 0 1 .241.258.7.7 0 0 1 .069.327.7.7 0 0 1-.121.413.73.73 0 0 1-.362.276 1.6 1.6 0 0 1-.568.103 4 4 0 0 1-.43-.034 1.1 1.1 0 0 1-.31-.104c-.018-.017-.035-.034-.035-.051v-.55c0-.018 0-.018.017-.035s.017 0 .035 0q.178.104.379.155.203.051.413.052c.103 0 .293-.035.293-.172a.15.15 0 0 0-.104-.138 2 2 0 0 0-.344-.155 1.6 1.6 0 0 1-.379-.208.69.69 0 0 1-.206-.964.9.9 0 0 1 .327-.293c.172-.082.36-.123.551-.12a1.6 1.6 0 0 1 .396.034q.133.022.258.069c.018 0 .018.017.035.035v.551c0 .015 0 .017-.012.029M1.646 5.397V2.159a.04.04 0 0 1 .035-.034h.981c.351-.017.7.054 1.016.206.255.123.466.321.604.568.135.255.206.539.206.827 0 .222-.035.443-.103.654a1.7 1.7 0 0 1-.276.483q-.183.2-.413.345a2.4 2.4 0 0 1-.483.206q-.256.06-.517.069H1.663a.4.4 0 0 0-.017-.086m.706-2.669v2.1h.31q.23.006.448-.068a1.1 1.1 0 0 0 .344-.207q.145-.15.224-.344.081-.227.086-.465a1.3 1.3 0 0 0-.069-.448 1 1 0 0 0-.224-.327 1 1 0 0 0-.344-.189 1.3 1.3 0 0 0-.448-.052z" style="fill:#99e83f"/></g></svg>