<svg fill="none" stroke="currentColor" stroke-linecap="round" stroke-linejoin="round" stroke-width="1.5" viewBox="0 0 8 8"><path d="M.125.092h7.68v7.68H.125z"/><clipPath id="a"><path d="M.125.092h7.68v7.68H.125z"/></clipPath><g clip-path="url(#a)"><path d="M1.485.23h4.967a1.36 1.36 0 0 1 1.353 1.353v4.699a1.36 1.36 0 0 1-1.353 1.353H1.477A1.36 1.36 0 0 1 .125 6.282V1.583C.125.841.735.23 1.478.23z" style="fill:#1e3101"/><path d="M2.552 5.465q-.26 0-.516-.051a2.5 2.5 0 0 1-.379-.121.1.1 0 0 1-.052-.086v-.604c0-.017 0-.017.017-.034h.035q.211.13.447.206.23.06.465.069a.7.7 0 0 0 .414-.086.3.3 0 0 0 .121-.224.5.5 0 0 0-.035-.155.5.5 0 0 0-.138-.138 2 2 0 0 0-.275-.137L2.397 4a2.2 2.2 0 0 1-.483-.275.8.8 0 0 1-.241-.327.9.9 0 0 1-.068-.378.9.9 0 0 1 .551-.844 1.8 1.8 0 0 1 .672-.137q.226-.01.447.034.18.029.345.104a.1.1 0 0 1 .034.069v.551c0 .017 0 .034-.017.034h-.034a1.3 1.3 0 0 0-.363-.121 1.7 1.7 0 0 0-.413-.051.6.6 0 0 0-.242.034.8.8 0 0 0-.172.069.3.3 0 0 0-.103.103.3.3 0 0 0-.035.121c-.001.051.017.1.052.138q.061.08.155.121c.103.051.189.103.293.155l.189.069a1.9 1.9 0 0 1 .517.292.8.8 0 0 1 .258.327q.072.184.069.379a.9.9 0 0 1-.155.517 1.1 1.1 0 0 1-.448.344 1.25 1.25 0 0 1-.654.138zm2.704-2.617c.209-.006.417.041.604.138a.74.74 0 0 1 .344.378c.073.163.114.339.121.517v1.343c0 .017 0 .017-.017.035-.155.051-.293.103-.414.137a2.4 2.4 0 0 1-.706.086 1.8 1.8 0 0 1-.517-.086.87.87 0 0 1-.379-.275.7.7 0 0 1-.137-.483.75.75 0 0 1 .155-.465.87.87 0 0 1 .413-.276c.189-.062.387-.091.585-.086h.31v-.035c0-.034-.017-.051-.017-.086-.017-.034-.034-.085-.069-.103a.4.4 0 0 0-.137-.086 1.3 1.3 0 0 0-.259-.034 3 3 0 0 0-.362.034 1.1 1.1 0 0 0-.31.104H4.43c-.017 0-.017-.018-.017-.035v-.516c0-.017.017-.051.034-.051q.184-.076.379-.121c.172-.017.31-.035.43-.035zm.379 2.032v-.534c-.035 0-.086-.018-.121-.018h-.138a.57.57 0 0 0-.379.086.3.3 0 0 0-.12.224.3.3 0 0 0 .034.138.26.26 0 0 0 .138.103c.081.037.17.049.258.035a.6.6 0 0 0 .172-.017.4.4 0 0 0 .155-.017z" style="fill:#99e83f"/></g></svg>