<svg xmlns="http://www.w3.org/2000/svg" width="24" height="24" viewBox="0 0 24 24"><title>scale</title><g fill="#ffffff" class="nc-icon-wrapper"><path fill="none" stroke="#ffffff" stroke-linecap="round" stroke-linejoin="round" stroke-width="1.5" d="M9.64 4.99h-4.95"></path><path fill="none" stroke="#ffffff" stroke-linecap="round" stroke-linejoin="round" stroke-width="1.5" d="M14.3 4.99h4.95"></path><path d="M1.03 12.3c-0.01 0.11-0.03 0.22-0.03 0.33a3.66 3.66 0 1 0 7.31 0c0-0.11-0.02-0.22-0.03-0.33h-7.25z" fill="none" stroke="#ffffff" stroke-linecap="round" stroke-linejoin="round" stroke-width="1.5"></path><path d="M22.91 12.3c0.01 0.11 0.03 0.22 0.03 0.33a3.66 3.66 0 1 1-7.31 0c0-0.11 0.02-0.22 0.03-0.33h7.25z" fill="none" stroke="#ffffff" stroke-linecap="round" stroke-linejoin="round" stroke-width="1.5"></path><path fill="none" stroke="#ffffff" stroke-linecap="round" stroke-linejoin="round" stroke-width="1.5" d="M8.28 12.3l-3.59-7.31-3.66 7.31"></path><path fill="none" stroke="#ffffff" stroke-linecap="round" stroke-linejoin="round" stroke-width="1.5" d="M15.66 12.3l3.59-7.31 3.66 7.31"></path><path fill="none" stroke="#ffffff" stroke-linecap="round" stroke-linejoin="round" stroke-width="1.5" d="M11.97 2.66a2.33 2.33 0 1 0 0 4.66 2.33 2.33 0 1 0 0-4.66z"></path><path fill="none" stroke="#ffffff" stroke-linecap="round" stroke-linejoin="round" stroke-width="1.5" d="M11.97 7.32v13.63"></path><path fill="none" stroke="#ffffff" stroke-linecap="round" stroke-linejoin="round" stroke-width="1.5" d="M17.62 20.95h-11.3"></path></g></svg>