<svg fill="none" stroke="currentColor" stroke-linecap="round" stroke-linejoin="round" stroke-width="1.5" viewBox="0 0 8 8"><path d="M.091.095h7.68v7.68H.091z"/><clipPath id="a"><path d="M.091.095h7.68v7.68H.091z"/></clipPath><g clip-path="url(#a)"><path d="M1.435.223h4.992c.742 0 1.344.601 1.344 1.344v4.736c0 .742-.602 1.344-1.344 1.344H1.435A1.344 1.344 0 0 1 .091 6.303V1.567C.091.824.692.223 1.435.223" style="fill:#00005b"/><path d="M6.603 3.205v2.01c0 .281.006.339.061.473.003.013.003.026-.007.029q-.019.01-.038.006h-.557a.05.05 0 0 1-.054-.032.5.5 0 0 1-.032-.153q-.27.249-.701.249-.855 0-.855-.963V3.205c-.003-.019.013-.038.032-.042h.57q.038 0 .038.042v1.578c0 .339.144.492.42.492.179 0 .361-.051.476-.182V3.205c-.003-.019.013-.038.032-.042h.564c.038.004.051.016.051.042m-3.335 1.69H2.123l-.295.854q-.005.043-.054.042h-.538q-.053-.002-.038-.052l1.037-3.081a.9.9 0 0 0 .041-.291c-.003-.016.01-.029.026-.032h.758q.034 0 .039.025L4.26 5.743q.017.048-.025.048h-.602a.06.06 0 0 1-.054-.032zm-1.017-.576h.893a62 62 0 0 1-.452-1.45h-.006z" style="fill:#99f"/></g></svg>