<svg fill="none" stroke="currentColor" stroke-linecap="round" stroke-linejoin="round" stroke-width="1.5" viewBox="0 0 24 24"><g stroke-miterlimit="10"><path stroke-linecap="square" d="m14 19 2.95 2.95a3.5 3.5 0 0 0 4.95.05l.051-.051h0A3.5 3.5 0 0 0 22 17l-.051-.051L20 15" data-color="color-2"/><path d="M11.491 8.866 4.203 1.578 1.661 4.12l7.118 7.118" data-cap="butt" data-color="color-2"/><path stroke-linecap="square" d="M22.678 4.922 19.6 7.987 16 4.411l3.08-3.066a4.2 4.2 0 0 0-2.259-.307 5.615 5.615 0 0 0-5.133 5.723A4.2 4.2 0 0 0 12 8.4l-9.855 8.683a3.42 3.42 0 0 0-.276 4.827q.035.04.071.078h0a3.286 3.286 0 0 0 4.647.1 3 3 0 0 0 .281-.3l8.726-9.81a6.7 6.7 0 0 0 2.875.2 5.69 5.69 0 0 0 4.311-3.986 5.1 5.1 0 0 0-.102-3.27Z"/></g></svg>