<svg fill="none" stroke="currentColor" stroke-linecap="round" stroke-linejoin="round" stroke-width="1.5" viewBox="0 0 33 32"><path d="M.031 0h32v32h-32z"/><path d="M85.79 11.715 196.603 0l110.812 11.715 85.791 115.166-196.603 228.942L0 126.881z" style="fill:rgb(253,179,0)" transform="translate(.031 1.521)scale(.08138)"/><path d="m79.634 0 116.969 228.942L0 0z" style="fill:rgb(234,108,0)" transform="translate(.031 11.847)scale(.08138)"/><path d="m276.236 0 116.969 228.942L196.602 0z" style="fill:rgb(234,108,0)" transform="matrix(-.08138 0 0 .08138 48.03 11.847)"/><path d="M79.634 0h233.938L196.603 228.942z" style="fill:rgb(253,173,0)" transform="translate(.031 11.847)scale(.08138)"/><path d="M196.603 0 85.79 11.715l-6.156 115.166z" style="fill:rgb(253,210,49)" transform="translate(.031 1.521)scale(.08138)"/><path d="M313.571 0 202.758 11.715l-6.156 115.166z" style="fill:rgb(253,210,49)" transform="matrix(-.08138 0 0 .08138 41.55 1.521)"/><path d="m307.415 126.881 85.791-115.166-6.157 115.166z" style="fill:rgb(253,173,0)" transform="matrix(-.08138 0 0 .08138 57.05 1.521)"/><path d="M0 126.881 85.79 11.715l-6.156 115.166z" style="fill:rgb(253,173,0)" transform="translate(.031 1.521)scale(.08138)"/><path d="M196.603 0 79.634 126.881h233.938z" style="fill:rgb(254,238,183)" transform="translate(.031 1.521)scale(.08138)"/></svg>