<svg fill="none" stroke="currentColor" stroke-linecap="round" stroke-linejoin="round" stroke-width="1.5" viewBox="0 0 8 8"><path d="M.109.092h7.68v7.68H.109z"/><clipPath id="a"><path d="M.109.092h7.68v7.68H.109z"/></clipPath><g clip-path="url(#a)"><path d="M1.468.188h4.963a1.366 1.366 0 0 1 1.358 1.358v4.772a1.367 1.367 0 0 1-1.358 1.359H1.468A1.367 1.367 0 0 1 .109 6.318V1.546A1.367 1.367 0 0 1 1.468.188" style="fill:#1e3101"/><path d="M1.067 2.121a.04.04 0 0 1 .035-.034h.906c.034 0 .052.017.052.034.017.087.052.192.087.314q.051.183.104.418.05.239.123.47.048.239.122.47.062.206.086.419c.035.122.052.226.069.313.018-.069.035-.174.07-.296s.07-.261.122-.4c.035-.157.087-.296.122-.471.035-.174.087-.313.122-.47s.087-.296.122-.435c.036-.14.07-.245.087-.331a.04.04 0 0 1 .035-.035h.871c.035 0 .035.017.035.035l.139 3.291v.035a.06.06 0 0 1-.035.018h-.662a.1.1 0 0 1-.017-.035V2.609c-.017.087-.052.192-.087.331s-.07.296-.122.47c-.035.174-.087.348-.139.54s-.105.366-.14.557c-.052.174-.087.349-.139.505-.035.157-.087.296-.104.418-.018.035-.035.035-.053.035h-.557c-.035 0-.052-.017-.052-.035a7 7 0 0 1-.105-.418c-.035-.157-.069-.313-.122-.488-.053-.176-.087-.349-.122-.523s-.087-.348-.122-.522q-.053-.262-.105-.471c-.035-.139-.052-.278-.087-.383v.923c0 .192-.017.383-.017.592s-.018.418-.018.645c0 .226-.015.436-.015.663 0 .034-.018.034-.035.034H.893a.02.02 0 0 1-.008-.017q0-.01.008-.017zm4.841 3.396a1.8 1.8 0 0 1-.696-.139 1.1 1.1 0 0 1-.489-.435 1.35 1.35 0 0 1-.174-.732 1.3 1.3 0 0 1 .174-.679 1.37 1.37 0 0 1 .505-.489c.246-.132.522-.198.801-.191h.175V1.843a.04.04 0 0 1 .035-.035H6.9a.04.04 0 0 1 .035.035v3.238a.7.7 0 0 0 .018.192c0 .017-.018.035-.035.052a3 3 0 0 1-.523.157q-.241.042-.487.035m.314-.644V3.462l-.087-.017H6.03a.85.85 0 0 0-.366.087.6.6 0 0 0-.261.244.7.7 0 0 0-.105.4.9.9 0 0 0 .053.331.7.7 0 0 0 .139.227q.09.087.209.122a.7.7 0 0 0 .261.035h.139a.3.3 0 0 0 .122-.018z" style="fill:#99e83f"/></g></svg>