<svg fill="none" stroke="currentColor" stroke-linecap="round" stroke-linejoin="round" stroke-width="1.5" viewBox="0 0 8 8"><path d="M.034.092h7.68v7.68H.034z"/><clipPath id="a"><path d="M.034.092h7.68v7.68H.034z"/></clipPath><g clip-path="url(#a)"><path d="M1.395.23h4.967c.742 0 1.352.611 1.352 1.353v4.699c0 .742-.61 1.353-1.352 1.353H1.387A1.36 1.36 0 0 1 .034 6.282l.001-.008V1.59l-.001-.007A1.36 1.36 0 0 1 1.387.23z" style="fill:#1e3101"/><path d="M1.86 5.397V2.159a.04.04 0 0 1 .034-.035h.999c.222 0 .443.034.654.104.162.052.309.14.431.258a.8.8 0 0 1 .224.362q.072.201.069.414c.015.238-.052.475-.19.671a1.1 1.1 0 0 1-.499.379 2 2 0 0 1-.706.121h-.293v.998c0 .018-.017.035-.034.052h-.638c-.034-.052-.051-.069-.051-.086m.706-2.669v1.05h.293q.184 0 .362-.052a.49.49 0 0 0 .362-.499.5.5 0 0 0-.069-.275.44.44 0 0 0-.224-.173.9.9 0 0 0-.362-.068h-.206a1 1 0 0 1-.156.017m3.581 2.203v.413a.1.1 0 0 1-.035.069l-.206.052q-.12.021-.242.017a1 1 0 0 1-.31-.052.42.42 0 0 1-.241-.172.6.6 0 0 1-.121-.293 2 2 0 0 1-.017-.327V3.503h-.293c-.035 0-.035-.017-.035-.052v-.5c0-.035.018-.035.052-.035h.293a1 1 0 0 1 .017-.206c0-.069.017-.156.017-.224a.8.8 0 0 0 .017-.19c0-.017.018-.017.018-.034q.001-.016.017-.017l.604-.069h.017a.06.06 0 0 1 .017.034c0 .086-.017.19-.017.31a3 3 0 0 1-.017.379h.465a.04.04 0 0 1 .034.034v.517a.06.06 0 0 1-.017.035h-.483v.964a.64.64 0 0 0 .052.362c.04.055.104.087.172.086h.189c.018 0 .035-.017.052 0-.017.017 0 .017 0 .035z" style="fill:#99e83f"/></g></svg>