<svg fill="none" stroke="currentColor" stroke-linecap="round" stroke-linejoin="round" stroke-width="1.5" viewBox="0 0 24 24"><path d="M0 0h24v24H0z"/><path d="M20 12v9.015a.985.985 0 0 1-.985.985h-4.03a.985.985 0 0 1-.985-.985v-4.03a1 1 0 0 0-.288-.697 1 1 0 0 0-.697-.288h-2.03a1 1 0 0 0-.697.288 1 1 0 0 0-.288.697v4.03a.985.985 0 0 1-.985.985h-4.03A.985.985 0 0 1 4 21.015V12M5.132 2c-.702 0-1.353.369-1.715.971L1 7v.007a3.007 3.007 0 0 0 2.992 2.992 3 3 0 0 0 2.675-1.652A2.98 2.98 0 0 0 9.334 10 2.98 2.98 0 0 0 12 8.347 2.98 2.98 0 0 0 14.666 10a2.98 2.98 0 0 0 2.667-1.653 3 3 0 0 0 2.675 1.652A3.007 3.007 0 0 0 23 7.007V7l-2.417-4.029A2 2 0 0 0 18.868 2z"/></svg>