<?xml version="1.0" encoding="UTF-8" standalone="no"?>
<!DOCTYPE svg PUBLIC "-//W3C//DTD SVG 1.1//EN" "http://www.w3.org/Graphics/SVG/1.1/DTD/svg11.dtd">
<svg width="100%" height="100%" viewBox="0 0 24 24" version="1.1" xmlns="http://www.w3.org/2000/svg" xmlns:xlink="http://www.w3.org/1999/xlink" xml:space="preserve" xmlns:serif="http://www.serif.com/" style="fill-rule:evenodd;clip-rule:evenodd;stroke-linejoin:round;stroke-miterlimit:2;">
    <g id="stall-cog" transform="matrix(1,0,0,1,-29.588871,0)">
        <g id="stall" transform="matrix(1,0,0,1,29.588871,0)">
            <rect x="0" y="0" width="24" height="24" style="fill:none;"/>
            <path d="M20,11.476L20,13.373" style="fill:none;stroke:white;stroke-width:1.5px;"/>
            <path d="M12.865,22L4.985,22C4.441,22 4,21.559 4,21.015L4,12" style="fill:none;stroke:white;stroke-width:1.5px;"/>
            <path d="M5.132,2C4.43,2 3.779,2.369 3.417,2.971C2.545,4.425 1,7 1,7L1,7.007C1,8.648 2.351,9.999 3.992,9.999C5.123,9.999 6.161,9.358 6.667,8.347C7.169,9.358 8.205,10 9.334,10C10.462,10 11.498,9.358 12,8.347C12.502,9.358 13.538,10 14.666,10C15.795,10 16.831,9.358 17.333,8.347C17.839,9.358 18.877,9.999 20.008,9.999C21.649,9.999 23,8.648 23,7.007L23,7C23,7 21.455,4.425 20.583,2.971C20.221,2.369 19.57,2 18.868,2L5.132,2Z" style="fill:none;fill-rule:nonzero;stroke:white;stroke-width:1.5px;"/>
        </g>
        <g transform="matrix(0.471438,0,0,0.471438,41.930871,12.3427)">
            <path d="M11.078,2.25C10.161,2.25 9.379,2.913 9.228,3.817L9.05,4.889C9.03,5.009 8.935,5.149 8.753,5.237C8.41,5.402 8.081,5.592 7.767,5.807C7.601,5.922 7.433,5.933 7.317,5.89L6.3,5.508C5.445,5.188 4.474,5.536 4.018,6.327L3.096,7.924C2.64,8.714 2.823,9.729 3.528,10.309L4.368,11.001C4.463,11.079 4.538,11.23 4.522,11.431C4.494,11.81 4.494,12.191 4.522,12.57C4.537,12.77 4.463,12.922 4.369,13L3.528,13.692C2.823,14.272 2.64,15.287 3.096,16.077L4.018,17.674C4.474,18.465 5.445,18.812 6.3,18.492L7.319,18.11C7.434,18.067 7.602,18.079 7.769,18.192C8.081,18.406 8.41,18.597 8.754,18.762C8.936,18.85 9.031,18.99 9.051,19.112L9.229,20.183C9.38,21.087 10.162,21.75 11.079,21.75L12.923,21.75C13.839,21.75 14.622,21.087 14.773,20.183L14.951,19.111C14.971,18.991 15.065,18.851 15.248,18.762C15.592,18.597 15.921,18.406 16.233,18.192C16.4,18.078 16.568,18.067 16.683,18.11L17.703,18.492C18.557,18.811 19.527,18.463 19.983,17.673L20.906,16.076C21.362,15.286 21.179,14.271 20.474,13.691L19.634,12.999C19.539,12.921 19.464,12.77 19.48,12.569C19.508,12.19 19.508,11.809 19.48,11.43C19.464,11.23 19.539,11.078 19.633,11L20.473,10.308C21.181,9.726 21.364,8.718 20.906,7.923L19.984,6.326C19.528,5.535 18.557,5.188 17.702,5.508L16.682,5.89C16.568,5.933 16.4,5.921 16.233,5.807C15.92,5.592 15.59,5.402 15.248,5.237C15.065,5.15 14.971,5.01 14.951,4.889L14.772,3.817C14.622,2.916 13.835,2.25 12.922,2.25L11.078,2.25ZM12,15.75C14.057,15.75 15.75,14.057 15.75,12C15.75,9.943 14.057,8.25 12,8.25C9.943,8.25 8.25,9.943 8.25,12C8.25,14.057 9.943,15.75 12,15.75Z" style="fill:white;"/>
        </g>
    </g>
</svg>
