<svg width="24" height="24" xmlns="http://www.w3.org/2000/svg" clip-rule="evenodd" viewBox="0 0 24 24"><title>status ready</title><g stroke-linejoin="round" class="nc-icon-wrapper" fill="#ffffff" stroke-linecap="round" fill-rule="evenodd"><path fill="none" fill-rule="nonzero" d="M0 0H24V24H0z"></path><path d="M10,20.777C9.13,20.58 8.294,20.253 7.52,19.808" fill="none" fill-rule="nonzero" stroke="#ffffff" stroke-width="1.5"></path><path d="M4.579,17.093C4.034,16.3 3.619,15.425 3.352,14.501" fill="none" fill-rule="nonzero" stroke="#ffffff" stroke-width="1.5"></path><path d="M3.124,10.5C3.284,9.55 3.592,8.65 4.024,7.825L4.193,7.52" fill="none" fill-rule="nonzero" stroke="#ffffff" stroke-width="1.5"></path><path d="M6.907,4.579C7.843,3.935 8.892,3.475 10,3.223" fill="none" fill-rule="nonzero" stroke="#ffffff" stroke-width="1.5"></path><g transform="matrix(1 0 0 -1 0 24)"><path d="M10,20.777C9.13,20.58 8.294,20.253 7.52,19.808" fill="none" fill-rule="nonzero" stroke="#ffffff" stroke-width="1.5" transform="matrix(-1 0 0 1 24.122 0)"></path><path d="M4.579,17.093C4.034,16.3 3.619,15.425 3.352,14.501" fill="none" fill-rule="nonzero" stroke="#ffffff" stroke-width="1.5" transform="matrix(-1 0 0 1 24.122 0)"></path><path d="M3.124,10.5C3.284,9.55 3.592,8.65 4.024,7.825L4.193,7.52" fill="none" fill-rule="nonzero" stroke="#ffffff" stroke-width="1.5" transform="matrix(-1 0 0 1 24.122 0)"></path><path d="M6.907,4.579C7.843,3.935 8.892,3.475 10,3.223" fill="none" fill-rule="nonzero" stroke="#ffffff" stroke-width="1.5" transform="matrix(-1 0 0 1 24.122 0)"></path></g></g></svg>