<svg fill="none" stroke="currentColor" stroke-linecap="round" stroke-linejoin="round" stroke-width="1.5" viewBox="0 0 8 8"><path d="M.202.138h7.68v7.68H.202z"/><clipPath id="a"><path d="M.202.138h7.68v7.68H.202z"/></clipPath><g clip-path="url(#a)"><path d="M7.882 1.674v4.608c0 .847-.688 1.536-1.536 1.536H1.738A1.537 1.537 0 0 1 .202 6.282V1.674C.202.826.89.138 1.738.138h4.608c.848 0 1.536.688 1.536 1.536"/><clipPath id="b"><path d="M7.882 1.674v4.608c0 .847-.688 1.536-1.536 1.536H1.738A1.537 1.537 0 0 1 .202 6.282V1.674C.202.826.89.138 1.738.138h4.608c.848 0 1.536.688 1.536 1.536"/></clipPath><g clip-path="url(#b)"><path d="M.202 1.691V.392c0-.14.114-.254.255-.254h7.17c.141 0 .255.114.255.254V4.82L4.251 1.233a.5.5 0 0 1 .085.156l.365 1.146.917 2.885q.07.155.128.399v1.999H.457a.255.255 0 0 1-.255-.255z" style="fill:#e35831"/><path d="M7.882 7.563V4.82L4.251 1.232q.046.048.085.158L4.7 2.535l.918 2.885q.07.155.128.399v1.999h1.881a.255.255 0 0 0 .255-.255" style="fill:#9e3226"/><path d="m4.336 1.389.365 1.146h-.396s-.101-1.105-.253-1.314c.056-.045.122-.061.186 0l.013.012a.5.5 0 0 1 .085.156" style="fill:#293641"/><path d="M4.305 2.535h-.737l.369-1.146a.4.4 0 0 1 .115-.168c.152.209.253 1.314.253 1.314" style="fill:#3d4b55"/><path d="m4.701 2.535.917 2.885c-.262-.582-.632-.273-.822.623l-.491-3.508z" style="fill:#998775"/><path d="m4.305 2.535.491 3.508c-.379-1.473-1.129-.933-1.347 0-.367-1.45-.691-.923-.845-.51l.964-2.998z" style="fill:#f7dbc1"/><path d="M5.746 5.822v1.996h-.95v-1.77c.19-.9.56-1.212.822-.627q.07.157.128.401" style="fill:#394659"/><path d="M4.796 6.048v1.77H3.449v-1.77c.218-.938.968-1.481 1.347 0" style="fill:#ba8984"/><path d="M3.449 6.048v1.77h-.94V5.844s.034-.142.093-.303l.002-.006c.154-.415.478-.945.845.513" style="fill:#f1b49d"/></g></g></svg>