<?xml version="1.0" encoding="UTF-8" standalone="no"?>
<!DOCTYPE svg PUBLIC "-//W3C//DTD SVG 1.1//EN" "http://www.w3.org/Graphics/SVG/1.1/DTD/svg11.dtd">
<svg width="100%" height="100%" viewBox="0 0 24 24" version="1.1" xmlns="http://www.w3.org/2000/svg" xmlns:xlink="http://www.w3.org/1999/xlink" xml:space="preserve" xmlns:serif="http://www.serif.com/" style="fill-rule:evenodd;clip-rule:evenodd;stroke-linecap:round;stroke-linejoin:round;">
    <g>
        <path d="M19.5,11.625C19.5,9.774 17.976,8.25 16.125,8.25L14.625,8.25C14.008,8.25 13.5,7.742 13.5,7.125L13.5,5.625C13.5,3.774 11.976,2.25 10.125,2.25L8.25,2.25M19.5,11.25C19.5,6.313 15.437,2.25 10.5,2.25L5.625,2.25C5.004,2.25 4.5,2.754 4.5,3.375L4.5,20.625C4.5,21.246 5.004,21.75 5.625,21.75L7.767,21.75" style="fill:none;fill-rule:nonzero;stroke:rgb(247,247,247);stroke-width:1.5px;"/>
        <g transform="matrix(0.663899,0,0,0.663899,7.43684,9.86878)">
            <path d="M2.036,12.322C1.967,12.115 1.967,11.89 2.036,11.683C3.423,7.51 7.36,4.5 12,4.5C16.638,4.5 20.573,7.507 21.963,11.678C22.033,11.885 22.033,12.109 21.963,12.317C20.577,16.49 16.64,19.5 12,19.5C7.362,19.5 3.427,16.493 2.037,12.322L2.036,12.322Z" style="fill:none;fill-rule:nonzero;stroke:rgb(247,247,247);stroke-width:2.26px;"/>
        </g>
        <g transform="matrix(0.663899,0,0,0.663899,7.43684,9.86878)">
            <path d="M15,12C15,13.646 13.646,15 12,15C10.354,15 9,13.646 9,12C9,10.354 10.354,9 12,9C13.646,9 15,10.354 15,12Z" style="fill:none;fill-rule:nonzero;stroke:rgb(247,247,247);stroke-width:2.26px;"/>
        </g>
    </g>
</svg>
