<svg fill="none" stroke="currentColor" stroke-linecap="round" stroke-linejoin="round" stroke-width="1.5" viewBox="0 0 24 24"><g fill="currentColor"><path stroke-linecap="square" stroke-miterlimit="10" d="M13 6V2.773A1.773 1.773 0 0 0 11.227 1H2.773A1.773 1.773 0 0 0 1 2.773v7.454A1.773 1.773 0 0 0 2.773 12H3v2l3-2h2" data-color="color-2"/><path stroke-linecap="square" stroke-miterlimit="10" d="M21.286 9h-8.572A1.777 1.777 0 0 0 11 10.833v7.334A1.777 1.777 0 0 0 12.714 20H18l3 2v-2h.286A1.777 1.777 0 0 0 23 18.167v-7.334A1.777 1.777 0 0 0 21.286 9Z"/><path d="M10.287 5.113a10 10 0 0 0-1-.042 5.5 5.5 0 0 1-.476 1.352 5.2 5.2 0 0 1-.777 1.134 6.7 6.7 0 0 0 2.4.848 4.5 4.5 0 0 0-.693 1.288 8.6 8.6 0 0 1-2.662-1.275 9 9 0 0 1-2.787 1.29 4.1 4.1 0 0 0-.673-1.24 7.6 7.6 0 0 0 2.486-.918 6 6 0 0 1-.9-1.281 6.2 6.2 0 0 1-.483-1.2c-.413 0-.652.014-1 .042V3.845a9 9 0 0 0 1.016.049H6.28v-.42a2 2 0 0 0-.042-.434h1.408a2 2 0 0 0-.042.427v.427h1.667a9 9 0 0 0 1.016-.049Zm-4.224-.042a4 4 0 0 0 .981 1.7 3.96 3.96 0 0 0 .875-1.7Z" data-cap="butt" data-color="color-2" data-stroke="none"/><path d="m18.369 17.451-.317-1.2h-2.087l-.325 1.2h-1.907L15.829 11h2.316l2.122 6.451Zm-.677-2.628-.277-1.054q-.1-.352-.235-.91t-.182-.8c-.027.149-.079.4-.156.738s-.25 1.018-.517 2.026Z" data-cap="butt" data-stroke="none"/></g></svg>