<svg fill="none" stroke="currentColor" stroke-linecap="round" stroke-linejoin="round" stroke-width="1.5" viewBox="0 0 24 24"><path d="M19.228 5.79q.512.078 1.022.166m-1.022-.165L18.16 19.673a2.26 2.26 0 0 1-2.244 2.077H8.084a2.26 2.26 0 0 1-2.244-2.077L4.772 5.79m14.456 0a48 48 0 0 0-3.478-.397m-12 .562q.51-.088 1.022-.165m0 0a48 48 0 0 1 3.478-.397m7.5 0v-.916c0-1.18-.91-2.164-2.09-2.201a53 53 0 0 0-3.32 0c-1.18.037-2.09 1.022-2.09 2.201v.916m7.5 0a49 49 0 0 0-7.5 0m5.871 5.554L9.878 15.19m4.243 0-4.243-4.243"/></svg>