<svg fill="none" stroke="currentColor" stroke-linecap="round" stroke-linejoin="round" stroke-width="1.5" viewBox="0 0 24 24"><path d="M0 0h24v24H0z"/><path d="M8.775 20.157s.011.014-1.099-.473a9 9 0 0 1-1.606-.908 9 9 0 0 1-3.514-5.085m5.425 3.885q-.235-.503-.43-1.075c-.491-1.442-.779-3.185-.779-5.063 0-4.97 2.015-9 4.5-9m0 0a9.01 9.01 0 0 1 7.843 4.582m-7.843-4.582A9.01 9.01 0 0 0 3.429 7.02m15.686 0a11.96 11.96 0 0 1-7.843 2.918c-2.998 0-5.74-1.1-7.843-2.918m15.686 0q.143.254.269.515c.244.507.702 1.813.702 1.813M9.169 15.816a17.9 17.9 0 0 1-6.613-2.125m0 0a9 9 0 0 1-.284-2.253c0-1.605.42-3.113 1.157-4.418"/><path d="M15.626 9.153c-.506-3.864-2.264-6.715-4.354-6.715m5.731 12.792v3.64m1.82-1.82h-3.64m7.279 0c0 2.994-2.465 5.459-5.459 5.459s-5.459-2.465-5.459-5.459 2.465-5.459 5.459-5.459 5.459 2.465 5.459 5.459"/></svg>