<svg fill="none" stroke="currentColor" stroke-linecap="round" stroke-linejoin="round" stroke-width="1.5" viewBox="0 0 24 24"><g fill-rule="evenodd"><path d="M8.775 20.157s.011.014-1.099-.473a9 9 0 0 1-1.606-.908 9 9 0 0 1-3.514-5.085m5.425 3.885q-.234-.503-.43-1.075c-.491-1.442-.779-3.185-.779-5.063 0-4.97 2.015-9 4.5-9m0 0a9.01 9.01 0 0 1 7.843 4.582m-7.843-4.582A9.01 9.01 0 0 0 3.429 7.02m15.686 0a11.96 11.96 0 0 1-7.843 2.918c-2.998 0-5.74-1.1-7.843-2.918m15.686 0q.143.254.269.515c.244.507.702 1.813.702 1.813m-9.17 6.637s-1.057-.088-1.747-.169a17.9 17.9 0 0 1-6.613-2.125m0 0a9 9 0 0 1-.284-2.253c0-1.605.42-3.113 1.157-4.418"/><path d="M15.832 11.393s-.072-.711-.095-1.079a17 17 0 0 0-.111-1.161c-.506-3.864-2.264-6.715-4.354-6.715M18.125 15.5a2.64 2.64 0 0 1 .728 4.245l-2.637 2.637a2.64 2.64 0 0 1-1.865.772 2.65 2.65 0 0 1-2.637-2.636c0-.7.278-1.37.773-1.865l1.03-1.03m7.822-.364 1.03-1.03a2.64 2.64 0 0 0 .771-1.864 2.65 2.65 0 0 0-2.636-2.637c-.7 0-1.37.278-1.865.773l-2.637 2.636a2.64 2.64 0 0 0 .728 4.245"/></g></svg>