<?xml version="1.0" encoding="UTF-8" standalone="no"?>
<!DOCTYPE svg PUBLIC "-//W3C//DTD SVG 1.1//EN" "http://www.w3.org/Graphics/SVG/1.1/DTD/svg11.dtd">
<svg width="100%" height="100%" viewBox="0 0 24 24" version="1.1" xmlns="http://www.w3.org/2000/svg" xmlns:xlink="http://www.w3.org/1999/xlink" xml:space="preserve" xmlns:serif="http://www.serif.com/" style="fill-rule:evenodd;clip-rule:evenodd;stroke-linecap:round;stroke-linejoin:round;">
    <g>
        <path d="M21,5.25L21,15C21,16.234 19.984,17.25 18.75,17.25L5.25,17.25C4.016,17.25 3,16.234 3,15L3,5.25M21,5.25C21,4.016 19.984,3 18.75,3L5.25,3C4.016,3 3,4.016 3,5.25M21,5.25L21,12C21,13.234 19.984,14.25 18.75,14.25L5.25,14.25C4.016,14.25 3,13.234 3,12L3,5.25" style="fill:none;fill-rule:nonzero;stroke:rgb(247,247,247);stroke-width:1.5px;"/>
        <path d="M10.82,17.25L10.82,18.257C10.82,20.255 7.5,21 7.5,21L16.5,21C16.5,21 13.18,20.288 13.18,18.257L13.18,17.25" style="fill:none;fill-rule:nonzero;stroke:rgb(247,247,247);stroke-width:1.5px;"/>
    </g>
</svg>
