<svg fill="none" stroke="currentColor" stroke-linecap="round" stroke-linejoin="round" stroke-width="1.5" viewBox="0 0 8 8"><path d="M.125.138h7.68v7.68H.125z"/><clipPath id="a"><path d="M.125.138h7.68v7.68H.125z"/></clipPath><g clip-path="url(#a)"><path d="M1.988 1.547s.672 1.544 2.028 1.508C6.858 2.981 7.364 1.301 7.671.916 8.945 10.482.702 6.363.931 4.859c1.462-.449.941-.617.941-.617z"/><path d="M5.321 5.067s.182.159.289.304c-.405.328-1.097.593-2.456.308.686.254 1.264.37 1.71.341a3.8 3.8 0 0 1-1.052.186c.981.095 1.712-.096 1.97-.497.068.076.134.208.198.377.044-.289.149-.428-.018-.654s-.641-.365-.641-.365M.492 3.651c.391-.296 1.031-.068 1.428.51s.402 1.287.011 1.583S.9 5.811.503 5.234C.106 4.656.101 3.947.492 3.651"/><ellipse cx=".8" cy="4.241" rx=".356" ry=".449"/><ellipse cx="2.832" cy="3.904" rx=".803" ry=".874" style="stroke:#000"/><path d="M3.047 3.567c-.293 0-.534.253-.534.561s.241.56.534.56a.55.55 0 0 0 .535-.56.55.55 0 0 0-.535-.561m-.201.154c.116 0 .211.1.211.221a.217.217 0 0 1-.211.222.217.217 0 0 1-.211-.222c0-.121.095-.221.211-.221"/><ellipse cx="4.599" cy="4.088" rx=".963" ry="1.01" style="stroke:#000"/><path d="M4.835 3.506c-.375 0-.684.324-.684.718s.309.718.684.718.685-.324.685-.718-.309-.718-.685-.718m-.189.145a.33.33 0 0 1 .32.337.33.33 0 0 1-.32.336.33.33 0 0 1-.321-.336.33.33 0 0 1 .321-.337"/></g></svg>