<svg fill="none" stroke="currentColor" stroke-linecap="round" stroke-linejoin="round" stroke-width="1.5" viewBox="0 0 8 8"><path d="M.056.03h7.68v7.68H.056z"/><clipPath id="a"><path d="M.056.03h7.68v7.68H.056z"/></clipPath><g clip-path="url(#a)"><path d="M7.736 1.566v4.608c0 .848-.689 1.536-1.536 1.536H1.592A1.536 1.536 0 0 1 .056 6.174V1.566C.056.718.744.03 1.592.03H6.2c.847 0 1.536.688 1.536 1.536"/><path d="m6.388 4.249-.423.423.187-.311-.834.436.56-.498-1.281.237 1.032-.461-1.642-.199 1.642-.199-1.032-.46 1.281.236-.56-.498.834.436-.187-.311.423.423c.212.186.212.535 0 .746m.274-1.144L4.211.653l1.02 1.693-2.476-1.295 1.891 1.68-3.247-.585 2.787 1.257-3.77.461 3.77.46-2.787 1.269 3.247-.597-1.891 1.68 2.476-1.294-1.02 1.704 2.451-2.451a1.08 1.08 0 0 0 0-1.53" style="fill:#ffce00"/></g></svg>