<svg fill="none" stroke="currentColor" stroke-linecap="round" stroke-linejoin="round" stroke-width="1.5" viewBox="0 0 8 8"><path d="M.087 0h7.68v7.68H.087z"/><path d="M4.027 1.36q-.041-.21.104-.435.172-.27.405-.3.301-.033.56.315.24.326.214.606-.004.169-.497.204-.384.031-.562-.079a.45.45 0 0 1-.224-.311m3.548 5.663q-.027.057-.191-.015a3.4 3.4 0 0 1-.624-.407q-.386-.306-.448-.481a.2.2 0 0 1 .011-.11l.048-.13q.05-.179-.13-.358a1 1 0 0 0-.234-.168q-.338-.18-.982-.303a8 8 0 0 0-1.275-.143l-.492.026q-.194.225-.374.42a5.1 5.1 0 0 1-1.438 1.094q-.758.372-1.143.209-.049-.034-.033-.115L.316 6.4q.265-.573.858-1.046.051-.042.102-.079.47-.349 1.267-.728.524-.226.86-.298l.212-.293q.127-.156.262-.297.285-.311.593-.568.026-.012.01-.03a8 8 0 0 1-.506-.329 3.5 3.5 0 0 0-.466-.28q-.526-.237-1.079.138-.334.22-.354.488l-.013.219q.019.091-.585.306-.11.035-.186.056-.134.027-.181.005l-.01-.005-.028-.018q-.053-.106.501-.736l.078-.083v-.001l.001-.001q1.003-1.055 2.362-.813.374.066 1.24.455.096-.096.323-.226.288-.166.468-.171.393-.004.497.303.061.188-.278.527-.35.358-.664.45-.394.118-.85-.132a3.3 3.3 0 0 0-.453.446l-.023.025-.392.468-.005.033.27-.01q.289.007.59.102.82.264 1.374.649.265.187.507.428.25.252.476.562.197.275.338.555.2.39.143.552M5.569 2.564q.072.058.349.046.308-.01.425-.127.058-.058-.005-.112-.072-.064-.265-.036a1.4 1.4 0 0 0-.354.115q-.187.087-.15.114M2.793 5.002l-.059-.007a5 5 0 0 0-.489.122 4.5 4.5 0 0 0-.992.463q-.597.386-.547.748l.038.044q.156.102.616-.161a5.3 5.3 0 0 0 1.433-1.209"/><path d="M4.244 3.09a9 9 0 0 1-.354-.236 3.3 3.3 0 0 0-.443-.267c-.305-.137-.616-.091-.936.125v.001c-.174.115-.279.236-.289.375l-.012.205a.2.2 0 0 1-.056.145c-.063.069-.27.177-.628.304l-.005.002q-.115.037-.194.058l-.007.001c-.136.028-.23.016-.276-.007l-.009-.005-.015-.008-.027-.017.079.023-.132-.082c-.023-.046-.033-.129.022-.242q.095-.194.5-.657l.001-.001.08-.087.002-.002q1.06-1.112 2.494-.857.366.064 1.189.428.104-.082.275-.181c.219-.126.402-.188.539-.19h.002c.34-.004.548.136.638.403v.001a.4.4 0 0 1-.018.275 1.3 1.3 0 0 1-.295.402q-.385.39-.727.488-.408.123-.874-.098-.166.142-.36.366l-.006.008-.015.016-.003.003-.206.246q.296.011.604.108.844.272 1.414.669l.001.001q.275.194.525.443l.001.001q.258.26.49.579l.001.001q.205.285.35.574.13.258.161.426a.5.5 0 0 1-.011.242l-.005.014a.2.2 0 0 1-.124.103c-.05.013-.139.008-.261-.046l-.004-.002a3.6 3.6 0 0 1-.651-.424c-.289-.229-.45-.417-.496-.549l-.003-.01a.33.33 0 0 1 .014-.199l.046-.125c.016-.071-.022-.137-.093-.208a1 1 0 0 0-.2-.142q-.325-.172-.94-.288a8 8 0 0 0-1.246-.14l-.422.022q-.174.2-.336.376l-.002.002a9 9 0 0 1-.303.303l-.003.003q-.6.536-1.173.819h-.001c-.559.273-.982.333-1.265.212l-.027-.015C.142 6.725.101 6.64.125 6.515l.005-.018.045-.143.007-.016q.277-.601.898-1.099.053-.043.106-.081l.002-.002a8 8 0 0 1 1.292-.743l.005-.002q.497-.213.831-.294l.179-.247.005-.006q.13-.161.269-.306.23-.25.475-.468m3.331 3.933q.057-.163-.143-.552a4 4 0 0 0-.338-.555 5 5 0 0 0-.476-.562 4 4 0 0 0-.507-.428q-.554-.385-1.374-.649a2.1 2.1 0 0 0-.59-.102l-.27.01.005-.033.392-.468q.01-.013.023-.025.249-.288.453-.446.456.25.85.132.313-.091.664-.45.34-.34.278-.527-.104-.308-.497-.303-.18.005-.468.171-.227.13-.323.226-.866-.39-1.24-.455-1.36-.242-2.362.813l-.001.001v.001l-.078.083q-.554.63-.501.736l.028.018.01.005q.047.021.181-.005.076-.021.186-.056.604-.214.585-.306l.013-.219q.02-.267.354-.488.553-.375 1.079-.138.168.077.466.28.348.24.506.329.016.018-.01.03a6 6 0 0 0-.593.568 5 5 0 0 0-.262.297l-.212.293a5 5 0 0 0-.86.298q-.798.379-1.267.728-.051.037-.102.079Q.581 5.827.316 6.4l-.046.142q-.016.08.033.115.385.162 1.143-.209a5.1 5.1 0 0 0 1.438-1.094q.18-.195.374-.42l.492-.026q.606.016 1.275.143.644.122.982.303.146.08.234.168.18.179.13.358l-.048.13a.2.2 0 0 0-.011.11q.062.175.448.481.346.274.624.407.164.072.191.015M5.569 2.564q-.037-.027.15-.114.191-.088.354-.115.192-.028.265.036.063.054.005.112-.117.117-.425.127-.277.011-.349-.046M.889 6.399a.15.15 0 0 0-.013-.093.1.1 0 0 1-.002.094.2.2 0 0 1-.13-.028l-.038-.044q-.05-.362.547-.748a4.5 4.5 0 0 1 .992-.463 5 5 0 0 1 .489-.122l.059.007q-.154.184-.319.352a5.3 5.3 0 0 1-1.114.857q-.3.173-.471.188m1.501-1.17-.1.029a4 4 0 0 0-.567.228l-.002.001a3 3 0 0 0-.387.217h-.001q-.27.175-.396.343a.4.4 0 0 0-.087.209.3.3 0 0 0 .089-.016 1.5 1.5 0 0 0 .347-.157 5.2 5.2 0 0 0 1.083-.833zM1.093 3.807h-.002l.019.004zm2.789-2.418q-.054-.262.125-.543c.143-.226.316-.342.51-.368h.002c.247-.028.483.09.695.374h.001c.185.251.261.489.242.704-.004.088-.049.17-.154.231-.093.054-.251.094-.479.11-.297.024-.51-.014-.649-.099a.59.59 0 0 1-.293-.409m.145-.029a.45.45 0 0 0 .224.311q.178.11.562.079.493-.035.497-.204.026-.28-.214-.606-.259-.348-.56-.315-.232.03-.405.3-.145.225-.104.435"/></svg>