<svg fill="none" stroke="currentColor" stroke-linecap="round" stroke-linejoin="round" stroke-width="1.5" viewBox="0 0 8 8"><path d="M.157.138h7.68v7.68H.157z"/><clipPath id="a"><path d="M.157.138h7.68v7.68H.157z"/></clipPath><g clip-path="url(#a)"><path d="M3.38.303a1.23 1.23 0 0 1 1.234 0l2.257 1.303c.381.22.617.628.617 1.068v2.607c0 .44-.236.848-.617 1.068L4.614 7.652a1.23 1.23 0 0 1-1.234 0L1.123 6.349a1.23 1.23 0 0 1-.617-1.068V2.674c0-.44.235-.848.617-1.068z"/><clipPath id="b"><path d="M3.38.303a1.23 1.23 0 0 1 1.234 0l2.257 1.303c.381.22.617.628.617 1.068v2.607c0 .44-.236.848-.617 1.068L4.614 7.652a1.23 1.23 0 0 1-1.234 0L1.123 6.349a1.23 1.23 0 0 1-.617-1.068V2.674c0-.44.235-.848.617-1.068z"/></clipPath><g clip-path="url(#b)"><path d="M6.352 3.851a.33.33 0 0 0 .132-.262v-.891a.09.09 0 0 0-.045-.078.09.09 0 0 0-.091 0L4.09 3.923a.18.18 0 0 1-.187 0L1.645 2.62l-.016-.008-.202-.116a.612.612 0 0 0-.921.531v-.353c0-.44.235-.848.617-1.068L3.38.303a1.23 1.23 0 0 1 1.234 0l2.257 1.303c.304.176.515.47.588.806a.2.2 0 0 1 .015.062q.008.069.012.13l.002.07v.076l-.002.001c-.025.427-.273.605-.593.79l-.573.331.008-.006-.006.004-.179.103.194-.112z" style="fill:url(#c)"/></g><path d="M3.38.303a1.23 1.23 0 0 1 1.234 0l2.257 1.303c.381.22.617.628.617 1.068v2.607c0 .44-.236.848-.617 1.068L4.614 7.652a1.23 1.23 0 0 1-1.234 0L1.123 6.349a1.23 1.23 0 0 1-.617-1.068V2.674c0-.44.235-.848.617-1.068zm2.969 4.992a.27.27 0 0 0 .135-.235v-.698a.09.09 0 0 0-.043-.075.09.09 0 0 0-.087 0l-1.087.628a.27.27 0 0 0-.135.234v.699c0 .03.017.059.043.074.027.016.06.016.087 0zM1.645 2.62a.09.09 0 0 0-.136.078v.891c0 .116.062.223.163.281l2.231 1.288a.18.18 0 0 0 .187 0L6.322 3.87a.33.33 0 0 0 .162-.281v-.891a.09.09 0 0 0-.045-.078.09.09 0 0 0-.091 0L4.09 3.923a.18.18 0 0 1-.187 0zm1.087 3.302c.027.016.06.016.086 0a.09.09 0 0 0 .044-.074v-.699a.27.27 0 0 0-.136-.234l-1.087-.628a.087.087 0 0 0-.13.075v.698c0 .097.052.186.136.235z" style="fill:url(#d)"/><clipPath id="e"><path d="M3.38.303a1.23 1.23 0 0 1 1.234 0l2.257 1.303c.381.22.617.628.617 1.068v2.607c0 .44-.236.848-.617 1.068L4.614 7.652a1.23 1.23 0 0 1-1.234 0L1.123 6.349a1.23 1.23 0 0 1-.617-1.068V2.674c0-.44.235-.848.617-1.068zm2.969 4.992a.27.27 0 0 0 .135-.235v-.698a.09.09 0 0 0-.043-.075.09.09 0 0 0-.087 0l-1.087.628a.27.27 0 0 0-.135.234v.699c0 .03.017.059.043.074.027.016.06.016.087 0zM1.645 2.62a.09.09 0 0 0-.136.078v.891c0 .116.062.223.163.281l2.231 1.288a.18.18 0 0 0 .187 0L6.322 3.87a.33.33 0 0 0 .162-.281v-.891a.09.09 0 0 0-.045-.078.09.09 0 0 0-.091 0L4.09 3.923a.18.18 0 0 1-.187 0zm1.087 3.302c.027.016.06.016.086 0a.09.09 0 0 0 .044-.074v-.699a.27.27 0 0 0-.136-.234l-1.087-.628a.087.087 0 0 0-.13.075v.698c0 .097.052.186.136.235z"/></clipPath><g clip-path="url(#e)"><path d="M6.352 3.851a.33.33 0 0 0 .132-.262v-.891a.09.09 0 0 0-.045-.078.09.09 0 0 0-.091 0L4.09 3.923a.18.18 0 0 1-.187 0L1.645 2.62l-.016-.008-.202-.116a.612.612 0 0 0-.921.531v-.353c0-.44.235-.848.617-1.068L3.38.303a1.23 1.23 0 0 1 1.234 0l2.257 1.303c.304.176.515.47.588.806a.2.2 0 0 1 .015.062q.008.069.012.13l.002.07v.076l-.002.001c-.025.427-.273.605-.593.79l-.573.331.008-.006-.006.004-.179.103.194-.112z" style="fill:url(#f)"/></g></g><defs><linearGradient id="c" x1="0" x2="1" y1="0" y2="0" gradientTransform="translate(.518 2.379)scale(6.94822)" gradientUnits="userSpaceOnUse"><stop offset="0" style="stop-color:#edac1f;stop-opacity:1"/><stop offset="1" style="stop-color:#e74e08;stop-opacity:1"/></linearGradient><linearGradient id="d" x1="0" x2="1" y1="0" y2="0" gradientTransform="rotate(180 3.747 2.02)scale(6.95729)" gradientUnits="userSpaceOnUse"><stop offset="0" style="stop-color:#eeb01f;stop-opacity:1"/><stop offset="1" style="stop-color:#e74e08;stop-opacity:1"/></linearGradient><linearGradient id="f" x1="0" x2="1" y1="0" y2="0" gradientTransform="translate(.518 2.379)scale(6.94822)" gradientUnits="userSpaceOnUse"><stop offset="0" style="stop-color:#edac1f;stop-opacity:1"/><stop offset="1" style="stop-color:#e74e08;stop-opacity:1"/></linearGradient></defs></svg>